<svg id="Layer_1" data-name="Layer 1" xmlns="http://www.w3.org/2000/svg" viewBox="0 0 1139.43 1137.2">
  <defs>
    <style>
      .cls-1 {
        fill: #fff;
      }
    </style>
  </defs>
  <title>BOJCC Logo - White</title>
  <path class="cls-1" d="M1164.53,950.24l-.55.34-.18,0,0-.44-1.08.45s-3.23,1.33-4.24-.56a22.07,22.07,0,0,0-3.17-4.56c-2-2.18-5.3-3.3-9-3.1a17.11,17.11,0,0,0-4.49,1.16l-.16.06-.23.07a9.47,9.47,0,0,0,1.58-2.4,10.78,10.78,0,0,0,.43-5.51,26.74,26.74,0,0,0-1.78-4.95l-.73-1.48-.07.16-.43-1.08.23,1.56-.11.26-.22-.23,0,.66-.08.19a28.65,28.65,0,0,0-1.1,3.17,4.76,4.76,0,0,1-1.9,2.18l-.1.08a3.59,3.59,0,0,1-1.52.56,5.17,5.17,0,0,0-2,.74,16.54,16.54,0,0,0-2.08,2,8,8,0,0,1,.64-1.54,11.36,11.36,0,0,1,2.45-2.35c1.91-1.54,4.07-3.29,4-5.43a14.43,14.43,0,0,0-.58-5.75,10.37,10.37,0,0,0-1.36-2.26,8.17,8.17,0,0,1-1.28-2.2,15.2,15.2,0,0,1,.28-5.11l.4-2-.66.5.29-2-1.27,2.72c-.45.35-3.29,2.6-4.18,4.8a9.56,9.56,0,0,0-.47,3.33,8.3,8.3,0,0,1-.44,3,7.47,7.47,0,0,1-2.48,2.25,16.93,16.93,0,0,0,1.23-4,11.41,11.41,0,0,0-.77-4.37,9.83,9.83,0,0,1-.7-4c.25-1.47,2.31-3.55,3.08-4.22l1.74-1.53.1-.06h0l-.71.08,1.18-1.18-2.42,1.32-.45.06c-.24,0-6,.72-8.77,3-1.7,1.38-2.07,3-2.51,4.87l-.14.6a17.92,17.92,0,0,0-.41,3.28,14.69,14.69,0,0,1-.51,3.46,8,8,0,0,1-1.53,2.32c-1.15-1.73-2.14-3.24-2.9-4.45A56.87,56.87,0,0,1,1105,902.2a38.26,38.26,0,0,1,0-14.24c.9-4.47,5.39-12.77,5.44-12.85l.08-.15v-.16c0-.07,0-.14,0-.2a28,28,0,0,1,6.25-3.93,19.54,19.54,0,0,1,4.73-.94,24.26,24.26,0,0,0,4.47-.82,17.48,17.48,0,0,0,7.35-5.36,19.21,19.21,0,0,0,1.9-3,20.42,20.42,0,0,1,1.52-2.53c1.25-1.67,5.27-2.1,6.72-2.13l2.56,0-2.64-1.63a14,14,0,0,0-4.9-2.23,16.37,16.37,0,0,0,4.41-4.53,12.93,12.93,0,0,0,.93-4.49,14.15,14.15,0,0,1,.57-3.37,6.76,6.76,0,0,1,3.47-3.23l2.3-.92-1.18-.25,1.25-1.24-2.28,1h0v-.1h-.51a14.22,14.22,0,0,0-6.14.16,18.16,18.16,0,0,0,2.12-3.5,10.41,10.41,0,0,0,.6-2.84,7.6,7.6,0,0,1,.66-2.7,7.7,7.7,0,0,1,2-2.45,9.41,9.41,0,0,0,2.16-2.55l.14-.14.88-.86h-.52a31.22,31.22,0,0,0,1.7-5.11l.57-2.43-6.44,6.1a7.94,7.94,0,0,1-2.5,1.07c-.46.14-.89.28-1.23.41-.61.25-1.23.47-1.86.69a15.7,15.7,0,0,0-5.34,2.68c-2.41,2.12-3.87,5.05-5.28,7.89a30.16,30.16,0,0,1-3.8,6.3,53.68,53.68,0,0,1-8.65,7.93c-1.42,1.07-2.94,2.12-4.41,3.13-3.87,2.66-7.87,5.42-10.82,9.17-3.77,4.82-7.5,10.52-8,17.21l-.15.07-.08.37c-.06.32-1.59,7.91-1.35,12.88a85.68,85.68,0,0,0,3.11,18.32,132.74,132.74,0,0,0,6.13,15.71c3.45,8,9.08,16.78,14.53,25.31,4.61,7.21,9,14,12.06,20.31a69,69,0,0,1,5.24,13.79c1.27,5,2.53,10.67,1.45,15.92-.47,2.24-2.07,5.19-4.23,6.48a11.83,11.83,0,0,1-10.61.77c-4.22-2.05-6.83-7.27-9.12-11.87-.34-.67-.67-1.33-1-2a72.82,72.82,0,0,1-4.07-10.79c-.42-1.33-.86-2.68-1.31-4l.52-1,.72.08.62,0a4,4,0,0,0,4.27-3.59l1-9.86a3.65,3.65,0,0,0-1-3.08,5,5,0,0,0-3-1.34l-.37,0-1.4-6.41a4.81,4.81,0,0,0,2.08-2.54,3.8,3.8,0,0,0-.42-3.25l-5.23-8.42c-1.24-2-3.67-2.4-5.92-1l-.06,0-3.44-3.5a4.7,4.7,0,0,0,.63-2.63,3.79,3.79,0,0,0-1.66-2.83l-8.08-5.74a3.73,3.73,0,0,0-3.94-.31,186.5,186.5,0,0,1-7.24-30.27,8.77,8.77,0,0,0,2.94,1.61,10.63,10.63,0,0,0,3.08.41,10.25,10.25,0,0,0,2.68-.33,10.83,10.83,0,0,0,4.19-2.32l.05,0,2.15-1.07-1.17.1.47-.45-2.09.18c-.91.08-3.5,0-4.48-1.11a2.51,2.51,0,0,1-.69-2.47,8.69,8.69,0,0,1,.47-1.11,5.75,5.75,0,0,0,.8-3.79,13.07,13.07,0,0,0-5.08-8.19,5.15,5.15,0,0,1-1.38-2.63l1.29-.37h2.27l1-1.92,1.7-1.45-.3-.19,3.36-1.81a3,3,0,0,0,1.71.55,3,3,0,0,0,2.34-1.1,3,3,0,0,0,.7-2l4.78-2.57h0l.49-.25,1.54-.58-.09-.15.11,0h0l-.32-.53a28.25,28.25,0,0,0-5.2-6.09l-.55-.51v0h0l-.44,1.17-.09.25c.3-1.67.5-3.26.63-4.47a10.79,10.79,0,0,0,2.14,2.48c1.59,1.22,6,1.49,6.51,1.51l2.35.13L1098,850a9.42,9.42,0,0,1-1-.94l-.76-.91a2.57,2.57,0,0,1-.69-2.25,2.73,2.73,0,0,1,1.14-1.27h0l1.14-.6c.34-.14.69-.29,1.07-.43a19.78,19.78,0,0,0,2.27-1,12.43,12.43,0,0,0,5.21-5.93c.73-1.71.69-6.24.35-8.48a20.43,20.43,0,0,0-1.68-5.57,25.29,25.29,0,0,1,3.44,4.11c.54.76,1.11,1.53,1.68,2.24,1.64,2,5,2.2,5.63,2.21l1.55,1.89-.67-1.88,2.81.51-2.85-1.44,0-.12c-.46-1.14-1.66-4.44-1.66-6a48.74,48.74,0,0,1,.25-4.92,1.5,1.5,0,0,0,0-.22c0-.35.07-.7.09-1.06a12.36,12.36,0,0,0-.51-5.14,20.47,20.47,0,0,0-5.28-8.14,10.93,10.93,0,0,1,2.65.34,13,13,0,0,1,2.38,1.5,13.35,13.35,0,0,0,3,1.81,6,6,0,0,0,3.08.12h.52l-.13-.08a9.08,9.08,0,0,0,1.55-.54l.22-.11,1.24.18-.61-.49.15-.08-.84-.74a17.49,17.49,0,0,1-3.38-3.82,13.92,13.92,0,0,1-.84-3.08,13.42,13.42,0,0,0-1.2-3.92c-1.71-3-6-5.5-8.43-6.78a9.69,9.69,0,0,1,3.78-.23,18.77,18.77,0,0,1,3.35,1.72,20.65,20.65,0,0,0,2.92,1.55,11.81,11.81,0,0,0,5.74,0l.19.07,1.38.46-.53-.79.83-.22-1.32-.93a10.92,10.92,0,0,1-5.11-6.8c-.34-.79-.67-1.58-1-2.3a23.23,23.23,0,0,0-4.64-6.84c-3.42-3.31-10.79-4.85-13.75-5.36l.21-.3c.57-.81,1-1.45,1.59-1.66a10.65,10.65,0,0,1,4.26-.32,22.59,22.59,0,0,0,3.19,0,9.52,9.52,0,0,0,4.38-1.44l2-.76h-.93l.21-.16.37-.31,1.38-.24-.83-.23.15-.12-1.34-.4a11.74,11.74,0,0,1-4.07-2,15.14,15.14,0,0,1-3-3.46,20.86,20.86,0,0,0-2.2-2.79c-2.25-2.3-7.08-3.21-10.49-2.9-2.81.25-6.1,2.36-8,3.74.35-5.39-3.15-11.73-7.23-15.66l-.24-.23-.53-.87v.28l-1.46-1.65.41,1,.59,2.22a9.76,9.76,0,0,1,.36,2.15c0,.33-.05.63-.08.92a5.68,5.68,0,0,1-1.84,2.74,22.28,22.28,0,0,0-5.79,10,40.82,40.82,0,0,0-8.5-15.63h0l-.09-3.81-.6,2.92-.89-1.17.4,1.48-.12,1c-.05.38-.12.74-.18,1.12l-.26-.5.21.8c-.15.94-.33,1.87-.51,2.78a41.25,41.25,0,0,0-1,6.81l-.26-.11a2.89,2.89,0,0,0-2.14-3.06s0-.08,0-.12c.13-1.1.35-2.91-2.38-3.92V745c0-1.34-.12-2.63-2.4-3.71,0-.15,0-.3,0-.46a3.76,3.76,0,0,0-2.33-3.71,4.3,4.3,0,0,0-2.53-4.24,4.7,4.7,0,0,0-2.42-4.16,4.19,4.19,0,0,0-2.36-4,3.75,3.75,0,0,0-2.34-3.78,4,4,0,0,0-.34-2v-.09l-.08,0a3.26,3.26,0,0,0-1.7-1.37,2.91,2.91,0,0,0-2.07-3.09,2.59,2.59,0,0,0-1.67-2.51,2.18,2.18,0,0,0-1.55-2.1,1.72,1.72,0,0,0-1.5-1.52l-.35-.44c-1.1-1.38-1.47-1.85-2.13-1.51h0c-.66.35-.48.92,0,2.61.06.21.12.39.17.54a1.72,1.72,0,0,0,.4,2.1,2.17,2.17,0,0,0,.84,2.46,2.6,2.6,0,0,0,1.12,2.8,2.93,2.93,0,0,0,1.37,3.46,3.15,3.15,0,0,0,1.66,3.71,3.73,3.73,0,0,0,1.78,4.07,4.2,4.2,0,0,0,2,4.22,4.7,4.7,0,0,0,2,4.35,4.3,4.3,0,0,0,2,4.49,3.76,3.76,0,0,0,1.74,4l.36.28c-.41,2.5.56,3.36,1.69,4.09l.34.22c-.55,2.13.24,3.13,1.08,3.72a14.44,14.44,0,0,0-3,3.18,26.11,26.11,0,0,0-2.23,4.82l-.39,1c-.45,1.15-2.68,3.1-3.85,3.16-1.45.08-3.88.12-4.39.13l-.47-.06-2.47-1.55,1.33,1.4-1.68-.21,1.91.8.72.85a21.16,21.16,0,0,0,3.72,3.5,8.73,8.73,0,0,0,1.64.76,35.39,35.39,0,0,0-4.48,5.18l-.12-.06.07.13c-.33.48-.63,1-.91,1.43-4.57,1.77-7.13,3.37-12.18,7.08a20.75,20.75,0,0,0-7.23,1.76l-.34.13a3.5,3.5,0,0,0-.82.46l.15-1.81-1,2.66a8.44,8.44,0,0,0-1.39,2.87c-.31,1.06-.61,2.63-.72,3.23a10.83,10.83,0,0,0-2.16,3,3.89,3.89,0,0,0-.21.74l-.7,1,.64-.45a9.38,9.38,0,0,0,.35,3.13l-.13.09.19.11,0,.08.09.28.5.29a4.36,4.36,0,0,0,3.19.86c9.32-2.37,15.87-2.71,17.12-.94-.54-.08-1.1-.14-1.68-.19l-.73-.06a16.45,16.45,0,0,0-2.43,0h0l-.68.07a13.36,13.36,0,0,0-2.94.63,13.57,13.57,0,0,0-2.14.93l-1.58.77a21.9,21.9,0,0,1-6.39,2.42,8.13,8.13,0,0,1-1.08.09h0a9.14,9.14,0,0,1-2.38-.33A18.14,18.14,0,0,1,1005,806l-1.85-.83h0l-2.25-1.08,3.55,2.78a7,7,0,0,0,6.83,4.29,27.45,27.45,0,0,0,7.66-1.58l1.27-.39a19.67,19.67,0,0,1,5.57-.45,8.58,8.58,0,0,1-1.41.78,25.7,25.7,0,0,1-5.29,1.09l-.28,0-.6-.28.14.32-.26,0,.14.33-2.46.36,2.76.38a5.1,5.1,0,0,0,2.16,2.52,11.61,11.61,0,0,0,2.22.65c-.07.14-.12.29-.2.42a2.28,2.28,0,0,1-1.51,1.2c-3,.41-5,1.51-5.89,3.29s-.69,4,.6,6.47l.52,1-2.48.81a3.74,3.74,0,0,0-2.42,2.2,4.66,4.66,0,0,0-.13,2.92L1007,835.5a4.85,4.85,0,0,0-2.65-1.4,3.7,3.7,0,0,0-3.09,1L996,840c-.44-.91-.86-1.79-1.23-2.63-.75-1.66-1.38-3.45-2-5.34-2.39-6.75-4.85-13.73-12.53-15.23-5.62-1.1-13.67-1.46-21.27-1.5a15.39,15.39,0,0,0,1.22-2.07,27.86,27.86,0,0,0,8.39,1.53,8.46,8.46,0,0,0,.87-.05c4.42-.47,9.5-3.6,9.72-3.74l.43-.26h0l-.27-.43c-.55-.87-1.06-1.62-1.57-2.28a16.86,16.86,0,0,0-2.83-2.94,19.47,19.47,0,0,0,8.61-1.63,20.55,20.55,0,0,0,8.58-7.66,19.87,19.87,0,0,0,1.73-3.45,12.31,12.31,0,0,0,.77-3.21l.07-.86-.78.37a10.24,10.24,0,0,1-5.6,1,34.85,34.85,0,0,1-4.92-1,9.73,9.73,0,0,0-1.73-.39,15.81,15.81,0,0,0-3.33-.15,7.61,7.61,0,0,0,2.19-2.89c.08-.18.17-.35.24-.54l.1-.28-.2-.22c-.15-.17-3.84-4.2-9-3.6a32.18,32.18,0,0,0-7,1.92c-4,1.43-7.85,2.78-12.12,1.22l-.09,0c-3.35-1.25-5.18-3-5-3.57.08-.25,1.21-.71,5.28.31h.07a8.69,8.69,0,0,0,1.08.18l.1,0h.33c.27,0,.55,0,.84.05h.36c.23,0,.45,0,.68,0l.36,0,.88-.09.53-.07.87-.14.5-.09L960,780l.07,0,.57-.12.57-.15.25-.06.16,0,.59-.16.6-.18c.57-.16,1.12-.33,1.63-.5a32.67,32.67,0,0,0,6.7-3.28c2.39-1.42,4.46-2.65,6.92-2.84a36.57,36.57,0,0,1,7.1.44,48.3,48.3,0,0,0,5.61.5,14.16,14.16,0,0,0,7.19-1.55,12.09,12.09,0,0,0,1.67-1.11,15.46,15.46,0,0,0,5.64-7.81h.13v-.21l0-.78-.44,0h0a4.47,4.47,0,0,1-2.56-1.42,10.93,10.93,0,0,0-2.66-1.84,23.28,23.28,0,0,0,4.06-2l.11-.08a9.72,9.72,0,0,0,.8-.59,9.58,9.58,0,0,0,2.33-2.72,16.29,16.29,0,0,0,1.92-7.1,16.94,16.94,0,0,0-.62-5.68l-.07-.24-.23-.09a9.3,9.3,0,0,0-4.28-.57l-.65.08h-.08c-.48.07-.93.17-1.34.27s-.69.2-1,.31l-.12.06-.31.13-.47.21c-.09,0-.16.1-.25.14l-.3.18-.28.17-.26.18-.17.12-.18.13-.11.08a23.46,23.46,0,0,0,.93-5.79l.09.07.07-4.92.64.38.26.14.25-.16c3.31-2.14,4-3.19,4.69-4.2.18-.27.35-.53.57-.8,1,1.46,3.78,5.31,6.54,6.48,1.87.8,4.93,1,7.62,1s5.23-.23,5.42-.25l.92-.09-.58-.72a17.18,17.18,0,0,1-2.61-4.52,14.84,14.84,0,0,1-.46-3.4,17.42,17.42,0,0,0-.44-3.44,22.16,22.16,0,0,0-2.45-4.78,10.63,10.63,0,0,0,6,.73l.52,0L1026,717c-1.52-10.81-7.31-18.58-16.31-21.88a26.55,26.55,0,0,0-6.42-1.44l-.1,0-.47,0-.44,0c-.46,0-.92,0-1.38-.05h-.39c-.34,0-.69,0-1,0h-.11c-.37,0-.75,0-1.13.07h0l-1.32.15c-.28,0-.55.07-.82.12l-.32,0a29.1,29.1,0,0,0-4.14,1l-.08,0c-.51.18-1,.36-1.53.56l-.45.19-1.12.49-.59.29c-.31.15-.62.31-.92.48l-.66.37-.81.5-.67.43-.61.43-.7.38-4.94,4.4,1.06-.55c-.19.22-.36.45-.54.68,0,0-.09.1-.13.16a22.78,22.78,0,0,0-4.4,10.26l0,.17c-.06.38-.11.76-.16,1.14,0,.14,0,.28,0,.43,0,.34-.06.69-.08,1s0,.42,0,.64a26.84,26.84,0,0,0,.08,3.22l0,.28c0,.43.08.86.14,1.29,0,.24.07.48.11.72s.09.6.14.9l0,.67.76,3.13c.27,1.47.57,2.83.85,4a11.3,11.3,0,0,1,.25,3.4,17.31,17.31,0,0,1-.24,1.95,20.89,20.89,0,0,0-1.92-5.12,11.16,11.16,0,0,0-5.16-4.73l.17-.54-.94.33a3.6,3.6,0,0,0-.62.3,9.27,9.27,0,0,0-2.58,2.22,17.24,17.24,0,0,0-3.44,7.42c-.16,1.51-.23,3-.3,4.47-.19,4-.38,8.09-2.59,12.82a19,19,0,0,1-6,7.42,20.38,20.38,0,0,1-5.25,2.72h0a3.78,3.78,0,0,1-1.64.29l-.18,0a.5.5,0,0,1-.23-.13.44.44,0,0,1-.08-.22,2.29,2.29,0,0,1,.35-1.3l0,0a68.13,68.13,0,0,1,5.5-7.6c.34-.42.6-.74.71-.89a40.19,40.19,0,0,0,6.34-15.37,31,31,0,0,0-1.21-15.28c-1.29-3.9-6.11-8.43-6.31-8.62l-.19-.17h0l-.25,0c-1.63.3-3,1.56-4.07,3.65a10.59,10.59,0,0,0-2.68-5.59c-.6-.67-1.09-1.26-1.53-1.82l-.34-.43c-.09-.12-.16-.23-.24-.35s-.35-.48-.5-.72l-.17-.27a8.32,8.32,0,0,1-1.37-4.16,7.58,7.58,0,0,1,.06-1.15,15.37,15.37,0,0,1,.67-2.87,47.78,47.78,0,0,0,10.1,5,19.93,19.93,0,0,0,12.12.18,24.76,24.76,0,0,0,5-2.19l.29-.17,0-.32a9.72,9.72,0,0,0-2.44-5.19,28.43,28.43,0,0,0-4.09-3.84,18.6,18.6,0,0,0,9.84-3c4.74-3.2,7.21-8.73,7-15.56l0-.74-.67.3a15,15,0,0,1-5.83,1.37,23.44,23.44,0,0,1-5.2-.62,24.69,24.69,0,0,0-4.9-.61,19.48,19.48,0,0,0-7.26,1.64c1.12-2,1-3.84.9-5.88l-.06-1.08h-.48c-6.52.08-11.55,1.26-15.37,3.63-5,3.11-8,8.32-9,15.9l0,0-.14,1.45-.06.07c-.33.34-.66.7-1,1.06l-.3.34c-.26.28-.51.57-.76.86l-.42.5-.63.76-.51.66-.51.66-.57.8c-.13.19-.27.37-.4.57l-.59.91-.33.52c-.1.16-.19.34-.29.5l-.15.28-.12.21-.28.5a2.1,2.1,0,0,0-.13.26c-.2.38-.38.76-.56,1.13l-.07.15,0,0a21.28,21.28,0,0,0-2,10.37v.13a.41.41,0,0,1,0,.11c0,.11,0,.23,0,.34l.32,3.56.14-.74c.05.25.09.5.15.75l.9,3.55v-.21c.25.82.54,1.67.86,2.53l.4,1.57a13.13,13.13,0,0,0-3.62-1.64,12.31,12.31,0,0,0-1.32-.26l-.14,0-.4,0a12.26,12.26,0,0,0-4.15.31l-.32.08,0,.33a34.42,34.42,0,0,0-.41,4.11,18,18,0,0,0,2.19,9.85c2.11,3.6,5.87,6.43,11.48,8.64a8.18,8.18,0,0,1,.89.44l1.53,2.13c1.53,5.12.67,9.1-2.66,12.42-3.88,3.88-9.93,3.43-14.76,2.61-5.69-1-11.42-4.72-18.81-10.45-.51-.39-1-.8-1.53-1.21h.07l.12,0a7,7,0,0,0,2.32-1,4.6,4.6,0,0,0,.61-.54l.25-.18-.1,0a3,3,0,0,0,.63-1.75,4.51,4.51,0,0,0-.75-3.12,3.76,3.76,0,0,0-1.93-1.25,1.7,1.7,0,0,0,.1-.32,1.91,1.91,0,0,0-.45-1.49l1-2.32,1.82-2.23-.11-.27.13-.16-.22,0-.87-2.08-.05-1.67.12,0,.18-.09a2.13,2.13,0,0,0,1.28-1.42,2,2,0,0,0-.66-1.71l-.17-.18-.24,0-.89-.1c.79-2.15,1.62-4.34,2.52-6.57h0a3.43,3.43,0,0,0,3.31-2.62l.08-.1h0a3.85,3.85,0,0,0,.09-.76,3.44,3.44,0,0,0-.85-2.25c1.47-3.19,3-6.23,4.73-9.2l.35-.61-.29-.1a3.19,3.19,0,0,0,.82.12,16.82,16.82,0,0,1,4.42-9,3.3,3.3,0,0,1-.35-6.08,3.28,3.28,0,0,0-3.27-3.3h-.14a3.31,3.31,0,0,0-2.18-5.75,3.16,3.16,0,0,0-1.5.39,3.38,3.38,0,0,0,.41-1.59,3.28,3.28,0,0,0-3.26-3.3,3.18,3.18,0,0,0-2.15.84,8.48,8.48,0,0,0-.11-2.09l.46,0a2.84,2.84,0,0,0,1.33,0,3,3,0,0,0,2-1.76,1.4,1.4,0,0,0-.4-1.32,2.5,2.5,0,0,1-.65-2.15c.5,0,.8.24,1.37.73.19.16.4.34.64.52l1,.76,0-.43.14.08-.17-.62v-.29c0-.16,0-.29,0-.42a5.7,5.7,0,0,0-.84-3.1,4.48,4.48,0,0,1,1,.7l1,.91,0-1.36v-.34a6.55,6.55,0,0,0-.9-3.77l.2.22,1.15,1.41L903,666l.41.1-.5-1.14a6.69,6.69,0,0,0-2.65-4.48,3.5,3.5,0,0,1,1.43-.08l1.08.1-.17-.32h.24l-.74-1-.3-.42a16.25,16.25,0,0,0-2.35-3.22,7.7,7.7,0,0,0-2-1.2,6,6,0,0,1-2-1.26l-3.36-3.87a4.71,4.71,0,0,1-.47-.67c-.13-.26-.26-.52-.38-.79s-.22-.53-.33-.82c-.22-.66-.4-1.34-.58-2s-.33-1.28-.53-1.83a14.92,14.92,0,0,0-1.25-2.44c-.29-.49-.59-1-.86-1.51a5.44,5.44,0,0,1-.46-1.16c1.41.34,4.33,1,5.81,1.22a18.83,18.83,0,0,0,7.44-.06,23.44,23.44,0,0,0,5-2.26,9.18,9.18,0,0,0,4.41-.21,10,10,0,0,0,4.58-3.33l.93-1.17-2,.3a11.27,11.27,0,0,1-4.83.14,2.58,2.58,0,0,1-.8-.36c-.16-.16-.32-.35-.5-.57,0-.07-.08-.14-.11-.22l-.33-2a11.8,11.8,0,0,0,.68-1.39l.28-.46.1-.55a7.52,7.52,0,0,0,.31-1.48,8.24,8.24,0,0,0-.33-2.95,13.68,13.68,0,0,1-.28-1.39l-.18-1.52-.38.54-.68-2.34v3.33l-.22.34a5,5,0,0,1-.88,1.16,8.73,8.73,0,0,0-.12-2.41,9.56,9.56,0,0,0-1.56-3.8l-.46-.71,0,0L902,613.7l.48,2.94a7.22,7.22,0,0,0-.41.78,3.66,3.66,0,0,1-.55,1l-.25.22a9.39,9.39,0,0,0-.16-1.17v-.35l-.12-.22a4.17,4.17,0,0,0-.55-1.25,7.55,7.55,0,0,0-2.39-2,11.18,11.18,0,0,1-1.43-1l-.08.06-1.67-1.49.23.52-2.56-1.85,3.19,3.4,0,0a7.09,7.09,0,0,1,.57,2.79,1.85,1.85,0,0,1-.37,1.14c-.87-.27-3.07-.93-4.78-1.3l-1.1-.24a43.36,43.36,0,0,1-5-1.26,13,13,0,0,1-5.56-3.38,4.49,4.49,0,0,1-1.34-3.27,7,7,0,0,1,1.09-2.17,10.31,10.31,0,0,0,1-1.72,7,7,0,0,0,.46-3.88,10.58,10.58,0,0,0-.7-2.37v-.09l-.08-.11c-.18-.43-.32-.74-.33-.78l-.65-1.4-.45,1.48a2.45,2.45,0,0,0-.08.37,1.34,1.34,0,0,1-.63,1,7.63,7.63,0,0,0,.41-3.57,9.1,9.1,0,0,0-2.63-4.48,5.85,5.85,0,0,0-2.34-1.14,4.83,4.83,0,0,1-1.88-.87,12.4,12.4,0,0,1-2.13-3.41l-.57-1.29-.51,1.32a19.73,19.73,0,0,0-1.12,4.06,8.75,8.75,0,0,0,.67,3.94,8.89,8.89,0,0,0,.86,1.5,6,6,0,0,1,.83,1.57,2.53,2.53,0,0,1-.18,2.19l-.27.41h0a2,2,0,0,1-.62-.39c-.31-.43-.72-1.11-.72-1.12l-.64-1.07-.42,1.17a17.4,17.4,0,0,0-1.08,5.06,16.91,16.91,0,0,0,1.08,5.71,25.81,25.81,0,0,0,3,5.61,16.76,16.76,0,0,0,6.16,5.06,31.52,31.52,0,0,0,3.94,1.55l.71.25a55.2,55.2,0,0,0,8.6,2.3,32,32,0,0,1,5.13,1.38,13,13,0,0,1,4.33,2.36,4.54,4.54,0,0,1,2,2.36l.15.4a4,4,0,0,1,.19,1v.68a3.32,3.32,0,0,1-.31,1.11c-.52,1-.87,1.18-2.15,1.53a10.88,10.88,0,0,1-5.46-.38c-.8-.21-1.61-.46-2.42-.73-1.3-.49-2.84-1.1-4.24-1.68l-2.09-1-.06-.1-.72-.27a35.47,35.47,0,0,0-7.16-2.72A54.4,54.4,0,0,0,865.43,625c-2.09,0-4.13.1-6.1.23a36.72,36.72,0,0,1-10.52-.3,13.21,13.21,0,0,1-3.67-1.79,2.53,2.53,0,0,0,.29-.14l.48.4-.31-.49a10.67,10.67,0,0,0,1.25-.89l.71-.58-.75-.36-.33-.2a5.24,5.24,0,0,1-1.4-1.53,13.18,13.18,0,0,1-1.15-3.42,8.09,8.09,0,0,1,.57-5c.18-.1.81-.46,1.47-.89l-.13.69,1-1.33a4.69,4.69,0,0,0,.51-.46,3.54,3.54,0,0,0,.71-1.17l0,0v-.1a7.32,7.32,0,0,0,.36-2,9.7,9.7,0,0,0-.79-3.64l-.2-.74-.12,0v0l-.42.05c-.44,0-.83.1-1.2.15a1.94,1.94,0,0,0-.43-1h0l1.33-1.3-.57-2-.22,0,1-1.69H847a1.77,1.77,0,0,0,1.75-1.56,1.81,1.81,0,0,0-.24-1.09l1.15-1.87h.21a1.73,1.73,0,0,0,1.71-1.52,1.75,1.75,0,0,0-.41-1.33,1.7,1.7,0,0,0,.35-.19,1.72,1.72,0,0,0,.64-1.15,1.7,1.7,0,0,0-.83-1.68,1.68,1.68,0,0,0,.41-.92,1.73,1.73,0,0,0-1.51-1.92h-.13a2.22,2.22,0,0,0,.1-.39,1.78,1.78,0,0,0-.36-1.27,1.72,1.72,0,0,0-1.16-.64,1.65,1.65,0,0,0-.85.12,1.77,1.77,0,0,0-.32-.68,1.72,1.72,0,0,0-1.15-.64,1.69,1.69,0,0,0-1.28.36l-.21.2a.22.22,0,0,0,0-.08,1.68,1.68,0,0,0-1.15-.64,1.7,1.7,0,0,0-1.77,1,1.63,1.63,0,0,0-.78-.31,1.72,1.72,0,0,0-1.72.9,1.57,1.57,0,0,0-.78-.31h0a3,3,0,0,0-.3-1.45l.84.1-.29-.46.39.39.75-6.31-.48.28.39-.38-6.93-.82.22.31-.23-.22-.74,6.31.47-.29-.39.39.83.09a3.06,3.06,0,0,0-.62,1.34h0a1.71,1.71,0,0,0-.84.12,1.69,1.69,0,0,0-.31-.63,1.77,1.77,0,0,0-1.15-.65,1.75,1.75,0,0,0-.83.12,1.65,1.65,0,0,0-.34-.75,1.68,1.68,0,0,0-1.15-.64,1.73,1.73,0,0,0-1.34.42,1.28,1.28,0,0,0-.15-.25,1.72,1.72,0,0,0-1.16-.64,1.7,1.7,0,0,0-1.74.95,1.62,1.62,0,0,0-.8-.32,1.66,1.66,0,0,0-1.27.36,1.73,1.73,0,0,0-.65,1.15,1.79,1.79,0,0,0,0,.4.5.5,0,0,0-.13,0,1.71,1.71,0,0,0-1.91,1.51,1.69,1.69,0,0,0,.18,1,1.76,1.76,0,0,0-.56.29,1.68,1.68,0,0,0-.64,1.15A1.71,1.71,0,0,0,818,584a2.47,2.47,0,0,0,.28.28,1.73,1.73,0,0,0-.7,1.18,1.75,1.75,0,0,0,.36,1.27,1.77,1.77,0,0,0,1.16.65h0l.66,2.1a1.74,1.74,0,0,0-.1,2.29,1.75,1.75,0,0,0,1,.63l.6,1.86-.13-.06-1,1.79,1,1.51a2,2,0,0,0-.61.95q-.51-.21-1.14-.42l-.39-.14h0l-.11-.05-.37.68a9.5,9.5,0,0,0-1.62,3.35,7.34,7.34,0,0,0-.13,2.09V604l0,0a3.77,3.77,0,0,0,.42,1.32,4.29,4.29,0,0,0,.4.57l.65,1.52,0-.71c.54.58,1.07,1.08,1.22,1.21a8,8,0,0,1-.61,5,12.78,12.78,0,0,1-1.92,3,5.06,5.06,0,0,1-1.72,1.17l-.34.11-.85.17.58.75a10.71,10.71,0,0,0,1,1.15l-.43.41.57-.28c.11.09.21.18.31.25l.12.14h.18a3.17,3.17,0,0,0,1.51.06c-.29.45-.68,1-1.15,1.63-.3.4-.7.85-1.09,1.3a11.58,11.58,0,0,0-1.82,2.42l-.1.23a8.15,8.15,0,0,0-1,4.61c.17,1.31,1.62,3.36,2.16,4.08a9.92,9.92,0,0,0-.19,4.77,12.29,12.29,0,0,0,3,3.82c-.12,2.06-.15,4.09-.16,6.07a89.58,89.58,0,0,1-.41,9.14,32.18,32.18,0,0,1-2.1,8.32,31.15,31.15,0,0,1-3.58,6.53,15.59,15.59,0,0,0-2.92,3.66,7.74,7.74,0,0,0-.54,3.66,3.24,3.24,0,0,0-.34,3.68,3.19,3.19,0,0,0-1.5-.39,3.3,3.3,0,0,0-2.18,5.75h-.15a13.08,13.08,0,0,1-3.61,9.38,3.3,3.3,0,0,1,1.15,5.7,3.29,3.29,0,0,0,3.26,3.31,3.34,3.34,0,0,0,.78-.11l-.25.09.35.61c1.7,3,3.25,6,4.73,9.2a3.51,3.51,0,0,0-.84,2.25,3.22,3.22,0,0,0,.09.76h-.06l.09.11a3.42,3.42,0,0,0,3.26,2.6c.85,2.19,1.64,4.4,2.41,6.59l-.76.09-.26,0-.16.2a2,2,0,0,0-.59,1.66l-.13,0,.19.2a2.17,2.17,0,0,0,1.24,1.22l.18.09.09,0,0,1.67-.88,2.08-.21,0,.13.16-.11.27,1.81,2.23,1,2.3a2,2,0,0,0-.42,1.49h-.08l.1.11a.8.8,0,0,0,.07.2,4.46,4.46,0,0,0-2,1.63,3.82,3.82,0,0,0-.62,2.65,3.69,3.69,0,0,0,.61,1.79l-.08,0,.2.15a3.54,3.54,0,0,0,.59.56,7.24,7.24,0,0,0,2.43,1.05l.13,0h0L816,752.85c-7.39,5.73-13.12,9.48-18.8,10.45-4.84.82-10.88,1.27-14.77-2.61-3.33-3.32-4.19-7.3-2.66-12.42l1.53-2.13a7.52,7.52,0,0,1,.9-.44c5.61-2.21,9.36-5,11.47-8.64a18,18,0,0,0,2.19-9.85,32.47,32.47,0,0,0-.41-4.11l0-.33-.32-.08a14.34,14.34,0,0,0-1.54-.29,11.53,11.53,0,0,0-3.27.06,11.9,11.9,0,0,0-1.19.23,13.18,13.18,0,0,0-3.63,1.64l.41-1.57c.31-.86.6-1.71.85-2.54v.22l.89-3.55c.06-.25.1-.5.15-.75l.14.74.32-3.56c0-.11,0-.23,0-.34s0-.07,0-.11v-.13a21.28,21.28,0,0,0-2-10.37l0,0-.07-.15c-.17-.37-.36-.75-.55-1.13-.05-.09-.09-.18-.14-.26s-.18-.33-.28-.5l-.12-.21-.15-.28c-.1-.16-.19-.34-.29-.5l-.33-.52c-.19-.31-.38-.61-.59-.91s-.27-.38-.4-.57l-.57-.8c-.16-.23-.34-.44-.5-.66l-.52-.66c-.2-.26-.42-.51-.63-.76s-.27-.33-.41-.5-.51-.58-.77-.86l-.3-.34-1-1.06-.06-.07-.14-1.45,0,0c-1-7.58-4-12.79-9-15.9-3.82-2.37-8.84-3.55-15.37-3.63h-.48l-.06,1.08c-.12,2-.22,3.85.9,5.88a19.48,19.48,0,0,0-7.26-1.64,25,25,0,0,0-4.9.61,23.29,23.29,0,0,1-5.2.62,15,15,0,0,1-5.82-1.37l-.68-.3,0,.74c-.25,6.83,2.22,12.36,7,15.56a18.6,18.6,0,0,0,9.84,3,28.43,28.43,0,0,0-4.09,3.84,9.62,9.62,0,0,0-2.43,5.19l0,.32.29.17a25.25,25.25,0,0,0,5,2.19,19.93,19.93,0,0,0,12.12-.18,47.78,47.78,0,0,0,10.1-5,15.43,15.43,0,0,1,.68,2.87,7.58,7.58,0,0,1,.06,1.15,8.33,8.33,0,0,1-1.38,4.16c0,.09-.11.18-.17.27-.15.24-.32.48-.49.72l-.25.35c-.11.14-.23.28-.34.43-.44.56-.93,1.15-1.53,1.82a10.67,10.67,0,0,0-2.68,5.59c-1-2.09-2.43-3.35-4.07-3.65l-.25,0h0l-.19.17c-.2.19-5,4.72-6.3,8.62a31,31,0,0,0-1.22,15.28,40.19,40.19,0,0,0,6.34,15.37l.71.89a66.88,66.88,0,0,1,5.5,7.6l0,0a2.32,2.32,0,0,1,.36,1.3.56.56,0,0,1-.09.22c-.19.21-.82.29-2-.14h0a20.38,20.38,0,0,1-5.25-2.72,18.87,18.87,0,0,1-6-7.42c-2.22-4.73-2.41-8.84-2.59-12.82-.07-1.46-.14-3-.31-4.47a17.12,17.12,0,0,0-3.44-7.42,9.26,9.26,0,0,0-2.57-2.22,3.89,3.89,0,0,0-.63-.3l-.93-.33.16.54a11.21,11.21,0,0,0-5.16,4.73,20.89,20.89,0,0,0-1.92,5.12,17,17,0,0,1-.28-2.61,10.35,10.35,0,0,1,.29-2.74c.29-1.18.58-2.54.85-4l.76-3.13,0-.67c.05-.3.1-.6.14-.89s.08-.49.11-.73c.06-.43.11-.86.14-1.29l0-.28c.06-.65.09-1.29.1-1.92h0v-.33c0-.31,0-.61,0-.91s0-.47,0-.7-.06-.68-.09-1c0-.15,0-.3,0-.45,0-.38-.1-.75-.15-1.12,0-.07,0-.13,0-.19a22.85,22.85,0,0,0-4.39-10.24l-.17-.21-.51-.65,1.06.56-4.83-4.33-.1-.07-.7-.38c-.21-.15-.43-.31-.65-.45l-.57-.37c-.3-.19-.6-.38-.91-.56l-.59-.33c-.32-.18-.65-.35-1-.51l-.56-.28c-.37-.17-.73-.33-1.1-.48l-.5-.21c-.43-.17-.86-.32-1.3-.47l-.34-.12a28.42,28.42,0,0,0-3.44-.88L713,694l-1-.16-.24,0c-.89-.12-1.78-.2-2.66-.24h-1.92l-.62,0-1.11.07-.25,0-.06,0a25.76,25.76,0,0,0-6.38,1.43c-9,3.3-14.78,11.07-16.31,21.88l-.07.52.53,0a10.61,10.61,0,0,0,6-.73,22.16,22.16,0,0,0-2.45,4.78,17.42,17.42,0,0,0-.44,3.44,14.84,14.84,0,0,1-.45,3.4A17.29,17.29,0,0,1,683,733l-.58.72.92.09c.19,0,2.6.25,5.42.25s5.76-.21,7.63-1c2.75-1.17,5.54-5,6.53-6.48.22.27.39.53.57.8.68,1,1.38,2.06,4.69,4.2l.25.16.26-.14.67-.4,0,1.88v3.06l.09-.07a23.47,23.47,0,0,0,.92,5.79l-.1-.08-.19-.13-.17-.12-.25-.18-.29-.17-.3-.18h0l-.24-.13-.48-.22-.31-.13-.12-.05a9.2,9.2,0,0,0-1-.32h0a10.18,10.18,0,0,0-6.35.21l-.23.09-.07.24a17.47,17.47,0,0,0-.62,5.68,16.3,16.3,0,0,0,1.93,7.1,9.78,9.78,0,0,0,3.24,3.39,22.84,22.84,0,0,0,4,2,10.93,10.93,0,0,0-2.66,1.84,5,5,0,0,1-2.32,1.4l-.71.06,0,.78v.21h.14c.36,1.36,1.61,4.63,5.63,7.81.28.22.55.42.83.6,4,2.66,8.64,2.19,13.15,1.63l.5-.07c.94-.12,1.9-.23,2.85-.32a25.28,25.28,0,0,1,4.24-.12c2.46.19,4.53,1.42,6.92,2.84a32.93,32.93,0,0,0,6.7,3.28c.51.17,1,.34,1.61.5h0l.51.15.67.18.09,0,.38.09.46.12.62.14h0l.76.17.4.07,1,.16.46.06,1,.1.27,0,.71,0h.35c.29,0,.56,0,.82,0h.34l.11,0a8.69,8.69,0,0,0,1.08-.18h.06c4.08-1,5.2-.56,5.28-.31.16.53-1.67,2.32-5,3.57l-.09,0c-4.26,1.56-8.08.21-12.12-1.22a31.87,31.87,0,0,0-7-1.92c-5.18-.59-8.85,3.43-9,3.6l-.2.22.1.28c.07.19.16.36.24.54A7.72,7.72,0,0,0,730.2,788a15.83,15.83,0,0,0-3.33.15,9.79,9.79,0,0,0-1.72.39,35.59,35.59,0,0,1-4.93,1,10.21,10.21,0,0,1-5.59-1l-.79-.37.07.86a12,12,0,0,0,.78,3.21,19.12,19.12,0,0,0,1.72,3.45,20.52,20.52,0,0,0,8.59,7.66,19.43,19.43,0,0,0,8.6,1.63,16.86,16.86,0,0,0-2.83,2.94c-.51.66-1,1.41-1.57,2.28l-.27.43h0l.43.26c.23.14,5.3,3.27,9.72,3.74a8.46,8.46,0,0,0,.87.05,28.55,28.55,0,0,0,8.39-1.54c2.63,5.38,8.31,9.13,14.75,11.51-1.86.24-3.78.41-5.65.57a72.52,72.52,0,0,0-10.65,1.46q-4.08,1-8.16,2c0-.22-.1-.44-.15-.63a9.82,9.82,0,0,0-4.6-6c-3-1.73-6.78-2.05-11-.93-2.66.71-6.06,3.4-8,5.11,0-.59-.05-1.16-.1-1.7a7.72,7.72,0,0,1,0-2.45,2.72,2.72,0,0,1,1.24-1.79,2.87,2.87,0,0,1,2.3-.2l.63.19.5.38-.07-.25.19.06-.31-1.27a4.31,4.31,0,0,0-.15-.43l.13-.24-.25-.14a5.09,5.09,0,0,0-2.24-2.71,7.55,7.55,0,0,0-5.65-.31,10.27,10.27,0,0,0-3,2c-2.17,1.82-3.83,3-5.48,2l-.52-.27a7.08,7.08,0,0,0,2.29-1.1l.07,0h-.05c1.36-1,2.1-2.51,3.16-4.71l.61-1.27-.52.08.05-.13-.46.19-.47.07c-7.84,1.15-8.44-1.55-9.52-6.45a29.06,29.06,0,0,0-2.75-8.14,14.47,14.47,0,0,0-3.88-4.21c-.37-.32-.76-.64-1.18-.94l-1.31-1a37.19,37.19,0,0,0,2.71-7.22l.74,1.69L691,783a13.6,13.6,0,0,0-2.22-7.62,7.51,7.51,0,0,0-.47-.68l-.1-.21-.29-.28a17.94,17.94,0,0,0-2.39-2.3l-.23-.22-.34-.23a31.32,31.32,0,0,0-3.05-2.05l-1.38-.93-.11.1-.12-.06-.38.33a39.7,39.7,0,0,0-5.12,4.91,2.81,2.81,0,0,0-1.12-.89,3.08,3.08,0,0,0-1.6-.2,1.67,1.67,0,0,0-.71-.81l-.12-1.32.41-2.16L670,767l-.33-.58a1.86,1.86,0,0,0,.32-1.61,1.88,1.88,0,0,0-1.27-1.14l-.34-.12-.34.13c-.17-1.17-.32-2.38-.46-3.61a3,3,0,0,0,1-3.9,3.08,3.08,0,0,0-1.35-1.28,1.62,1.62,0,0,1,0-.22l0-.26-.06-.13c-.1-2-.13-3.9-.08-5.84a1.19,1.19,0,0,0,.2-.08,2.94,2.94,0,0,0,1.18-4,3,3,0,0,0-1.08-1.12c.06-.14.12-.28.17-.42a3,3,0,0,0-.24-2.23,2.9,2.9,0,0,0-1.89-1.46,2.94,2.94,0,0,0-3.17-3.6,2.78,2.78,0,0,0-.34-1.14,2.93,2.93,0,0,0-4-1.21l0,0a1.17,1.17,0,0,1-.05-.11,2.94,2.94,0,0,0-4-1.21,3.25,3.25,0,0,0-.71.56,19.53,19.53,0,0,1-7.69.5,2.87,2.87,0,0,0-1.41,1.75,1.17,1.17,0,0,0,0,.27h0a2.91,2.91,0,0,0-2.24.22,2.87,2.87,0,0,0-1.41,1.75,1.09,1.09,0,0,1-1.66,1.22,2.87,2.87,0,0,0-1.41,1.75,2.62,2.62,0,0,0-.1.73A3.08,3.08,0,0,0,636,741a2.91,2.91,0,0,0-1.48,2.12,3,3,0,0,0-.94.11l-1.5-2.8-.75.4a5.85,5.85,0,0,0-3.22-1.42l2.28-1.23-1.12-.48a10.64,10.64,0,0,0-1.19-.42,10.62,10.62,0,0,1-1.16-.42,5.59,5.59,0,0,1-1.23-.77,6,6,0,0,1,1.48,0,10,10,0,0,1,1.2.3,10.88,10.88,0,0,0,1.22.3l1.21.22-5.25-9.75-.48,1.13a10.5,10.5,0,0,0-.42,1.18,8.38,8.38,0,0,1-.42,1.16,5.5,5.5,0,0,1-.79,1.26,6.33,6.33,0,0,1,0-1.45,8.72,8.72,0,0,1,.29-1.2c.11-.39.23-.79.31-1.22l.21-1.2-10.56,5.68,1.12.49a12.12,12.12,0,0,0,1.19.42,8.84,8.84,0,0,1,1.16.41,6.45,6.45,0,0,1,1.23.77,6.14,6.14,0,0,1-1.49,0,10.3,10.3,0,0,1-1.19-.29,10.52,10.52,0,0,0-1.23-.31l-1.2-.21,5.25,9.74.48-1.12a10.64,10.64,0,0,0,.42-1.19,8.84,8.84,0,0,1,.41-1.16,6.52,6.52,0,0,1,.79-1.25,5.76,5.76,0,0,1,0,1.44,8.72,8.72,0,0,1-.29,1.2,10.87,10.87,0,0,0-.31,1.22l-.21,1.21,2.12-1.15a4.69,4.69,0,0,0-.44,2.79,4.86,4.86,0,0,0,.11.55l-.85.45,1.51,2.8a3.1,3.1,0,0,0-.59.72,2.9,2.9,0,0,0-2.58.07,2.87,2.87,0,0,0-1,.88,3,3,0,0,0-.68-.32,2.9,2.9,0,0,0-3.37,1.33,2.8,2.8,0,0,0-.79-.4,2.91,2.91,0,0,0-2.24.22,2.87,2.87,0,0,0-1.41,1.75h0a2.87,2.87,0,0,0-2.49.1,2.91,2.91,0,0,0-1.52,2.61,2.94,2.94,0,0,0-1.69.33,2.85,2.85,0,0,1-2.3,3.5,2.94,2.94,0,0,0-1.17,4s0,.06.06.1h0a2.94,2.94,0,0,0-1.17,4,1.06,1.06,0,0,1,.21,1.95,2.95,2.95,0,0,0,1.81,3.59,3,3,0,0,0,.18,2.38,2.93,2.93,0,0,0,1.73,1.43l.45.1a2.93,2.93,0,0,0,4.31,2.72,1.13,1.13,0,0,1,.18-.12c1.71,1.06,3.37,2.2,5,3.42l.28.33a3,3,0,0,0,3,3.3,2.89,2.89,0,0,0,1.11-.25c.92.8,1.83,1.61,2.72,2.42l-.25.19-.08.37a1.87,1.87,0,0,0,.33,1.67,1.82,1.82,0,0,0,1.48.6h0l.29.58.2,2.09,2,.84,1,.83a1.79,1.79,0,0,0,.4,1.2h0a3.14,3.14,0,0,0-.42,1.31,3.07,3.07,0,0,0,.08,1,46.79,46.79,0,0,0-6.52,1.53l-.48.14-.06.51c0,.26-.66,6.49,1.11,10.35a13.55,13.55,0,0,0,5.32,6.15l2.08,2.08-1-1.59a36.56,36.56,0,0,0,7.43,1.68c.06.62.11,1.21.16,1.76.24,2.77.43,5,1.5,7a29.29,29.29,0,0,0,5.28,6.78c3.48,3.58,5.39,5.56.24,11.39l-1,.62.41.1-.4.44,1.64.22c4,.54,5.27.58,7.89-2.24,1.05,2.4-1,6.44-2.28,9l-.24.47c-1.53,3-1.33,9.45-.13,12.73,2.61,7.15,2.28,9.31,1.48,14.53-.22,1.45-.47,3.09-.7,5.12l-.17,1.46,1.28-.72c2.56-1.44,5-3.49,6-8.48,1.63,2,1.46,5.68,1.31,9,0,.95-.08,1.84-.07,2.65v1.83l1.26-1.29c-2.1,9.38-4,16.55-5.68,21.81a112.13,112.13,0,0,1-12.31,25.19c-10.3,8.48-17.49,19.31-22.62,34.07-.89,2.55-1.82,4.89-2.8,7.37-.6,1.5-1.21,3-1.86,4.74s-1.16,3.25-1.75,5a65.71,65.71,0,0,1-4.11,10.4c-.27.48-.53,1-.8,1.47-2.17,4-4.63,8.54-8.54,10.35,0,0-4.49,2.4-7.49,2.72-3.2.33-5.94-.28-7.51-1.68-3.9-3.48-5-5.35-4.76-8.32.38-5.58,5.31-10.68,10.54-16.07l1.47-1.53a89.37,89.37,0,0,0,6.16-7.49l2.83-3.68c13.22-17.19,26.89-35,37-54.53a44.88,44.88,0,0,0,5.29-20c.28-11.6-3.89-20.63-8.31-30.2-1.1-2.37-2.23-4.82-3.31-7.35-1.69-3.94-1.7-7.86,0-10.49,1.4-2.21,3.92-3.44,7.29-3.57l.17.18v-.19l1.4-.05-1-1.18-.13-.14.08-.23-.41-.14c-3.7-4.07-8.56-5.86-13.12-4.81-4.06.94-7,3-8.59,6.2-2.54,4.9-2,12.61,1.48,20.87a12.89,12.89,0,0,1-5-3.08c-2.65-3.13-2.86-7.26-3.09-11.64a51.26,51.26,0,0,0-.6-6.44c-.12-.67-.27-1.32-.44-2l.48.48-.84-1.72a19.74,19.74,0,0,0-5.83-9,12.42,12.42,0,0,0-1.8-1.51,8.27,8.27,0,0,0-1.08-.61v0l-.31-.09-.38-.16a19.34,19.34,0,0,0-3.46-1.43,10.87,10.87,0,0,0-1.39-.34l0,0h-.09l-.17,0a16.32,16.32,0,0,0-3.43-.27,19.17,19.17,0,0,0-7.15,1.33,3.34,3.34,0,0,0-1.74.77c-.1.1-.19.22-.28.33-2.1,1.46-3.23,3.51-3.67,6.62a21.09,21.09,0,0,0,.31,6.06,17.17,17.17,0,0,1,.21,6.17,12.83,12.83,0,0,1-2.13,4.33l-.29.83.54.31c.85.49,7.42.83,11-3.22a18.71,18.71,0,0,0,2.79-5.07,5.56,5.56,0,0,1,.17,1.26,34.14,34.14,0,0,1-.57,6c-.7,4.56-1.43,9.27,2.24,15.2,2.94,4.74,8.56,6.77,16.66,8.51a4.23,4.23,0,0,1,2.82,1.73,20.81,20.81,0,0,0-16,3.76,14.54,14.54,0,0,0-6.08,10.65,13.8,13.8,0,0,0,3.8,10.24,15.14,15.14,0,0,0,10,4.57l.16.1.42.26.2-.32h.67l3.4.4-3-1.1-.41-.52c-2.63-3.27-3.45-6.86-2.26-9.83s4.3-5.08,8.49-5.64c5.29-.71,9.86.73,12.88,4.06,3.26,3.6,4.32,9.25,3,15.9-.83,4.13-4.31,10.83-5.87,13.7-1.12-2.09-2.94-2.87-4.59-3.57-2.72-1.16-4.68-2-3.16-8.36l.59-2.49-1.84,1.77c-7.14,6.87-5.5,13-3.92,18.86.23.88.47,1.78.69,2.68-5.45-.41-7.66-3.08-7.79-9.28L598,929l-1.29,1.62c-5.56,7-4,11.71-2.16,17.2a49.71,49.71,0,0,1,1.57,5.47c-4.47-1-5.94-3.08-7.58-8.06l-.46-1.4-.86,1.2c-4.81,6.68-2.21,12.3,2,18.23A11.41,11.41,0,0,0,577,970l-.21.45-1.73.64h1.42l-.17.33,1.4-.33h.55l.14-.16c4.32-1,5.24-.51,6.18.36,2.31,2.13,1.61,3.49,1.38,3.94-2.35,4.57-5.71,7.73-8.69,10.52l-.19.18c-5,4.72-10.24,9.6-11.3,19.92-.58,5.69,1.22,10.43,5.83,15.17-5.07.6-8.33,3.1-8.85,6.88a7.66,7.66,0,0,0,.71,3.74,8.92,8.92,0,0,1,.67,2.48,20.26,20.26,0,0,1-1.62,3.84l-.82,1.59,1.71-.53a8.84,8.84,0,0,0,4.3-2.53c0,.06-.05.13-.07.2a16,16,0,0,0-1.2,5.48c0,2.4.39,4.91,3.86,7,1.64,1,3.77.78,6,.57,1-.09,2.13-.19,3.21-.18,1.3,0,2.38,1.35,3.29,2.74l.07.26.08,0,0,0,1,1.54.39-1.78c0-.08,0-.15,0-.23h0l0-.07a6,6,0,0,0-2.25-6.41,10.69,10.69,0,0,0-2.84-1.77,8.36,8.36,0,0,1-2.09-1.24c-1.1-.93-1.52-2-.44-4.57,2.32,3.27,5.88,3.38,8.63,2.28a7.44,7.44,0,0,0,4.5-7.74l-.12-1.9-1.21,1.48c-1.59,1.95-3.25,2.21-4.19,1.84a2.35,2.35,0,0,1-1.38-1.27,3.28,3.28,0,0,1,.23-2.59,3.42,3.42,0,0,1,.89-1.08,23.68,23.68,0,0,1,2.36-1.33,26,26,0,0,1,4.49-1,24.49,24.49,0,0,0,10.47-3.82c5.61-3.87,9.49-10.09,12.55-15.65a86.59,86.59,0,0,0,5.71-14.42c1.18-3.58,2.4-7.29,3.86-10.58,1.75-3.94,3.43-7.07,5.2-10.38.63-1.18,1.27-2.37,1.9-3.59.39-.67.75-1.3,1.09-1.86l.19-.27,1.75-2.2.36-.41a48.57,48.57,0,0,0-2,8.28,142.82,142.82,0,0,0-.81,14.5,55.88,55.88,0,0,0,.54,6.47c.4,3.34.82,6.79.28,9.79A51.28,51.28,0,0,1,626,1019a44.47,44.47,0,0,1-8,9.55c-2.07,2-6.09,5.27-6.11,5.29a14.35,14.35,0,0,1-2.69,1.45,15.6,15.6,0,0,0-2.2,1.13c-4.78,3.14-6.74,7.06-6,12l.34,2.28,1.06-2c1-2,2.62-2.3,5-1.79-5.38,4-7.75,7.88-6.21,15.83l.55,2.82.9-2.73c1-2.89,3.3-3.47,6-4.15.85-.21,1.72-.43,2.57-.72a27.14,27.14,0,0,1-4.83,5.6c-1.86,1.76-3.47,3.28-4.08,5.6s-1.38,5.24,1.53,11l1,2,.41-2.18c.44-2.39,1-3.9,1.8-4.62a8.76,8.76,0,0,1,2.66-1.51,13.08,13.08,0,0,0,3.82-2.23,5.46,5.46,0,0,1-.5,2,9.94,9.94,0,0,1-1.66,2.34,19.9,19.9,0,0,0-1.32,1.57,16.7,16.7,0,0,0-3.07,6.86c-.62,4.48,2.24,11.26,2.36,11.55l.68,1.57.7-1.56a10.89,10.89,0,0,1,2.22-3.4,5.69,5.69,0,0,1,2.63-.75l.13,0,.85,1.17.91,1.25a4.62,4.62,0,0,0-.86.85,8.65,8.65,0,0,0-1.09,1.93,10.06,10.06,0,0,0-4.81,1.2l-1,.57.72.92c.52.67,1,1.22,1.53,1.76.3.32.6.64.89,1a11.68,11.68,0,0,0-1.42,4,10.58,10.58,0,0,0-4.94,2.14c-1.7,1.64-2.21,5.68-2.35,7.11-1,.78-3.45,2.9-4.13,4.94a11.09,11.09,0,0,0,0,7.61,9,9,0,0,0,4.69,4.69,15.53,15.53,0,0,0,3.38.75,7.5,7.5,0,0,0,.25,3.71,13.09,13.09,0,0,0,8.26,6.76,13.49,13.49,0,0,0,8.85-1.2,21.71,21.71,0,0,0,3.28-2.37,23.82,23.82,0,0,0,7.43,4c2.31.64,8.73,1,9,1h24.46a7.89,7.89,0,0,0,1.47.87,12.7,12.7,0,0,0,5.27,1.29l150,.17a5.52,5.52,0,0,0,1.33-.17l.48-.1a5.68,5.68,0,0,0,3.45-2.06h45a5.65,5.65,0,0,0,3.45,2.06l.48.1a5.52,5.52,0,0,0,1.33.17l150-.17a12.7,12.7,0,0,0,5.27-1.29,7.89,7.89,0,0,0,1.47-.87h24.55c.27,0,6.69-.33,9-1a23.82,23.82,0,0,0,7.43-4,21.71,21.71,0,0,0,3.28,2.37,13.49,13.49,0,0,0,8.85,1.2,13.09,13.09,0,0,0,8.26-6.76,7.5,7.5,0,0,0,.25-3.71,15.53,15.53,0,0,0,3.38-.75,9,9,0,0,0,4.69-4.69,11.09,11.09,0,0,0,0-7.61c-.68-2-3.16-4.16-4.14-4.94-.13-1.42-.64-5.47-2.34-7.11-1.92-1.86-6.28-2.47-8.62-2.67a15.83,15.83,0,0,1,3-4.31c.76,1.33,1.49,2.53,2.76,2.35,5.23-.78,5.44-12.87,5.56-20.1,0-1.32,0-2.47.1-3.2a59.9,59.9,0,0,0-.11-7.45,51.94,51.94,0,0,1-.07-7.35c.75-8.47,2-15.66,3.56-24.19a29.49,29.49,0,0,1,1.48-4.62c1.5-4,3.21-8.55.48-11a23.81,23.81,0,0,0-6-3.62,26.31,26.31,0,0,1-4.67-2.59,82.5,82.5,0,0,0-13.61-19.76,4.55,4.55,0,0,0,.5-4V996l4.6-3.34.27.22a4.83,4.83,0,0,0,3,1.19,3.82,3.82,0,0,0,3-1.46l1-1.24a62.42,62.42,0,0,0,5.48,12.38c2.74,4.37,7.54,10.06,14.86,12.36a27.51,27.51,0,0,0,4.11.95c1.69,1.75,3.39,3.81,4,5.53a10,10,0,0,1-.27,4.91c-1,3-5.41,6.93-5.45,7l-1.14,1,1.5.28a22.2,22.2,0,0,0,3.58.31,10.8,10.8,0,0,0,2.87-.33,19.1,19.1,0,0,0,5.09-2,12.79,12.79,0,0,0,2.58-2.33,8.15,8.15,0,0,0,2.93.06c3.14-.8,4.09-2.75,5.11-5.41a12.31,12.31,0,0,0,0-6.86,15.25,15.25,0,0,0-3.13-6.22,14.31,14.31,0,0,0-1.17-1.17c10.42-9.81,7-27-.47-44a36.24,36.24,0,0,1,2.35-7.93c1.23-2.47,2.68-4.9,4.86-6a6.55,6.55,0,0,1,4.1-.6,12.62,12.62,0,0,1,3.24,1,12,12,0,0,0,4.29,1.08h.05c4.27,0,5.92-2.42,6.1-3.71ZM1040.63,828v-.08l.19.23-.16.09A1.94,1.94,0,0,0,1040.63,828Zm-39,12.16a2.54,2.54,0,0,0,.19.61l.08.15a2.37,2.37,0,0,0,1.38,1.2,2.27,2.27,0,0,0,.77.13,2.41,2.41,0,0,0,1.07-.26l1.25-.62a.74.74,0,0,1-.24.5l-4.92,4.57a2.41,2.41,0,0,0-1-2.41l-.13-.09h0a2.37,2.37,0,0,0-2.09-.28l0-.07Zm90,98.67a3.79,3.79,0,0,0-.28,4.47l5.22,8.43a3.83,3.83,0,0,0,3.31,1.87,4,4,0,0,0,.84-.09l.87,4a4.13,4.13,0,0,0-1,.44,3.68,3.68,0,0,0-1.64,2.8l-.39,3.76c-4-7.55-9.15-16.1-9.6-16.86-.23-.56-2.12-5.29-4-10.29a3.78,3.78,0,0,0,1.49.33,4.15,4.15,0,0,0,2.83-1.18ZM609.75,761.31a10.81,10.81,0,0,1,3.65-2.23,27.39,27.39,0,0,1,4.31-.86c.88-.13,1.81-.27,2.87-.47a21.6,21.6,0,0,0,5.59-1.87,8.94,8.94,0,0,0,1-.55l1.73,3.22-.69.09a18.17,18.17,0,0,0-5.75,1.32,12.89,12.89,0,0,0-5.05,4.34,19.47,19.47,0,0,0-1.82,4.58A8.73,8.73,0,0,0,612,772a11.87,11.87,0,0,0-1.3,3.5,13.43,13.43,0,0,1-2-2,9.67,9.67,0,0,1-1.63-8.37A8.77,8.77,0,0,1,609.75,761.31Zm51.49-16.09a14.11,14.11,0,0,1,.54,2.82,8.17,8.17,0,0,0-3.13-.62,17.22,17.22,0,0,0-6.61,1.89,8.13,8.13,0,0,0-4.09-1.45,12.68,12.68,0,0,0-6.4,1.83,17.06,17.06,0,0,0-4.11,3.87l-1.58-2.92a8.84,8.84,0,0,0,1-.52,22,22,0,0,0,4.64-3.64c.76-.78,1.38-1.48,2-2.14a28.38,28.38,0,0,1,3.09-3.12,10.74,10.74,0,0,1,3.87-1.83,8.83,8.83,0,0,1,4.7-.15,9.65,9.65,0,0,1,6.09,6Zm262,59.66V805l1.56,0c0,.2,0,.4.06.61a17.63,17.63,0,0,0,1.24,3.64c.21.49.42,1,.62,1.51l-2.3-.9a14.12,14.12,0,0,1-5.06-3.72.83.83,0,0,1-.21-.64c0-.1,0-.21,0-.33A11.89,11.89,0,0,1,923.22,804.88Zm46.42,26.87a7.44,7.44,0,0,1,4.16,5.06c2,6.57,2.74,16.85,3,25.53-1.35-.16-2.71-.24-4-.32l-1.59-.1a132.38,132.38,0,0,0-21.75-30.61l0,0,.69-.56c1.57-1.27,2.82-1.84,4-1.79h0C960.49,829.09,965.26,829.39,969.64,831.75ZM781.43,1031.06l.71.46h0a8.74,8.74,0,0,1-.63,2.18A5.56,5.56,0,0,1,781.43,1031.06Zm262-23h0c-1.89-1.85-4.35-2-6-.31l-6.94,7.07a3.81,3.81,0,0,0-1.14,3.07,4.9,4.9,0,0,0,1.51,3l.12.11-2.6,4.83a5,5,0,0,0-3.24.11,3.7,3.7,0,0,0-2.12,2.46l-2.77,9.52a3.81,3.81,0,0,0,.46,3.25,4.8,4.8,0,0,0,2.67,1.87l-.15,2.28a15.88,15.88,0,0,0-13.12,9.45c-2.74,0-5.21,1.17-7.57,2.61.3-1.92.72-3.62,1.1-5.16.13-.56.27-1.09.39-1.61l.39-1.7-1.67.52c-2.55.8-5.26,1.9-7.07,4a14.71,14.71,0,0,0-3.52-8l-1.09-1.15-.63,1.63c-1.13,2.94-2.14,5.54-3.3,7.94a18.21,18.21,0,0,0-7.44-7l-1.63-.82.18,1.81c.08.71.19,1.42.3,2.13a13.72,13.72,0,0,1,.07,5.81,6.65,6.65,0,0,1-1-2,9.54,9.54,0,0,0-4.44-5.45l-2.15-1.39.5-.51,1.37-1.4-1.74-.4a8.57,8.57,0,0,0-5.79.54,7.16,7.16,0,0,1,3-3.46c.46-.34.94-.69,1.43-1.11l1.52-1.32-2-.41a17.69,17.69,0,0,0-1.91-.3,17.29,17.29,0,0,0,1.57-2.48c.81-1.47,1.58-2.85,2.86-3.44a2.64,2.64,0,0,1,2.35-.07,3,3,0,0,1,1.37,2.26,7.4,7.4,0,0,1-.54,4c-.53,1.4-1,3.11-.05,3.88s2.19.27,4.67-1.37c2.79-1.83,5.23-3.53,6.87-5.7.56-.73,1.19-1.46,1.91-2.3.56-.65,1.16-1.36,1.83-2.18l.63-.78a29.48,29.48,0,0,1,4.84-5.11,56,56,0,0,1,13.23-8.12c1.4-.6,2.9-1.18,4.48-1.8,2.61-1,5.32-2.06,7.57-3.19l.95-.47a24.38,24.38,0,0,0,6.27-3.94l.79-.77-.09,0c1.8-2.29,2.85-5.94,1.67-8.89-.71-1.79-3.83-3.05-5.07-3.49a89.48,89.48,0,0,0-1.82-11.26,97.07,97.07,0,0,0-4.58-11.51c3.16-.14,12.09-.66,16.89-2,1.39-.39,2.88-.9,4.41-1.48l.05.37c1.38,10.08,3.18,23.07,7.31,33.27a4.65,4.65,0,0,0,0,3.52l-4.18,2.89Zm-10.54,53a8.42,8.42,0,0,1-.48,2.81,16.94,16.94,0,0,0-5.19-6.12l-1.47-1.09-.13,1.82c0,.71-.06,1.43-.07,2.16a13.38,13.38,0,0,1-1,5.91c-.31-.35-.59-.72-.88-1.09a14.6,14.6,0,0,0-7.22-5.35,8.1,8.1,0,0,1,6.25-7.07,2.4,2.4,0,0,0,2.23,2.47h.32a2.4,2.4,0,0,0,2.38-2.16A8.14,8.14,0,0,1,1032.87,1061.11ZM927.06,1033.7a8.39,8.39,0,0,1-.63-2.21l.7-.46A5.56,5.56,0,0,1,927.06,1033.7Zm95.66-118.18a2.4,2.4,0,0,0-1,1.56l0,.15a2.37,2.37,0,0,0,.9,2.29.67.67,0,0,1-.77.13l-6.54-2.6a2.45,2.45,0,0,0,1.12-.92l.08-.13a2.39,2.39,0,0,0-.7-3.32h0a.8.8,0,0,1,.3.06l6.77,2.7Zm-20.48-10.27a2.37,2.37,0,0,0-1,.85l-.09.14a2.41,2.41,0,0,0-.34,1.76l-4.31-4.7.24,0a2.43,2.43,0,0,0,1.12-.3C999.27,903.81,1000.74,904.58,1002.24,905.25Zm-184,110.4-1.51-.72q-4.34-2.1-8.47-4.07c2.86-.34,5.9,1,10.25,4.67Zm16.89,1.79h-1.17l.16,1.15c.12.84.29,1.57.45,2.27-1.4-.27-2.8-.58-4.18-.92l0,0-.13,0c-1.11-.27-2.21-.55-3.3-.86a2.64,2.64,0,0,0-.32-4.81,4.71,4.71,0,0,0-2.78.24,3.59,3.59,0,0,1-.17-.34l-.43-.85-.26-.48c-.14-.27-.29-.53-.43-.79l-.27-.46-.44-.74-.29-.44-.45-.68-.3-.43-.3-.42c5.14,3.1,10.43,6,15.76,8.69A8.93,8.93,0,0,0,835.1,1017.44ZM809,1001.29c-4.15-.64-8.48.77-12.71,3.24a101.69,101.69,0,0,1-13.22-11.14,101.78,101.78,0,0,1-28-88.41c1.43-.05,2.5-.17,2.59-.19l1.61-.19-1.19-1.1a11.32,11.32,0,0,1-2.21-2.74c.13-.65.28-1.31.43-2,3.48,2.22,6.85,2.4,12.09,1l2.21-.57-2.12-.85a5.67,5.67,0,0,1-2.55-1.89,3.81,3.81,0,0,1-.33-1.27,7.53,7.53,0,0,0-2.57-4.89c2-.19,4.7-.34,5.85.06a11.93,11.93,0,0,1,1.86.85c.25.13.51.27.77.39q.07,11.82.25,23.78c.39,25.85,1.64,46.93,13.65,63.29C791.68,987.29,799.86,994.73,809,1001.29Zm90,10.88a21.9,21.9,0,0,0-8-2.21h0a28.35,28.35,0,0,0-5.37.3c14.65-8.57,28.15-18.82,37.5-31.54,12-16.36,13.26-37.44,13.65-63.29.25-17.19.35-34.22.29-50.9a101.12,101.12,0,0,1-38.05,147.64Zm127-83.09c-11.77,2.26-32.57,12.8-34.41,13.74a10.44,10.44,0,0,0-3.65,1.23c-2.36,1.8-2.87,3.66-3.58,6.23-.15.54-.3,1.1-.49,1.72-1.22,4-2,7.17-.55,10.62.68,1.65,3,3.5,3.76,4l.12.31a10.17,10.17,0,0,1-1.9,1.31,9.39,9.39,0,0,1-1.7.57,8.48,8.48,0,0,0-2.63,1,5.77,5.77,0,0,0-2.33,5.08,7.84,7.84,0,0,0,.79,3.08,12.52,12.52,0,0,1,.58,1.57,8.73,8.73,0,0,1,.24,1.94,7.91,7.91,0,0,0,.45,2.67c.75,2,3.37,3.55,3.66,3.72l1.77,1-.68-1.94a6.1,6.1,0,0,1-.24-3.47,2.71,2.71,0,0,1,1.79-1.37,9.45,9.45,0,0,1,1.9-.4,8.59,8.59,0,0,0,2.62-.65,9,9,0,0,0,1.84-1.27c1,1.2,2,2.32,2.94,3.41,2.73,3,5.32,5.88,6.35,10.43.8,3.51-.89,7.19-2,9.07a18.76,18.76,0,0,1-7.27,6.59c-6.58,3.7-14.63,6.24-22.41,8.69-2.7.85-5.25,1.65-7.74,2.5-1.21.41-2.39.75-3.54,1.07a25.54,25.54,0,0,0-6.9,2.66,10.92,10.92,0,0,0-3.2,3.28l-2.12,4.61a.86.86,0,0,0-.1.16c-.6.42-1.22.84-1.88,1.25a17.35,17.35,0,0,0-5.74-7.25l-1.47-1.09-.12,1.82c-.05.71-.06,1.43-.07,2.15a13.29,13.29,0,0,1-1,5.92c-.31-.35-.59-.72-.87-1.09a14.19,14.19,0,0,0-6.37-5,131.43,131.43,0,0,0,54.91-92.76l.74,1,.39-1.85c1.08-5.12,1-8.61-.34-12.17,0-.54,0-1.07,0-1.61a131.35,131.35,0,0,0-4-32.19l.39.39c.43.44.86.89,1.3,1.33a3.78,3.78,0,0,0,2.5,2.48,66.15,66.15,0,0,0,6.36,5.53,4.58,4.58,0,0,0-.92,2.09,3.67,3.67,0,0,0,1,3.08l6.7,7.31a3.81,3.81,0,0,0,2.86,1.3,4.75,4.75,0,0,0,3.18-1.35l.09-.08,4.85,3.15c-.72,2.28.12,4.38,2.16,5.19l9.21,3.67a4,4,0,0,0,1.52.31,3.69,3.69,0,0,0,1.76-.45,4.93,4.93,0,0,0,2.15-2.53l.17-.45,5.79,1a3.93,3.93,0,0,0,3.4,4.17l8,1C1038,927.33,1030.76,928.17,1026,929.08Zm12.31-7.06a2.79,2.79,0,0,0,.33-.19,2.61,2.61,0,0,0,.72-.83l1.22,1.32Zm-5-5.41-5.07-.85a4.05,4.05,0,0,0-.18-1,3.77,3.77,0,0,0-2.28-2.35l-9.21-3.67a3.68,3.68,0,0,0-3.24.16,4.56,4.56,0,0,0-1.44,1.34l-3.39-2.2a4.59,4.59,0,0,0,.27-.7,10.22,10.22,0,0,0,1.54.13h0c1.86,0,3.54-2.27,4.35-3.57,2.16,2,4.4,3.35,8.17,5.65l1.28.78,2.12,1.27c2.29,1.37,4.87,2.93,7.24,4.57C1033.51,916.28,1033.43,916.44,1033.38,916.61Zm-62,135.19a6.8,6.8,0,0,1-3,2.49c-1.22-3.24-.17-4.62,2.51-7.38l.73,2.44A3,3,0,0,1,971.35,1051.8Zm55-14.37h-.16a2.32,2.32,0,0,0-1.87.72.41.41,0,0,1,0-.11l2.06-7.1s0,0,0,.06a2.36,2.36,0,0,0,1.16,1.43l.14.07a2.38,2.38,0,0,0,1.13.29,2.3,2.3,0,0,0,.69-.1,2.37,2.37,0,0,0,1-.64l-2.08,7.15A2.4,2.4,0,0,0,1026.32,1037.43Zm11.15-19.52a2.41,2.41,0,0,0-1.16-1.42l-.14-.08a2.34,2.34,0,0,0-1.49-.25l4.62-4.7a2.4,2.4,0,0,0-.28.73,2.43,2.43,0,0,0,.39,1.8l.09.13a2.41,2.41,0,0,0,1.54,1,3.27,3.27,0,0,0,.44,0,2.93,2.93,0,0,0,.29,0l-4.45,4.53A2.41,2.41,0,0,0,1037.47,1017.91ZM722.94,1048c.14.35.27.71.39,1.06s.36,1,.58,1.48c-.37.4-.71.81-1,1.22A9.31,9.31,0,0,1,722.94,1048Zm55.67-18.86a14.27,14.27,0,0,0-5.05,3.44,12.47,12.47,0,0,0-3.06-1.15c0-.7-.07-1.42-.08-2.15s0-1.44-.07-2.15l-.12-1.82-1.47,1.09a16.84,16.84,0,0,0-3.48,3.4,4,4,0,0,0-.49,0h-.06a11.72,11.72,0,0,0-4.61,1c-.69-1.12-1.38-2.28-2.11-3.51l-.89-1.48-.88,1.31a13.34,13.34,0,0,0-2.06,6.68,13.91,13.91,0,0,1-2,.63,19.08,19.08,0,0,0-5.72-1.52l-1.73-.24.68,1.61c.1.25.22.52.33.78-7.87-.11-15.72-3.27-22.63-9.2a24,24,0,0,1-6.1-8.4,19.76,19.76,0,0,1-2-9.82,29.7,29.7,0,0,1,2.47-9,48.15,48.15,0,0,0,2.16-6.41,71.18,71.18,0,0,0,.95-8,10.23,10.23,0,0,1,2.6,2.29,8.91,8.91,0,0,1,.54,3.32,11,11,0,0,0,.54,3.54,6,6,0,0,0,3.64,3.43,6.41,6.41,0,0,0,3.15.4,4.77,4.77,0,0,1,2.49.3,9,9,0,0,1,2.41,2.78h0l0,.09h0l1,1.61.35-1.95h0l.18-.05-.11-.43a8.2,8.2,0,0,0-.12-3.67,8.48,8.48,0,0,0-2.76-3.16c-1.11-.91-2.15-1.78-2.39-2.95a5.24,5.24,0,0,1,.87-3.45,14.2,14.2,0,0,0,.84-1.89A8.14,8.14,0,0,0,734,980c-.4-2.13-3.26-4.41-4.68-5.43a2,2,0,0,1,.51-.35,7.54,7.54,0,0,1,2.93.18l1.28.3A132.18,132.18,0,0,0,778.61,1029.12Zm-50.44-151a49.26,49.26,0,0,1-7.41-1.45c1.42,0,2.47,0,2.58,0l.68,0,1,.24-.27-.27H725l-1.15-1.2a12.37,12.37,0,0,1-1.5-1.93c-.07-.15-.17-.36-.27-.59a12.84,12.84,0,0,0,5.63-.79,24.12,24.12,0,0,0,4.72-3.51l.58-.54a13.88,13.88,0,0,0,2-1.33q-2.61,5.63-4.69,11.53A16.42,16.42,0,0,1,728.17,878.13Zm-23.86,37c2-2.13,5.23-6.49,6.45-8.15,2.56,2,5.16,1.55,7.46,1.2l1.32-.21-.86-1c-1.6-1.91-2.55-3.69-2.2-6.21,3.2,3.42,5.09,5.25,7.22,6.29a132.2,132.2,0,0,0-.82,14.7,130.64,130.64,0,0,0,10.29,51c-5.5-7.61-8.8-9.07-17.33-7.47a27.31,27.31,0,0,0-.93-4.11c-.7-2.14-1.58-4.81-3.72-6.18-.83-.53-2.72-1.65-3.27-2a34.89,34.89,0,0,1-1.89-3.15,11.75,11.75,0,0,0-5.8-5.81,13.25,13.25,0,0,0-8.61-1.43c-1.31.2-2.61.42-3.9.63-3,.5-6,1-8.89,1.29.41-.89.81-1.77,1.17-2.63.77-1.8-1.5-3.31-3.49-4.64l-.12-.08c.16-.29.32-.56.47-.8a28,28,0,0,1,6.6-7.35,43.22,43.22,0,0,1,6.24-3.64c1.39-.71,2.82-1.45,4.13-2.23C697.87,920.74,701,918.74,704.31,915.17Zm379.4,120.1a27.72,27.72,0,0,1,4.64,10.83c2.36,10.32,1.37,25.29-4.85,35.1l-.17-.45-1.18,1.24c-2.17,2.29-4.1,4.32-6.1,6.11a18.12,18.12,0,0,0-4.21-9.32l-1.19-1.38-.52,1.75c-.21.68-.37,1.38-.54,2.08a13.4,13.4,0,0,1-2.26,5.55c-.23-.41-.42-.82-.62-1.25-1-2.14-2-4.35-6.63-7.31l-1.44-.92-.1,1.7c0,.55,0,1.1-.06,1.66a18.35,18.35,0,0,1-.23,3.11,22.78,22.78,0,0,1,.1-5.93l.36-2.24-4.35,2.87a17.62,17.62,0,0,1,1.85-4c.38-.65.77-1.31,1.14-2.1l.5-1.06-1.12-.33c-3-.89-5.94,0-8.81,1.09.62-1.85,1.32-3.45,1.95-4.9.23-.53.46-1,.66-1.53l.68-1.61-1.74.23c-2.65.37-5.5,1-7.64,2.72a25.33,25.33,0,0,0-13.66-21.36l.1-1.5a4.38,4.38,0,0,0,1.54-.34,3.78,3.78,0,0,0,2.13-2.49l2.77-9.52a3.71,3.71,0,0,0-.47-3.22,4.39,4.39,0,0,0-1.13-1.1l1.74-3.23a4.07,4.07,0,0,0,1.55.33,3.85,3.85,0,0,0,2.77-1.2l6.95-7.08a3.78,3.78,0,0,0,.72-4.34l3-2.05a4.51,4.51,0,0,0,1.22,1,3.75,3.75,0,0,0,1.8.47h.11c1.37,2.15,2.92,4.47,4.84,5.5,0,0,1.66.85,4,2.11a11.53,11.53,0,0,0-3.21,3.7,5.21,5.21,0,0,0,0,4.84,5.65,5.65,0,0,0,1.59,1.71,3.2,3.2,0,0,1,1.25,1.42,4.55,4.55,0,0,1-.49,2.12c-.13.35-.26.69-.37,1a8.79,8.79,0,0,0-.36,3.18c.14,3.14,3.43,5,3.57,5.1l2.24,1.26-1.21-2.27a3.27,3.27,0,0,1-.2-2.68,4.2,4.2,0,0,1,.85-.63,7.61,7.61,0,0,0,1.71-1.35,6.85,6.85,0,0,0,.91-1.58,4.44,4.44,0,0,1,.43,3.6l-.42,1.52,1.44-.62a11.17,11.17,0,0,0,6.84-11.09c0-.17,0-.35,0-.52l.16.12A30.69,30.69,0,0,1,1083.71,1035.27ZM849.07,682.8l-.11,0c0-.05,0-.1,0-.15ZM714.21,1046c.18.56.37,1.1.56,1.61a13.36,13.36,0,0,0-.78,1.62A22.29,22.29,0,0,1,714.21,1046ZM829.19,669a5.85,5.85,0,0,0,0-1.19l0,0a7.28,7.28,0,0,1,.75.91c.18.26.37.51.56.74l.74.86.28-1.1a7.1,7.1,0,0,0,.12-4.38,2.15,2.15,0,0,1,1.39.6l.25.22.66.53,0-.08.16.13v-.59l.17-.48a4.28,4.28,0,0,0-.28-4,5.21,5.21,0,0,1,.66.28,6.74,6.74,0,0,0,.74.3l1,.59-.14-.89v-.08c.35-1.47-.16-2.71-1.38-4.6a2.46,2.46,0,0,1,1.45.33,6.51,6.51,0,0,0,1.1.39l.14,0,.67.34-.13-.77c.67-1.75-.43-4-1.62-5.42l.19-.07a3.17,3.17,0,0,1,1.63.31l.62.3L839,652l.34.09-.2-.6c.36-1.4-.42-2.69-1.11-3.83a2.39,2.39,0,0,1-.13-.21,35.54,35.54,0,0,0,4.43.47h0a17.76,17.76,0,0,0,6-1.21,54.85,54.85,0,0,0,10.34-5.53c.86-.55,1.69-1.08,2.52-1.58v0l-.21.91.8,0a4.51,4.51,0,0,1,.64,0,5.13,5.13,0,0,0,2-.2c.38-.16.72-.28,1-.38-3,2.71-7,6.64-8.78,9.71a8.4,8.4,0,0,0-1.23,4.29,13,13,0,0,0,.52,3h-8.53l.63.79a12.13,12.13,0,0,0,1,1.11,12.19,12.19,0,0,1,1,1.14A7.83,7.83,0,0,1,851.2,662a8,8,0,0,1-2.12-1.11,12.19,12.19,0,0,1-1.14-1,12.13,12.13,0,0,0-1.11-1l-.79-.63V670.7l.79-.62a13.84,13.84,0,0,0,1.11-1,10.82,10.82,0,0,1,1.14-1,7.77,7.77,0,0,1,2.12-1.12,7.66,7.66,0,0,1-1,2l-.09,0c-.9.34-1.67.63-2.09.85a6.5,6.5,0,0,0-3.34,3.73,4.45,4.45,0,0,0-2,2.53,3.56,3.56,0,0,0,.51,2l.2.36.26.8.08-.19.11.18.42-1.25a1.76,1.76,0,0,1,.78-1.1.94.94,0,0,1,.3-.06,3.44,3.44,0,0,0,1.48.9v1.79a3.17,3.17,0,0,0-3.53,1,10.24,10.24,0,0,1-8.68-4,3.24,3.24,0,0,0-2.79,1.61h0a3.26,3.26,0,0,0-6.42-.83,3.23,3.23,0,0,0-.75-1.63,13.24,13.24,0,0,0,3.58-3.87A7,7,0,0,0,829.19,669Zm-122.4,379.36a8.07,8.07,0,0,1-.18-5c.95,4.37,2.58,6.71,6.31,9.64l.05,0c0,.12-.05.24-.07.37a13.29,13.29,0,0,0-5.6-3.47Zm-54.11-20.57c-.26,2.88.91,5,2,6.82a15.38,15.38,0,0,1,1.36,2.85,5.08,5.08,0,0,1,.1,3.45l-.5,1.79,1.6-1c2.91-1.73,3.19-3,3.52-4.49l.08-.38a13.86,13.86,0,0,0,.28-3.12,10.85,10.85,0,0,1,.16-2.24,10.62,10.62,0,0,0,4.08,5.47l.2.31.11-.07.16.13,1.65,1.19-.48-2c-.33-1.36-.58-3.84.16-4.69a19.26,19.26,0,0,1,2.84-2.5,18.17,18.17,0,0,0,3.07-2.76,7.63,7.63,0,0,0,.8-9.06,13.89,13.89,0,0,0,2-1.87l.24-.15v-.13a7.3,7.3,0,0,0,1.43-2.53,11.08,11.08,0,0,0-1.21-8.2,36.32,36.32,0,0,0-5.44-6.77l1-1.5a36,36,0,0,0,5.9-1.35c2.08-.7,5.71-3.35,8-5.27a24.68,24.68,0,0,0,1.4,7.57c.39.91.87,1.82,1.34,2.7,1.4,2.63,2.73,5.11,1.87,7.76a9.6,9.6,0,0,1-2.66,3.3c-.41.4-.83.8-1.23,1.22-1.68,1.74-2.5,4.89-2.71,7.26-.14,1.66-.12,4.57,1.65,5.47l2.25,1.13c4.47,2.21,8.69,4.3,10,7.43.3,1.26.52,2.45.74,3.6,1,5.2,1.78,9.31,7.38,12l1.06.51-1-.32-1.67-.52.39,1.7c.12.52.25,1.05.39,1.61.38,1.54.8,3.24,1.1,5.16-2.62-1.6-5.38-2.93-8.5-2.56l-1.16.14.31,1.13c.23.82.5,1.52.75,2.21a16.61,16.61,0,0,1,1.06,3.74l-3.63-4.25.3,3.16c.31,3.15-.43,4.87-1.45,6.12a10.17,10.17,0,0,1,.28-4.53q.16-.79.3-1.59l.28-1.69-1.61.59c-5.12,1.88-6.62,3.81-8.07,5.67-.29.37-.57.74-.88,1.09a13.38,13.38,0,0,1-1-5.91c0-.73,0-1.45-.08-2.16l-.12-1.82-1.47,1.09a18.12,18.12,0,0,0-6.15,8.17c-1.56-2.18-3-4.59-4.61-7.31l-.87-1.46-.88,1.31a14.65,14.65,0,0,0-2.12,8.5c-2.14-1.73-5-2.35-7.65-2.72l-1.73-.23.68,1.61c.2.49.42,1,.65,1.52.64,1.46,1.34,3.06,2,4.91-2.86-1.14-5.79-2-8.81-1.09l-1.12.33.5,1.06c.37.79.76,1.45,1.14,2.1a17.62,17.62,0,0,1,1.85,4l-4.35-2.87.36,2.24a22.78,22.78,0,0,1,.1,5.93,19.51,19.51,0,0,1-.24-3.11c0-.56,0-1.11-.05-1.66l-.1-1.7-1.44.92c-4.14,2.67-5.39,4.73-6.33,6.68a17,17,0,0,1-3.06-3.47l-.11-.16v0c-.17-.7-.33-1.4-.54-2.08l-.52-1.75-.62.72c-2.41-5.6-2.76-12.71-2.74-18.59,0-6.67-.26-14.54-.32-16.37a91.65,91.65,0,0,0,9.31-7.79c2.63-2.78,6.93-7.82,9.91-11.36A16.35,16.35,0,0,0,652.68,1027.75ZM889.05,668.33c0,.6-.11,1.16-.14,1.5l-1.12.54-2.72,1.18a4.31,4.31,0,0,1-.47.14A5.68,5.68,0,0,0,882,673l-.25.15v0l0,.07-.23.13.12.06h0a9.06,9.06,0,0,0-.64.75l0-.12-.44.8a2.42,2.42,0,0,0-.47-.05,3.28,3.28,0,0,0-3.26,3.31h0a3.24,3.24,0,0,0-6,1.14,3.22,3.22,0,0,0-2.37-1.05,3.23,3.23,0,0,1-5.59,1.1,3.18,3.18,0,0,0-1,.18v-3.35a5.09,5.09,0,0,1,.67,1.56l.34,1.19.71-1a.64.64,0,0,1,.23-.18c.67-.39,1-.88,1-3.25a2.51,2.51,0,0,1,.84,1.29l.26,1.34.79-1.11a6.37,6.37,0,0,0,1.08-3.29l.06,1.55,1-1.52a6.83,6.83,0,0,0,1-5.82,3.63,3.63,0,0,1,1.19.8l1,.9v-1.34a20.9,20.9,0,0,0-.55-4.81l0-.09c-1.74-3.36-1.69-8.87-.62-12.26a20.38,20.38,0,0,1,1.88-3.92v.62a6.13,6.13,0,0,0,.17,1.42,9,9,0,0,0,2.55,4.06l.19.19.29.29a6.2,6.2,0,0,0,1.55,1.1c.55.33,1,.6,1.14.64l1.34.4.7.25.76.28a5.86,5.86,0,0,1,2.63,2.31c.31.4.63.82,1,1.22s.59.65.88,1a12.35,12.35,0,0,1,3,4.22,7.65,7.65,0,0,1,.38,1.65Zm-75.52,19.43a13.52,13.52,0,0,1,6.53-3.27,16.28,16.28,0,0,1,6.58-.34,43.32,43.32,0,0,1,6.3,1.91c1.23.45,2.5.91,4,1.39a31.31,31.31,0,0,0,8.39,1.46,14.17,14.17,0,0,0,2.32-.11v7.91c-.67-.23-1.39-.51-2.15-.8-2.68-1-5.72-2.2-7.87-2.2a17.44,17.44,0,0,0-8.89,1.92,30,30,0,0,0-5.68,4.87,12.13,12.13,0,0,0-6.67,1.32,17.12,17.12,0,0,0-4.36,4.07l-.53.08a26.72,26.72,0,0,1-1.9-5.64,14.85,14.85,0,0,1,3.92-12.57ZM789.38,805.55a.79.79,0,0,1-.2.64,14.25,14.25,0,0,1-5.07,3.72l-2.3.9c.2-.51.41-1,.62-1.51a18.32,18.32,0,0,0,1.25-3.64c0-.21,0-.41.05-.61l1.57,0v-.12a11.86,11.86,0,0,1,4.09.34C789.38,805.34,789.38,805.45,789.38,805.55ZM898.92,700.33A26.24,26.24,0,0,1,897,706l-.58-.09a11.28,11.28,0,0,0-3.73-3.31,24.37,24.37,0,0,0-10.13-2h0a11.3,11.3,0,0,0-4.1-4.91,17.88,17.88,0,0,0-8.89-1.92c-2.15,0-5.18,1.17-7.86,2.2l-.85.32V688.8a14.17,14.17,0,0,0,2.32.11,31.25,31.25,0,0,0,8.39-1.46c1.52-.48,2.79-.94,4-1.39a43.57,43.57,0,0,1,6.29-1.91,14.56,14.56,0,0,1,4.85,0l0,.13.05-.12.07,0,.06.1,0-.09c.49.08,1,.17,1.48.29a13.65,13.65,0,0,1,6.53,3.27,12.81,12.81,0,0,1,3.55,6.27A12.63,12.63,0,0,1,898.92,700.33ZM847.41,585.05c.4,1.08.52,1.66-.41,3.49a3.11,3.11,0,0,0-.28-.23,7.65,7.65,0,0,0-3-1,3.65,3.65,0,0,0-1.13-1.67,5.65,5.65,0,0,0-2.8-1,7.11,7.11,0,0,0-2.32.33l0-.37a11.51,11.51,0,0,0,3.25-.56,9.7,9.7,0,0,1,3.7-.89A3.27,3.27,0,0,1,847.41,585.05Zm182.91,248.64h0l.17.07-.88.48a4.52,4.52,0,0,0,.19-1.82l.25,0-.15,1.38ZM1016.46,840a4.24,4.24,0,0,0,1.29-.21l5.38-1.76c-7.2,4.44-13.61,9.72-18.07,17.89-1-1.63-2-3.28-3-4.93l.19-.14,7.26-6.75a3.81,3.81,0,0,0,.77-4.66l2.81-1.4A4,4,0,0,0,1016.46,840ZM832.39,584.54l-.13-.07a8.38,8.38,0,0,0-2.45-1,5.64,5.64,0,0,0-2.94.3,9,9,0,0,0-1.93,1.29,3.84,3.84,0,0,0-2.15.21,3.44,3.44,0,0,0-.53.3c-.46-1.94-.21-2.48.43-3.42A3.25,3.25,0,0,1,826,581a9.7,9.7,0,0,1,3.39,1.72,11.38,11.38,0,0,0,3,1.31Zm255.84,389c-.1-1.39-1.08-6-1.94-9.9,2.14,4.15,5.11,10,7.11,14.46l-5.53,6.73c-.08.1-.13.2-.2.3A57.72,57.72,0,0,0,1088.23,973.55Zm-6.42-44.78.17-.18-.14.27Zm-43.34-102.88a9.75,9.75,0,0,1-.13-1.52,11.9,11.9,0,0,1,1.25,1.91A2.55,2.55,0,0,0,1038.47,825.89Zm-15.75,5.25,0,.15a2.38,2.38,0,0,0,2.23,2l-7.39,2.41a2.41,2.41,0,0,0,.56-2.86l-.07-.14h0a2.44,2.44,0,0,0-1.47-1.23l6.53-2.13,0,.05A2.38,2.38,0,0,0,1022.72,831.14Zm64.43,157.33a4.6,4.6,0,0,0,.25.61l-.42.3C1087,989.08,1087.1,988.78,1087.15,988.47Zm18.33-20.55-.14-.07a2.41,2.41,0,0,0-3.23,1l-.09.18.68-6.55a2.44,2.44,0,0,0,.9,1,2.37,2.37,0,0,0,1.29.38,2.31,2.31,0,0,0,.52-.06l.15,0a2.4,2.4,0,0,0,1.45-1l-.61,5.87A2.34,2.34,0,0,0,1105.48,967.92Zm-3.82-21.82-.15,0a2.41,2.41,0,0,0-1.83,2.86l0,.1a.75.75,0,0,1-.38-.31l-3.72-6a2.38,2.38,0,0,0,1.21.34,2.44,2.44,0,0,0,1.69-.68l.11-.11a2.4,2.4,0,0,0,.71-1.74l3.44,5.53A2.55,2.55,0,0,0,1101.66,946.1Zm-15.79-16.75-.11.11a2.39,2.39,0,0,0,0,3.39l.35.37a.77.77,0,0,1-.49-.14l-3-2.14-.25-.72-.26-.74,0-.93a2.46,2.46,0,0,0,.45-.79l.06-.15a2.4,2.4,0,0,0-.49-2.35l4.91,3.49A2.33,2.33,0,0,0,1085.87,929.35Zm8.92,57.52-.09-.13a2.39,2.39,0,0,0-2.58-.89l3-3.64c.58,1.52,1.13,3.11,1.69,4.75l-1.67,2A2.38,2.38,0,0,0,1094.79,986.87Zm-52.66-160.56a4.88,4.88,0,0,1-.19.81l-.13.13-.38.39.8-1.79C1042.19,826,1042.16,826.16,1042.13,826.31ZM620.75,1089.12a4,4,0,0,0,.09.87,8.54,8.54,0,0,0-.86-.07C620.24,1089.66,620.5,1089.39,620.75,1089.12Zm422.11-282.35c4.9-1.63,8.84-1,12.64-.35s7.62,1.25,11.73-.79c-2.76,3-6.88,7.3-9.94,10.38a60,60,0,0,1-5.73,5l-.11,0c-.29.11-.72.29-1.16.51l.34-.74-1.2,1.21a4,4,0,0,0-.79.57,6.12,6.12,0,0,0-.61.79,3,3,0,0,0-.32-.37,2.26,2.26,0,0,0-.9-.57,3.44,3.44,0,0,0-2.56.36,3.37,3.37,0,0,0-1.25,1.31l-.06.08,3.4-7.61h0l-.17.11.11-.26h0l-1.55.92a24.47,24.47,0,0,1-2.8,1.5,8.8,8.8,0,0,1-2.83.72.08.08,0,0,1,0,0,11.81,11.81,0,0,1,.87-.86,28,28,0,0,1,4-2.77l.08,0h0l.91-.54,1.08-.64-.13-.1,0,0-.6-.46a28.48,28.48,0,0,0-6.91-4l-.51-.19A17.2,17.2,0,0,1,1042.86,806.77Zm-25.56,19.51c1.1-2.87,3.1-3.38,5.63-4a18.94,18.94,0,0,0,3.7-1.24,7.72,7.72,0,0,0,4.11-6.63,14.89,14.89,0,0,0,6.52-3.87l.65-.54v.07h-.05l-.1.59c-.06.3-.11.6-.17.89l0,.11-.16.55h0l-1.7,5.15a3.06,3.06,0,0,0-1.87,1,3,3,0,0,0,.18,4.08l-1.2,3.63-.24-.27-.69,1.18-3.52.65a4,4,0,0,0-5-2.57l-6.45,2.1Zm-94.09-102.2c0,.14.1.28.16.42l-.17-.1Zm-20.68-16.8h0l.05,0Zm-96.54,0h0ZM785.32,724.4l-.17.1.17-.42Z" transform="translate(-25.1 -10.61)"/>
  <g>
    <path class="cls-1" d="M625.34,411.54a14,14,0,0,0-9.28-5.59,14.18,14.18,0,0,0-13.19,5.2,12.1,12.1,0,0,1-5.86-5.51c.09-.83.19-1.63.28-2.46a1.52,1.52,0,0,0-.32-1.25,1.43,1.43,0,0,0-1.09-.57,1.52,1.52,0,0,0-.73,0c-.44-1.25-.85-2.55-1.27-3.87l-.12-.41c.13-1.28.27-2.56.39-3.84a2.47,2.47,0,0,0-.55-1.83,3.29,3.29,0,0,0-2.21-1.21l-.23,0a14,14,0,0,0-3.87-4.94,3.28,3.28,0,0,0-2.72-2.72,3.4,3.4,0,0,0-2.44.71l-40-4.8a3.36,3.36,0,0,0-1.59-.81,3.89,3.89,0,0,0-2.11.36l-19.27-2.31,21.73-11.45v0l3.47-1.9-.07-.07a3.82,3.82,0,0,0,2.68-.93,1.28,1.28,0,0,0,.21-.53l22.57-11.94c1,1.63,2,3.38,2.84,5.11,3,5.72,6,11.64,13.64,12h0c.28,0,.58,0,.87,0,3.55,0,7.92-1.23,13.38-3.77a13.9,13.9,0,0,0,1.5-.81l0,4.59a7.6,7.6,0,0,0-5.88,7.21l.08,3.88h0l0,13.5v.11l14.46,0h.11L610.77,377v-.11h0l-.08-3.67a7.26,7.26,0,0,0-5.91-7.2l0-6.29.16-.11c8.16-5.27,17.28-15.14,18.06-24.41l0-1.66v0c0-.21,0-.42,0-.63a2.61,2.61,0,0,0,.3-1.14,2.52,2.52,0,0,0-1-2,13.57,13.57,0,0,0-1.57-3.08,2.61,2.61,0,0,0-1.37-1.63,10.54,10.54,0,0,0-3.84-2.41,2.47,2.47,0,0,0-1.66-.67h0l-.43.08a18.29,18.29,0,0,0-3.59-.35,2.6,2.6,0,0,0-1.1-.28h0a2.36,2.36,0,0,0-1.24.36c-1.06.08-2.16.22-3.32.42a2.39,2.39,0,0,0-.7-.12,2.32,2.32,0,0,0-1.51.56c-1,.22-2,.48-3,.77a2.33,2.33,0,0,0-.53-.06h0a2.69,2.69,0,0,0-1.48.67q-1.5.48-3.09,1.05h-.18a2.43,2.43,0,0,0-1.79.75h0c-.92.36-1.85.74-2.81,1.14h-.12a2.45,2.45,0,0,0-1.8.75l-.06.09-.58.26h0l-2,.94-.23,0h0a2.66,2.66,0,0,0-1.8,1l-2.45,1.21a1.55,1.55,0,0,0-.31,0h0a2.81,2.81,0,0,0-2.17,1.3c-1,.54-2.06,1.08-3,1.61a2.21,2.21,0,0,0-.88.47l-.72.4-1.6.89c-2.71-1.34-7.25-.77-9.37,1.23a3.76,3.76,0,0,0-.88,4.38l-14.49,8.06c-7.39-5.23-11.53-8.12-17.72-10.84l1.46-.81.78-.41.13,0a5.19,5.19,0,0,0,1.53.24,4.17,4.17,0,0,0,2-.51,4.46,4.46,0,0,0,2.22-2.53c2.9-.9,5.42-.54,7,1.06l1,1,1.07-.86a11.86,11.86,0,0,0,3.72-5.09l1.72.35,32.93-26.44.1-.08a2.09,2.09,0,0,0,.29-2.7,2,2,0,0,0-2.46-.7l-39.84,13.52-1.06,2.65a11.12,11.12,0,0,0-3.35.1,25.66,25.66,0,0,0,9.68-21.35l-.12-3.36L545.08,295a14.26,14.26,0,0,1-2.22,1.74,11.27,11.27,0,0,1-9.19,1.15,10.82,10.82,0,0,1-1.75-.72,2.39,2.39,0,0,0,.34-.63,2.7,2.7,0,0,0,.11-1.3l3.53-2.19a8.41,8.41,0,0,0,7.34-.61,8.5,8.5,0,0,0,3.74-5.4,8.68,8.68,0,0,0,.17-1.76c5.66-1.38,7.57-1.09,8.63-.94,1.52.23,2.29.07,4.07-1.35l54.75-42.35.12-.11a2,2,0,1,0-2.29-3.35l-62,30.31c-2.31,1.21-2.8,1.68-3.24,3.15-.25.86-.77,2.6-4.69,7.35a8.43,8.43,0,0,0-8.11.3,8.34,8.34,0,0,0-3.8,6.41l-3.43,2.13a2.72,2.72,0,0,0-1.93-.47c0-.24,0-.47,0-.7l.16-1.07.31-1.41a11,11,0,0,1,4.78-6.4,10.12,10.12,0,0,1,2.38-1.14l3.38-1.06-3.11-1.69a25.86,25.86,0,0,0-25.7.36,25.37,25.37,0,0,0-11.69,22.91L496,300l2.45-2.95a7.84,7.84,0,0,1,1.91-1.6,11.65,11.65,0,0,1,7.89-1.38l1.53.37,1,.32.37.17-.73.46a2.46,2.46,0,0,0-1.08,1.63,2.49,2.49,0,0,0,0,1L477.5,317.72v-8.08l0-2.58a4.81,4.81,0,0,0-3.14-4.45l.51-7.5,3.65-3.07a5,5,0,0,0-.22,1.29l.11,2.34,0,9v.1l8.73-.14h.1l0-8.87h0l0-2.57a4.81,4.81,0,0,0-3.31-4.51l0-1.2,25.21-21.22a2.83,2.83,0,0,0,2.87-.28l3.53-3.06c.18.37.34.73.5,1.1a11.9,11.9,0,0,0,1.59,2.88l.1.11a6.3,6.3,0,0,0,4.4,2.09,3.91,3.91,0,0,0,2.54-.9c1.83-1.76,1.71-4.8-.22-7a10.38,10.38,0,0,0-2.75-2.36c-.24-.15-.47-.3-.69-.46l3.59-3a2.63,2.63,0,0,0,.82-1.88,2.66,2.66,0,0,0-.1-.75l.38-.3a8.38,8.38,0,0,0,1.87.21,8.5,8.5,0,0,0,5.37-1.9,8.4,8.4,0,0,0,2.84-5.62,8.55,8.55,0,0,0,0-1.24,1.56,1.56,0,0,1,.68.2,6.25,6.25,0,0,1,.56,2.75l.31,3.4,44.55-48.86a2,2,0,0,0,.29-2.68,2.2,2.2,0,0,0-2.92-.4l-56,35.44,3.6.77c2.16.46,2.73,1,2.87,1.3a1.2,1.2,0,0,1,0,.62,8.24,8.24,0,0,0-7.48,1.6,8.48,8.48,0,0,0-3,6.82l-.29.26a3.16,3.16,0,0,0-1.17-.26,2.72,2.72,0,0,0-1.16.25,21.73,21.73,0,0,1-.31-2.37,12.51,12.51,0,0,1,6.81-11.3l3-1.48-3.12-1.26c-10-4-20.58-2.5-28.33,4.06s-11,16.64-8.7,27.08l.72,3.33,2-2.78A12.22,12.22,0,0,1,501,255.78h0a14.45,14.45,0,0,1,2.27.63,2.7,2.7,0,0,0-.47,1.47,2.87,2.87,0,0,0,.11.77l-19.37,16.22-1.79-43.16,0-1.25c1.83,1.47,3.35,2.22,4.56,2.22a2.39,2.39,0,0,0,1.13-.27c1.2-.63,1.91-2.32,2.15-5.11a12.42,12.42,0,0,0,2.25.24A5.31,5.31,0,0,0,496,226c1.89-2,2.12-6.06.72-12l7.7-8.95a5.1,5.1,0,0,0,3.83-1.7l.09-.12a4.71,4.71,0,0,0,.82-3c1.94-1.42,4.56-2.6,7-1.32l1.27.66.72-1.24a11.53,11.53,0,0,0,1.1-9.44l.33,0a4.73,4.73,0,0,0,3.85-1.84,4.14,4.14,0,0,0,.76-2,14.34,14.34,0,0,0,6.52,1.56,15.78,15.78,0,0,0,5.51-1l-.59-2.9a8.36,8.36,0,0,1-5.77-1.63A8,8,0,0,1,528.06,170a8.06,8.06,0,0,1,11.21-1.46,7.89,7.89,0,0,1,3,5.11h3a14.55,14.55,0,0,0-5.49-13.24,14.32,14.32,0,0,0-13.53-2.1l4.89-4.59-39.69-16.8,23.37-29.24L464,102l12.17-34.21L422.83,72,427.1,30.5,381,52,367.75,17.37l-37,25.53L309.18,10.61,286,39.84l-32.84-21.1-13.2,33.1L200.14,35.92l0,.63-.26-.12.26.25-1.75,30.23-50.94-3.68L158,97.88l-58.16,9.06.5,1h0l13.4,26.14L77.36,148.57l.64.74-.35.13h.47l23,26.58,1,11.94a9.53,9.53,0,0,0-1.41.29,4.45,4.45,0,0,0-.87-3,4.55,4.55,0,0,0-4.1-1.64,14.8,14.8,0,0,0-11.7-20.3,14.39,14.39,0,0,0-10.77,2.94A14.55,14.55,0,0,0,68,179.47l3,.05a7.83,7.83,0,0,1,3-5,8,8,0,0,1,5.93-1.67A7.6,7.6,0,0,1,85,175.72a7.44,7.44,0,0,1,1.58,5.63,8.45,8.45,0,0,1-8.74,7.19l-.66,2.89a14.86,14.86,0,0,0,5.31,1,14.21,14.21,0,0,0,6.76-1.72,4.28,4.28,0,0,0,.84,2.15,4.52,4.52,0,0,0,3.12,1.72c.21,0,.42,0,.64,0l.27,0A11.39,11.39,0,0,0,95.42,204l.72,1.16,1.22-.61c2-1,4.65-.5,7,1.4a4.71,4.71,0,0,0,.93,2.83,4.41,4.41,0,0,0,3,1.79,6.84,6.84,0,0,0,.79.05l7.8,8.8c-1.34,6-1.06,10.05.84,12a5.37,5.37,0,0,0,4.07,1.5,12.15,12.15,0,0,0,2.36-.26c.27,2.77,1,4.44,2.19,5.05a2.5,2.5,0,0,0,1.1.25,6.9,6.9,0,0,0,3.78-1.67l0,0a7.89,7.89,0,0,1,1,1.32l-.51,16.43L110.18,237.3a5.18,5.18,0,0,0,.34-1.51,2.92,2.92,0,0,0-1.4-2.79,3.31,3.31,0,0,0-4,.36l-1.54-1.2a3.25,3.25,0,0,0-.74-.69c-.11-.06-.23-.09-.34-.15l-3.45-2.69.89,2.53a5.16,5.16,0,0,0-.52.16,6.41,6.41,0,0,0-3.9,5.41c0,.07,0,.14,0,.2l-1.78,0a5.39,5.39,0,0,1-1.62-1.76c-1.13-2.43-1-3.23-.86-3.71.39-1.86-.45-2.62-3.09-4.49L43.5,193.63a1.92,1.92,0,1,0-2.66,2.77l37,41.65.16.16c2.53,2.12,3.26,2.57,4.65,2.23.3-.08,1.23-.31,6,1.93l.48.24c3.61,1.8,6.44,3.22,9.5,3.22a11.26,11.26,0,0,0,4.79-1.15l28,21.58-.17,5.47a4.53,4.53,0,0,0-3.71,4.47l-.19,2.47h0v.21h0l-.24,6.67-21-16.84a2.7,2.7,0,0,0,.1-.8,2.61,2.61,0,0,0-1-1.91l-3.56-2.92.91-.65a12.17,12.17,0,0,0,2.53-2.17,5.73,5.73,0,0,0,1.39-4.33,3.84,3.84,0,0,0-1.51-2.65,3.74,3.74,0,0,0-2.73-.87,6.06,6.06,0,0,0-4.09,2.24,12,12,0,0,0-1.67,3.06c-.13.32-.26.64-.41,1l-3.52-2.89-.11-.07a2.78,2.78,0,0,0-2.7-.21l-.39-.28a8.38,8.38,0,0,0-3-6.68,8.48,8.48,0,0,0-6.09-1.78,8.16,8.16,0,0,0-1.79.4c-.67-1.46-.09-2.09,1.29-3.53L81.25,242,28.39,210a2.08,2.08,0,0,0-2.64,3.21l42.89,44.83,1-1.71c.84-1.43,1.18-2,3.23-2a8.69,8.69,0,0,0,0,1.53A8,8,0,0,0,76,261.48a8.38,8.38,0,0,0,7.21,1.5l.32.26a3,3,0,0,0,.45,2.33c-.31.12-.62.22-.94.31l-1.26.3-1.36.24a11.81,11.81,0,0,1-11.11-4.62l-2-2.7-.63,3.33C64.6,273,68.11,283,76,289.35a26.42,26.42,0,0,0,16.67,5.84,29.8,29.8,0,0,0,11.74-2.48l3.21-1.38L104.4,290a12,12,0,0,1-7-11,15.75,15.75,0,0,1,.28-2.44,2.69,2.69,0,0,0,1,.22,3.09,3.09,0,0,0,1.26-.29L129.42,300a2.85,2.85,0,0,0-2.14,1.24c-2,3.09,3.22,9.27,4.65,10.86a19.75,19.75,0,0,1-4.24,3.92l-.64.46v.78a17.19,17.19,0,0,0,1.65,6.54,11.27,11.27,0,0,1,1.18,4.43,12.81,12.81,0,0,1-1,2.35c-1,2-2,4.21-1.58,6a27.22,27.22,0,0,1-4.79-3,8.76,8.76,0,0,1,.16-.91c.31-1.5.83-4-1.3-5.95-2.42-2.34-8.47-6-13.4-8.58-6.64-3.49-9.69-4.42-11.2-4.51a8.26,8.26,0,0,0-.46-4.32,2.93,2.93,0,0,1-.27-1.12v-.1a3.08,3.08,0,0,1,.11-.88,1.92,1.92,0,0,0-.41-2,1.62,1.62,0,0,0-1.6-.33l-.11,0a2.27,2.27,0,0,1-2,0l-.15-.08A3,3,0,0,1,90.2,303a2.77,2.77,0,0,0-2.5-2.15c-2-.09-3.92,2.11-4.83,4.2a6.9,6.9,0,0,0-.64,3.06l-.7-.27c-1.07-.41-2.28-.86-3.6-1.43a4,4,0,0,1-2.32-2.17c-.21-.34-.44-.71-.72-1.14s-1.41-2.1-3-1.61-1.83,2.44-1.81,5.46a82.24,82.24,0,0,1-8.29-.48C56.92,306,53,305.6,46,307.56c-6.1,1.61-10.83,7.66-11.87,12.55a10.22,10.22,0,0,0,3.39,9.95,15.19,15.19,0,0,0,10,3.85,12.06,12.06,0,0,0,3.72-.57c3.26-1,6.19-3.13,9-5.17a30.46,30.46,0,0,1,5.88-3.65,19.38,19.38,0,0,1,5.3-1.2,8.15,8.15,0,0,0,2.48,3.08c-1,6.48-.37,11.19,2,14.33a10.41,10.41,0,0,0,7.47,4,24.34,24.34,0,0,0,2.72.16,29.64,29.64,0,0,0,6.71-.89c4-.86,8.07-1.74,17,.79.31.21.63.42.95.65,3.55,2.57,5.3,1.93,6.78,1l.4-.23.17.07c2.77,1.26,4.08,1.35,5.4.37,0,0,.07-.06,0-.06a4.62,4.62,0,0,1,1.8.58c1.82.82,3.68,1.85,5.48,2.84l2.24,1.21a3.71,3.71,0,0,0,.19,2.84,2.09,2.09,0,0,0,1.61,1,8.83,8.83,0,0,1-2.18,2.73,5.33,5.33,0,0,0-4.55,2.77,10.29,10.29,0,0,0-.92,5.93L90.29,354.05a3.12,3.12,0,0,0-2.44-1.49h0a2.55,2.55,0,0,0-1.12.29l-7.51-2.56a4.86,4.86,0,0,0,.54-2.12v-.12A4.81,4.81,0,0,0,75,343.41h0a4.57,4.57,0,0,0-3,1.1,5.63,5.63,0,0,0-3-.91A5,5,0,0,0,65.41,345a5.37,5.37,0,0,0-1.65,3.74,5.16,5.16,0,0,0,1.46,3.7,5.59,5.59,0,0,0,2.07,1.32,5.22,5.22,0,0,0,1.58,3.7,5,5,0,0,0,3.44,1.41h.21a5.44,5.44,0,0,0,3.68-1.49,5.32,5.32,0,0,0,1-1.33l7.29,2.49a6,6,0,0,0,1.12,3.29l.13,15.26a3.47,3.47,0,0,0-.36.31,5.31,5.31,0,0,0-1.11,1.72l-1.06,0a2.28,2.28,0,0,0-.37-.39,2.52,2.52,0,0,0-1.91-.67,2.9,2.9,0,0,0-2,.92s-.06.1-.1.14l-25.12.68a3.94,3.94,0,0,0-2.45-.93h0A3.72,3.72,0,0,0,48.57,380a3.76,3.76,0,0,0-1.17,2.62,3.46,3.46,0,0,0,1.16,2.67,4.19,4.19,0,0,0,.54.4,4.09,4.09,0,0,0-.84.61,4.19,4.19,0,0,0-1.28,3,4.1,4.1,0,0,0,1.17,2.94c.06.06.13.1.18.16l-6.68,40a5.21,5.21,0,0,0-1.25,3.36c.05,3.11,2.24,5.8,5.43,7.18l-5.11,3.75a2.05,2.05,0,0,0-2,1.05c-1.43,2.05-1.58,6.6-.29,9a3,3,0,0,0,1.59,1.51,2.41,2.41,0,0,0-1.3,1c-1.43,2.07-1.55,6.5-.24,8.94a2.73,2.73,0,0,0,2.38,1.68h0l17.51-.08a1.17,1.17,0,0,0,.05.11l.15.24,11.14,0-.26-.43,14.62-.07,0,.09.14.24,5.69.11-.27-.46,16.43-.08s0,.11.08.15l.14.25,1.23,0a5.61,5.61,0,0,0,1.74,2.75,7,7,0,0,0,2.17,1c1.33.42,1.33.42,1.11,1.56a3.4,3.4,0,0,0,.9,2.85,5.32,5.32,0,0,0-2.06,2.25,8.41,8.41,0,0,0-.24,7.77,10.42,10.42,0,0,0,7.23,5.55c2.4.53,9.34-.14,11.31-3.17a3.55,3.55,0,0,0-.38-4.23l0,0c8.57,3.09,6.11,19.29,3.86,28.75l0,.32a2.39,2.39,0,0,0,.05.55c-4.85,1.2-5,2.65-5.06,3.15a1.7,1.7,0,0,0,.47,1.37,6.79,6.79,0,0,0-4.17,2.19,14.81,14.81,0,0,1,1.71-8.77c.28-.46.61-.94,1-1.42,1.31-1.89,2.94-4.23,1.32-6.12a3.52,3.52,0,0,0-2.94-1.55,4.79,4.79,0,0,0-3.2,1.66c.27-.65.55-1.26.77-1.76,1.18-2.62,1.72-3.82,1.26-4.83a1.68,1.68,0,0,0-1.06-.92,5.44,5.44,0,0,0-4.5.43,7.62,7.62,0,0,0-2.92,3.8c-.23-1.73-.73-2.83-1.87-3.21a2.64,2.64,0,0,0-2.66.88A114.93,114.93,0,0,0,97.7,482.14c-6.47-7-12.47-12.29-25.68-10.91a18.05,18.05,0,0,0-3.06.68c-2.75.78-5.88,1.65-8.14-.15-.86-.67-3.48-2.68-5.24-1.24s-.57,4,.35,5.89c1.41,3,4,3.83,6.77,4.08a6,6,0,0,0-2.48,2.65A14.56,14.56,0,0,0,61.75,499c1.61,2,4.39,3.05,7.31,3.29,0,0,0,.08,0,.12v.46a9.75,9.75,0,0,0-7.37,9.41,9.61,9.61,0,0,0,9.08,9.45,12.22,12.22,0,0,0-2.13,5.47,10.14,10.14,0,0,0-1.76-2.64l-.59-.57-.39.63a10.06,10.06,0,0,0-1.17,4.27,13.61,13.61,0,0,0-1.4-1.29l-.69-.53-.21.7-.06.21a13,13,0,0,0-.36,3v.09a12.49,12.49,0,0,0-1.39-1.18l-.67-.45-.22.74a7.76,7.76,0,0,0-.27,2.07,7.51,7.51,0,0,0,.12,1.28,7.11,7.11,0,0,0-.92-.29,10.28,10.28,0,0,0-2.13-.24h-.23L54,531.33a2.31,2.31,0,0,0,.14-.74,2.28,2.28,0,0,0-2.28-2.28,2.2,2.2,0,0,0-1.31.42l-.19-.15.07.24a2.27,2.27,0,0,0,1.26,4l.84,2.71-.12,0-.18.54-.06.2a9.56,9.56,0,0,0-.38,2.52,4.17,4.17,0,0,0,0,.63,8.36,8.36,0,0,0-2.8-.74v-.09l-.22.07h-.21l-.8,0,.07.23-.1,0,.29.53a12.16,12.16,0,0,0,.75,1.64,12.74,12.74,0,0,0-3.06-.49h-1l.14.35-.27.11.5.47a13.83,13.83,0,0,0,.8,1.56,9.61,9.61,0,0,0-2.24-.25A10.22,10.22,0,0,0,42,543v0l-.08,0-.25,0-.6.16h0l-.19,0,.35.66a9.39,9.39,0,0,0,1.85,2.26,10.88,10.88,0,0,0-2.44-.31,8.41,8.41,0,0,0-3.9.85h0l-.57.33.32.44.1.15a12.58,12.58,0,0,0,4.87,3.79,10.08,10.08,0,0,0-3.08,1l-.65.38.11.11-.36.19.73.2,0,0A10,10,0,0,0,42,555.65a12.84,12.84,0,0,0-1.55,1l-.76.58.74.45.05-.08h0l-.06.08a13.87,13.87,0,0,0,2.93,1.22,11.32,11.32,0,0,0-1.46,1l-.68.58.69.43h0a8,8,0,0,0,3.15,1,6.89,6.89,0,0,0-.72,1.15,11.06,11.06,0,0,0-.58,1.48l-3.06,2.23a2.23,2.23,0,0,0-1.41-.51,2.28,2.28,0,1,0,2.17,3h3.12l.74.45a7.36,7.36,0,0,0,1.68.66,8.11,8.11,0,0,0-1.61,2.31l-.11,0v.32l-.05.11-.3.85.91,0a11.09,11.09,0,0,0,1.72-.15,13,13,0,0,0-1.48,2.68l-.3.91.84,0h.1a12.07,12.07,0,0,0,1.78-.23A10.17,10.17,0,0,0,47,581.19l-.1.77.78-.12a9.38,9.38,0,0,0,2.73-1,10,10,0,0,0-1.68,5.35,5.42,5.42,0,0,0,0,.75l.09.7.56-.16.17,0a12.32,12.32,0,0,0,5.21-3.29,10.69,10.69,0,0,0-.18,2,7.76,7.76,0,0,0,.09,1.26l.1.78.18-.08v.13l.27-.26.28-.12A10.31,10.31,0,0,0,59,585.08a11.82,11.82,0,0,0,.36,1.78l.3.89.77-.6h0a12.86,12.86,0,0,0,2-2.24,10.79,10.79,0,0,0,.44,1.78h0l.3.75.64-.5a8.29,8.29,0,0,0,2-2.61,7,7,0,0,0,.88,1.11,10,10,0,0,0,1.4,1.18l.42.34,1,3.26A2.28,2.28,0,1,0,73,592.15a2.27,2.27,0,0,0-1-1.88l1.1-3.3.16-.09h0a9.52,9.52,0,0,0,1.4-1.11,6.37,6.37,0,0,0,.89-1,8.25,8.25,0,0,0,1.93,2.69l.07-.07h0l-.06.07.63.54.31-.73a12,12,0,0,0,.51-1.77,12.2,12.2,0,0,0,2,2.35l.72.58.28-.79h0a9.38,9.38,0,0,0,.47-1.84,10.32,10.32,0,0,0,3.27,2.88l.5.82.09-.55.15.06.16-.74a9,9,0,0,0,.14-1.64,10.75,10.75,0,0,0-.07-1.2A9.45,9.45,0,0,0,91.81,589l.66.11.06-.64s0-.27,0-.73a12.07,12.07,0,0,0-1.22-5.38,10,10,0,0,0,2.58,1.14v.05H94l.27.06.75.13,0-.63V583a10.26,10.26,0,0,0-1.36-4.19,10.49,10.49,0,0,0,1.45.26v.12l.28-.09h0l1,.09-.12-.38.13,0-.31-.5a12.81,12.81,0,0,0-1.39-2.76,11.38,11.38,0,0,0,1.39.19v.08l.22-.06h1l-.09-.3h0L97.1,575a8.4,8.4,0,0,0-1.71-2.83,7.17,7.17,0,0,0,1.76-.62,8.79,8.79,0,0,0,1.21-.71l.56-.4-.12-.13h0l-.36-.37a5.22,5.22,0,0,0-.73-.58h2.63a2.27,2.27,0,1,0,2.17-2.94,2.26,2.26,0,0,0-1.35.45l-1.82-1.37.24-.08-.5-.5a10.12,10.12,0,0,0-.72-1.63,6.71,6.71,0,0,0-.8-1.12,8.75,8.75,0,0,0,3.06-1.16l.72-.51-.21-.16.06-.06-.51-.28a11.49,11.49,0,0,0-1.54-.92,12.49,12.49,0,0,0,2.78-1.34l.78-.53-.61-.41-.12-.08a11.08,11.08,0,0,0-1.27-.72l-.4-.18a10.08,10.08,0,0,0,3.57-2.42l.57-.64-.56-.29-.13-.06a9.52,9.52,0,0,0-2.75-.8,9.52,9.52,0,0,0,4.87-4.05l.3-.6-.16-.06.07-.19h-.63a12.83,12.83,0,0,0-3.87-.61,10,10,0,0,0-2.29.28,9.24,9.24,0,0,0,1.92-2.51l.37-.77-.18,0,0-.11h-.6a8.94,8.94,0,0,0-1.59-.13,10.19,10.19,0,0,0-2.78.38,11.3,11.3,0,0,0,.75-1.72l.28-.84-.85,0a12.23,12.23,0,0,0-3.12.66,11.37,11.37,0,0,0,.67-1.7l.22-.79-.69,0h-.21a8.5,8.5,0,0,0-3.11.94c0-.1,0-.19,0-.3a9.08,9.08,0,0,0-.52-2.82v0l1.25-3.77.12,0A2.28,2.28,0,1,0,89,530.63a2.44,2.44,0,0,0,.14.77l-2.79,2h-.27a9.5,9.5,0,0,0-2.13.24A7,7,0,0,0,83,534a7.49,7.49,0,0,0,.12-1.27,8.06,8.06,0,0,0-.24-2l-.25-.86-.69.47a11,11,0,0,0-1.38,1.17s0-.06,0-.1a12.92,12.92,0,0,0-.37-3l-.26-.92-.59.45-.17.14a12.08,12.08,0,0,0-1.33,1.23,10.15,10.15,0,0,0-1.13-4.17l-.43-.73-.55.53a9.88,9.88,0,0,0-1.65,2.38,9.81,9.81,0,0,0-2-5.64,10.07,10.07,0,0,0,7.21-4.56l-.61-.53,2.54.21-2.33-4.65,2.2-4.92-2.36.38.44-.36A9.42,9.42,0,0,0,73.7,503v-.47a1.75,1.75,0,0,0,0-.46,14.57,14.57,0,0,0,1.7-.44c3.43-1.12,5.46-3.32,5.58-6,.16-3.33-.6-5.71-2.25-7.07a1.81,1.81,0,0,0-.23-.18c2.24.46,5.16,1.82,8.23,5.31a146.82,146.82,0,0,1,10.62,14c3,4.22,6,8.58,9.55,12.83l0,0a1.88,1.88,0,0,0,1.43.71,1.67,1.67,0,0,0,.65-.13,1.7,1.7,0,0,0,.68-.49c.33,1.73.72,3.35,1.14,4.76a15.79,15.79,0,0,0-4.89-1.78c-.41,0-.85,0-1.31,0-2.41,0-5.7,0-7.7,2.67-2.21,2.57-3.42,4-2.69,5.49s2.36,1.38,6.33,1.2l2.18-.09c6.2-.17,14.13,11.61,21.14,22a138.53,138.53,0,0,0,10,13.64s1.66,1.73,3.81,3.73a5.54,5.54,0,0,0-3.15,2.25c-1.07,1.48-.35,3.08.17,4.25a4.73,4.73,0,0,1,.66,2.49,2.26,2.26,0,0,1-1.78,2.26c-3.2,1.37-4.55,3.61-3,12a2.16,2.16,0,0,0,1.37,1.86,2,2,0,0,0,.67.12c1.11,0,2.18-1,3.68-2.31,2.2-2,5.2-4.66,8.43-4.67,1.86,0,6.72.66,12.32,1.44,10.09,1.41,22.35,3.12,29.31,2.68a20,20,0,0,0-.22,3.06l.09,11.14a15.77,15.77,0,0,0,.13,2.61,9.77,9.77,0,0,0-7,9.32,9.58,9.58,0,0,0,7.12,9.13l-1.69,3.91-2.05-3.87L181,637.62l-2.66-2.37-.46,4.63-1.43-1.48-1.42,3.3L171.73,640l-.14,2-4.41-1.11.16,2.52-.34-.22-5.61-1.48.91,2.37-7.13-1.26,3.82,6-3.19.23,3.32,4.52-3.37,0,3.55,4.44-2.33.69,2.2,2.41-2.49,1.92,1.42,1.19-5,2.1,2,1.65-.36.11-3.47,2.73,1.67,1.27-5.68,3.36,8,2.14h.39l-2.57,3.91,5.52.1-1.49,1.83,5.63,0-.67,2.36,3.2.21-.68,3.34,1.88-.06-.25,5.16,1.57-.49-.58,5.81,3.27-1.56,0,5.94,4.69-3.9.26,3.74,4.74-4.93.68,2.86,4-4.21,0-.07,1.06,1.78,2.69-2,1.07,2.33,2.52-2.16,2.85,4.46,1.22-2.4,4.11,3.88.39-3,4.87,4.61.14-7.45,3,2.14-1.2-7.23,3.25,1.64L209.17,689l3.49,1-1.74-4,4.58.23L214,682.91l.44-.22,5.32.1-1.38-2,4.19-.89-1-1.7.38,0,7.5-2.29-6.36-3.5,3.13-1.55-5-2.61,2.1-1.09-4.8-2.57,1.91-1.25-4.3-2.09,2.68-3.29-2.7-.44,2.63-3.94-2.27-.44.28-.25,2.34-5.08-2.44.21,2.85-6.64-7.85,2.5,1-3.21-6,2.94.14-3L202.66,643l-.19-2.87-2.69,1.54-1-3.35-1.29,1.09L196,634.44l-1.65,1.7-2.25-5.79-1.43,2.4-1.23-2.63a10.08,10.08,0,0,0,7.53-4.6l-1.14-1,2.88.23-2.26-4.51,2.13-4.77-1.89.31.16-.13a9.4,9.4,0,0,0-6.16-4.42,13.69,13.69,0,0,0,0-2.45l.06-11.23a13.71,13.71,0,0,0-.48-3.61c6.7-1.69,15.08-6.67,22.53-11.09,2.43-1.45,4.73-2.82,6.69-3.89a3.41,3.41,0,0,0,2-2.33c0-.12,0-.24,0-.35a8.39,8.39,0,0,1,2.15.77,14.87,14.87,0,0,1-3.2,2.6,14.3,14.3,0,0,0-1.74,1.31l-.15.14c-6.43,6.09-6.61,8.5-6,9.91a3,3,0,0,0,2.81,1.79c-1.13.61-2.14,1.39-2.17,2.75a3.66,3.66,0,0,0,1.08,2.72c1.46,1.4,3.87,1.31,6.42,1.21,2.22-.08,4.74-.18,5.63.89.72.87.5,2.66.2,4a10.68,10.68,0,0,1-.56,1.07c-.93,1.63-2.09,3.65-1.12,5.3A3.38,3.38,0,0,0,228,612.1c2,0,2.73-.4,3.44-1.24a1.3,1.3,0,0,1,.67-.47c1.22-.51,1.57-.34,1.57-.34.33.19.5,1.76.58,2.52a8.22,8.22,0,0,0,1.1,3.94c1.39,1.82,2.55,3,3.79,3a2.08,2.08,0,0,0,.6-.09c1.55-.47,1.68-2.27,1.79-3.85,0-.25,0-.58.08-.89,2.79,1.92,5.83,3.68,9.16,4.06,4.81.32,7.4-.27,8.66-2,1.42-1.93.49-4.4-.5-7a20.8,20.8,0,0,1-1.37-4.72c-.3-2.16-2-3.77-3.6-5a17.65,17.65,0,0,0,6-1.24l.11-.05c1.54-.77,1.69-1.73,1.55-2.4s-.42-1.92-5.51-2.16c-2.62-.46-4.48-1.3-5-2.26.48,0,1.13.08,1.57.13,1.67.18,3.25.35,4.3-.52a2.36,2.36,0,0,0,.84-1.72c0-2-2.13-3-3.7-3.67a9.18,9.18,0,0,1-.93-.45,12,12,0,0,1-4.32-5.16c1.23,1.42,3.34,3.52,6.6,2a2,2,0,0,0,1.09-1.36c.25-1.18-.58-2.27-1.62-3.5,2.33.34,4.82-1.21,6.47-4.1l.77-1.3c4.19-7.18,5.94-10.18,15.17-10.18h.21c6.84.07,11.62,5.63,13.54,12a7.26,7.26,0,0,0,.14,10.58l.12.1a8.42,8.42,0,0,1-5.9,6c-2.88.9-6.1-.4-8.21-2a6.33,6.33,0,0,1-1.74-2.49,8,8,0,0,0,4.41.27,9,9,0,0,0,6.72-10.51c-.76-4.54-4.91-9.15-12.2-8.55-8.06.6-11.42,4.81-12.82,8.24-3.14,7.68.56,18.86,5.84,24.86a3.41,3.41,0,0,0,1.42.91,13.16,13.16,0,0,1-3,3.21c-1.8,1.58-3.67,3.2-3.61,5.64,0,2.12,0,3.29,1.18,3.77a1.58,1.58,0,0,0,.64.14,2.85,2.85,0,0,0,1.83-1,9.71,9.71,0,0,1,7.28-3c12.66-.22,21.93-3.74,27.73-10.5a6,6,0,0,0-.37,1.18c-.2.88-.36,1.63-.5,2.29a16,16,0,0,1-1.12,3.92c-.74,1.13-2.3,3-4.64,3.07a1.67,1.67,0,0,0-1.67,1.15c-.32,1,.38,2.13,2.08,3.26,2.78,1.85,6.95,2.81,10.32,0a6.83,6.83,0,0,0,1.17,2.89c0,1.06.08,2.05.12,3a8.7,8.7,0,0,0-2.18,1,5.63,5.63,0,0,0-2.71,4.58c.11,2.76,2.52,5,5.81,5.71a12.86,12.86,0,0,0,1.2,4.4c-1,0-2.07,0-3.13-.11h0a8.91,8.91,0,0,1-4-1.58c-1.56-.9-3-1.75-4.44-1.45-2.09.47-2.33,1.45-2.56,2.4a2.73,2.73,0,0,1-1.78,2.22,5.24,5.24,0,0,1-3.1.17c-1.88-.25-3.81-.51-4.56,2.63-1,4.29-1.42,6.24-7.88,6.42h0c-.83,0-1.6.49-1.65,1.05,0,.28.11,1,1.93,1.29a17.93,17.93,0,0,0,3.23.34c4.55,0,5.51-2.61,6.38-5a6.12,6.12,0,0,1,1.8-3.06,4.11,4.11,0,0,1,3.55-.42,4.67,4.67,0,0,0,3.71-.35,2.58,2.58,0,0,0,1-2.08c.16-1.12.31-2.18,2.09-2.23h.18c1.45,0,2,.8,2.72,1.72a7.84,7.84,0,0,0,1.19,1.35,4.77,4.77,0,0,0,3.07,1.45c3.44-.09,4.7-.06,8.05,0h.12a5.63,5.63,0,0,0,1.18-.32l-6.17,7.19-5.88-7.45,1.08,8.48-1.21,1.95-1.49-1.16-1.92-7.09-3.33,9.83-8.24-4.72,4.19,7.49.19,2.36-2.69-.24-4.38-5.56.8,10.36L277,661.05l7.12,5.5.38,1.28-3.41.62-6.46-3.17,5.18,9-9,3.07,9.38,2,.73.73-1.19.52-9.15-1.09,7.88,6.76-7.45,5.88L280,691l1.61,1.38-1.23,1.85-9.21,3,10,2.84-4.31,8.46,8.13-5.08,1.29.33-.11.81-9.07,7.14,10.36-.79-1.11,9.42,5.71-7.39,2.05-.45v2.26l-5.93,10.76,9.23-4.76,2.65,9.11,2.26-8.57,1.57-.94,1.27,2.56-1,8.34,6.76-7.88,5.88,7.45-1.08-8.48,1.31-2.1,1.44.62,2.63,8.27,2.89-10,8.44,4.35-4.32-7v-2.81l.93.12,4.59,5.82-.79-10.36,9.42,1.11-6.49-5-.17-1.35,1.83-.61,7,4.12-4.48-9.36,9.19-2.38-8.73-2.59-.48-1.29,1.89-1.08,7.84.93L341.75,685l7.45-5.88L340,680.33l-1.24-.71.75-.54,9.87-2.44-9.75-3.55,4.9-8.12L338,668.39l-2.31-.77.58-1.75,6.56-5.16-10.35.79,1.1-9.42L330,656.7l-2.5.25.15-1.71,4.73-8.26-9.3,4.62-2.5-9.16-2.1,7.44-2.13,1.6-1.3-2.85,1-8.15a6.28,6.28,0,0,0,1.4-.92,7.94,7.94,0,0,0,1-1.34c.67-1,1.25-1.87,2.87-1.73s1.86,1,2.05,2.13a2.5,2.5,0,0,0,1,2,5,5,0,0,0,3.78.34,4,4,0,0,1,3.46.4,6.14,6.14,0,0,1,1.86,3.07c1.08,2.82,2.3,6,9.72,4.57,1.68-.31,1.89-.94,1.86-1.29,0-.6-.87-1.18-1.69-1.19h-.16c-6.18,0-6.64-1.8-7.73-6.09l-.05-.18c-.83-3.07-2.73-2.78-4.57-2.51a5.43,5.43,0,0,1-3.15-.12,2.87,2.87,0,0,1-1.75-2.3c-.25-1-.48-1.94-2.57-2.32-1.5-.28-3,.66-4.52,1.58a8.42,8.42,0,0,1-3.73,1.59l-.57,0-3.24.06a13.49,13.49,0,0,0,1.13-4.45c3.31-.76,5.69-3,5.74-5.84-.1-2.51-2.09-4.59-4.94-5.48,0-1.07.06-2.11.08-3.12a6.93,6.93,0,0,0,1.07-2.68c3.56,2.77,7.74,1.65,10.47-.32,1.64-1.19,2.25-2.26,1.88-3.28a1.67,1.67,0,0,0-1.65-1.07c-1.8,0-3.24-1-4.54-3-.65-1-.92-2.4-1.47-5.16l-.17-.9a7.59,7.59,0,0,0-5.8-5.57c-.12-2.68-.27-5.17-.46-7.38,0-.49-.09-1-.13-1.4h.35c3.5,15.5,14.66,23.16,34.06,23.39a9.9,9.9,0,0,1,7.37,2.89,2.84,2.84,0,0,0,1.82,1,1.78,1.78,0,0,0,.68-.15c1.15-.52,1.14-1.72,1.13-3.74-.06-2.39-1.88-4-3.65-5.57a13.52,13.52,0,0,1-3-3.3,2.84,2.84,0,0,0,1.35-.94c5.16-6,8.75-17.17,5.57-24.81-1.43-3.42-4.81-7.61-12.83-8.16-7.43-.51-11.52,4.2-12.2,8.79a8.81,8.81,0,0,0,6.87,10.23,7.19,7.19,0,0,0,4.32-.23,7.05,7.05,0,0,1-1.7,2.6c-1.33.91-4.8,2.94-8.17,2s-5.23-3.6-6-6.68a7.19,7.19,0,0,0,1.66-4.8,7,7,0,0,0-1.54-4.49c1.69-6.63,6.51-12.7,13.55-12.83,9.58-.1,11.41,3,15.77,10.48l.52.89c1.66,2.91,4.19,4.42,6.54,4-1.07,1.29-2,2.43-1.65,3.62a1.84,1.84,0,0,0,1.1,1.26c3.24,1.44,5.36-.69,6.58-2.08a11.63,11.63,0,0,1-4.24,5.18c-.2.11-.49.24-.81.38-1.59.69-4,1.74-3.79,3.91.3,2.63,3.41,2.3,5.26,2.11.44,0,1.08-.11,1.55-.12-.47.9-2.34,1.76-5,2.25-5.13.28-5.39,1.53-5.53,2.21s0,1.62,1.58,2.4a15.84,15.84,0,0,0,6.16,1.19c-1.63,1.2-3.29,2.85-3.55,5a21.08,21.08,0,0,1-1.35,4.81c-1,2.62-1.86,5.1-.42,7,1.26,1.64,3.84,2.17,8.59,1.75,3.57-.25,6.58-2.14,9.16-4,0,.3.06.62.08.86.13,1.58.28,3.37,1.84,3.82a2,2,0,0,0,.58.09c1.26,0,2.42-1.19,3.85-3.09a8,8,0,0,0,1-3.86c.07-.82.21-2.35.55-2.56.09-.06.52-.11,1.47.25a1.62,1.62,0,0,1,.77.54c.71.83,1.43,1.26,3.41,1.3a3.48,3.48,0,0,0,3.23-1.51c1-1.67-.19-3.67-1.11-5.28a7.38,7.38,0,0,1-.57-1.11c-.33-1.35-.57-3.13.13-4,.86-1.06,3.33-1,5.52-.93,2.53.08,4.91.15,6.35-1.26a3.63,3.63,0,0,0,1.06-2.71c0-1.32-1-2.08-2.13-2.68a3.06,3.06,0,0,0,2.75-1.77c.94-2.28-1.36-5.24-5.39-9.29l-.58-.59-.19-.21a17,17,0,0,0-1.7-1.22,15.46,15.46,0,0,1-3.31-2.63,8.13,8.13,0,0,1,2.09-.72c0,.07,0,.15,0,.23a3.57,3.57,0,0,0,2,2.42c2,1.07,4.38,2.43,6.88,3.88,7.08,4.08,15.76,9.09,22.45,10.84a9.59,9.59,0,0,0-.26,3.6l-.05,11.14v.1c.06.83.11,1.54.18,2.16a9.35,9.35,0,0,0-5.73,4.09l.46.41-2.61-.52,2,5-2.5,4.56,2.82-.13-.67.54a10.13,10.13,0,0,0,6.66,4.77,2.56,2.56,0,0,0-.54,1.58,2.64,2.64,0,0,0,.78,1.87l-4.15,8.82-.17-.25a9.17,9.17,0,0,0-.84-1l-.34-.32-.43.18a8.75,8.75,0,0,0-1.26.67,5.82,5.82,0,0,0-.7.53,3.08,3.08,0,0,0-.56-.7,5.21,5.21,0,0,0-2.31-1.13,7.7,7.7,0,0,0-1.28-.2l-.41,0-.23.36a7.58,7.58,0,0,0-.5,1,6,6,0,0,0-.51,2.19,3.39,3.39,0,0,0,.09.73,7.24,7.24,0,0,0-1.22.35c-.48.19-.83.37-.91.41l-.34.18,0,.57a5.36,5.36,0,0,0,.4,2l-9-2.57a2.63,2.63,0,1,0-2.61,2.88h.11l4.14,8.5h-.15a8.94,8.94,0,0,0-1.65.16l-.45.1-.1.45a8.68,8.68,0,0,0-.16,1.64c0,.24,0,.46,0,.67l-.18,0a4.43,4.43,0,0,0-2.74,1.17,7.53,7.53,0,0,0-1.09,1.12l-.25.33.15.35a8.24,8.24,0,0,0,.94,1.57,5.07,5.07,0,0,0,1.13,1.1,4,4,0,0,0,.64.34,8.35,8.35,0,0,0-.57,2.18l0,.39.32.25a5,5,0,0,0,1.59.78l-8,5.9a2.61,2.61,0,0,0-1.4-.41,2.64,2.64,0,1,0,2.19,4.09l9,1.5-.3.37a9.69,9.69,0,0,0-.67,1.08l-.2.41.26.32a7.24,7.24,0,0,0,1,1h0a8,8,0,0,0,.72.52,3.28,3.28,0,0,0-.59.93,5.14,5.14,0,0,0-.34,1.92,8.39,8.39,0,0,0,.19,1.71l.1.4.42.11a7.49,7.49,0,0,0,1.87.24,4.73,4.73,0,0,0,1.61-.25,2.73,2.73,0,0,0,.52-.23,8.29,8.29,0,0,0,1.33,1.79l.29.3.4-.09a5.37,5.37,0,0,0,1.53-.72L414.31,699a2.63,2.63,0,1,0,3.27,2.55,2.5,2.5,0,0,0-.22-1l8-6.38a8.56,8.56,0,0,0,.47,1.77l.17.43.46,0v-.21h0v.21h.18a8.76,8.76,0,0,0,1.61-.15l.5-.13a3.23,3.23,0,0,0,.48,1.37,6.82,6.82,0,0,0,2.4,2.16l.42.22.36-.23a8.87,8.87,0,0,0,1.22-1,5.37,5.37,0,0,0,.87-1.17,3.38,3.38,0,0,0,.35-1l.4.09h0a8.75,8.75,0,0,0,1.43.11h.44l.39,0,.19-.34a5.42,5.42,0,0,0,.52-2.18l7.49,6.12a2.44,2.44,0,0,0-.13.77,2.64,2.64,0,1,0,3.31-2.53l-.37-9.29a7.44,7.44,0,0,0,.75.4,7.56,7.56,0,0,0,1.18.44l.45.13.31-.38a7.66,7.66,0,0,0,.68-1,6.35,6.35,0,0,0,.48-1,3.07,3.07,0,0,0,.39.23,3.8,3.8,0,0,0,1.43.26,7.32,7.32,0,0,0,2.78-.64l.38-.18,0-.41s0-.15,0-.38a7.34,7.34,0,0,0-.3-2.1,4,4,0,0,0-.6-1.24c0-.06-.11-.1-.16-.17a8,8,0,0,0,1.53-1.68l.22-.32-.17-.37a5.17,5.17,0,0,0-1.34-1.67l9-1.77a2.63,2.63,0,1,0,2.2-4.08,2.6,2.6,0,0,0-1.57.53l-7.35-5.88a6.1,6.1,0,0,0,.82-.35,6.66,6.66,0,0,0,1-.62l.38-.26-.09-.46a9.68,9.68,0,0,0-.43-1.37,7.44,7.44,0,0,0-.39-.8,3.14,3.14,0,0,0,.9-.48,5.4,5.4,0,0,0,1.45-2,7.31,7.31,0,0,0,.42-1.18l.1-.4-.31-.29a8.19,8.19,0,0,0-1.08-.81,4.83,4.83,0,0,0-2.5-.84h-.08v-.05a8.69,8.69,0,0,0-.35-2.18l-.12-.37-.39-.11a4.54,4.54,0,0,0-1.09-.12,5.41,5.41,0,0,0-1,.1l4.14-8.06h.11a2.64,2.64,0,1,0-2.6-2.91l-8.92,2.09a5.62,5.62,0,0,0,.2-.76,9.24,9.24,0,0,0,.18-1.26l0-.46-.42-.22c-.07,0-.41-.2-.89-.37a6.81,6.81,0,0,0-1.3-.32,3,3,0,0,0,.17-1,5.27,5.27,0,0,0-.68-2.41,7.5,7.5,0,0,0-.66-1.05l-.25-.33-.42.06a7.59,7.59,0,0,0-1.8.53,4.9,4.9,0,0,0-1.38.89,3.89,3.89,0,0,0-.39.43,8.67,8.67,0,0,0-2-1.11l-.37-.14-.32.24a5.06,5.06,0,0,0-1.17,1.36L434,632a2.62,2.62,0,0,0,.11-3.59,9.63,9.63,0,0,0,7.12-8.84,9.74,9.74,0,0,0-7.24-9.69c.06-.66.08-1.41.1-2.27L434,596.46a13.86,13.86,0,0,0-.21-3c6.86.27,18.94-1.55,28.89-3.05,5.8-.87,10.8-1.63,12.76-1.64h0c3.12,0,6.11,2.69,8.3,4.65,1.51,1.36,2.59,2.33,3.7,2.33a2,2,0,0,0,.67-.12,2.14,2.14,0,0,0,1.35-1.83c1.5-8.44.14-10.68-3.07-12a2.33,2.33,0,0,1-1.8-2.29,4.61,4.61,0,0,1,.64-2.51c.53-1.19,1.27-2.82.09-4.2a5.6,5.6,0,0,0-3.23-2.24c2.13-2,3.73-3.81,3.76-3.84a133.67,133.67,0,0,0,10-13.75c6.89-10.33,14.69-22,20.93-22h.09l2.28,0c3.8.11,5.38.15,6.09-1.29s-.45-2.91-2.58-5.52c-2.37-2.81-5.84-2.66-8.62-2.53l-.63,0a24.2,24.2,0,0,0-4.88,1.85c.43-1.47.82-3.19,1.16-5a1.57,1.57,0,0,0,.83.64,1.48,1.48,0,0,0,.57.11,1.84,1.84,0,0,0,1.46-.78c3.51-4.3,6.54-8.73,9.46-13a145.31,145.31,0,0,1,10.34-13.93c3-3.43,5.92-4.83,8.17-5.34l-.19.15c-1.63,1.39-2.37,3.8-2.19,7.16.15,2.59,2.12,4.7,5.4,5.79a16.06,16.06,0,0,0,2.07.5,2.3,2.3,0,0,0,0,.39v.45a.92.92,0,0,0,0,.16,9.27,9.27,0,0,0-5.11,3.9l.26.22-2.4-.48,2,5-2.5,4.56,3-.13-.83.68a10.07,10.07,0,0,0,8,5h.19a9.58,9.58,0,0,0,1.91-19v-.26c0-.1,0-.2,0-.3,3-.27,5.81-1.33,7.49-3.33a14.55,14.55,0,0,0,1.28-16,5.82,5.82,0,0,0-2.49-2.57c2.46-.16,5.25-1,6.66-4.05.88-1.93,1.86-4.65.21-5.92s-4.23.7-5,1.33c-2.33,1.73-5.62.84-8.25.12l-.89-.24a8.77,8.77,0,0,0,4.8-1.87,8.45,8.45,0,0,0,3-6.57c-.1-11-15.46-16.56-30.18-18.23a4.19,4.19,0,0,0-1-1.54l.71-4.37,3,.55a3.43,3.43,0,0,0,1.93.9,3.72,3.72,0,0,0,.64.06A2.81,2.81,0,0,0,533,438l39.45,7.36a.53.53,0,0,0,.06.1,3.21,3.21,0,0,0,2.19,1.26,4.18,4.18,0,0,0,.61.05,3.23,3.23,0,0,0,3.07-2.24,15.35,15.35,0,0,0,3.71-2.54,3.81,3.81,0,0,0,1.16.35,4.11,4.11,0,0,0,.78.07,3.28,3.28,0,0,0,1.94-.58,2.17,2.17,0,0,0,.91-1.47q.62-2.9,1.2-5.81c.56-.78,1.12-1.54,1.69-2.27a2.05,2.05,0,0,0,1.2.84l.34,0a1.66,1.66,0,0,0,1.62-1.29h0c.24-1.19.45-2.38.68-3.57a13.46,13.46,0,0,1,7.22-2.87,14.24,14.24,0,0,0,1.66,3,14,14,0,0,0,9.28,5.59,14.66,14.66,0,0,0,2.08.15,14.39,14.39,0,0,0,14-12v0A14.08,14.08,0,0,0,625.34,411.54ZM548.2,507.43l-.11-1a4.16,4.16,0,0,1,.7.63,4,4,0,0,1,.65,1.07Zm-.39,5,1.46-.68a4.1,4.1,0,0,1-.84,1.07,4.62,4.62,0,0,1-.82.57ZM431.23,621.87l1.37-.64a4.43,4.43,0,0,1-.73.9,4.53,4.53,0,0,1-.8.55Zm.4-5-.13-1.18a5.06,5.06,0,0,1,.73.66,4,4,0,0,1,.73,1.25ZM188.8,618.06l-1,.52a3.75,3.75,0,0,1,.59-.84,4.35,4.35,0,0,1,.57-.49Zm.2,4.88.18,1.14a3.9,3.9,0,0,1-.69-.54,3.76,3.76,0,0,1-.91-1.33Zm-117.71-108,.1.63a3.9,3.9,0,0,1-.51-.4,4.56,4.56,0,0,1-.59-.74Zm-.21-5-1.06.53a4.09,4.09,0,0,1,.71-1.09,4,4,0,0,1,.5-.42ZM535,319.75c.47,1.66.11,3-3,5.28a4.75,4.75,0,0,0-3.28.26,5,5,0,0,0-2.44,3c0,.08,0,.16-.06.23l-.82.53-7.66,4.17-1.14,0v.7l-.28.15c-5.65-1-10.34.16-14,3.34a19.51,19.51,0,0,0-4.9,7.07L467.61,361a107.79,107.79,0,0,0-8.47-12c.22-2.87.41-5.68.57-8.39l54.92-34.12a2.8,2.8,0,0,0,.66.3,3,3,0,0,0,.73.09,2.93,2.93,0,0,0,1.26-.28l.79-.5a15.2,15.2,0,0,1-.11,1.57,10.92,10.92,0,0,1-5.16,7.86,10.59,10.59,0,0,1-2.39,1l-3.61,1,3.27,1.81a26.41,26.41,0,0,0,12.76,3.38,24.23,24.23,0,0,0,12.1-3.24ZM190.31,578.62l-.24-.08c-.4-.14-.72-.27-1-.39.52,0,1-.11,1.51-.18A1.87,1.87,0,0,0,190.31,578.62Zm-32.23-1.87a8.83,8.83,0,0,1-1.37-.06,1.77,1.77,0,0,1-.59-.94C156.76,576.09,157.41,576.42,158.08,576.75Zm-9.63,1.55a2.22,2.22,0,0,1,0,.59h-.14a1.63,1.63,0,0,1-.51-.29A2.23,2.23,0,0,0,148.45,578.3Zm174.26-39.41a4.65,4.65,0,0,0-2.65-.47,2.59,2.59,0,0,0-2.09.89l2-2.77a3.71,3.71,0,0,0,.67.07,3.53,3.53,0,0,0,.85-.1c.93,0,1.79-.11,2.62-.18A5.42,5.42,0,0,0,322.71,538.89Zm28.4-11.4a1.74,1.74,0,0,1,1.64,1c.29.73-.18,1.54-1.27,2.22a4.65,4.65,0,0,1-.81.4l-.35.15c-.58.22-1.32.32-1.66-.33a2.59,2.59,0,0,1,1.57-3.32l.42-.07h.46Zm-82.85,4-.59-.23v0l-.31-.2c-1.12-.67-1.62-1.5-1.34-2.24a1.69,1.69,0,0,1,1.71-1v0h.45l.54.12.48.16a2.75,2.75,0,0,1,1,3c-.3.55-.94.52-1.52.35v-.13Zm36.59,14,.86-.62.17,4.07c.19,4,2,6.14,3.7,6.14h0c1.43,0,3-1.52,3.18-5.74l.24-6.76,1.74,1.3,3-4.2a4.08,4.08,0,0,0-.45,1.36v.08a4.7,4.7,0,0,0,.56,2.89,6.37,6.37,0,0,0-4.56,5.08c-.25,1.17-.32,2.7.78,3.31a1.67,1.67,0,0,0,2-.34,3.49,3.49,0,0,1,3.22-.69,14.48,14.48,0,0,1,3.45,2.14,4.82,4.82,0,0,0,1,.5c-6.31,3.62-9.59,10.87-10.93,17.78l-5.69,0c-1.47-7.14-5.05-14.67-11.87-18l.35-.2,1.54-1a9.84,9.84,0,0,1,2.13-1.19c2-.34,2.8.25,3.26.72l.12.12a1.61,1.61,0,0,0,1.9.15c1.08-.67,1-2.25.67-3.46a6.51,6.51,0,0,0-4.57-5,4.82,4.82,0,0,0,.56-2.69v-.08c0-.16-.06-.31-.09-.46Zm158.84,28.83a1.8,1.8,0,0,1-.54.88,8.28,8.28,0,0,1-1.21.05Zm-34.15,3.1a1.86,1.86,0,0,0-.27-.59c.46.07,1,.12,1.45.16-.25.11-.52.21-.85.33ZM481,546v0l0,0Zm-9.58,31.35h0a3.73,3.73,0,0,1,0-.66,1.84,1.84,0,0,0,.67.29A1.73,1.73,0,0,1,471.44,577.36Zm15.49-56.77a2,2,0,0,0,.94,1.5c.78.66,2.59,2.2,2.91,4.18a20.56,20.56,0,0,1-.21,7.39,2.12,2.12,0,0,0-1.19-.09c-1.34.28-2.1,1.71-2.62,3.2a5.77,5.77,0,0,0-.86-1.07,7.25,7.25,0,0,0-2.31-1.52,5.35,5.35,0,0,0,1.16-1.12c1.67-2.12,1.95-5.47.85-10a7.58,7.58,0,0,1-.46-3,6.65,6.65,0,0,1,1.13-.17l.74-.07-.1.1Zm-10.15-2.18a10.43,10.43,0,0,0,0,1.37,10.66,10.66,0,0,0-.79-1.3h.1A3,3,0,0,0,476.78,518.41ZM436.4,507.5a1.65,1.65,0,0,0-.57-.37l1-.45c-.06.11-.13.22-.2.33l-.05.1A1.88,1.88,0,0,0,436.4,507.5ZM297.7,536.68H298l1.57,2a3.79,3.79,0,0,0-1.22-.21,4.77,4.77,0,0,0-2.69.59,5.8,5.8,0,0,0-1.5-2.63C295.24,536.53,296.42,536.62,297.7,536.68ZM127.85,384.46c.58,2.43,2.35,3.29,3.7,3.94a5.14,5.14,0,0,1,2.77,2.27c.24.49-.61,2.05-1.17,3.09-1.1,2-2.35,4.34-1.31,6.51.79,1.64,2.63,2.65,5.76,3.21a15.36,15.36,0,0,1,2.66.67l-.35.37c-.92,1-2.32,2.4-2,4.34.29,1.66,1.77,3.11,4.67,4.57a13,13,0,0,1-.7,1.31c-.83,1.44-1.77,3.07-1.17,4.71a3.21,3.21,0,0,0,1.44,1.64c.55,2.7,3.14,3.24,4.6,3.54A8.57,8.57,0,0,1,148,425c0,1-.11,1.27-.33,1.47l-13.92,0-6-34.42c.07-.06.15-.11.21-.17a3.84,3.84,0,0,0,1-2.9,4.14,4.14,0,0,0-1.28-3,3.74,3.74,0,0,0-.78-.56,3.57,3.57,0,0,0,.43-.34A3.79,3.79,0,0,0,127.85,384.46ZM493.91,224.59c-.93.86-2.34,1-4.2.55,0-.89,0-1.86-.1-2.91L495,216C495.67,220.39,495.31,223.28,493.91,224.59Zm-7.78,210.79c0,.09,0,.17,0,.25l-15.28-2.33c1-2.1,1.93-4.25,2.76-6.43l3.38.63a4.12,4.12,0,0,0,1.83.92l.42,0a3.4,3.4,0,0,0,1.33-.27l6.48,1.2C486.69,431.33,486.41,433.38,486.13,435.38Zm-343,84.77h.16a8.23,8.23,0,0,0-.7,1.17,11.84,11.84,0,0,0,0-1.21A3.45,3.45,0,0,0,143.16,520.15Zm-13-285.71c-1.18,1.22-2.14,1.71-2.85,1.44-1.11-.41-1.68-2.64-1.71-6.6Zm356.25-4c-.69.27-1.63-.18-2.8-1.32l4.41-5.12C488.07,227.88,487.53,230,486.45,230.47ZM132.54,426.4h-6l-1-33.32a4.1,4.1,0,0,0,1.09-.3Zm-7.3,0h-6.93l4.8-33.51a3.93,3.93,0,0,0,1.13.24Zm13.29-167-.56-6.93c.75,2.55,1.5,5.31,2.25,8.25Zm6.89,40.82L145,292h0l-.09-2.47a4.72,4.72,0,0,0-4.31-4.39l-1-12.59,4.17,3.21c1.9,8.77,3.7,18.17,5.24,27.34ZM135.57,245l1,12.87-3-2.32L134,241C134.5,242.14,135,243.5,135.57,245ZM58.74,431.2c-1.72-1.21-4.3-1.88-7.58-1.9l.67-35.78a4,4,0,0,0,1.14-.3ZM214.32,477a6.24,6.24,0,0,0-2.23,3.36,4.33,4.33,0,0,0-.08,1.07c-6.19-2-10.8-4.52-12.94-7.18h.08l1.26.13c1.84.17,3.26-.55,3.6-1.87s-.41-3.19-3.55-4.54a14.16,14.16,0,0,0-2.35-.65c-1.85-.41-4-.88-5-2.19a6.54,6.54,0,0,0-1.16-1.25c1.12-.76,1.21-2.41,1.31-4.14.18-3.16.5-5.65,2.92-6.6a.57.57,0,0,1,.41.16c.22.19,1,1,1,3.89a2.64,2.64,0,0,0,2.26,2.84,3,3,0,0,0,.56,3.26,2.82,2.82,0,0,0,2,.74,4.41,4.41,0,0,0,2-.55,39.32,39.32,0,0,1,8.86,2.39h0l.11,0,.06,0h0q3.3,1.17,6.8,2.17C218,473.54,215.86,475.55,214.32,477ZM489.06,372.1a3.06,3.06,0,0,0-1.47-.56,5.13,5.13,0,0,0-1.9.15l-13.39-1.61-.12-.29,22.34-12.3a87.92,87.92,0,0,0,.31,15.3Zm21.66-3c.12-3.95,1.14-6.56,3.06-7.73s5.12-.87,9.12,1.08Zm91-16.74c-5.65,3.83-11,5.12-14.85,3.58l-.55-.25a7.16,7.16,0,0,1-1.79-1.28,70.92,70.92,0,0,1-4.56-7.16c-.55-.93-1.08-1.85-1.63-2.75,3.22-1.88,6-3.44,8.58-4.88l0,0c8-4.2,15-6.75,18.9-6.81,3-.11,5,.48,6,1.72s1.06,2.82.47,5.2c-.76,3.19-4,7.43-8.36,11.06h0a1.55,1.55,0,0,0-.71-.21h0a1.49,1.49,0,0,0-1.33,1.6v.07Zm-62.86,1.24-.44.24a3.64,3.64,0,0,0-2.7,1.74l-.14-.07-.31.16a79,79,0,0,0-17.26-11.15l3.11-1.73A115.56,115.56,0,0,1,538.91,353.59Zm-28.1-5.07a133.39,133.39,0,0,1,17,11.23l-2,1.11c-6.21-3.4-10.89-4.22-13.88-2.41s-4.26,5.85-4.2,12.27l-1.45.8a132.55,132.55,0,0,1,1.52-21.33Zm-35-104.31-2.74,39.44-7.38,6.19C468.61,273.16,472.27,256,475.82,244.21Zm3-7.77a4.27,4.27,0,0,0,.17-1.19c.12-.28.24-.54.36-.8L481.05,277l-5.22,4.37ZM182.7,508.7a2.67,2.67,0,0,0-.2-.42c-.08-.12-.15-.23-.21-.34l.87.4A1.63,1.63,0,0,0,182.7,508.7Zm-34-69.68a2.94,2.94,0,0,0,1.7,1.5,4.13,4.13,0,0,0-1.6,1.47Zm372.78-.91c-.12.68-.24,1.38-.37,2.07a4.41,4.41,0,0,0-1.06.59h0l-29.35-4.46.06-.22.95-5.86,30.17,5.63C521.7,436.62,521.57,437.37,521.45,438.11Zm-401.71-208c-1.42-1.3-1.78-4.22-1.09-8.68l5.49,6.2c-.06,1.06-.08,2.05-.07,3C122.15,231.11,120.69,231,119.74,230.08Zm16.12,58,.47-8.91h0l0-2.67a4.67,4.67,0,0,0-3.24-4.72l.11-4.15,4.33,3.34,1.13,14.46a4.85,4.85,0,0,0-2.81,4.67l.26,2.47v.22l-6.27-5Zm-6.24,85.66c.88,1.24,1.84,1.87,2.85,1.82.76,0,.9.27,1,.36.39.7,0,2.49-.55,3.65a9.47,9.47,0,0,1-1,.14c-1,.11-2.65.29-3.55,1.29a3.8,3.8,0,0,0-3.47-2.54,3.73,3.73,0,0,0-2.66,1l-25-.33a2.94,2.94,0,0,0-2.3-1.24h-.13l-.12,0a3,3,0,0,0-1.86,1.16l-1.25,0a5.4,5.4,0,0,0-1.35-1.87L90.1,362a4,4,0,0,0,.52-.77c.09-.17.16-.35.24-.54Zm-50.5,12.56a2.64,2.64,0,0,0,1.78.71h.22a2.65,2.65,0,0,0,1.84-.87l1.49,0a4.17,4.17,0,0,0,3.48,2.63H88a3.56,3.56,0,0,0,2.5-1.14,5.8,5.8,0,0,0,1.06-1.56l1.41,0a2.79,2.79,0,0,0,2,.9H95a2.86,2.86,0,0,0,2.16-1.05l25.35-.67.22.15a4.13,4.13,0,0,0-.83.61,4.21,4.21,0,0,0,0,6L117,426.38l-48.54-.08h0l-8.21,6-6.1-39.89a4.45,4.45,0,0,0,1.42-3.13v-.17a4.39,4.39,0,0,0-2.24-3.4l.16-.11,25.43.47A2.52,2.52,0,0,0,79.12,386.33Zm-29.49,6.89a4.31,4.31,0,0,0,.93.27l-.67,35.83A14.09,14.09,0,0,0,43.28,431ZM133.1,521.66a8.15,8.15,0,0,1,1.15.16,7.44,7.44,0,0,1-.44,3c-1.08,4.43-.8,7.76.84,9.89a5.82,5.82,0,0,0,1.24,1.19,7.08,7.08,0,0,0-2.29,1.55,5.86,5.86,0,0,0-.77,1c-.59-1.48-1.39-2.85-2.74-3.1a2.13,2.13,0,0,0-1.22.11,21,21,0,0,1-.18-7.3,7.66,7.66,0,0,1,2.65-4.09c.54-.52,1.06-1,.95-1.85l-.09-.58Zm337.27-62.32h0v0Zm-8.56-8.51a8.39,8.39,0,0,0,1.26,4.44,8.51,8.51,0,1,0,7.54,12.56,8.51,8.51,0,0,0,7.26,4.1l.37,0a24.33,24.33,0,0,0-5.95,7.07c-5.19,9.17-5.25,21.37-3.2,30.1-3.42-3.35-8.61-6.53-15.54-9.48-7.8-3.24-13.71-1.79-18.93-.52-3.91,1-7.28,1.78-10.74.25a2.49,2.49,0,0,0-2.8.54,3.63,3.63,0,0,0-.2,4,7.23,7.23,0,0,0,1.72,2.26c-11.89,4.55-14.43,21.24-13,34.3.47,3.8-.68,4.08-2.13,4.45l-.21.05a2.29,2.29,0,0,0-1.85,1.69,2.22,2.22,0,0,0,.91,2.21,6.87,6.87,0,0,0,4.18,1.31,6.65,6.65,0,0,0,2.6-.5,7.93,7.93,0,0,0,1.84-1.21,24.46,24.46,0,0,0,18,12.67,26.37,26.37,0,0,0,3.95.3A23.8,23.8,0,0,0,454,554.48c6.55-6.7,9.4-18.11,6.64-26.55-2.12-6.5-7.28-10.74-14.53-11.94-7.91-1.2-15.5,2-18,7.62a11.31,11.31,0,0,0,0,10.14,9,9,0,0,0,6.91,4.81c7.81,1.13,9.57-2.38,9.93-4.66a5.6,5.6,0,0,0-.06-1.66,4.23,4.23,0,0,1,.33.52c.91,1.53,1.67,6.68-.94,9.69a9.28,9.28,0,0,1-8.23,3c-6.3-1-10.15-4.09-11.46-9-2-7.43,2.57-18.48,10.12-24.64a6.81,6.81,0,0,0,2-2.26,3.47,3.47,0,0,0,.57.72,4.09,4.09,0,0,0,4.95.6,8.39,8.39,0,0,0,1.91-1.57l.08.15c.35.55,1.1,1.14,2.73.79,1.15-.27,2.75.39,3.92.87a6.55,6.55,0,0,0,2.25.65h.11c3.6,0,8.22,3.23,10.95,6.47a4.26,4.26,0,0,0,1.14,1c-.6.55-1.25,1.18-2,1.87l-.36.35c-.88.88-2,2-1.33,3.23s1.88,1,3.21.74c2.09-.36,4.22-.61,5.24.76a3.9,3.9,0,0,1,.78,2.68,5.7,5.7,0,0,0,1.63,4.3,8,8,0,0,0,3,1.8,5.73,5.73,0,0,0,1,10.25c-1.62.93-3,3-3.72,5.66-4.26,15.22-22.49,23.2-34.29,24.13l.14,0,.26-.35a2.48,2.48,0,0,0,.43-2.62A2.6,2.6,0,0,0,438,570.7a4.74,4.74,0,0,0,.84-.74l.5-.58c.86-1,1.84-2.16,1.11-3.41s-2.54-1.23-7.13-.31c-6.71,1.45-13.33-1.53-21.71-5.29-6.76-3-14.41-6.47-23.85-8.28-3.71-.69-7.4-1.66-11-2.59l-1.35-.36c6.23-1.91,13.18-7.87,16.35-14.84,3.11-6.7,3.28-14.14.45-19.92-2.49-5.11-7.16-8.58-13.51-10.05a14,14,0,0,1-4.69-2.42c-1.31-.92-2.45-1.72-3.59-.91s-.75,2.62-.27,4.32l.11.39c.07.26.14.51.22.76a7.45,7.45,0,0,0-2.4,1l-.86.44c-5.48,2.67-9.41,7.81-9.57,12.51a8.4,8.4,0,0,0,4.61,7.73,9.32,9.32,0,0,0,11.52-1.8,5.8,5.8,0,0,0,.06-7.82l-.09-.11c2.16.12,4.44.91,5.34,2.43.68,1.14.41,3.22-.74,5.57-2.28,4.67-7.64,9.76-13.5,10.48-2,.29-8.64,1.61-11,6.28l-.09.16c-.64,1.1-1.37,2.34-.66,3.5a2,2,0,0,0,1.18.87,1.52,1.52,0,0,0-.1.34,1.62,1.62,0,0,0,.07.74,8.12,8.12,0,0,0-2.52,0,2.86,2.86,0,0,0-1.85-1c.84-1.51,1.57-3.5.31-4.42a1.63,1.63,0,0,0-2.2.29c-4,3.84-8.92,5.22-14.09,6.68l-2.45.7c1.82-2.28,2.13-5,.76-7l-.16-.26a14.58,14.58,0,0,1-1.86-3.48,3.37,3.37,0,0,1,.6-3.19,1.62,1.62,0,0,0,.34-1.91c4.43-1.17,7.66-3.08,12.16-5.9a10.48,10.48,0,0,1,2.42-1.26,6.75,6.75,0,0,1-.19,1c-.31,1.24-.72,2.94.2,4.28A4.25,4.25,0,0,0,350,534.6h0l.25-.05.39-.09.06,0,.24-.06.06,0h0c2.41-.67,5-2.44,5.52-4.7l0-1.69,0-.08c-.72-2.47-2.79-3.86-5.81-3.93a12.06,12.06,0,0,0-6.68,1.61c-.28.17-.65.42-1.11.72-3.47,2.26-11.45,7.44-20.78,7.26l24-15.42a2.38,2.38,0,0,0,.94.21,2.18,2.18,0,0,0,1.37-.48,1.9,1.9,0,0,0,.84-1.31,2.37,2.37,0,0,0,0-.46l3.51-2.27a2,2,0,0,0,.59.1,2.09,2.09,0,0,0,1.31-.47,1.92,1.92,0,0,0,1-1.32,2.06,2.06,0,0,0-.43-1.7l-6.48-8.88a1.92,1.92,0,0,0-1.31-1,2.09,2.09,0,0,0-1.71.43,2.13,2.13,0,0,0-.86,2.13l-3.17,2.05a2.23,2.23,0,0,0-2.4.24,2.09,2.09,0,0,0-.88,1.89l-11.15,7.23L314.65,523l13.84-18.53,5.6-.49,8.51-11.24-6-1.27L333.92,486l-8.52,11.24.81,5.76L313.86,519.4l.74-20a8.17,8.17,0,0,0,3.09-2,.61.61,0,0,0,.31.11h.05c1.08,0,2-2.87,2.09-3.3a5.93,5.93,0,0,0-1.54-4.66c-2-2.27-5.58-3.73-9.38-3.8s-7.48,1.41-9.45,3.86a6.28,6.28,0,0,0-1.34,5.48c.05.2,1,2.54,2,2.41a.84.84,0,0,0,.24-.07,9.84,9.84,0,0,0,3.16,1.94l.67,15.81-9.26-12,.86-5.72-8.75-11.08-2.6,5.29-6,1.39,8.74,11.06,5.43.56,11.78,15.25,0,.9L295,514a2.43,2.43,0,0,0,.07-.93,2,2,0,0,0-.81-1.41h0a2.44,2.44,0,0,0-2.95.2l-13.1-9.3a2,2,0,0,0-.81-2.25,2.22,2.22,0,0,0-1.92-.39c-.21-3.62-.42-6.47-4.05-6.69a25.79,25.79,0,0,1-7.86-1.54c-.67-.24-.94-.34-1.09-.19s0,.48.38,1.42a7.43,7.43,0,0,0,1.32,1.76c.54.59,1.2,1.34,1.07,1.55s-.38.24-2.16-.28c-.75-.26-1.3-1.23-1.89-2.26-.8-1.37-1.61-2.8-3-2.82a.58.58,0,0,0-.55.2c-.15.28.12.73.44,1.25a2.81,2.81,0,0,1,.56,1.23,6.68,6.68,0,0,1-.08.81,4.39,4.39,0,0,0,0,1.95c.2.61.21,1,0,1.13-.56.34-2.72-1.29-3.31-1.91-.33-.32-.55-.42-.71-.33-.38.23-.05,1.54.59,3.83.52,1.89,1.17,4.25.8,4.72a.19.19,0,0,1-.15.07,3.49,3.49,0,0,1-.82-.21c-.67-.21-1.36-.44-1.63-.18a.49.49,0,0,0-.08.49,12.16,12.16,0,0,0,3.39,4.64l.78.77c1,.93,4.39,1.46,10,1.58a2.27,2.27,0,0,0,0,.52,2.24,2.24,0,0,0,.9,1.44,2.21,2.21,0,0,0,1.27.39,1.75,1.75,0,0,0,.46,0,2,2,0,0,0,1.1-.66l13.16,9.34a2.31,2.31,0,0,0,.88,2.33,2.22,2.22,0,0,0,1.28.39,1.73,1.73,0,0,0,.45,0,1.59,1.59,0,0,0,.33-.1L299.49,533l-1,.6c-10,.95-18.74-4.5-22.49-6.83-.56-.35-1-.63-1.32-.8a11.41,11.41,0,0,0-5.86-1.57h-.06l-.29,0h-.71c-2.9.25-4.89,1.64-5.5,3.87l0,1.58c.43,2.4,2.93,4.17,5.34,4.92l.11,0,.27.07.61.17v0a4.51,4.51,0,0,0,4.48-1.32c.88-1.35.48-3.06.18-4.31a6.24,6.24,0,0,1-.2-1.09,8.51,8.51,0,0,1,2.44,1.22c4.26,2.68,7.38,4.53,11.64,5.69l0,0a1.62,1.62,0,0,0,.29,1.93,3.54,3.54,0,0,1,.75,3.27,8.23,8.23,0,0,1-1.14,2.21c-.25.41-.55.88-.87,1.42a6,6,0,0,0,.47,6.73l-.69-.19c-5.27-1.44-10.25-2.81-14.25-6.67l-.12-.11a1.7,1.7,0,0,0-2.3.08c-1,1-.34,2.8.56,4.23a2.89,2.89,0,0,0-2.05,1,8.18,8.18,0,0,0-2.37,0,1.45,1.45,0,0,0,.05-.73,1,1,0,0,0-.07-.25,2,2,0,0,0,1.13-.87c.68-1.12,0-2.29-.52-3.32l-.21-.38c-2.69-5.07-9.81-6-11.16-6.11-5.87-.75-11.39-6-13.61-10.6-1.1-2.27-1.35-4.29-.65-5.45.88-1.59,3.23-2.37,5.38-2.46,0,0-.09.1-.13.16a5.71,5.71,0,0,0,0,7.69,9.41,9.41,0,0,0,11.62,1.85,8.43,8.43,0,0,0,4.5-7.9c-.24-4.79-4.25-9.88-9.74-12.39l-1-.48a7.84,7.84,0,0,0-2.26-.85c.09-.28.17-.57.27-.87l.11-.36c.51-2,.81-3.53-.36-4.35s-2.35,0-3.72,1a14.49,14.49,0,0,1-4.55,2.44c-6.39,1.57-11.06,5.16-13.49,10.38-2.73,5.84-2.43,13.24.78,19.76,3.37,7.19,10.33,13,16.59,14.75l-1.56.43c-3.52,1-7.17,2-10.86,2.72-9.51,1.89-17.19,5.4-24,8.5-8.24,3.77-14.75,6.75-21.37,5.45-4.88-.94-6.53-1-7.27.33s.32,2.34,1.22,3.3l.51.55a4.31,4.31,0,0,0,.88.79,2.7,2.7,0,0,0-1.4,1.26,2.52,2.52,0,0,0,.33,2.66l.25.37.27.11c-11.81-.81-30.18-8.65-34.6-23.87a9.25,9.25,0,0,0-3.67-5.57,7.26,7.26,0,0,0,1.83-1.34,5.48,5.48,0,0,0,1.65-4,5.77,5.77,0,0,0-1.77-4.22,7,7,0,0,0-.9-.73,8,8,0,0,0,3-1.88,5.89,5.89,0,0,0,1.54-4.26,4.25,4.25,0,0,1,.82-2.78c1-1.35,3.53-1,5.18-.69,1.36.21,2.64.42,3.24-.79s-.5-2.37-1.42-3.25l-.53-.51c-.65-.63-1.25-1.2-1.83-1.72a4.45,4.45,0,0,0,1.22-1c3.22-3.88,7.71-6.56,10.88-6.49a6.64,6.64,0,0,0,2.54-.71c1.18-.48,2.65-1.08,3.78-.85,1.6.26,2.33-.36,2.66-.93a.93.93,0,0,1,.05-.1,7.69,7.69,0,0,0,2.11,1.57,4,4,0,0,0,4.85-.75,3.25,3.25,0,0,0,.47-.65,7.1,7.1,0,0,0,2,2.14h0c7.69,6.13,12.38,17.19,10.48,24.65-1.27,4.93-5.1,8-11.42,9.1a9.26,9.26,0,0,1-8.37-2.9c-2.67-2.9-1.73-8.25-1-9.73a4.33,4.33,0,0,1,.37-.52,5.35,5.35,0,0,0,0,1.65,5,5,0,0,0,1.95,3.53c1.7,1.3,4.4,1.67,8,1.11a9,9,0,0,0,6.74-4.79,11.59,11.59,0,0,0,.06-10.23c-2.66-5.59-10.52-8.74-18.26-7.34-7.19,1.23-12.28,5.49-14.34,12-2.67,8.45.33,19.8,7,26.39a23.73,23.73,0,0,0,16.9,6.79,26.32,26.32,0,0,0,4.23-.34,24.38,24.38,0,0,0,17.81-12.78,9,9,0,0,0,1.75,1.16l.13.06a6.65,6.65,0,0,0,2.45.45,7,7,0,0,0,4.42-1.47,2.11,2.11,0,0,0,.78-2.18A2.21,2.21,0,0,0,212.3,546l-.25-.07c-1.46-.41-2.52-.71-2.13-4.44,1.26-13.07-1.47-29.76-13.24-34.27a7.28,7.28,0,0,0,1.69-2.37c.66-1.54.54-3-.33-3.89a2.44,2.44,0,0,0-2.79-.37c-3.36,1.49-6.74.71-10.66-.2-5.27-1.23-11.25-2.61-19.11.7-3.42,1.46-10.63,4.92-15.4,9.7,2-8.77,1.82-21.06-3.48-30.19-4.11-7.09-10.77-11.27-19.31-12.15L149,449.91l0,0-.14-4.21a7,7,0,0,0,3.4,2.68,6.2,6.2,0,0,0,2.4.45,3.65,3.65,0,0,0-.61,2.27,3.48,3.48,0,0,0,2.3,2.82c1.47.71,2.91-.22,4-.9l.52-.34a8.09,8.09,0,0,1,.09,1.34c-.11.3-.46,1-.74,1.6-2,4.07-3.24,7.07-1.64,8.65,1.39,1.37,3.65.24,4.31-.09a7.69,7.69,0,0,0,2.33-1.91,6.37,6.37,0,0,1,1.57-1.37,1.9,1.9,0,0,1,.71.08h0s.25.58-.56,2.58l0,.11a17.9,17.9,0,0,1-1,2.49,11.9,11.9,0,0,0-1.2,5.82c.06,2.43,1.14,3.09,2,3.21,2.23.28,5.38-4.25,7.4-7.66,0,.1.06.2.1.31a48.89,48.89,0,0,0,2.67,6.55c.81,1.56,1.82,3.11,3.24,3.11a3,3,0,0,0,.41,0c1.78-.36,2-2.74,2.07-3.85a24,24,0,0,1,1.2-4.65c.8-.5.81-1.75.82-5.7,0-.83,0-1.94,0-3.1a22.61,22.61,0,0,0,4.3,3.65c-1.1.89-1.74,2.84-1.61,5.12a35.06,35.06,0,0,1,.16,4.38,27.78,27.78,0,0,0,.28,5,2.84,2.84,0,0,0,2.55,2.42h.32a3,3,0,0,0,2.77-1.94l.1-.26c2.9,5.39,7.42,8.12,11.79,10.76,3.19,1.93,6.21,3.75,8.24,6.48l.8,1.07c1.85,2.49,2.76,3.59,4,3.59,1,0,2.21-.66,4.27-1.86l1.16-.67c2.92-1.63,6.38-2.1,10-2.6,5.16-.69,10.48-1.41,15.35-5.33v.26a3,3,0,0,0,2.14,3,3.14,3.14,0,0,0,.86.13,2.65,2.65,0,0,0,2.27-1.26,29.52,29.52,0,0,0,2.63-5.24c.44-1.06.9-2.17,1.49-3.34,1-1.89,2-6.74.89-7.92a1,1,0,0,0-1.29-.15A21.14,21.14,0,0,1,247,477.6c-3.25-.34-4.75,1.07-5,2.39s.38,2.78,2.5,3.53l1.19.36c-3.45,1.32-8.67,1.78-15,1.32a4.51,4.51,0,0,0,.32-1,6.14,6.14,0,0,0-.74-4,23.17,23.17,0,0,1-2-10.09,165.82,165.82,0,0,0,36,3.9,152,152,0,0,0,22.41-1.61,42.5,42.5,0,0,0,22.68,6.77h.07c11.83-.08,22.77-5.38,31.72-14.29a98.69,98.69,0,0,0,14,6.93l.92,1.18c17.22,21.9,33.91,36.15,51,43.56a6.15,6.15,0,0,0,2.37.6,3,3,0,0,0,2.12-.84,3.84,3.84,0,0,0,1.11-3.11v-.46a15.65,15.65,0,0,0-.44-2.86c.32-1.34.64-2.46,1-3.49v0h0a19.06,19.06,0,0,1,.59-2.16l.21-.67c.48-1,1.61-3.46,2.15-4.81l.06,0a41.31,41.31,0,0,1,4.1-6.72h0l.09-.13h0l0-.05h0c1.71-2.53,3.28-4.64,4.45-6.2l0,0c2.28-2.8,4.41-5.34,6.44-7.66L441,481.4l.11.11a3.67,3.67,0,0,0,2.22,2.38l19.06,7a3.56,3.56,0,0,0,1.3.23,3.71,3.71,0,0,0,1.59-.35,3.82,3.82,0,0,0,2-2.21,4,4,0,0,0-2.33-4.92L446,476.8h0a3.88,3.88,0,0,0-3.37.35l-7.94-2.88c2.32-2.55,4.46-4.74,6.46-6.62v0l.09-.07a139.15,139.15,0,0,0,23.15-24.28l.34.23.28-.41c.28-.41.54-.82.81-1.23l3.28.5A8.52,8.52,0,0,0,461.81,450.83Zm-1.42-122.51c.52-6.29,1.53-14.46,2.86-23.4l8.89-7.47-.4,5.17a5,5,0,0,0-3.17,4.59l.11,2.39,0,8.94v.11l7.54-.12ZM87.62,332.77a4.73,4.73,0,0,1-3.87-1.57C85,331.68,86.25,332.2,87.62,332.77ZM84,337.13a11,11,0,0,0,3.66.64,8.54,8.54,0,0,0,6-2.28c1.27.6,2.6,1.27,4,2-2.14.16-4.28.54-6.3.89-4.28.76-8.31,1.47-10.25-.36a6.36,6.36,0,0,1-1.6-3.87A10.15,10.15,0,0,0,84,337.13Zm437.27,143a107.6,107.6,0,0,0-13.55,18.58,2.65,2.65,0,0,0-2.68-.76c-1.13.41-1.62,1.58-1.83,3.17a7.56,7.56,0,0,0-2.93-3.69,5.38,5.38,0,0,0-4.45-.4,1.68,1.68,0,0,0-1.09.91c-.47,1,0,2.07,1.23,4.65.27.59.61,1.33.95,2.11a4.89,4.89,0,0,0-3.38-1.75h0a3.45,3.45,0,0,0-2.85,1.61c-1.54,1.91.09,4.23,1.39,6.1.33.47.67.95,1,1.44,1.32,2,1.88,4.9,1.73,8.67a7,7,0,0,0-4.15-2.17,1.71,1.71,0,0,0,.5-1.35c-.16-1.66-2.77-2.64-5.2-3.21a2.21,2.21,0,0,0,0-.52l0-.19c-2.23-9.45-4.69-25.65,3.6-28.84h0a3.47,3.47,0,0,0-.36,4.09c1.91,3.08,8.94,3.71,11.43,3.29a10.28,10.28,0,0,0,7.16-5.63,8.35,8.35,0,0,0-.33-7.81,5.24,5.24,0,0,0-2.12-2.22,3.4,3.4,0,0,0,.89-2.89c-.17-1.1-.15-1.11,1.09-1.51a6.12,6.12,0,0,0,2.24-1.12c2.72-2.28,2.28-7.37,1.12-10.1-.83-1.94-1.91-2.26-2.66-2.18-1.08.12-1.79,1-2.09,2.62-1,4.51-3.66,4.89-12.69,5.5l-.28,0a28.21,28.21,0,0,0-8,1.63,8.51,8.51,0,0,0-7.07-13.25h-.08A8.51,8.51,0,0,0,474,443.14L518.73,450a4.09,4.09,0,0,0,2.88,1.8l.52,0a4.27,4.27,0,0,0,2.79-1c5.94,1.27,10.63,2.82,12.92,4.27,1.71,1.09,2.17,1.39,1.43,3.36a7.39,7.39,0,0,0,.16,6.33,8.89,8.89,0,0,0,5,4C532.76,468.38,527.21,473.47,521.31,480.11Zm-4.86-306a14.54,14.54,0,0,0,1.08,3.9,5.05,5.05,0,0,0-4.17,1.74,4.37,4.37,0,0,0-.79,2.9,10.18,10.18,0,0,0-3.65-.33l-1.12-6.78,9.76-9.16A14.58,14.58,0,0,0,516.45,174.12Zm-209.92,415c-.14,2-.23,4.19-.3,6.35a9.78,9.78,0,0,0-3.41,1.8A29.64,29.64,0,0,0,306.53,589.14Z" transform="translate(-25.1 -10.61)"/>
    <path class="cls-1" d="M360.14,504.14a2.62,2.62,0,0,0-2.4.54,3.39,3.39,0,0,1-.86.45,2.7,2.7,0,0,1-1.09.26,2.91,2.91,0,0,1,.75-.53,6.6,6.6,0,0,1,1.22-.61c1.2-.5,2.56-1.07,2.36-2.9h0c-.14-.75-.29-1.13-1.1-1.3-1.76-.74-2.66.54-3.46,1.67a8,8,0,0,1-.78,1,2.43,2.43,0,0,1-.78.51,2.94,2.94,0,0,1,.49-1,4.88,4.88,0,0,1,.74-.78,2.55,2.55,0,0,0,1.15-2.13,5.47,5.47,0,0,0-3.74-4.24c-.33-.1-.54-.08-.63,0s-.07.13,0,.28c1,1.24,1.37,2.11,1.18,2.68s-.91.76-1.62,1a2.49,2.49,0,0,0-1.46.73c-.95,1.32.45,4.22,2.27,6.5,1.42,1.79,3.3,3.41,4.59,3.41a1.3,1.3,0,0,0,.49-.09,3.75,3.75,0,0,0,1.08-.89,2.88,2.88,0,0,1,2-1.2,3.75,3.75,0,0,1,2.4,1.69s.09.17.21.14.13-.18.14-.23A5.87,5.87,0,0,0,360.14,504.14Z" transform="translate(-25.1 -10.61)"/>
    <polygon class="cls-1" points="561.51 553.55 560.13 553.43 560.23 552.93 554.63 551.25 557.7 549.77 557.51 549.04 557.79 546.47 554.11 545.43 556.6 543.74 556.2 542.84 556.09 540.46 553.21 540.01 555.15 537.68 554.54 536.87 554.03 534.61 551.51 534.65 554.68 530.4 552.95 528.59 552.51 527.62 549.74 528.32 552.46 523.09 550.08 521.32 548.89 522.49 548.36 521.83 543.62 524.79 544.2 521.78 542.94 521.26 541.3 519.73 538.4 521.98 538.61 518.97 536.85 518.51 535.47 517.54 533.6 519.36 533.11 516.54 532.2 516.49 530.25 515.46 528.66 517.38 527.62 512.23 527.16 512.25 527.47 509.46 524.58 508.77 522.46 514.37 520.19 509 517.32 509.7 517.39 510.65 516.6 510.65 515.96 517.37 514.07 515 513.41 515.34 510.79 515.68 510.64 519.61 508.27 517.36 506.72 518.47 505.36 518.79 505.4 521.66 502.79 520.14 501.41 521.54 500.22 522 500.61 524.39 496.27 522.35 495.33 523.61 493.49 524.84 494.88 528.04 488.47 525.84 487.15 528.5 488.36 529.3 487.9 529.85 492.42 534.6 489.24 534.48 488.91 535.96 487.85 537.57 490.64 540.26 487.64 540.49 487.49 542.56 486.93 543.82 489.49 545.62 486.92 546.62 487.01 547.24 486.29 549.9 488.86 551.22 484.6 553.21 484.8 553.87 484.57 556.8 487.87 557.75 483 561.23 484.35 563.87 485.71 563.41 485.87 564.16 491.6 563.66 489.76 566 490.31 566.65 491.28 569.13 495.01 568.24 493.66 570.67 494.2 571.13 494.13 571.19 495.51 573.78 498.46 572.93 497.52 575.88 498.93 576.65 500.09 578.13 502.59 576.96 501.63 581.69 502.21 581.9 502.21 581.91 504.47 583.8 507.06 581.65 506.74 587.75 509.66 588.31 510.05 587.13 510.66 587.41 513.69 582.37 514.51 585.38 516 585.28 517.87 585.83 519.52 582.41 520.73 585.54 523.37 585.02 524.05 585.14 525.08 582.54 526.86 585.08 528.63 584.3 530.17 584.27 530.61 581.82 533.77 585.48 534.24 585.19 534.31 585.36 537.2 584.75 537.12 581.4 541.91 585.37 544.12 583.4 543.36 582.24 543.92 581.94 541.84 576.57 544.23 577.63 544.65 577.05 546.97 575.54 545.52 572.2 548.03 572.9 548.71 571.53 550.17 570.25 548.74 567.77 552.08 567.88 552.61 565.81 553.39 564.82 551.91 563.03 555.91 562.95 556.03 562.1 556.54 562.25 557.94 559.67 555.58 557.65 561.65 556.52 561.51 553.55"/>
  </g>
</svg>
