<svg id="Calque_1" data-name="Calque 1" xmlns="http://www.w3.org/2000/svg" viewBox="0 0 119.3 107.3">
  <defs>
    <style>
      .cls-1 {
        fill: #fff;
      }
    </style>
  </defs>
  <title>MI6 Logo - White</title>
  <g>
    <path class="cls-1" d="M217.8,49.5a12.77,12.77,0,0,0-8.1-5.9l-.1,15.5,11.3.9A17.54,17.54,0,0,0,217.8,49.5Zm-8.5-5.7v-.1l-.2-.7.6.3h.2l.3-.3.4.1.2.5a14.32,14.32,0,0,1,7.4,5.6l.3.5.8-.1-.5.7a20,20,0,0,1,2.4,8.5l.4.4v.3c0,.1-.1.2-.4.2v.2l.2.6a1.63,1.63,0,0,1-.6-.3h-.1l-.2.4-.7-.5-4.5-.5a1.33,1.33,0,0,1-.3.7l-.3-.8-3.9-.2c-.1.5-.4.6-.7.4l-.3-.4h-.1l-.5.2.1-.6v-.1l-.4-.3.4-.7V51.3a.86.86,0,0,1-.6-.3l.6-.3.1-6.1c-.5-.1-.6-.3-.4-.7Z" transform="translate(-150 -5.4)"/>
    <path class="cls-1" d="M209.9,44.1h.3a12.3,12.3,0,0,1,4.1,2.1l3.3,3.6a19,19,0,0,1,3.1,9.8v.2L209.8,59Zm.8.6.1.6-.5-.2v4.8l.4.4-.2.5.7.4-.7.2.2.6-.4.3-.1,5.7.6-.2-.2.7,3.3.1.3-.4.4.2.4-.7.3.8.5-.2.2.4,3.8.5-.1-.7.5.2a20.1,20.1,0,0,0-1.8-7.1l-.4-.1-.1-.5h-.8l.4-.6-.4-.3.1-.4A12.17,12.17,0,0,0,210.7,44.7Z" transform="translate(-150 -5.4)"/>
    <path class="cls-1" d="M213.3,48.8h.6l.1-.2c-.1-.3-.2-.3-.5-.2l-.1.2-.3-.2-.1-.3.2-.3.9-.2.3-.3.2.4.3.2h.3l.1.6.5.9c.2.5.2.9,0,1.1a3.12,3.12,0,0,0,.1,2.2l1.1,1.6.2.1.7.5.4-.2-.6-.9-1.1-1.1a2.15,2.15,0,0,1-.2-2.3l.2.7a2.28,2.28,0,0,1,.4,1.5l1.3,1.3.2.8c0,.3-.1.4-.4.5l-.9-.3-.4-.4.6,1.1,1.3.3.1.2-.3.1.5.1-.5.4.4.1-.3.3-.1.3-.2.1.1.1V58l-.1.1.2.1c-.3.1-.4,0-.4-.1L218,58v-.4h0l-.2.4h-.1v.2l-.2-.3V58l.1-.3v-.1l-.3.1-.1-.3-.3.1.4-.3.2-.1.4.1.1-.6-.1-.1-.3.1-.5.1a2.45,2.45,0,0,1-1.2-1.7l-.7.1-.3.6.2.6-.1.4h-.5l-.2.2-.3-.2v.2l-.2-.2-.2.2-.2-.2h-.2l-.1.2.1.1-.2.1-.2-.4.1-.1h-.1l-.1.1v.1l-.3-.3.2-.3.2-.1h-.2l-.1-.1-.3.1.3-.3.2-.1.4.2.3.2h.9l-.5-.5v-.7l.9-.7,1.2.3-1-.7a1,1,0,0,1-.6-1.1l-.3.5-.5-.2-.3.4-.7.1-.2.3-.3-.2-.1.4h-.1l.2.3c-.1.1-.3,0-.4-.3l-.1-.1v-.4h-.1l-.4.1-.1-.1-.1.3.1-.5h.1v-.1h.6l-.5-.2v-.2h-.2l.3-.1h.4l.2.2c.1.1.4.1.7-.2l.8-.8-.8-.7-.4-.7-.1-.3v.1l-.2-.2h-.1v-.4H211V49l.2.3.2-.1c-.3-.1-.3-.2,0-.4l-.2-.1H211v-.1l-.2.2v-.4l.4-.1v-.1l-.3-.3v-.1l-.1-.1.4.1-.1.1h.1l.3.3.1-.1h-.1v-.2l.1-.2-.1-.2.3.3.2.2-.1.6.2.5.5.4.9,1.1.9-1.3-.7-.1c-.3.1-.5,0-.5-.2Z" transform="translate(-150 -5.4)"/>
    <path class="cls-1" d="M199.7,69.5l4.1,3.3a31.21,31.21,0,0,0-5.8-8A6.66,6.66,0,0,0,199.7,69.5Zm6-4.7h-.1c-.5-.1-.7-.4-.6-.7s.3-.4.7-.3l.2.1c.1-.7,0-1.1-.3-1.1l-2.8.6,2.4,3.9Zm-3.5-1.2-1.3.5a39.93,39.93,0,0,1,3.8,5.7L205,68Zm-1.9.6-1.4.3a30.83,30.83,0,0,1,5.2,7.6l.4-1.5A39.44,39.44,0,0,0,200.3,64.2Zm-3.7-.4v.1l.3-.8h3.3l3.3-.8,2.2-.3c1.1.2,1.6.9,1.5,2.2l-.1.2.3.1a.74.74,0,0,1,.4.8c0,.3-.2.4-.6.2l-.2-.1-.7,8.7.1.2V75q-.15.3-.6,0c.1,1-.4,1.4-1.5,1a1.46,1.46,0,0,1-1-1.4l.4-.5h.5l.4.6h-.4l-.3.1.5.6c.4.1.6-.1.6-.5a.87.87,0,0,0-.4-.9l-.9-.3a19.79,19.79,0,0,1-5.4-4,5.7,5.7,0,0,1-1.6-4.7l-.3.1.3-.8-.5.4c-.4.1-.6.1-.6-.2l.6-.9C196.4,63.3,196.6,63.4,196.6,63.8Z" transform="translate(-150 -5.4)"/>
    <path class="cls-1" d="M170.7,23.3h-.3l-1.3.6.6.3.7.2.5-.4-.7.2-.3-.1.1-.6.1.2h.3l-.1-.3.1-.1.5.3v-.4Zm.1-1.4.4-.4.5.5-.2,1.7.4,1.9h-.2l-.2-.2c-.1-.6-.4-.9-.9-.7s-1.1.2-1.3,0l-.5-.4-.6.6-.2-.4.4-.6,2.4-1.2Z" transform="translate(-150 -5.4)"/>
    <path class="cls-1" d="M179,25a1.83,1.83,0,0,1,2.3.7l.7,2.2a2.15,2.15,0,0,0,1.8,1.2c-.8.8-1.7.3-2.6-1.2-.5-1.6-1-2.4-1.4-2.6Z" transform="translate(-150 -5.4)"/>
    <path class="cls-1" d="M179.9,27.3a5.23,5.23,0,0,0,2.2,2.6l1.1.4-.8.2.2.8c.3.5.2,1.1-.5,2a4,4,0,0,0-1-2.8l-1.2-2.4Z" transform="translate(-150 -5.4)"/>
    <path class="cls-1" d="M168.8,31.4c-.1-1,.5-1.7,1.6-2.1a4.27,4.27,0,0,0-.8,3.6c-1.5-.8-2.1-1.9-1.6-3.5l.3-.8A3.68,3.68,0,0,0,168.8,31.4Z" transform="translate(-150 -5.4)"/>
    <path class="cls-1" d="M178.8,34.3l-.2-1,.5-1.2.2,1.1.4.3a3.33,3.33,0,0,0,.2-1.9l-.8-1.7c1.1.2,1.7,1,1.7,2.5l-.9,3.4-.5-.9Z" transform="translate(-150 -5.4)"/>
    <path class="cls-1" d="M170.4,31.1l.7-1.4a2.31,2.31,0,0,0,.6,2.5,1.87,1.87,0,0,1,.4,2l-.5-.8-.3-.1-.3.1.3.8c-.4-.1-.7-.5-.9-1.3Z" transform="translate(-150 -5.4)"/>
    <path class="cls-1" d="M174.2,33.8l.2-.9a2.1,2.1,0,0,1,.7,1.5,2.73,2.73,0,0,1-.7,1.5,1.38,1.38,0,0,0-.2,1.6c-.6-.3-.9-1.1-.8-2.4l-.1-.3h-.4a1.33,1.33,0,0,0-.2,1.4,1.57,1.57,0,0,1-.4-1.7,5,5,0,0,0,.7-2.1l.2,1.1,1.1,1.2Z" transform="translate(-150 -5.4)"/>
    <path class="cls-1" d="M171.3,40.7l.1-1.5.9-1.2a3,3,0,0,0-.1,2.1l.3,1.1a1.59,1.59,0,0,1-.3,1.3,3.6,3.6,0,0,0,2.1-2.5,3.67,3.67,0,0,0,.1-1.8,4.22,4.22,0,0,1,.9,2.5,4.66,4.66,0,0,1-.7,2.9c.5.1,1-.2,1.2-1l.6-1,.3,1.7a1.08,1.08,0,0,1-.2,1.4l-.1-.7c-.1-.3-.3-.4-.6-.2l-1.1.4-.9-.2a4,4,0,0,0,.7-2.2v-.1l-.2.2c-.3.7-1.2,1.2-2.6,1.5l-.2.1A7.43,7.43,0,0,0,171.3,40.7Z" transform="translate(-150 -5.4)"/>
    <path class="cls-1" d="M177.8,19.7h-.6l.2-.7.7-.5h.9c.4.1.7.3.7.6a1.55,1.55,0,0,1-.1,1.6h-.2l-.5-1.1c-.1.6-.2,1-.5,1.1l-.3-.4Z" transform="translate(-150 -5.4)"/>
    <path class="cls-1" d="M166.8,24.1l-.2.7v.7H166l-.4-.7-.2,1.2.6.5-1.1-.2-.4-1.5a1.51,1.51,0,0,1,1.4-.9Z" transform="translate(-150 -5.4)"/>
    <path class="cls-1" d="M244.4,23.3a.76.76,0,0,0,.4-.2v-.4l-.3.2-.1-.5-.4.2V23Zm.4-2.1-.3.4.9.5.9.2a.42.42,0,0,1-.3.6l-.9.4a1.13,1.13,0,0,1-1,.3c-.2-.4-.5-.5-1-.3s-.6.1-.7-.3l1.1-1.1Z" transform="translate(-150 -5.4)"/>
    <path class="cls-1" d="M241.5,16.5l.6.3.7-.2,1-.1a2,2,0,0,0-2.7-.4Zm2.1,1.5h1l.9-.3q-.9-1.5-2.7-.3Zm2.5-.9a.6.6,0,0,0,.6.3v-.3l-.2-.5-.5-.3ZM242,15.4l-1.1-.5-.9.3a1,1,0,0,0,1.1.4Zm-3.5-2.5,1.4.6c.1.2.3.3.7.4l.6.5,2.8,1.3a6.31,6.31,0,0,0,.9.4l-.2-1.2,1.7.6v-.9a8.32,8.32,0,0,1,3.7,2.8l3.1.4a6.84,6.84,0,0,0,3,1.1l1-.2a2,2,0,0,1-1.1,1.7l1.1.9a1.2,1.2,0,0,0,1.4,0,2.87,2.87,0,0,1-1.1,1.9l1.3,1.7,1.7,1.3-1,1.1-1.4.4a3.56,3.56,0,0,1,.8,2.5l.1,2.2.6.8c-.3.9-.8,1.1-1.5.5l.2,1.7.6,2a1.89,1.89,0,0,1-2.2.4v-.1c-.3.7-.1,1.2.4,1.4l.2.2-1.2.8h-.9l-.6-.6.1-1c.4.8.9,1,1.4.6l-.5-1.3V35.4l.6,1.2a.85.85,0,0,0,1.2.5l-.3-1.4.2-1.8-.6-2.1,1.3,1h.4l-.6-2.6a6.82,6.82,0,0,0-1.4-3.8v-.1l.8.5a1.89,1.89,0,0,0,2-.3L257.7,25l-1.1-1.6a2.75,2.75,0,0,0-1.5-.8h1.2a.68.68,0,0,0,.9-.6,1.51,1.51,0,0,1-1.4-.7l-1.4-.7.5-.6.8-.4a8.32,8.32,0,0,1-2.5-.9l-2.6-.3.2,1.1-.2,1-.2-.2a6.09,6.09,0,0,0-3.1-4.2,5.59,5.59,0,0,0,1.6,4.4c-.5.3-1,.1-1.4-.5s-.9-1-1.3-.9c0-.3.3-.4.8-.4l-.5-.5-.5-.1-1.6.3a1.88,1.88,0,0,0,1.3.7l-1,.7-1.4.7-1.2,1c-.3.8-.6,1.2-.9,1.3l-3.1,2.9.4.6a.79.79,0,0,1-.5.8c-.3.1-.4.1-.4-.2l.2-.3-.6-.2v.9l.2.9.7.7,1.1-.8,1.4-.4.4.2v.5c0,.2-.2.4-.6.7l-.7.7.2.2a1,1,0,0,0,1.3,0l-.4,1.1V32c.3-.3.4-.1.4.5a2.59,2.59,0,0,1,.9-1.7c.5-.6.6-1.2.3-1.6l.9-.8,1.4-1h.1a4,4,0,0,0,4.1-1.4l.8-1.1v.4c.1.7-.3,1.5-1.4,2.4a5.88,5.88,0,0,1-1.3,3,7.3,7.3,0,0,1-2.2,1.6l-1-.3.8-.7a14,14,0,0,0,2-1.3,3.8,3.8,0,0,0,.7-1.7l-1.8.4a4.35,4.35,0,0,0-2.1.9c.1.9,0,1.4-.4,1.6l-1.5,1.7.1.5-.8-.5-.5-.2V31.5l-.8-.1-.9-.7.4-.7.9-1-1.3.9c-.5.4-.9.5-1.1.2l-1.1-1.5a2.4,2.4,0,0,1,.6-2.5l3.7-3.6a3.78,3.78,0,0,0,1.3-2.1l2.2-.8-1.8-1.8-2-1.2L237,13.9a9,9,0,0,1-2.8-2.7A9.5,9.5,0,0,1,238.5,12.9Zm.3,1.6a1,1,0,0,0,1,.3l.7-.2-.9-.4Zm-.9-.7v.1l.4.2.3-.1.7-.1Zm-.9-.6.4.1.6-.1v-.1l-1.5-.7C235.8,12.1,236,12.4,237,13.2Z" transform="translate(-150 -5.4)"/>
    <path class="cls-1" d="M177.9,35.5c-.8-.6-1.2-.7-1.2-.2l-1.2,1.1.5-.7a3.28,3.28,0,0,0-.3-2.3l.8.8c.6.3,1.1.1,1.4-.6l.1.6.6,1c.7.4.8,1.2.4,2.3A4.48,4.48,0,0,0,177.9,35.5Z" transform="translate(-150 -5.4)"/>
    <path class="cls-1" d="M177.7,43.7a2.72,2.72,0,0,1-.7-2V40.6l.3-1.7c.3.2.4.8.4,1.7a4.15,4.15,0,0,0,.8,2.5,5.54,5.54,0,0,1,.4-2.7,3.16,3.16,0,0,0,.2-2.5l1,1,1.1,2.4c.4-1.4.9-1.2,1.5.5a2.12,2.12,0,0,0-.4-2.2,3.09,3.09,0,0,1-.9-2.3l1.7,1.7c.7.8.6,2.1-.2,3.9l-.1.2-.8-1.7c-.3-.1-.3.1-.2.6a1.41,1.41,0,0,1-.1.9l-.6,1c.3-.5-.1-1.8-1.2-3.8l-.7,1.8.1,1.4a2.93,2.93,0,0,1-.1,1.5Z" transform="translate(-150 -5.4)"/>
    <path class="cls-1" d="M207.9,82h-.1l-.7.7.4.9.6-.1.2-.5C208.4,82.5,208.3,82.2,207.9,82Zm-.1-.7h.3a1.21,1.21,0,0,1,.7.7l.2,1.1c-.3.8-.7,1.1-1.3,1.1l-.3-.1-.8-.6-.1-1.1A1.16,1.16,0,0,1,207.8,81.3Z" transform="translate(-150 -5.4)"/>
    <path class="cls-1" d="M214.6,84.8c.4-.3.5-.5.4-.8h-.2l-.5.2c-.4.2-.5.4-.4.7l.2.1Zm1-1.4.2.2-.2.9-.7.8-1,.4-.5-.2-.1-.2.1-.8.8-.9Z" transform="translate(-150 -5.4)"/>
    <polygon class="cls-1" points="43.2 70.4 42.7 69.6 45.1 67.8 45.7 68.6 44.7 69.4 45.3 70.3 46.4 69.5 47 70.3 44.5 72 43.9 71.3 44.8 70.6 44.2 69.7 43.2 70.4"/>
    <path class="cls-1" d="M193.3,70.8q-.3-.75-1.2-.3c-.5.3-.8.7-.6,1.1s.7.6,1.3.3S193.5,71.2,193.3,70.8Zm-1.7-1.3a1.53,1.53,0,0,1,2.3.9,1.73,1.73,0,0,1-.7,2.4,1.63,1.63,0,0,1-2.3-1C190.4,70.6,190.7,69.9,191.6,69.5Z" transform="translate(-150 -5.4)"/>
    <polygon class="cls-1" points="42 59.1 42.2 60.2 40.5 62 42.6 61.5 42.8 62.4 39.7 63 39.4 61.9 41.2 60.1 39.2 60.6 39.1 59.8 42 59.1"/>
    <path class="cls-1" d="M193.3,50.6c.2-.5,0-.9-.6-1.1a.77.77,0,0,0-1.2.4c-.2.5,0,.9.6,1.1S193.1,51.2,193.3,50.6Zm-.2-2c1,.4,1.2,1.2.7,2.3a1.53,1.53,0,0,1-2.2,1.1c-1-.4-1.2-1.2-.7-2.4S192.1,48.1,193.1,48.6Z" transform="translate(-150 -5.4)"/>
    <polygon class="cls-1" points="42.6 41.1 43.2 40.2 45.7 41.9 45.2 42.8 42.6 41.1"/>
    <polygon class="cls-1" points="46.4 37.3 45.7 37.9 47.6 39.6 47 40.4 45 38.7 44.5 39.4 44 39 45.8 36.9 46.4 37.3"/>
    <path class="cls-1" d="M201.1,39.2q-.75.3-.3,1.2c.3.6.8.8,1.2.6s.5-.7.2-1.3S201.6,39,201.1,39.2Zm-.2-.5a1.55,1.55,0,0,1,2.3.6A1.25,1.25,0,0,1,203,41l1.1.2-1,.5-.7-.2h-.1c-1.1.5-1.9.3-2.3-.6S199.8,39.3,200.9,38.7Z" transform="translate(-150 -5.4)"/>
    <path class="cls-1" d="M206.6,37.1l.9-.2.3,2c.1.9-.3,1.4-1.4,1.4s-1.6-.2-1.7-.9l-.2-2,.9-.1.2,1.7.7.6c.5-.1.7-.3.6-.8Z" transform="translate(-150 -5.4)"/>
    <polygon class="cls-1" points="59.3 34.8 59.6 31.7 60.5 31.8 60.2 34.9 59.3 34.8"/>
    <polygon class="cls-1" points="68 34.6 69.2 35.4 67.6 38 66.8 37.5 68 35.5 66 37 65.3 36.6 65.8 34.1 64.5 36.1 63.7 35.7 65.4 33 66.6 33.7 66.2 35.9 68 34.6"/>
    <path class="cls-1" d="M220.8,45.1l.6-1.1-1.2.4Zm-1.9-.3-.7-.7,3.3-.9.7.8-1.3,3.1-.7-.8.3-.6-.9-1Z" transform="translate(-150 -5.4)"/>
    <polygon class="cls-1" points="74.1 41 74.5 41.8 72.3 43.1 73.2 44.4 72.5 44.7 71.4 42.6 74.1 41"/>
    <polygon class="cls-1" points="76.8 46.8 77.1 47.9 75.9 48.8 77.4 49.2 77.7 50.4 75.4 49.5 74.3 49.7 74.1 48.8 75.2 48.6 76.8 46.8"/>
    <path class="cls-1" d="M227.4,61v-.2h-.8V61c0,.4.1.6.4.6S227.4,61.4,227.4,61Zm-2.5-1.2,3.1.1V61c0,1-.4,1.5-1.1,1.5s-.9-.5-.9-1.4v-.3h-1l-.1-1Z" transform="translate(-150 -5.4)"/>
    <polygon class="cls-1" points="75.5 60.9 75.8 59.4 75.2 59.3 74.9 60.9 74.3 60.8 74.8 58.3 77.8 58.8 77.4 61.3 76.8 61.2 77.1 59.6 76.4 59.5 76.1 60.9 75.5 60.9"/>
    <polygon class="cls-1" points="76.9 63.1 76.6 64.2 74.1 64.6 76.1 65.5 75.7 66.2 73 65.3 73.3 64.1 75.7 63.5 73.7 62.9 74.1 62.1 76.9 63.1"/>
    <path class="cls-1" d="M221.7,72.6l.6-.8.6.3-.7.8-.1.7c.1.1.4-.1.9-.5l1.2-.3q.75.45,0,1.8l-.6.7-.5-.4.5-.6c.3-.3.3-.6.1-.7l-.8.6-1.1.3C221.3,74.2,221.2,73.6,221.7,72.6Z" transform="translate(-150 -5.4)"/>
    <polygon class="cls-1" points="68.9 71.9 68.5 71.5 70.3 69.6 72.5 71.6 70.9 73.5 70.4 73.2 71.4 71.9 71 71.5 70 72.7 69.6 72.2 70.6 71.1 70.1 70.7 68.9 71.9"/>
    <path class="cls-1" d="M176.7,30.2l-.3-.9-.2.7.3.9-.1.1-.9-1.1-.5.1,1,1.7.9-.1Zm-4.1-3.5c-.6,0-.7-.3-.2-.9l1.2-1h1.5l.6.3-1,1.1v.9l.6.8,1.4-.1c.4-.3.7-.6.7-.9.3,0,.6.3.7.8.2.7.1,1.2-.3,1.4s-.6.2-.8-.2l.4,1.6a1.7,1.7,0,0,1-.2,1.4c-.5.5-1,.7-1.4.3l-1.4-1.6a.52.52,0,0,1-.7.3l-1.2-1.5L174,29c.8-.1,1.1-.4.9-1.1l-.9-1.2-.8-.1Z" transform="translate(-150 -5.4)"/>
    <path class="cls-1" d="M175.5,98.7a1,1,0,0,0-1.5-.2l-.2.2,1.1,1.7.3-.2A1,1,0,0,0,175.5,98.7Zm-2.1-.9c1.3-.9,2.3-.8,3.1.3s.4,2.1-.9,3l-1.1.8-2.3-3.4Z" transform="translate(-150 -5.4)"/>
    <polygon class="cls-1" points="29.9 92.7 28.9 93.3 26.5 90.1 27.6 89.4 29.9 92.7"/>
    <polygon class="cls-1" points="31.4 86.8 31.9 87.5 30.5 88.5 30.8 89 32.1 88.1 32.6 88.8 31.3 89.7 31.7 90.3 33.1 89.4 33.6 90.1 31.3 91.7 29 88.4 31.4 86.8"/>
    <path class="cls-1" d="M185.1,90.2l1.1-.5,1,2.2a1.67,1.67,0,0,1,.1,1.2l-.9.9-.9.3a1.29,1.29,0,0,1-1.3-.9l-1.1-2.2,1-.6,1,2.1.9.6a.9.9,0,0,0,.1-1.1Z" transform="translate(-150 -5.4)"/>
    <polygon class="cls-1" points="46.8 101.4 48.4 101.9 48.4 102.8 46.8 102.3 46.9 103.1 48.6 103.5 48.6 104.4 45.8 103.6 45.2 99.6 48.4 100.5 48.4 101.3 46.7 100.8 46.8 101.4"/>
    <polygon class="cls-1" points="52.5 101.1 52.5 102 51.6 101.9 51.8 105 50.7 104.8 50.4 101.7 49.4 101.6 49.3 100.6 52.5 101.1"/>
    <polygon class="cls-1" points="60.8 101.3 60.7 105.4 59.6 105.4 59.7 102.9 58.9 105.4 57.9 105.4 57 102.9 57.1 105.4 56.1 105.4 55.8 101.3 57.5 101.3 58.4 103.7 59.2 101.3 60.8 101.3"/>
    <path class="cls-1" d="M214.5,109.2l.2-.8c0-.8-.2-1.1-.6-1H214l-.6.4-.2.9c0,.7.2,1,.7,1Zm1.5-1-.6,1.6a2.85,2.85,0,0,1-1.4.8h-.2c-1,.1-1.6-.4-1.7-1.7a2.15,2.15,0,0,1,2.1-2.5Q216.15,106,216,108.2Z" transform="translate(-150 -5.4)"/>
    <polygon class="cls-1" points="69.6 102.3 69.9 100.1 71.1 99.8 70.5 103.8 69.1 104.1 68.1 102 67.9 104.4 66.9 104.7 67.1 100.7 68.6 100.3 69.6 102.3"/>
    <path class="cls-1" d="M229,90.1l-.2-.1-.8,2,.3.1c.7.3,1.2.1,1.4-.6v-.8A.88.88,0,0,0,229,90.1Zm-1-1.4,1.3.4c1.5.6,2,1.5,1.5,2.8a1.71,1.71,0,0,1-1.7,1.2l-2.6-.8Z" transform="translate(-150 -5.4)"/>
    <path class="cls-1" d="M233.9,92.8v-.3l-.4-.3-.1-.1-.3.5.1.2C233.6,93.1,233.8,93.1,233.9,92.8Zm-1-2,1.5.9q1.2.75.6,1.5c-.3.4-.6.6-1,.5v.6l-.3,1.5-1-.6.2-.7-.2-1-.1-.1-.8,1.3-.9-.6Z" transform="translate(-150 -5.4)"/>
    <path class="cls-1" d="M236.9,98l-1.1-.4-.9-1.3.5-1.5a1.71,1.71,0,0,1,2.8-.5,1.56,1.56,0,0,1,.8,1.3,2.15,2.15,0,0,1-.4,1.5Zm.7-3.1-.4-.1a1.21,1.21,0,0,0-.9.6l-.3.7.3.6.4.1.8-.6.3-.7Z" transform="translate(-150 -5.4)"/>
    <polygon class="cls-1" points="89.3 94.4 88.4 93.8 90.4 90.5 91.4 91.1 89.3 94.4"/>
    <polygon class="cls-1" points="91 95.5 92.5 92.8 91.7 92.4 92.2 91.6 94.8 93 94.3 93.8 93.5 93.3 92.1 96.1 91 95.5"/>
    <path class="cls-1" d="M175.1,21.2l-.2.1.3.3Zm-.4.7v-.4l-.2.5.2.2h.5a.76.76,0,0,0,.4-.2l.3-.4-.3-.8c0,.2-.1.3-.3.4l.3.2v.5l-.2.1Zm-1.8-1.1.3-.3.5.5h.5l1-1,1.1-.1c.1.2,0,.3-.1.3l-.3.1.4.8-.2.8-.8.6c-.2.2-.2.4.1.7.1.3,0,.4-.1.4h-.1l-1.7-2Z" transform="translate(-150 -5.4)"/>
    <path class="cls-1" d="M193.2,94l-2.1,2.1c-1.2.9-1.7,1.6-1.6,2.3.1,1.2,1,2.2,2.8,3l2.8-2.2c1.5-.9,2.2-1.7,2.1-2.5C196.9,95.4,195.6,94.5,193.2,94Zm1.6-2.8a4.92,4.92,0,0,0-5.1-3.5,11.6,11.6,0,0,0-5.2,1.7l-6,3.9a46.37,46.37,0,0,1-6.5,4.2,14.44,14.44,0,0,1-6.3,2.2l1.6,1.2c1.7,1.5,3,2.3,3.9,2.3a10.15,10.15,0,0,0,4.7-1.5l10.5-6.9a11.12,11.12,0,0,1,5.5-1.7h.9l.4.1.2.1,2.7.8Zm30.9,11.3.7-1.2-.1.1-.2.1-.2.2h-.2l-.3.3-1.5.8c-4,1.8-9.1,2.7-15.4,2.7s-11.5-.9-15.5-2.7l-1-.5-1.5-1,.6,1.2,1.1,4a5.29,5.29,0,0,0,2.7,3.2c2.7,1.4,7.2,2.1,13.7,2.1s10.9-.7,13.6-2.1a5.29,5.29,0,0,0,2.7-3.2Zm-1.6-8.3c-2.5.3-3.9,1.1-4.2,2.5-.2.9.4,1.7,1.7,2.4,1.8.9,2.8,1.6,3.1,2.3,1.8-.8,2.7-1.8,2.8-3,.1-1-.5-1.9-1.6-2.8Zm21.5,9c.9,0,2.2-.8,3.9-2.3l1.6-1.3a13,13,0,0,1-6.3-2.1l-12.4-8.1a10.77,10.77,0,0,0-5.2-1.7,5.08,5.08,0,0,0-5.1,3.5l-1.4,2.9.8-.4h.1l.7-.2h.1l.2-.1h.1l.1-.1h.3l.4-.1,1.3-.1a11.92,11.92,0,0,1,5.5,1.7l10.6,6.9A10.15,10.15,0,0,0,245.6,103.2Zm0,1a10.52,10.52,0,0,1-5-1.5l-5.2-3.5c-4.2-3.1-7.5-4.8-9.7-5l2.6,2.3a3,3,0,0,1,.6,1.8l-.1,1-2,3.6-1,3.9a6.56,6.56,0,0,1-3,3.6c-2.7,1.5-7.5,2.3-14.3,2.3s-11.6-.8-14.4-2.3a6.56,6.56,0,0,1-3-3.6l-1-3.9-1-2-.6-.9-.4-.9-.1-.8a2.41,2.41,0,0,1,.7-1.8l2.6-2.3a12.48,12.48,0,0,0-4.8,1.8,42.55,42.55,0,0,0-4.8,3.2l-5.2,3.5a10.52,10.52,0,0,1-5,1.5l-2.3-.7-2.3-1.7a13.89,13.89,0,0,0-3.6-2.4l-.5-.3-.8-.2.6-.5h1.1l1.8.3a13.86,13.86,0,0,0,6.1-2l12.6-8.2a11.71,11.71,0,0,1,5.5-1.8,6.16,6.16,0,0,1,6.2,4.2l2.4,4.6.2.5.1.7c0,1.2-1,2.5-3.1,3.7l-.7.3c-.8.4-1.3.8-1.3,1.1,3.8,1.6,8.8,2.5,15.1,2.5s11.2-.8,15-2.5c-.1-.3-.5-.7-1.3-1.1l-.7-.3c-2.1-1.2-3.1-2.5-3.1-3.7l.2-1,2.5-4.8a6.16,6.16,0,0,1,6.2-4.2,11.39,11.39,0,0,1,5.5,1.8l12.6,8.2a13.49,13.49,0,0,0,6.1,2l1.8-.3a1.53,1.53,0,0,1,1.8.4l-1.4.6a13.7,13.7,0,0,0-3.5,2.4C248.2,103.4,246.7,104.2,245.6,104.2Z" transform="translate(-150 -5.4)"/>
    <polygon class="cls-1" points="63.2 61.9 63.6 62 63.3 62.1 63.2 62 63.2 61.9"/>
    <path class="cls-1" d="M212.6,67.8h.2v.3l-.2.2-.1-.3Zm.5-.2v.2l-.1-.2v.2h-.2l-.2-.2.1-.1Z" transform="translate(-150 -5.4)"/>
    <polygon class="cls-1" points="62.9 61.7 62.6 61.9 62.5 61.5 62.9 61.7"/>
    <path class="cls-1" d="M212.6,71.8c-.1.1-.2.2-.3.1l-.1-.3Z" transform="translate(-150 -5.4)"/>
    <polygon class="cls-1" points="62.8 66.5 63.2 66.6 63 66.7 62.8 66.5"/>
    <path class="cls-1" d="M212.3,72.2l.1-.1h-.1l.1-.1.3.1.1.1v.1h-.2c0,.1-.1.1-.2.1Zm-.1.3.2-.1.1.1v.2l-.3.2v-.4Z" transform="translate(-150 -5.4)"/>
    <path class="cls-1" d="M212.8,62.5c-.1.1-.1.2-.2.1l-.2-.3Z" transform="translate(-150 -5.4)"/>
    <polygon class="cls-1" points="63.1 57.2 63.6 57.5 63.3 57.6 63.1 57.2"/>
    <path class="cls-1" d="M212.6,62.9l.4.1.1.1v.1l-.1-.1v.2h-.2v.3c-.1.1-.2.2-.3.1l-.1-.2.1-.2.2-.1-.2-.1.1-.1h-.2Z" transform="translate(-150 -5.4)"/>
    <path class="cls-1" d="M263.7,79.8l-1-.5a1.23,1.23,0,0,0-1,.5l-.5,1V81l.2-.2.6.2-.2.7-.2.1,1.1.4,1-.4.4-1ZM170.2,90.9v-.3c0-.4-.4-.7-1.1-.8-.2.4-.1.7.2.8Zm16.9-6.2.4-.7-.4-.9a.56.56,0,0,0-.9,0l-.4.5,1,.4Zm12.8-2.8-1-.7-.5,1.6V83a2.87,2.87,0,0,0,.2,2.2l.4.2.5-.2A7.86,7.86,0,0,1,199.9,81.9Zm1.9.1.5-.5c.1-.3,0-.5-.3-.7-.1-.2-.6-.4-1.3-.5l-1.8-.2C200,81.5,201,82.2,201.8,82Zm8.3,9.2a1.22,1.22,0,0,1,.9.3.82.82,0,0,1-.1,1.2c-.5.5-.6.9-.5,1.1l-.5-.6v-.5h-.5c-.4.3-.4.6,0,1l-.2.4c.1,1,.6,1.5,1.3,1.5s1-.3,1-.9l-.1-6.7-6.7-1.3-.1,7.6a1.24,1.24,0,0,0,1.5,1.2l.9-.6.2-.7a.59.59,0,0,0-.2-.5c.3-.4.3-.8,0-1h-.5l-.1.5-.4.6c.1-.2-.1-.6-.6-1.1l-.2-.6.2-.6c.1-.2.4-.3.8-.3s1,.4,1.4,1.3l-.4-1.7a1.21,1.21,0,0,1,.1-1.3l.6-.7.2-.3.2.3a2.11,2.11,0,0,1,.7,2.1l-.4,1.7Zm2-4.2.5.2a63.31,63.31,0,0,1,6.9-2.9l2.2-.8-14-3a18.17,18.17,0,0,1-5.3-1.6l-.7,1,.8.3a1,1,0,0,1,.5,1.3l-1,.9h-.3l-1-.2-.1,1.7Zm40.2-5.2.1.2.1.6-.7.1.3.2,1.1.4h.1l.2-1.1ZM251,80.5l-.1-.4-.6-1-.2-.2.1.4-.4.6-.6-.4.1.2.8,1.3.2-.5.6-.1Zm8.5,1.5h-.3l-1.1.4-.5.5v.2l.1.1.8.3,1.1-.4.3-.3c-.3.2-.5.1-.6-.2Zm-7.2-13.5-.4.2-.6,1-.1.5.2-.3.7-.1v.6l.2-.1.7-1.2a.37.37,0,0,1-.6,0Zm1.8-.5-.5.6a.9.9,0,0,1-.1,1.1l-.7.9c-.3.5-.7.7-1.1.5l-.2.3a1.38,1.38,0,0,1-.1,1.1l-.6,1.2h.1l2.7,3.4a7,7,0,0,1,1.2,5.1l-.9,5.3a3,3,0,0,1-1.6,1.5l-1.8,1-.7,1.7-1.1,1.5a1.64,1.64,0,0,0,2.1-.7L251,91l.4.1v1.3l-.5,1.2a3.82,3.82,0,0,0,1.6-.6,2.08,2.08,0,0,0,1.1-1.2l.1-.7c.1-.2-.1-.4-.4-.5l-.4-.2.8-.1.6.7.2-.9,1.3-.8c.5-.1.7.4.7,1.5.3-.2.5-.7.4-1.5s.2-.9.5-.6a9.29,9.29,0,0,1-.9-4.4l.2-4.3.4-1.7V76.5c-2.3-2.7-3.2-5.3-2.7-7.9l.1-.6Zm-4.6,7.7-.1-.2v.1a.42.42,0,0,1-.6.3l-.3-.5-.1.5.1,1.1.2.4.3-.5.6.3.1-.3Zm.5-1-.2-.2-.1.4.4.8.1,1.1a1,1,0,0,1-.4,1.1l.1.3.9.5.6,1a.91.91,0,0,1,0,1.2l.4.3.9-.1.8.3C253.6,79,252.4,76.7,250,74.7Zm.1-2.4-.1-.6-.2.1-.4.7.9.9.6-1.3-.1.1Zm6-8.9h.4c.3.2.3.4.1.6l.4-.3v-.2l-.7-1.3-.4,1Zm-.9,2.6-.4-.1-.1-.6-1,1.1-.1.5.1-.1.7-.1.2.5v-.1l.3-.3.1-.4Zm1.6-7.6-.1,1.2.1.3.1-.2c.1-.3.3-.5.6-.4l.3.6V60l.1-.4V58.4l-.3-.4c.1.2,0,.4-.3.5Zm-.5-.6-.2-.4a1,1,0,0,1-.9-.4l-.9-.8L254,55l-.3-.1-.7.2,2.3,2.8.9,1.6V58.4Zm.3-1.5-.2-.5-.9-.8-.2-.1v.5c-.1.3-.3.3-.6.2l-.2-.2.2.4.8.8.2.1-.1-.2.2-.5.6.1Zm-19,7.2-1.1.8c-.9,2.5-.3,4.8,1.8,7.1l1.2,2.7a2.42,2.42,0,0,1-.6,3c-2,1.5-5.1,2.6-9.2,3.4a2.16,2.16,0,0,0-1.8.6l-1.7,3.5.7-.1a6.84,6.84,0,0,0,1.5-2.7h.2a2,2,0,0,1-.1,1.7l-.7,1.5,1.6-.3,1.2-1v-.1l.2-1,.2-.1c.5.1.6-.1.3-.7l.3.2.5.2.5-.2a1.13,1.13,0,0,1,.9.7.92.92,0,0,0,.6-1l.8.6c-.1-.9.9-1.7,2.9-2.5l3.3-1a3.44,3.44,0,0,0,2.6-2,4,4,0,0,1-.7-2.9l-.2-3.1,1.4-1.3,1.6-1.1-.2-4-1.2-1.6a2.82,2.82,0,0,1-.1-2.2,12.2,12.2,0,0,1-3.4,1.5Zm-5.5-16.2.1.3.3.3.1-.5Zm2.6,1.7h-.2l.2.3c.2.2.2.4,0,.7l-.7-.1.3.3,1.2.2h.1V50c.1-.3.2-.4.5-.3h.2l-.5-.4Zm-.6-.6h.7l1.7.6v-.9l-.8-.2-1.6-.2-.2.5Zm-5.5-9c-.1-.3-.6-.6-1.3-.7l-.9-.2-3.8,2.3,2.7,3.2v-.1a5.78,5.78,0,0,1,4.9-1.4Zm8.3-3.5h-.3l-1.1.4-.4.4.7.1q.3.45,0,.6h.1L237,37l.2-.1a.55.55,0,0,1-.6-.4Zm2.2-.6.6.3-.2.5h.1c.5,0,.7-.2.7-.7s-.2-.8-.7-.8-.7.3-.7.8Zm-4.9,5-.1.1-1,.7-.2.5.3.6,2.9-.3Zm-1.7-.9-.1.4.5-.3a.57.57,0,0,1,.4.7l.3-.3-.8-1.1Zm-.5-1.7-1.3-1.4-1.2-1-2.8-.4-5.9,4.3,1,.9,4.1-2.6,2.5.3,1.5,2,1.1,1.8.8-.4.2-.5a1,1,0,0,1-.1-1.5l.4-.7Zm21,15.8h-1.1l.7,1,.4.1h.1l-.2-.2c-.3-.1-.3-.3-.1-.6l.5-.1h.2ZM213.5,75.4h-.2l.2-.1Zm2.1-4-.8.7c0,.3.5.5,1.6.5l2.2.1c-.1.3-.7.5-1.7.4l-1.5-.2-2.2.2c.3-.5.4-.9.3-1l.3-.2-.3-.1-.1-.4-.3-.2h-.6l-.2.2-.2-.2v.4l-.4.4.1.1-.2.4.1.2-.1.9-.7-.8-.2-.4v-.6l-.2-.2h-.2l.2.2h-.1v.3c-.1-.2-.2-.3-.3-.2v-.1l-.2-.1-.1.1.1.1-.1.1.3.1v.1l-.3.2v.1l.1.3v-.2l.1.1.1-.1h.2V73l.1.1-.2.1-.2-.1.1.3h.4l.1.1.1-.1.2.2v.1l.4.4.5.3.2.3-1,.3-.3.2h-.4l-.1-.2-.2-.2h-.1l-.3.1.1.1v.1l.3.2v.1h-.1l-.3-.1-.1.1-.2.1-.1.2.2-.2v.1a.21.21,0,0,0,.4,0h.1l-.2.4.1.1.1.2h.2l-.1-.2h.1l.1-.4h.1l.2.2.2-.2v-.1l.1.2.2-.1-.1.3.3-.4v.1l.4-.1v.3l.1-.2.1.3.2-.3.4-.2-.1.2.4-.4.3-.9h.1a2.3,2.3,0,0,0,.9-.3l-.1.5.3.5v.1H214l-.7-.2h-.1l-.3.4.3-.2v.2l-.1.3h.1l.2.2-.1-.2h.2v.2c0,.3.1.3.4.1l-.2-.1h.1v-.2h.2c.1.1.1.2.2.1l.3-.3h.4l-.1-.5a1,1,0,0,0-.4-1.1q.9.3,1.2,0l.6.3-.1.1-.3.2-.2-.2h-.2l-.3.1h.2v.1l.1.1-.3.2-.1.4.2-.2h.4l-.2.3v.1l.1.2v-.2h.1l.2-.3h.2c.1.1.1,0,.2-.1v-.1l.1-.1.1.2.1-.4.3-.1-.2-.2c.3-.1.3-.2.2-.3l-.6-.6h.4c1.4.1,2.1-.1,2.1-.5s-.4-.5-1.2-.5l-2.6-.2.5-.5.3.2h4l-3-.3,1.4-.2h-2.5Zm1.7-2.1.7.2h1.6l.1.2-.2.3-.4-.1-.1.1-.3.2.2-.1v.1l.1.2.2-.1v.1l-.2.2v.1l.1.2.1-.2.1.1.3-.3v.3l.3.1-.1-.1h.1v-.4a.52.52,0,0,0,.4-.2l-.1-.2.3-.1-.2-.2h.1l.2-.3-.3-.1-.2-.1-1.5-.3h1.2c.5,0,.9-.1.9-.3,0-.4-.4-.6-1.3-.6-2.5,0-3.8-.2-3.8-.6l1.1-.1.3.2,4.2.1-1.5-.3-1.5-.1,1.4-.1-2.7-.2-.1.1c-1-.1-1.5,0-1.5.4s.5.7,1.6.7l2.5.1.9.4-6.7-.3.3-.7.2-.3-.3-.1-.1-.2v-.1l-.4-.2-.3-.2-.4.2-.3-.1-.1.4-.3.3.1.2-.3.4.2.1-.1.4h-.3l-.6-.1-.1-.4v-.7l-.4-.1.2.2h-.2l.1.2v.1h-.1l-.2-.3H210l-.1-.1-.2.1h.1l-.1.2.4.1v.1l-.4.2V68l.1.3.1-.2v.1l.2-.1h.2v.1q-.45.3,0,.3l.1.1-.2.1-.3-.1.1.3h.5l.1.1.1-.1.1.2.1-.1h.4l.2.1h.3v.5l-1.5.3-.2-.2-.2-.1h-.4l.2.1-.1.1.3.2v.1h-.1l-.3-.1h-.1l-.2.2-.1.2.2-.2v.2l.4-.1v.5l.1.3h.2l-.1-.3h.1l.1-.3h.1l.3.2.2-.3.1.2.2-.2-.1.4.3-.4v.1h.1l.4-.1v.2l.1-.1.1.3.3-.4.5-.2-.2.2.5-.1.3-.5.1-.1v.1l.4-.1c.2,0,.4-.1.7-.4L216,69l-.1.4.2.3.3.1h-.3l-.3-.1-.4-.2-.1.1-.3.2.2-.1v.1l.2.1h.2l-.3.1-.1.2v.1l.3.2-.1-.1h.1l.1-.1v.2l.1.2.3-.1h0l.2-.2h.2c0,.1.1.2.2.1l.1-.1.1-.2h.7l-.2-.5v-.4ZM209,77.6a5.86,5.86,0,0,0-3.1,1.3l6,1a3.31,3.31,0,0,1,1.6-2.2Zm-7.3-.7-.9.8-.1.2-.9,1.5,1.1.2,2.4-2.5c.2-.4.1-.7-.4-.8Zm15.4-11.3v.1h-.2Zm-4.4-3.7-.2.1-.3-.1v.4l-.5.4.2.1-.3.4.2.2-.1.4-.2-.1H211l-.9-.8.1-.6-.1-.2-.3-.2.1.2v.5h-.1l-.2-.3h-.1l-.4-.1.1.1v.1l.3.1.1.1v.1c-.3-.1-.4,0-.4.2v.3l.1-.2h.1v.1l.2-.1h.1v.1c-.2.2-.2.3.1.3l.1.1c0,.2-.1.3-.2.3l-.3-.3.1.5.4-.1h.1l.1.1h0l.1.1.2.1v-.1l.8.7.3-.2.1.2.1-.1.2.4-1.6.2L210,65h-.5l.2.2v.1l.3.2h-.6l-.2.2-.1.2.2-.2v.1c.1.2.2.2.5,0l-.1.3v.2c0,.2.1.3.4.3l-.2-.3.2.1.1-.4h.1l.2.3c.2-.1.4-.2.4-.3l.1.1.1-.2v.4c.2-.1.3-.2.3-.4l.1.1.4-.1V66l.1.2v-.1l.2.3.2-.4.4-.2.1.1-.2.1.4-.1.2-.3.4-.1a.52.52,0,0,0,.4-.2l3.2-.4c.1,0,.2,0,.2-.1v.3l.1.3.4.2-.3.1a.76.76,0,0,1-.4-.2l-.3-.3-.1.1-.4.2h.2l.2.2-.2.2v.2c0,.1.1.2.4.2l-.2-.2h.2l.1.2.1.1h.3l-.3-.1h.2v-.2h.1l.1.1.3.1.2-.2h.7v-.3l-.2-.3v-.3l.7.3,1-.1.7.1v.2l-.1.4-.4-.2-.2.1-.3.2.3-.1v.1l.3.2-.2.2.1.1.2.3v-.2h.1l.2-.2V67l.1.1c0,.1.1.2.3.1l-.1-.1.1-.1-.1-.4a.52.52,0,0,0,.4-.2l-.1-.2h.2l-.1-.4.1-.2h-.2l-.3-.3-1.4-.4,2.1-.1c.1-.3-.4-.7-1.5-.9l-3-.3q-2.1-.3-2.1-.6h2.3l.2.2,4.4.5-1.5-.5-1.7-.2,1.5.1-1.3-.3-1.5-.1-2.7.3c0,.4.8.7,2.4.8l3,.4,1.2.5-1.6-.1-3-.6a7.12,7.12,0,0,0-3.6,0c.3-.4.4-.7.3-.8l.3-.3-.3-.1-.2-.4-.3-.3-.7-.2Zm-27.6-1.7-1,.2-.7.8a1,1,0,0,0,1.3-.2C185.1,60.7,185.2,60.4,185.1,60.2Zm2.8,2.3-.5-.2h-.3l-.1.7.1,1.2.8-.7Zm-1.4-.5-.4-.2-.6-.2c.1.8-.2,1.2-.8,1.3Q185.9,64,186.5,62ZM198,55.9l-.3-.1v.4l-.4.5.2.1-.3.5.1.1v.4h-.5l-.6-.4-.3-.5v-.8l-.4-.1.2.2-.1.1v.4l-.3-.4h-.1l-.1-.1-.2.1h.1l-.1.2c0,.2.1.3.4.2v.1c-.3-.1-.4,0-.4.2v.1l.1.3.1-.2.1.1.1-.1h.2l.1.4.1.1-.2.3-.3-.3.1.5.5-.1.1.1h.1l.2.1v-.1l.8.6.3-.2.1.1.1.6-.9.1q-.75.45-.9.3l-.1-.3-.2-.1-.1.1h-.4l.2.1v.1l.3.3h.1l-.2.1-.4-.2-.1.1-.2.5.1-.2h.1c.1.2.2.2.4,0h.1l-.2.3v.2h.1v.1l.3.3-.1-.3h.1l.2-.4.3.2c.1,0,.2-.1.2-.3l.2.2.1-.2.1.2.2-.3v.2l.4-.1h.1v.2l.1-.1.1.3.4-.4c.3-.1.5-.2.5-.3h.1l-.1.3.3-.2.6-.5.1-.1v.1c.2,0,.3-.1.4-.3l3.1-.9.3-.2-.1.5.2.2.4.2-.3.1-.3-.1-.4-.3-.1.1-.3.4.2-.2v.1l.1.1h.2l-.2.1-.1.2.1.2c0,.2.1.2.2.1l-.1-.1h.1l.1-.1V60c0,.3.1.3.4.1l-.2-.1h.1l.1-.2h.2l.3.1.2-.4h.1l.6-.1-.3-.5v-.4l.7.1,1.5-.3.2.2-.1.5-.5-.1-.1.2-.2.2.2-.1v.1l.1.1h.3l-.1.4.2.3V60h.1l.2-.3h.1v.4h.1l.3.1-.1-.1v-.5l-.1-.1a.27.27,0,0,0,.3-.3l-.2-.2.2-.2-.2-.2v-.1c.1-.1.2-.2.1-.3l-.1.1L207,58l-1.3-.2c1.3-.1,2-.3,2-.6s-.5-.7-1.6-.7l-3,.2-2-.3.7-.3h1.4l.3.1,4.3-.1-1.5-.3h-1.7l1.4-.3-2.7.2-.1.1c-1.7,0-2.6.2-2.6.7s.8.7,2.3.6l3.1-.3,1.2.4-8,.6c.3-.5.3-.9.2-1l.2-.3-.3-.2-.1-.2V56l-.4-.2-.4-.1Zm-12-7.5,2,2.6,2.8-5.9-1.3.5-1.6,2-.8-1.6C185.8,46.7,185.5,47.5,186,48.4Zm10.2-9.7-4.3.4a13.62,13.62,0,0,1-4.8,1.1H187l.6,1-1.4.1a7,7,0,0,1,.2,3.9l1.6-1.6-.1.4.1,1.7c1-1.6,2.3-2.4,3.7-2.2Zm2-6-.4-.3-.8.2-.2.6.4.3.8-.3ZM218.3,48c-2.8-3.7-6.2-5.5-10.1-5.5V61l-14.2.9v.2a20.69,20.69,0,0,0,2,8.3,16.33,16.33,0,0,0,4.8,6.1c.9-.8,1.6-1,2.2-.8l.8.6.3.9a1.61,1.61,0,0,1-.3.9l.7.4a7.1,7.1,0,0,1,3.7-2.1V61l14.3.9V61A20.87,20.87,0,0,0,218.3,48Zm-15.1,2.3-.1.1q-1.5-.15-1.5.6c0,.5.6.8,1.7.7l2.7-.2,1.2.4-1.6.3-2.3-.2-3,.2.3-.8.2-.4-.3-.1-.1-.2-.1-.3-.8-.2-.2.1-.1.1-.3-.1-.1.4-.4.4.2.2-.3.5.2.1v.5h-.3l-.1-.1-.6-.4-.2-.4v-.9l-.3-.1.1.2-.1.1v.4l-.3-.4h-.1l-.2-.1-.1.1h.1V51l.2.2h.1v.1c-.3-.1-.4,0-.4.2v.1l-.1.2.2.1v-.2l.2.1.1-.1h.1l.2.4v.1c0,.2-.1.3-.2.3l-.3-.3.1.5.5-.1.1.2.1-.2v.1l.2.2v-.2l.5.4.3.1h.3l.1.5-1.7.4-.4-.4h-.1l-.4.1.3.1-.1.1.1.2h-.2l-.2.1-.3.4.2-.2.1.2.4-.1.1.1-.1.4v.1l.4.3-.2-.3h.2l.1-.4h.1l.2.2c.2,0,.4-.1.4-.2l.1.1.1-.2v.4l.3-.4.1.1.4-.1h.1v.1l.2.3.2-.4a.76.76,0,0,0,.4-.2h.1l-.2.2q.15.15.6-.3l.4-.5.3-.1a.91.91,0,0,0,.8-.4l1.2-.4a.76.76,0,0,0,.4-.2v.5l.2.3.4.1-.4.2-.4-.2c-.1-.2-.2-.3-.3-.2l-.1.1-.1.2V54l.2.1.1-.1v.1l-.3.3v.2l.3.1v-.1l.1-.1h.1l-.1.1.1.2.4.1-.2-.1.1-.2h.2l.3.1.2-.4h.2l.5-.1V54l-.2-.3-.1-.4.7.2a1.33,1.33,0,0,0,1-.3h.6l.1.1v.5h-.6l-.3.4.3-.2v.1c.1.3.2.3.3.1l.1.1-.2.3.3.3v-.2h.1l.2-.3h.1v.4h.1l.3.1-.1-.1v-.1l-.1-.5a.27.27,0,0,0,.3-.3l-.2-.2c.1,0,.2,0,.2-.1l-.2-.3.1-.4-.1.2-.2-.2-.3-.1-1.3-.2c1.4,0,2.1-.2,2.1-.5,0-.5-.5-.8-1.6-.8l-4.1-.2,1.2-.3.2.1,4.4.1-1.5-.5-1.3.1c.4-.1.6-.2.6-.4Zm2.6-7.3-.6.4c.2-.2.2-.3.1-.5l-1.3.9V44l-.3.6c.1.5.7.8,2,.8s1.8.3,1.8.6-.5.5-1.6.5l-1.1-.2-1.5.1c.3-.5.3-.8.2-.9.1,0,.2-.1.2-.3l-.3-.1-.2-.4-.3-.2-.3-.1-.4.2-.3-.1V45l-.3.3.1.1-.2.5.1.1-.1.9-.4-.2-.2-.4.2-.6-.1-.1-.3-.2.1.2-.1.1V46l-.2-.3h-.1v-.1l-.2-.1-.1.1h.1v.2l.2.1v.2l-.4.1v.1l.1.3.1-.1.2-.1h.1l.1.1c-.3.3-.3.4,0,.4l-.2.2-.2-.2v.4h.5l.1.1.1-.1v.1c-.1.1,0,.1.2.1v-.1l.4.4a1.6,1.6,0,0,1-.8.3l-.7.2c-.4.3-.7.3-.8.2l-.1-.2-.2-.2h-.1l-.3.1.2.1-.1.1.3.3h-.1l-.3-.1-.1.1-.2.1v.3L198,49l.1.1h.4l-.1.4.4.4-.2-.3h.2l.1-.3h.1l.2.2.2-.3.1.1.2-.1c.1.1,0,.2-.1.3l.3-.3h.5v.2l.1-.1.1.2.2-.3.4-.2-.1.2.4-.4.1-.2.3-.2.1.3c.2,0,.4-.2.7-.5l.2-.3.7-.3a.52.52,0,0,0,.4-.2l.1.7.4.1-.2.2-.4-.2-.3-.1h-.2l-.2.3.2-.1v.1h.3l-.1.1-.2.3v.1l.3.1-.1-.1h.1v-.1h.1V49c0,.3.1.3.4.2l-.2-.1.1-.1v-.2h.2v.1l.3.1.2-.4h.1l.5-.1v-.2l-.2-.2-.2-.4.4.2.4-.1c.3,0,.4-.1.2-.2l.6-.1.1.2v.4h-.6l-.2.3.2-.1.2.2c.1.1.1,0,.2-.1l-.1.4.3.2v-.2l.2-.2.1.2.1.1.3.1-.2-.2.1-.1-.1-.2v-.1l.2-.3-.2-.2c.1,0,.2,0,.2-.1l-.2-.2v-.1l.1-.2H207V47l-1.1-.1c1.3,0,1.9-.3,1.8-.8s-.7-.9-1.8-.9l-1.9-.5.2-.4a3.63,3.63,0,0,0,1.7-.7l1.3-.8Zm-3.1-11.8-1.4.8,1.6.5,1.5-.7Zm15.5,7.6-1.3-.8a14.34,14.34,0,0,0-3.4-1.4l-5.2-.2-6.1.5-3.1,1.3-.1.1c-4.9,3.1-8.4,7.9-10.3,14.4l.6,1.2.4-.8.5.2-.2.7.2.7.5-.7,1.1-.7q.9.3.6,1.8l-.4,1-.6-.2.4-1-.2-.6-.6.7c-.3.5-.6.8-1,.7l-.2-.1-.4,3.2a3.14,3.14,0,0,1,.2,1.8l-.3,1.6,2.6-.2v.9l-3,.2-.1-.3-.3.9-.6.9c.8,7.9,4.1,13.7,9.9,17.5l.5-1.8-.5-.5-.4-.6h1.5l1.2-1.8a17,17,0,0,1-5.3-6.8,23.36,23.36,0,0,1-2-9.7,22.35,22.35,0,0,1,4.5-14c3.1-4,6.7-6,11-6s7.9,2,11.1,6a20.71,20.71,0,0,1,4.3,14,22.41,22.41,0,0,1-3,11.4,19.54,19.54,0,0,1-6.6,6.5l-.4.4-.6.9a40.43,40.43,0,0,1,6.9,1.5,21.72,21.72,0,0,0,6.7-8.8A30.76,30.76,0,0,0,229.2,61a28.89,28.89,0,0,0-2-10.8l-.9-1.3-1.2-1c-.3-.3-.4-1-.4-2.2l.1-.5-2.7-3.5Zm-6.1-7,1.5.7,1.5-.5-1.4-.8,6,.7.2.1.4-.4c.2-.3.1-.5-.2-.6l-11.9-1.4-11.7,1.3c-.4.1-.5.3-.3.7s.3.4.6.2l11.4-1.2,5.5.6Zm-2.6-.2-.3-.5h-2l-.3.5.4.6h1.8Zm9.8.9-.8-.2-.4.3.2.5.8.3.5-.4Zm0,1.9-.8-.5-1.4-.4-9.1-.8-4,.3-.9.2h-.8l-1.4.3h-1.1l-.3.2-.6.1h-.4l-.4.2-.8.6-.2.9c.2.8.6,1.1,1.3,1.1l.5-.1.6-.5h.5q.6-.15.6-.3c.8.3,1.1.3,1,0l2-.3h1.8l1-.4.2.3.8-.1.2.1.6-.1.3.1,1.7.1.2-.2.7.2h.3l.3-.2.7.2c.3.1.4,0,.4-.2l1.1.3h.9l.4.2h.9l.5.3,1.7.2.6-.1.4-.6Zm-11.1-7.7c.5,0,.8-.3.8-.9a.8.8,0,0,0-1.6,0C207.3,26.4,207.6,26.7,208.2,26.7Zm.7-5.3a.53.53,0,0,0-.6-.6c-.5,0-.8.2-.8.6s.3.7.8.7S208.9,21.8,208.9,21.4Zm-.6-.9c.4,0,.6-.3.6-.8a.53.53,0,0,0-.6-.6c-.5,0-.8.2-.8.6C207.4,20.3,207.7,20.5,208.3,20.5Zm.5-2.3c0-.5-.2-.7-.5-.7l-.7.7c0,.4.2.6.7.6C208.6,18.8,208.8,18.6,208.8,18.2Zm-.5-2.1c.3,0,.4-.2.4-.5l-.4-.5-.6.5.6.5-.6.6.6.6c.3,0,.5-.2.5-.6Zm0-9.1-.6.5.6.6c.3,0,.5-.2.5-.6Zm2,6.3.5-.4-.5-.5h-1.5c0-1.6-.2-2.5-.5-2.5s-.5.8-.5,2.5h-1.5l-.5.5.5.4ZM195,27.2v.6l.6.6c.2-.1.2-.4.1-.9l-.5-.5Zm2-6.3-.9.8.1,2.2.6-.2-.5,1.1-.4,1.6.1.2.6-.5.9-1.3.8,3.9-1.8-.5-.1.1v.1l.7.8a2.82,2.82,0,0,0,2.3.5,2.22,2.22,0,0,0,1.3-1.2c.1-.3.1-.4-.1-.5.3-.6.3-1.1-.1-1.3l-.3-.1-.3.1v.7a1,1,0,0,1-.5,1c.3-.4,0-.9-.7-1.5l-.3-.6.1-.9.8-.5c.5-.1,1.2.3,1.8,1.4l-.8-2.2a2,2,0,0,1-.1-1.7l.6-1.4.3.4a2.28,2.28,0,0,1,1.1,2.5l-.2,2.4c.3-1.2.8-1.9,1.3-2l1,.3a1.21,1.21,0,0,1,.1,1.5l-.4,1.3.2.3c-.5-.1-.7-.3-.7-.8l-.2-.7H203l-.3.2v.8l.3.4.1.6a1.75,1.75,0,0,0,1.4.7,3,3,0,0,0,2.8-1.8l-.2-.6h-.7l-1.4,1V23.7l1.3.9,1,.4v-.1l-1.4-2.6h.8V20.7l-2.1-.3q-2.85-1.65-4.2-1.2l-.8.9-.2.6-.1.5-.4-.2Zm-.1-1h1.8a2.27,2.27,0,0,1,1.8-1.6,4.63,4.63,0,0,1,3.8.9,3,3,0,0,0,2.4.5V17.4A9.32,9.32,0,0,1,202,16a4.82,4.82,0,0,0-4.3-.6,4.94,4.94,0,0,0-3.1,2.9c-.5,1.1-.3,2.5.4,4.2A2.48,2.48,0,0,1,196.9,19.9Zm22.7,0a2.35,2.35,0,0,1,1.8,2.4,4.51,4.51,0,0,0,.4-4,5,5,0,0,0-3.1-2.9,5.07,5.07,0,0,0-4.4.6c-2.1,1.1-3.6,1.6-4.6,1.4v2.3a2.47,2.47,0,0,0,2.4-.5,5.29,5.29,0,0,1,3.8-.9,2.66,2.66,0,0,1,2,1.6Zm1.8,7.4-.2-.2-.5.5.2.9.5-.6Zm-1.7-3.6.5.2a2.84,2.84,0,0,0,.1-2.2l-.9-.8-1.3-.1-1,.4-.1-.5a1.35,1.35,0,0,0-1-1.5c-.9-.3-2.3.1-4.1,1.2l-2.1.3V22l-.1.3h.9l-1.5,2.6V25l1-.4,1.3-.9-.1,2.1h.1v1.7l-1.4-1h-.5l-.3.6,1.1,1.6,1.6.2a1.75,1.75,0,0,0,1.4-.7l.1-.6c.5-.5.5-.9.2-1.2l-.3-.2h-.2l-.2.7-.6.7c.2-.3.1-.8-.4-1.5a1.23,1.23,0,0,1,.2-1.5l.9-.3c.6.1,1.1.7,1.3,2l-.1-2.4a2.41,2.41,0,0,1,1.1-2.5l.2-.4.7,1.4a3.22,3.22,0,0,1-.1,1.7l-.8,2.2c.7-1.1,1.3-1.6,1.8-1.4l.8.5v.9a.6.6,0,0,1-.3.6l-.8,1.1.1.4-.5-1,.1-.3-.1-.4-.2-.1-.3.1-.3.8.1.5v.5l1.5,1.2a2.23,2.23,0,0,0,2.8-1.3l-.2-.2-1.7.5.7-3.9,1.5,1.8c.1.1.2,0,.2-.1ZM175,60.5a2.14,2.14,0,0,1-.8,2.1l-1.6,1.6a7.41,7.41,0,0,0-.5,3.5l1,1.2,1,2.2a3.4,3.4,0,0,1-.3,2.7c-.4,1.1-.4,1.9.1,2.4l1.5.9c.7.5,1.1,1,1.1,1.4l.2,1.7.7-.9.8-.3.5.1-.5,1c-.1.6.2,1.2,1.1,1.8l.6-1a1.25,1.25,0,0,0,.3-1.1,4,4,0,0,1,1.3,2.7,1.17,1.17,0,0,0,.8-1.1l1,.2c.3.2.5.4.4.7-.4.9-.2,1.3.6,1.3l.7-.2.3-.5c.7-.5,1.2-.5,1.6,0,.1-.1.1-.2-.2-.5l-.4-.5a5.83,5.83,0,0,1,1.1.7l1.2.5c-.1-.8,0-1.1.4-1.1l.1.2a1.51,1.51,0,0,0,1,1.7,1.08,1.08,0,0,0,0-1.1L190,82h.4l-.8-.7-.8-.2-.4-.4,1.7.1c.7.1,1.1.4,1.1,1v-.4l-.1-.4c0-.2.1-.2.3-.1.1.8.3,1.2.8,1.3A1.32,1.32,0,0,0,192,81l-.4-.8-.7-.4h-1.1l1.6-.6-1.6-.3-2.5.5-4.1-1.5a19.67,19.67,0,0,1-3.8-2.1,6.34,6.34,0,0,1-.7-3.7l3-5.5a1.53,1.53,0,0,0,0-1.6l-2.9-1.8a9.73,9.73,0,0,1-3.6-3.3Zm2.9-2.3-.2.3-.1,1.1-.8-.2,6.1,5.1a2.21,2.21,0,0,1,.1,2.1l-3.1,5,.6,3.3a51.27,51.27,0,0,0,6.6,3.2,2.73,2.73,0,0,0,2.2,0l2.1-.1a29.22,29.22,0,0,1-4.8-13h-.1a1.41,1.41,0,0,0,.1-.9l-.1-.6-1.3.4-1-.4-.2-.4.9-.7v-.5l-.7.3-.8-.2-.6-.6c.5-.3.7-.6.7-.9L183,60l-.1-.5.7-.7.4-.7v-.6l.1-.8.2-.7-1,1.1-.6-1.2-.1-1-.5.5a1.55,1.55,0,0,0-.5-1.4,2.31,2.31,0,0,0-.8,2.1,4.26,4.26,0,0,1-1.4,3.1C178.6,58,178.3,57.8,177.9,58.2ZM166.8,20.9a2.41,2.41,0,0,1-1.6.6l.6.4.6.3-.7.7.6.1a4.34,4.34,0,0,1-1,.5,1.68,1.68,0,0,0-1.1.6,2.25,2.25,0,0,0-.1,2.1,1.71,1.71,0,0,0,1.4,1h.6l.5.2-.7.7-.2,1.6v1.5a1.42,1.42,0,0,0,.9-.8l.4-1-.6,2.3a6.62,6.62,0,0,0,.8,3.7l.3-1.2,1-1V36a4.94,4.94,0,0,1-.2,2.8,1.57,1.57,0,0,0,1.4-1.1l.4-1.7a4.66,4.66,0,0,1,.5,3.6c-.3,1.5-.8,2.4-1.4,2.7.5.6,1,.5,1.5-.4l.1,1.2.2.8c.1,4.4-2.4,9.3-7.6,14.8l-3.2,5.4c-1.1,2.1-2.4,3.4-4,3.7a4.16,4.16,0,0,1-2.5-.7,4.87,4.87,0,0,1-1.2-4.7,20.62,20.62,0,0,1,3.1-6.1l4.3-5.6a11.68,11.68,0,0,0,2.2-5.2,7.19,7.19,0,0,0-.3-2.9,5.66,5.66,0,0,0-1.4-2.4,3.11,3.11,0,0,0-2.7,0L155,41.4l-2.1,2.5a8.49,8.49,0,0,1-1.2,3h.5l.5-.5-.9,2.3a3.39,3.39,0,0,0-.4,2.5,3.83,3.83,0,0,1,1.5-2.3,6.32,6.32,0,0,0,1.7-2.1l.3.4-.1.6.9-1a4.27,4.27,0,0,0,.5-2.4,5.6,5.6,0,0,1,.6-2.5l.9-.8,1.3-.2,1.3,1.2.7,1.7a9.76,9.76,0,0,1-1.1,4.9l-5.1,7a17.86,17.86,0,0,0-3.5,7.7q0,3.45,1.8,4.8l-1.2.1-1-.3.5,1,2.4.4,2.4-.4-.1.7a4.33,4.33,0,0,0,1.8-.9l1.4-1.5a1.63,1.63,0,0,0,1.5,2,2.92,2.92,0,0,1-.4-2c0-.7.6-1.8,2-3.5l-.3.9-.2,3.6a12.63,12.63,0,0,1-.4,3.8l-1.7,3.4a6,6,0,0,1-2.9,2.4h-.8l-.5.5.2,4.3-.9,2.4.3,3,1-1.5-.1,2.2a2.14,2.14,0,0,0,.5,2.1l.6-1.8.5.5.3.8a3.93,3.93,0,0,1,.1,3.4l.7,1.4.1-.7.2-.4h.4c.5,0,.7-.2.6-.7V92.3l.3.3.7.9c.5.3.9.5.9.8h.5l.3-.5.2-.2.3.1c-.3.4-.1.9.4,1.3.3-.3.2-.8-.3-1.2l.3-.2a2.58,2.58,0,0,1-1.6-2.1l.1-.3.2-.1c.1.8.9,1.3,2.2,1.5l.7.6.9.3V92.2l.1-.3.3-.1.2.3-.2.4,1.1.7a2.36,2.36,0,0,0-1.7-1.8,4.68,4.68,0,0,1-2.2-1.2l.1-.2,2.9.6.6.5h.7l-.1-.2a1.47,1.47,0,0,1,.2-1.4l-1.7-.3-2,.3c-1.9.1-3.6-1.5-4.9-4.7V82.2a4.12,4.12,0,0,1,1.1-2.4l7.2-6.3c1.6-1.2,2.5-3.1,2.6-6l.4-5.3a9.46,9.46,0,0,1,2-4.9c.1,0,.2-.1.5-.3l.4.2-1.1,2.5-.8,2.8,1.5-1.2c-.1-1.2.5-2.5,2-4l.3.8c.3.3.5.5.7.4a3.06,3.06,0,0,1,.2-2.3l.3.5.8.5a3.07,3.07,0,0,1,.5-2.9l.2,1.7.5.7q-.15-2.7.9-3.3l-.2-.1-1-.2h-.7l-1.1,1.1.1-1.4c-.1-.5-.2-.7-.5-.6l-.5-.9.6-2.1c.1,1.2.9,2.2,2.6,2.8s2.5,1.1,2.7,1.7c.1-.1.2-.3.1-.8l.2-1.3a2.32,2.32,0,0,1,.6,2.1,1.81,1.81,0,0,0,.2,1.7l.2-.4.7-.5.7.5.2.8-.2,1.5c.1.7-.1,1.2-.5,1.4l-.6.4a.43.43,0,0,0,.2.7l1.6.1-.1.8.6.2q.75,0,.6.6l.6-.2.8.4h.3l.2-.6V57a3.58,3.58,0,0,0,0-2.5l-.9-1.6a12.7,12.7,0,0,0-2.5-3.7l-3-3.4-.4-1.1V44l2.9,3.2a4,4,0,0,0,.9-2.6,5.5,5.5,0,0,0-.5-3.3c-.4.5-.5,1-.2,1.3a1,1,0,0,1-.8-1.4c.5-1.2.1-2.6-1.3-4.2.8.6,1.2.5,1.2-.2a4.24,4.24,0,0,0-.8-2.2c1.1.5,1.6,1.7,1.5,3.4-.1,1.5.5,2.4,1.9,2.6a2.29,2.29,0,0,1-.4-2.8l.9.1.4-.5c-.9,0-2-1.3-3.4-3.9a1.37,1.37,0,0,0,1.5.5l.8-.6-1.8-1.2-.9-1.5c.8.4,1.3.4,1.7,0a4.78,4.78,0,0,1-1.5-2.7,5.17,5.17,0,0,0-2-3l1.5-.4a3.29,3.29,0,0,1-1.3-.7l-1.3-.9a.86.86,0,0,0,.6-.3l.8-.3a2.81,2.81,0,0,0-2.2-.5v-.7l.2-.7a2.55,2.55,0,0,0-.6-2.2l-2.7.1.8-1.3-2,.7.3-.9-.8.2-.5.6-.9.4v.2l-2.5.5c-.6.4-1,.6-1.1.5l-1.2.5-.8.9-.6-.2A1.4,1.4,0,0,0,166.8,20.9Zm.5-1.8c-.3.2-.4.4-.2.7s.2.4.4.3l.2-.1.1-.2c.1.1.1,0,.2-.1l.1-.1.4-.2.2-.2.9-.4.3-.3.7-.2.4-.2.6-.2.2-.2.3-.1.5-.1h.1l.2-.1.9-.2h.3l.2-.5c0-.3-.2-.4-.7-.3l-3.4,1Zm1-5V14l-.1-.2-2,.1-.6.2v.4l.1.4h-.4l-.5.3.1.8.1.1.1-.1.1,1.1h.1l.3-.8.7,1.1-.6.1-.1.1.4.2.7-.1.2-.1.2-.6-.1-.1c.1-.3,0-.4-.3-.5l-.1.1.1.2v.5l-.5-.5-.3-.4.2-.3.8.2-.6-.6-.2-.6v-.3l-.1-.2h.1l.1.1.7.6.4.8.1-.8h.4l.2.4.2.6-.4-.1-.2-.2-.1.1.1.3.2.1v.1l.7.1a1,1,0,0,0,.6-1l-.2-.2-.2.1-.3.5-.5-1.2.5.1h.4l-.8-.6Zm-.4-1.1-.2-.5-3.4.6-.5,1.1.3.8.1-.2.7-.6.2-.6,1-.5h1Zm3.9-1.7.9-.2.3.2-.4-.9-1.2-.3a3.21,3.21,0,0,0-1.6,1c-.3.5-.6.9-1.1,1l.2.5.6-.4.7-.8,1-.4Zm-.7.4-.4.2-1.4,1.4v.2l.1.1.3-.1-.2,1v.1l.3-.3.3-.5.6,1.2H170l-.2.1v.2a1,1,0,0,0,1.2.3l.4-.6-.1-.1v-.5l-.2.1v.2l-.2.3c0-.1-.1-.3-.4-.4l-.1-.5.3-.3.7.5-.4-.8-.1-.7.1-.3v-.1l.2.1.5.8v.8l.4-.7.4.1.1.5-.1.5.1.2-.3-.4-.2-.2-.2.1.1.3.1.2v.2l.9.1a.76.76,0,0,0,.7-.8l-.1-.1-.5.5-.3-1.4.7.4.1-.1-.7-.8h.2l-.1-.4-.5-.4-.5.1-.3.2-.2-.3Zm96.3,34.4a5,5,0,0,0-.2-2.7,4.47,4.47,0,0,0-1.6-2.4l-3-1.1a4.36,4.36,0,0,0-4.1,1.1c-1.6,1.9-1.9,4.3-.9,7.3.5,1.5,2.1,4.1,4.9,7.9,2.1,3,3.1,5.8,2.9,8.2a4.1,4.1,0,0,1-1.5,2.8,3.42,3.42,0,0,1-2.5.8c-1.4-.2-2.7-1.5-3.9-4l-.6.5.2,2.9.4-1.3.9,2.6a6.25,6.25,0,0,0,1.8,2.1l-1-2.7a9.48,9.48,0,0,0,4.8,2.3q1.5-.3,1.8-1.2l-1.3.4a1.66,1.66,0,0,1-1.2-.5c1.6-.4,2.6-1.7,3.1-3.8a14.26,14.26,0,0,0-1.4-6.9l-4.2-5.8-2.6-4.9a6.41,6.41,0,0,1,.4-5.3l1.6-1.2,2.1-.1c.8.3,1.2.7,1.3,1.2a6.37,6.37,0,0,0-.4,2.9,4.6,4.6,0,0,0,.7,2.9,1.79,1.79,0,0,1,.4-1.4l.2,1.8a1.63,1.63,0,0,0,1.1,1.3.56.56,0,0,1-.1-.6l.4-.5.6,2.3c.3,1.6.8,2.5,1.4,2.7a6.94,6.94,0,0,1-.1-3.4c.2-1.5.1-2.4-.2-2.6a1.37,1.37,0,0,1-.5-.8Zm-4.7-7.2,3.4,1.3a6.4,6.4,0,0,1,2.1,3.2,7.7,7.7,0,0,1,.1,3.5,3.62,3.62,0,0,1,.8,2.8l-.4,3.2.1.8.5.9a1.9,1.9,0,0,1-1.8-.5c-1.2-.6-1.7-1.8-1.6-3.7q-1.8-.3-2.7-2.7a6.68,6.68,0,0,1-.4-5l-.9-.9a2.05,2.05,0,0,0-2.6,1.5,6.43,6.43,0,0,0,.5,5.2l2.9,4.6c3.5,4,5,7.9,4.6,11.8a4.77,4.77,0,0,1-1.7,3.6l1.7-.9a2.57,2.57,0,0,1-.7,2.1,7,7,0,0,1-1.7,1.3,5.5,5.5,0,0,1-3.9-.7l.1,1.2a1.78,1.78,0,0,1-.1,1.1l-2-2.1a4.12,4.12,0,0,1-1.5-2.3l-.8.9-.4-3a8.54,8.54,0,0,0-.4,5,8.76,8.76,0,0,0,2.4,4.3,4.65,4.65,0,0,1,.1,2.9l-.5,3.4,1.2-.5,1.2.1.3-.2-.1-.5.6-1.7,1.7-.6,1.5.6a2.34,2.34,0,0,1,.7,1.7l-.7,1.6a2,2,0,0,1-1.5.6A2.2,2.2,0,0,1,261,82l-.2.1a1,1,0,0,1-.8,1.2l-1.1.4h-1.1v.2l1.1,5.3c-.3-.2-.6-.1-.7.4l-.7,1.3-1.1.4V91l-.3-.4-.6.5-.4.6c.2.1.1.4-.2.9l-1.3,1.1a5.19,5.19,0,0,1-3.6.8l-1.7-.3-.6-.5v-.1l2.4-3.9.3-.3.8-.3,1.5-.8a7.75,7.75,0,0,0,1-4.4l-1.4-.4c-.8-.3-1-.8-.7-1.4l-.5-.5a1,1,0,0,1-1.3-.5l-.6-1c-.3-.6-.3-1.1.2-1.4l-.1-.4-1-1-.1-1.1.2-.9.8-.5.2-.5-1.7-2.1-1.1-2.3-1.1.7-.9.9.3,3.9.5,1.2v1.2a6.65,6.65,0,0,1-3.3,2l-3.7,1.3-1.3.9a2.63,2.63,0,0,0-.8,2l-1.2-1a1.56,1.56,0,0,1-.8,1.3q-.15-1.35-1.2-1.2a1.92,1.92,0,0,0-1.1,1.5c-.1.8-.8,1.3-2,1.5l-1.8.1-.6-.3-.3-.5-1.5-.1.2-1,2.5-4.5,6.8-1.6c2.6-.9,3.9-1.6,4-2.2.3-1.7-.5-3.5-2.4-5.2-1.4-3.4-1.5-5.9-.3-7.6l7.3-2.8,1-1a18.15,18.15,0,0,0-3.5-4.8l-2.8-2.9-.1-.2-1.3-.5-1,.2-1.2-.3-.8-.5-.1-.9.1-.2-.4-.4a1,1,0,0,1-1.2-.8l-.3-.7-1.4-.2v.9a4.51,4.51,0,0,0,3,2.5,1.49,1.49,0,0,1,.9,1.7l2-.2,1.1,1.3a4.85,4.85,0,0,1,.9,2.3v1.2a1.52,1.52,0,0,1-.6,1.8l-1.6-.9-1.9-.5a2.43,2.43,0,0,1-1.3-1.5,2.06,2.06,0,0,1-1.7-1.3l-1.2-1.8v.2l.4,1.4a25,25,0,0,1,.9,6.6,28.33,28.33,0,0,1-2.1,11.7,40.86,40.86,0,0,1-5.9,9.3l.5.5c.9,1.2-.3,2.3-3.5,3.2a26.24,26.24,0,0,0-6.9,3l-.2.1.2,6.5a2.34,2.34,0,0,1-1.3,2l-3.3.7-3.3-.7a2.31,2.31,0,0,1-1.5-2.1l.1-8.3-3.2-1-1,.5H199l-1.1-.5-.6-1.4a22.45,22.45,0,0,1-5.1-4.7l-.3.4.9,1.5a2.06,2.06,0,0,1-.3,1.5l-.2.3c0-.2-.2-.4-.7-.7s-.5-.2-.4.3v.7l-.2.3-.7.9c-.1-.3-.9-.8-2.4-1.3l-.1,1.1-1,1.1a1.37,1.37,0,0,0-1.3-1.2l-2.2-.1a1.08,1.08,0,0,1-.4-1.4l.1-.3-.2-.1-.5.2-.6,1.2-1.1-1.3.1-1.2-.4.5-.4,1.3-2-1.6-.4-1.4c-.5.3-.6.9-.3,1.6l-1.4-1.7-.1-1.2a2.39,2.39,0,0,0-1.1-1.4l-1.5-1.1c-.8-1-.8-2.1,0-3.5a6,6,0,0,0-1-3.4,6.4,6.4,0,0,1-2,4.1l-8.6,8a4.92,4.92,0,0,0,0,3l1.2,2.3,1.5,1.4,1.7.1,1.8-.4a1.44,1.44,0,0,1,1.3.3c.3.3.4.6.1.8l.6.2c.5.2.8.5.8.8a2.55,2.55,0,0,1,0,2.1l-.8-.6-1.1-.1v.4c.4.3.5.8.2,1.5-.1.8-.4,1.2-.7,1.3a1.17,1.17,0,0,0-.9-1l-1.3.5c-.6.1-.9.3-.8.8a1,1,0,0,1-.9,1.2c0-.4-.4-.8-1.1-1.2L162,95l-1-.5a2,2,0,0,0-1.2.7l.2,1.1-1.3-.4-.9-1.4.1-1.5a1.67,1.67,0,0,0,0-1.4c-.3.1-.5.6-.6,1.3l-1-1.7-.4-2.2-.6,1.2a9.3,9.3,0,0,1-1-4.2,8.57,8.57,0,0,1,.9-4.1l-.3-4.7c.2-.5.6-.6,1.2-.4a1.88,1.88,0,0,0,1.5,0q2.7-1.65,3.6-6a2.72,2.72,0,0,1-1.6-1.3l-2.5,1.4-2.7.9.4-1.1a4.28,4.28,0,0,1-3.4-.8L150,67.1l.8.4.9.1a6.89,6.89,0,0,1-.7-5.5,13.42,13.42,0,0,1,2.5-5.1l4.7-6.3a11.41,11.41,0,0,0,2.5-6.7l-.5-1-.6-.8-1,.1-.7.9v2.2a4.66,4.66,0,0,1-1.3,2.5l-1.8,2.3-.3-1.1c-1.6,1.6-2.2,3-1.7,4.2l-.3.1-.3-.1A6.66,6.66,0,0,1,152,46l.6-1.8,1.4-2.5,3.5-2.1,3.5-.2q2.7,1.35,2.7,6c.1,1.6-.9,3.9-2.8,6.7l-4.3,5.7-2.2,3.8a4.69,4.69,0,0,0,.2,4.5,2.45,2.45,0,0,0,1.8,1.1,6.27,6.27,0,0,0,3.4-3.7l3.2-5.4q7.65-8.1,7.2-14.4v-.1l-1.1-.3-.8-.8,1.2-.8a6,6,0,0,0,.9-2.7l-.9,1.1-2.1-.1.8-1.7-.1-2a1.71,1.71,0,0,1-1.4,1.9,3.28,3.28,0,0,0-.2-2.7,4.57,4.57,0,0,1-.5-2.8c-.2.1-.3.2-.4.2l-.8-.4c.5-.2.6-.7.4-1.5a3.11,3.11,0,0,1,.4-2.6,1.93,1.93,0,0,1-1.5-.7l-.7-1.4a3.5,3.5,0,0,1,2.1-3.1,1.29,1.29,0,0,1-.4-1.7c1-.1,1.5-.4,1.4-.8.3.3.5.3.6-.2l.1-.6h-.1l-.2-.1-.1-.3-.4-.1-.1-.2.1-.2h.1l-.4-.5-.5-.1-.1-.4v-.1l-.5-.6.3-.2-.3-.2-.2.4c-.1.1-.3.1-.4-.2l.2-.4h.1l-.3-.3-.2.2-.4-.1.2-.5h.2l-.2-.4-.2.2-.3-.2.1-.4.3.1v-.2l.1-.4-.2.2-.3-.2.1-.4.4.1v.1l.2-.5-.4-.2.2-.4.4.1V13l.4-.4-.3-.2.2-.4.4.2v.3l.4-.2-.1-.1.2-.4.4.1-.1.3h.5l-.2-.1.2-.4c.2-.1.3,0,.4.2s0,.3-.1.4h.6l-.2-.1.2-.4.4.1v.3l.3-.1V12l-.1-.4.1-.1-.7-.2c-.1.1-.3,0-.4-.2l.2-.3.2-.8V9.6l-.2.1V9l-1.1.5-.3-.8h.6l-.4-.5.8-.3v.7l.4-.5.4.8-.4-.1-.1.1.4.4c0,.1-.1.1-.2.1v.1l.2.2c.3-.1.5,0,.7.3l.4.2-.2.3-.3.7h.2l.3.3.3-.1-.3-.2.1-.4.5.2v.2l.4-.5-.4-.1.1-.4.5.1v.2l.3-.4-.3-.1.2-.5.4.2v.2l.4-.2-.2-.2.2-.4.4.2-.1.3h.6l-.2-.1.2-.5.4.2c.1.2,0,.3-.1.4h-.1l.6.2.1-.5c.2-.1.3,0,.4.2s0,.3-.1.4h-.1l.3.4.2-.3.4.1-.2.5h-.2l.2.4.2-.2.4.2-.2.4h-.3V12l.1-.1.5.1-.2.4-.4-.1v-.1l-.1.4h.4v.7l.2.1.1.3-.1.5h-.1l.1.6.4.3-.2.3h-.1l.2.3-.2.2c.5.1.8.4.6.7a2.7,2.7,0,0,0,1.1-.9l1.2-.4c-.2.5-.2.8.1.9l1.7-.7-.2,1.1a.52.52,0,0,0,.4.2h.5a3,3,0,0,1,1.3,1.8,3.56,3.56,0,0,1-.1,2.3l1.3.4,1,1.2-1,.5,1.2.7a3.29,3.29,0,0,0,1.6.7,1.62,1.62,0,0,1-1.6.8c.5.3,1,1.4,1.5,3.1.5,1.4,1.1,2.1,1.7,2.1l-.5.7a.91.91,0,0,1-.9.3c.4,1.2,1.1,1.7,2.1,1.3a1.74,1.74,0,0,1-.6,1.1,2,2,0,0,1-1.1.7l.9,1.4q.9,1.05,1.8.6l-.3.9-.5.6-.5.3.2.3.6.1,4.2-1.3a7.73,7.73,0,0,1,5.2,0l.4-.3-.2-.1a1.92,1.92,0,0,1-1.7-1.5,1.76,1.76,0,0,1,.8-2v-.1l-.7-.6.3-.8a.8.8,0,0,1-1-.6l.1-.7.5-.5h.1l-.4-1.5h-.1l-.6-.2-.4-.7-.1-.4.1-.6.3-.5-.6-1.7.8-.3-.5-.7c0,.6-.3.9-.8.9a.8.8,0,0,1-.9-.9c0-.5.3-.8.9-.8l.5.2-.5-1.4a1.05,1.05,0,0,1-.9.5c-.5,0-.8-.3-.8-.9a.74.74,0,0,1,.8-.8l.7.3V19.2a1.55,1.55,0,0,1-.6.3c-.5,0-.8-.3-.8-.9a.74.74,0,0,1,.8-.8.79.79,0,0,1,.8.5l.1-.4.4-.7h-.3c-.6,0-.9-.3-.9-.8l.9-.9c.5,0,.8.3.8.9v.1l1.1-1.1a.74.74,0,0,1-.8-.8l.8-.9a.8.8,0,0,1,.9.9l-.2.4.7-.3.8-.2-.6-.8a.74.74,0,0,1,.8-.8c.6,0,.9.3.9.8l-.4.7,1.4.1-.2-.5c0-.6.3-.9.8-.9a.8.8,0,0,1,.9.9.79.79,0,0,1-.5.8l1.1.5-.2-.5c0-.5.3-.8.9-.8a.74.74,0,0,1,.8.8.88.88,0,0,1-.8.9l1.5.6-.2-.4.9-.9c.5,0,.8.3.8.9l-.5.7h1v-.2l.2-1.1.5-.2-1.4-1.3h-.1c-.5,0-.7-.2-.7-.7l.6-.7a2.65,2.65,0,0,1,1.6-1.8l.1-.2.1-.4-.1-.1h.2l.6-1.6a2.41,2.41,0,0,0-1.6.6V6.3l1.7.7a2.41,2.41,0,0,0-.6-1.6h2.3l-.5,1-.1.6a3.19,3.19,0,0,0,1.7-.7V8.7l-1-.5-.7-.2.7,1.6h-.6l-.1.1.1.4.1.2a2.42,2.42,0,0,1,1.6,1.8l.6.7c0,.5-.2.7-.7.7h-.1a2.24,2.24,0,0,1-1.4,1.3l.4.2a1.61,1.61,0,0,1,.3,1.1v.2h1l-.6-.7.9-.9c.5,0,.8.3.8.9l-.1.4,1.5-.6-.9-.9c0-.5.3-.8.9-.8a.74.74,0,0,1,.8.8l-.1.5,1.2-.5-.6-.8c0-.6.3-.9.8-.9a.8.8,0,0,1,.9.9l-.2.5,1.4-.1-.4-.7a.74.74,0,0,1,.8-.8c.6,0,.9.3.9.8a.76.76,0,0,1-.6.8l.7.2.7.3-.1-.4c0-.6.3-.9.8-.9a.8.8,0,0,1,.9.9c0,.5-.3.8-.9.8l1.2,1.1v-.1c0-.6.3-.9.8-.9a.8.8,0,0,1,.9.9c0,.5-.3.8-.9.8h-.4l.6,1.1.8-.5a.74.74,0,0,1,.8.8c0,.6-.3.9-.8.9a.86.86,0,0,1-.6-.3v1.5l.6-.3a.74.74,0,0,1,.8.8c0,.6-.3.9-.8.9a1,1,0,0,1-.8-.5l-.6,1.4.6-.2a.74.74,0,0,1,.8.8c0,.6-.3.9-.8.9s-.9-.3-.9-.8l-.4.6.7.3-.5,1.8.3.5v1c-.1.7-.5,1-1,1h-.1l-.5,1.3.2.1c.6.3.8.7.5,1.2l-.8.5h.1l.2.8-.6.6a1.64,1.64,0,0,1,.8,2,2,2,0,0,1-1.3,1.5l-.6.2.6.2.8.7,6.4-4.5,2-.2,2.1.5,1.7,1.5,1.3,1.7.9.1.2-.3a1.11,1.11,0,0,1,.7-1.5l1.1-.4,1.5.3.3-.1v-.1l.4-1,1-.4,1,.4.4,1,.4.1.6-1.1-.1-.1V33l.2-.4.4-.1.4-1,1.4.4-1.4.9.1.1,1.3-.2-1.1,1.8-.6-.8h-.1v.5l.5.8.4.2h.9l.2-.3c.3-.1.5-.3.4-.6l-.2-.1-.3.3-.6.2c.2-.1.3-.4.3-.8a.51.51,0,0,1,.4-.7h.5q.45.15.3,1.2l.5-1.2,1.1-.9.2-.1v.3a1.25,1.25,0,0,1-.4,1.3l-.9.9,1.2-.4.3.5-.4.6-.7.4-.1.2v-.6l.2-.3-.3-.1-.4.3v.3l-.1.2.3.9,2,.1.1-.3-.3-.2-1-.1,1.4-1.5.2.8.4.4.2-1.4,2.1,1.4-1.5.6.5.2.9.1-1.4,1.5-.2-.9-.1.6-.3.2c-.2.8,0,1.4.5,1.6l.9.2.3-.2.6-.5-.3-.2-.3.2-.5.1c.2-.1.3-.3.4-.7l.6-.6.5.2c.3.2.2.6-.1,1.2l.8-1,1.3-.6.3-.1h.1l-.2.3a1.21,1.21,0,0,1-.7,1.2l-1.2.6c.7-.3,1.1-.3,1.3,0l.1.5q-.15.6-.6.6l-.7.2-.2.1.4-.9-.2-.2-.4.3-.1.2-.3.3.2,1c.6.5,1.2.7,1.7.4v-.1l-1-.4,1.8-1.3v1.2h.1l.7-1.4.7,1.2-1,.6-.1.3-.3.4H253l-1.8,1.5c-.6-1.4-2.1-3-4.5-4.9-2.7-2.1-4.7-2.9-5.9-2.5l.3-.8-.3-.1a1.31,1.31,0,0,1-1.2.7,1.43,1.43,0,0,1-1-.4l-.5.1a1.05,1.05,0,0,1-.8,1l-1.1.4h-.9l-.4.4-.1.8,2.1,1.8.3-.9,2.2-1.7.7-.1.9-.7,1,.2a2.7,2.7,0,0,1-2,1.4l-1.5.7-.8,2.1,3.1-.3-1.2.7-.6.7-10.7.3a2.9,2.9,0,0,0-2.1,1.4l-.2,1.2.2,1.1a21,21,0,0,1,4.8,5.8,1.82,1.82,0,0,0,1.3,1.4c.9.3,1.4.8,1.4,1.4l1.7.3,1.5.8a1.78,1.78,0,0,0-.9-1.2l-1.3-.7,1.1-.2,1.1.3-.4-.9-.7-1.1-1.1-.4-.6.4-.5.1-.6-.8-.3-1a3,3,0,0,1-1.5-.9l-1.3-1.4-.7-1-.3-1.3c.6-.8,1.6-1,2.9-.4l7.2,1.4,2.3-.1,1.4-1.6-.1.4-.3.4-.3.9a1,1,0,0,1-.9,1.2l-1.3.1-1.7-.6c0,.9,1.2,2.6,3.6,5s3.9,4.7,4.2,6.6l-.2,1.8c-.1.6.2,1,.9,1.1a6.05,6.05,0,0,0,.1-2.4l-.4-2.1.7.6c1.1,1.6,1.3,3.1.5,4.5l-.2,4.6a4.67,4.67,0,0,0,2,3.8l.3-.5a1.21,1.21,0,0,1,1.3-.7l.2-.2a.91.91,0,0,1,0-1.2l.6-1a1.11,1.11,0,0,1,1.4-.5l.3-.4.1-1.4.8-.9,1-.4.2-.3-.4-.9-.8-3.4.1-.1,1.3,2.6.2-.6.2-.4-.1-.2a10.94,10.94,0,0,0-2.2-3.5l-2.7-3.4q-3.75-6.3-1.2-10.8l.7,1.1a5.51,5.51,0,0,0-.4,3.8,12.94,12.94,0,0,0,1.3,4.2v.1H253l.8.3.4.8.3.2,1.4.3.9.8a1.21,1.21,0,0,1,.1,1.5l.2.3h.2c.8,0,1.1.4,1.1,1.3v1.1a1,1,0,0,1-.9,1.1l-.1.5a1,1,0,0,1,.4,1.3l-.1.3.1.2q2.1,3.9,4.2,3.9a2.11,2.11,0,0,0,1.3-.5l.8-1.1c.7-2.5-.6-6.1-4-10.6s-4.7-8.5-3.9-11.7a4.94,4.94,0,0,1,3.2-3.7Z" transform="translate(-150 -5.4)"/>
    <path class="cls-1" d="M198.1,56.5l-.1-.3.4.2C198.3,56.5,198.2,56.6,198.1,56.5Z" transform="translate(-150 -5.4)"/>
    <polygon class="cls-1" points="49.5 45.4 49.3 45.6 49.2 45.2 49.5 45.4"/>
    <polygon class="cls-1" points="50.2 45.9 49.9 45.6 50.4 45.7 50.2 45.9"/>
    <polygon class="cls-1" points="49.3 45.9 49.2 45.9 49.3 45.8 49.4 45.8 49.8 46.1 49.9 46.1 49.9 46.2 49.7 46.1 49.7 46.3 49.5 46.3 49.5 46.7 49.3 46.9 49.2 46.6 49.4 46.3 49.3 46.1 49.3 45.9"/>
    <polygon class="cls-1" points="48.9 51.4 48.7 51.1 49.2 51.2 48.9 51.4"/>
    <polygon class="cls-1" points="48.1 51.3 48.2 51.3 48.6 51.5 48.7 51.6 48.7 51.7 48.6 51.6 48.6 51.7 48.4 51.8 48.4 52.2 48.1 52.4 48.1 51.8 48.3 51.8 48.1 51.6 48.2 51.5 48.1 51.5 48.1 51.3"/>
    <polygon class="cls-1" points="52.1 40.2 52.2 40 52.6 40.1 52.6 40.3 52.5 40.2 52.5 40.3 52.3 40.4 52.4 40.5 52.4 40.7 52.1 40.9 52 40.5 52.1 40.4 52.2 40.4 52.1 40.2"/>
    <polygon class="cls-1" points="52.7 40 52.6 39.8 53.1 39.9 52.7 40"/>
    <path class="cls-1" d="M202.3,45c0,.3-.1.3-.2.2l-.1-.4Z" transform="translate(-150 -5.4)"/>
  </g>
</svg>
