<?xml version="1.0" encoding="utf-8"?>
<!-- Generator: Adobe Illustrator 22.1.0, SVG Export Plug-In . SVG Version: 6.00 Build 0)  -->
<svg version="1.1" id="Layer_1" xmlns="http://www.w3.org/2000/svg" xmlns:xlink="http://www.w3.org/1999/xlink" x="0px" y="0px"
	 viewBox="0 0 1077.3 894.3" style="enable-background:new 0 0 1077.3 894.3;" xml:space="preserve">
<style type="text/css">
	.st0{fill:#5B92E5;}
	.st1{fill:none;stroke:#5B92E5;stroke-width:8;stroke-miterlimit:10;}
	.st2{fill:none;stroke:#5B92E5;stroke-width:12;stroke-linecap:round;stroke-miterlimit:10;}
	.st3{fill:none;stroke:#5B92E5;stroke-width:12;stroke-miterlimit:10;}
</style>
<title>Summit Logo</title>
<g id="g1987">
	<path id="path1989" class="st0" d="M902.5,723.9c-32.8,8.8-67.9,11.6-99.8,22.5c54-46.3,50.9-118,87-172.5
		c11.5-15.5,21-31.6,34.3-46.3c-21.9,44-12.4,101-37.6,143.7c-9.7,17-23.6,33.4-38.9,46.7c5-0.2,9.4-4.5,13.8-7.4
		c40.9-40.8,94.3-52.2,138.6-85.4c17.7-14.1,34-32.6,41.8-52.7C1033.4,640.3,966,703.8,902.5,723.9L902.5,723.9z"/>
	<path id="path1991" class="st0" d="M1049.9,449.7c-20,28.5-44.2,55-62.7,83.9c2.1-22.9,4.8-51.1-4.2-72.8
		c-15.5-46.7-29.1-94.2-33.4-145.5l0.6-19.6c11.6,52.4,63.1,88.4,59.9,147.2c1.2,14.2-3.2,26.3-5.9,38.9l0.9,0.9l2.3-2.6
		c7.6-28.8,11.5-59.2,23.4-86c16.9-38.7,37.9-77.8,29.3-124.5C1085.8,324.7,1078,398.3,1049.9,449.7L1049.9,449.7z"/>
	<path id="path1993" class="st0" d="M1018.3,152.9c33.8,45.7,41.1,118.6,16.6,171.1c-9.3,22.6-15.7,46.3-19.2,70.5
		c-1.7-4.2-2.1-10-3.6-14.7c-13.4-51.4-62-88-82-136.4c-6.3-15.8-11.7-32.2-14.7-49.4c21.3,39.5,73.9,59.9,88.3,103.4
		c5.9,11,5.5,24.7,9.2,36.6c0.8,0,1.5-0.6,1.5-1.3c-6.3-44.8-4.4-91.7,1.7-136c-0.3-24-2.7-47.2-16-65.8
		C1008.5,135.9,1012.4,145.4,1018.3,152.9L1018.3,152.9z"/>
	<path id="path1995" class="st0" d="M994.5,144.1c8.9,40.1-4.1,79.1,4.1,119.6l-0.3,0.4c-21.8-42.9-68.1-63.1-99.9-97.4
		c-18.5-20.4-26.5-45.2-31.1-71.4c18.3,44,67.5,53.7,95.8,90.8c9.5,8.5,12.6,20.4,18.7,30.1l1-1c-16.3-34.7-21.7-73.8-33-110.8
		c-5.7-16-17-31.8-32.1-41.9C954.7,69.9,986.9,108.7,994.5,144.1L994.5,144.1z"/>
	<path id="path1997" class="st0" d="M895.3,52.2c28,25,40.6,57.4,48.8,91l4.6,10.6C908.1,124.6,871.3,85.4,845.4,44l-31.6-32
		C841.5,23.8,871.5,30.8,895.3,52.2z"/>
	<path id="path1999" class="st0" d="M254.6,17.3c-28,24.6-47.5,55.7-68.3,84.7c-18.6,23.1-42.5,38.3-63.6,58.2
		c11.4-23.6,11.8-51.9,28-73.6C173.7,46.3,216.4,32.2,254.6,17.3L254.6,17.3z"/>
	<path id="path2001" class="st0" d="M101.3,102.9c13.6-17,30.9-28.7,50.4-33.7c-37.8,26-35.3,72.5-47.3,111.1
		c-3.8,14.3-10.4,27.5-13.8,42.1l1,0.8c6.3-16.6,17.3-32.2,31.1-45.8c26.8-24.8,66.5-40.2,79.7-76.9c-0.6,50.9-43.1,91-83.7,119.6
		c-16.8,14.7-32.9,31.5-42.1,50.4c-0.9-12.9,1.9-25.8,1-39.5C73.1,186.6,69.9,135.9,101.3,102.9L101.3,102.9z"/>
	<path id="path2003" class="st0" d="M24.8,254.9c-1.1-45,17.6-81.8,43.9-115.4c0.8-0.4,1.3-1.1,2.3-1c-29,44.1-5,99.6-6.3,149.7
		l-3.8,51.3c0.6,0.4,0.6,1.9,1.9,1.3c1.7-5.7,2.1-11.8,3.2-17.7c6.8-41.4,42.8-70.8,74.2-99.4c6.7-7.5,12.6-15.1,16.1-23.9
		c-2.6,20.6-9,41.4-17.6,60.4c-24.4,47.6-69.6,86.7-77.8,141.3C56.9,349.4,21.3,310.3,24.8,254.9L24.8,254.9z"/>
	<path id="path2005" class="st0" d="M2.9,319c3.3-14.1,5.7-28.7,11.9-41.6C3.1,336.9,43.2,379.8,56.3,431.4
		c5.5,19.3,6.8,40,14.7,58.2c0.7,0.4,1.4-0.4,1.8-1c-19.6-54.8,8.7-105.8,37.1-148.7c6.9-11.6,10.9-24.6,14.3-38
		c3,24.8-3.3,53.4-6.9,79.2c-6.9,32.8-17.2,63.9-26.2,95.7c-5.9,19.9-4.4,42.3-1.3,63.1l-2.8-2.3c-20.8-38.4-62-68.3-74.2-110.2
		C2.7,394.1-4,355.4,2.9,319z"/>
	<path id="path2007" class="st0" d="M1,435.3c4.6,63.1,72.5,96.5,103.9,148.7c7.4,10.7,13.9,22.5,23.9,31.5
		c-1.6-6.7-7.8-12.4-10.1-19.3c-11-21.9-15-48-12.4-74.5c3-32.2,16.6-62.2,11.4-96.1c27.6,59.6,19.3,134,34.7,198.6
		c4.1,14.1,12.2,26.8,17.6,40.3C113.1,625.8,35.7,589,10.5,518.1C-0.1,493.6-1.3,463.4,1,435.3z"/>
	<path id="path2009" class="st0" d="M34.9,580.2c31.7,71.6,111,77.6,164.2,121.2c9.8,8.7,20,16,31.1,21.2l0.6-0.6
		c-12.2-11-26.3-23.6-34.9-37.9c-31.1-43.3-20.2-103.9-43.5-150.4c21.2,25.3,40.5,51.7,53.3,80.4c19,47,26.3,100,70.3,135.5
		c-47.6-15.7-103.5-11.3-145.5-40.7C84.5,680.7,43.5,632.8,34.9,580.2L34.9,580.2z"/>
	<path id="path2011" class="st0" d="M116.3,713.9c50.8,57.8,133.8,38.5,201.4,53.6c9.5,1.3,18.3,5.1,28.4,3.6
		c-8.1-5.1-19.3-4.5-28-9.2c-53-18.6-60.8-76-89.6-114.7c36.8,24.4,67.7,57.4,101.6,89.3c24.4,21.4,53.7,31.2,84.7,37.5
		c-7.4,2.7-17.2,2-25.1,4.1c-55.6,13.7-117.3,36-176.2,16C175.1,781.9,135.6,751.6,116.3,713.9L116.3,713.9z"/>
	<path id="path2013" class="st0" d="M805.5,848.5c-57.2,21.3-116.9-1-161.6-34.9c-18.1-11.5-34-28.1-57.5-26.6
		c-8.5-0.2-16.7,0.3-23.9,2.3c43.4,20.2,83.8,48.1,120.6,83.7c-6.2,7.1-14.3,13.7-21.8,19.9c-35.5-38.3-74.9-75.2-119-96.7
		c-8.6,1.1-16.8,6.3-24.6,10.5c-35.9,22.7-71.3,51.9-98,87.6l-22.9-18.9c36.6-37,77-65.8,121.3-86.4
		c-43.4-13.8-71.8,22.7-104.9,41.2c-38.5,26.9-93.8,39.5-140.3,20.9c-25-9.5-49.2-23.4-67.3-46.1c36.6,25.2,91,27.9,132.7,11.5
		c55.8-24.2,113.9-54.9,181.2-40.2c10.5,0.2,20.7,10.6,30.6,1.7c50-13,106.7-4.1,149.7,18.8l44.4,17.8c41.3,15.3,94.6,11,130-14.1
		C856,823.1,831.2,839.3,805.5,848.5L805.5,848.5z"/>
	<path id="path2015" class="st0" d="M866.8,789.4c-64.2,24.3-128.9-5.5-190.4-15.5l-11.8-1.5V772c29.4-6.7,58-15.4,81.4-36.6
		c34.5-33.2,65.2-67.3,103.5-93.4c-28.4,36.4-31.4,88.3-78.4,111.7c-11.6,7.6-26.3,8.9-38.3,14.7c17.1,0.4,32.8-5.8,49.7-7.5
		c63-9.9,135,0.3,179.1-53.4C945.3,744.9,904.2,776.2,866.8,789.4L866.8,789.4z"/>
	<path id="path2017" class="st0" d="M983.6,608.6c-25.4,16.6-51.1,32-75.5,50.9v-2.3c37.3-62.1,19.1-147.3,42.1-215.6l8.6-22.9
		c-4.8,42.5,13.7,78.6,12.4,121.3c-1.3,25.8-9.7,48.7-23.3,69.3h2.3c18.3-24,32.6-49.6,54-72.5c33.2-32,66.9-64.8,71.3-109.2
		C1086.8,501.6,1045.2,566.6,983.6,608.6L983.6,608.6z"/>
</g>
<path class="st1" d="M907.8,373.1c0,203.9-165.3,369.2-369.2,369.2C364,742.3,217.7,621,179.3,458c-0.9-3.9-1.8-7.8-2.6-11.8
	c-9-45.1-9.6-91.5-1.7-136.8c1-5.5,2-11,3.3-16.4C214.8,127.7,362.3,4,538.6,4c145.1,0,270.7,83.7,331,205.5
	c2.4,4.8,4.6,9.6,6.8,14.5c8.8,19.8,15.7,40.2,20.9,61.2c0.2,0.7,0.3,1.4,0.5,2.1l0,0c0.4,1.6,0.8,3.3,1.1,4.9
	c5.9,26.3,8.9,53.1,8.9,80c0,0,0,0.1,0,0.1C907.8,372.6,907.8,372.9,907.8,373.1z"/>
<path class="st0" d="M295.2,226.6h0.1h0.1l0.1-0.1l0.1,0.1h0.1l0-0.3l0.1-0.2l-0.1-0.3l-0.3,0.1l-0.2,0.1l-0.3,0.1v0.2L295.2,226.6z
	 M316.6,253.7l-0.2-0.4l-0.1-0.1l0.1-0.2l-0.1-0.1L316,253l0.1,0.3l0.4,0.7l0-0.1l-0.1-0.1l0.1,0.1l0.1,0.2l0.2,0.1L316.6,253.7z
	 M323.2,272.3l0.2,0.2l0.1,0.3l0.2,0.1l0.2,0.1h0.2l0.2,0.2h0.1l0.1-0.1l0.2-0.1v-0.2l-0.3-0.2l-0.2-0.1h-0.3l-0.2-0.1l-0.3-0.2
	l-0.2-0.1l-0.2,0.1l0.1,0.1L323.2,272.3z M360.8,282l-0.1-0.1l-0.1,0.1l-0.1,0.4l0.2,0.4l0.1-0.1l0.2-0.2l0.1-0.1l0.2-0.1l0.1-0.1
	l-0.3-0.1L360.8,282z M374,296.5l0.1-0.1l0.1-0.1l-0.2,0.1L374,296.5z M371.5,296.5l0.1,0.2l0.2-0.2v-0.1l-0.2,0.1L371.5,296.5z
	 M384.9,297.4l-0.3,0.2l-0.2,0.1l-0.2,0.2l-0.2,0.1l0.1,0.1l0.2-0.1h0.3l0.3-0.1h0.2l0.2,0l0.2-0.3v-0.1h0.1l0.1-0.1l0.2-0.1
	l0.1-0.2l-0.5,0.3L384.9,297.4z M375.3,298.2l-0.2,0.2l0.1,0.1l0.2,0.1v-0.1h0.1l0.1-0.1l-0.1-0.1L375.3,298.2z M381.8,298.9
	l-0.2,0.2l-0.1,0.3l0,0l0.2-0.1l0.3-0.2l0.2-0.1l-0.1-0.1L381.8,298.9z M379.4,299.1l0.1,0l-0.1-0.1L379.4,299.1z M365.9,147
	L365.9,147l0.1-0.1l0-0.4l-0.4,0.1l-0.1,0.1v0.1l-0.1,0.1v0.1v0.5l0.3,0.2l0.1-0.5L365.9,147z M377.9,298.5l-0.1-0.1v-0.2V298h-0.2
	l-0.2,0.2l-0.3,0.3l-0.1,0.2l-0.1,0.4l-0.1,0.2v0.2l0,0l0.4-0.1h0.1l0.1-0.1l0,0v-0.1l0.5-0.2v-0.2L377.9,298.5z M350.7,158.4
	l0.3-0.1l0.3-1.2l0.2-0.1v-0.2l-0.1-0.1h-0.1l-0.4,0.1l0.1,0.5l-0.2,0.9L350.7,158.4z M304.5,223.7v1l0.1,0.2l0.6,0.3l0.1,0.2
	l0.2,0.2l0.3-0.2l0.1-0.4v-0.2l-0.4-0.4v-0.8l-0.2-0.4l-0.3-0.3l-0.2-0.1h-0.1v0.3l-0.1,0.4L304.5,223.7z M340.6,284.5l0.1,0.1
	l0.1-0.1L340.6,284.5L340.6,284.5z M483.6,297.8l0.2-0.2l-0.2,0.1L483.6,297.8z M289,181.8v-1.1l-0.1-0.3l-0.4,0.2l-0.1-0.2h-0.1
	h-0.1h-0.2H287l-0.5,0.1l-0.2,0.3l0.1,0.4l0.3,0.3l0.7,0.4l0.8,0.6h0.4L289,181.8z M328.4,159.1v-0.2l-0.8-0.4l-0.2,0.3l-0.2,0.4
	l-0.3,0.2l0,0.4l0.4,0.2l0.5,0l0.4,0.1l0.4,0.2h0.3v-0.3l-0.1-0.1h-0.2l-0.3-0.2v-0.4L328.4,159.1z M329.3,155.1l1-0.1l0.5-0.4
	l-0.1-0.6l-0.6-0.3l-0.7-0.1l-0.4,0.1l-0.7-0.3h-0.7l-0.6,0.2l-0.6,0.3l-0.1-0.4l-0.1-0.1l-0.2,0.1l-0.2,0.2l-0.1,0.4l0.1,0.3
	l0.2,0.2l-0.1,0.7l0.4,0.4l0.5,0.2h0.3l0.6,0.3l0.5-0.2l0.8-0.7L329.3,155.1z M287.2,170.4v-0.7h-0.2l-0.4,0.3l-0.5,0.1l-0.3-0.1
	l0.2-0.5l-0.1-0.3v-0.4l0-0.4l0.1-0.3v-0.2l-0.4-0.1l-0.2-0.2l-0.1-0.2l-0.2-0.2h-0.3l-0.3,0.1l-2.2,0.8l-1.7,0.3l-1,0.6L279,170
	l-0.6,0.9v0.2l1,0.4l0.1,0.2l0.3,0.2l0.6,0.2h0.5l2.3-0.4l1.1-0.5l1.7-0.3l0.6-0.2L287.2,170.4z M760.4,261l-0.2-0.4l-0.2-0.5
	l-0.2-0.3l-0.9,0.1l-0.2-0.3l-0.4-0.9l-0.4-0.3l-0.9-0.1l-0.3-0.2l-0.2-0.5l0.3-0.9l-0.1-0.5l0,0l-0.1-0.6l0-0.8l0.2-0.8l0.2-0.6
	l-0.1-0.5l-0.6-0.4l-0.5-0.6l0.1-1l0.2-0.3l0.9-0.7l0.3-0.4v-0.3l-0.9-1.1l-0.6-0.5l-0.7-0.3l-0.7,0.1l-0.3,0.2l-0.4,0.1h-0.3
	l-0.2-0.4v-0.2l0.1-0.5v-0.2l-0.2-0.1h-0.2l-0.2,0.1l-0.2-0.1l-0.3-0.4l-0.2-0.4l-0.1-0.4l-0.2-0.3l-0.3-0.2l-0.9-0.4l-0.3-0.1
	l-1.6,0.2l-0.9-0.1l-0.4-0.7l0.1-0.4l0.3-0.3l0.2-0.3v-0.4l-0.1-0.5V241l0.2-0.4l0.2-0.4l0,0l0.2-0.5l0.6-0.7l0.2-0.5l0.2-0.7
	l0.2-0.4l0.3-0.3l0.5-0.2l0.2-0.2l-0.2-0.6v-0.3l0.2-0.2l0.5-0.2l0.2-0.3l0.2-0.5l0.2-0.6l0.1-0.6l-0.1-1.5l0.7-0.8l0.9-0.7l0.6-0.8
	v-0.5l-0.2-0.5l-0.3-0.4l-0.4-0.3l-0.4-0.1l-0.3,0.1l-0.8,0.5l-1.3-0.2l-0.4-0.2l-0.2-0.2l-0.1-0.3l0.1-0.5v-0.3l-0.1-0.8v-0.4
	l0.3-1.3v-0.6l-0.2-1.6l0.1-1.3v-0.6l-0.2-0.5l-0.2-0.2l-0.2-0.1l-0.4-0.1l-0.3-0.2l0.1-0.2l0.2-0.2l0.1-0.2l-0.1-0.6l-0.1-0.4v-0.4
	l0.1-0.6l0.7-2.3l-0.1-1l-1.3-0.6l-0.4-0.4l-0.3-0.5l-0.2-0.7l-0.1-0.3l-0.1-0.2V210v-0.3l-0.2-0.2l-0.2-0.2l-0.2-0.2l-0.1-0.5
	l-0.1-0.2l-0.2-0.2l0,0l0.3-0.6l0.4-0.3l0.2-0.4l-0.2-1.3l0.1-0.5l0.5-1l-0.2-0.8l-1-0.7l-1.1-0.6l-0.7-0.5v-0.3l0.2-0.6v-0.3
	l-0.3-0.6l-0.1-0.3v-0.3l0.1-0.2v-0.2l-0.3-0.6l-0.2-0.7l-0.1-0.3l-0.7-0.8l-0.2-0.4l0.3-0.4l0.5-0.3l0.4-0.1h0.4l0.6,0.1l0.6-0.1
	l1.4-0.4l0.6,0.1l1.7,0.9l0.7,0l0.5-0.1l1.3-0.6l0.5-0.4l0.4-0.6v-0.6l-0.1-0.6l0.1-0.7l0,0l0.3-0.4v-0.4l-0.1-0.4l-0.1-0.5l0.1-0.5
	l0.1-0.4l0.8-1.7l0.2-0.4l0.1-0.5l-0.1-1.1l0.1-0.4l2.7-2.2l0.6-0.2l0.4,0.3l0.7,1l0.3,0.4l1.5,0.7l0.5,0.4l2.1,1.5l-0.3-0.4
	l-0.3-1.2l-0.2-0.4l-0.4-0.7l-1.5-2l-0.1-0.3l-0.1-0.1h-0.1h-0.3H759l-0.5-0.3l-0.9-1.1l-0.3,0.2l-0.1-0.2v-0.4l-0.1-0.3l-0.4-0.3
	l-0.2-0.2l-0.1-0.3l-0.1-0.5l-0.3-0.5l-0.7-0.7l-1.4-1.3l-3.5-2l-0.9-0.3h-0.8l-1.5,0.4l-0.7,0.1l-0.5,0.2h-0.3l-0.2-0.1l-0.3-0.3
	l-0.3-0.1l-0.5,0.1l-0.9,0.6L743,175l-3-0.5l-2.8-1.5l-2.3-0.7l-1.2-0.6l-0.3-1l0.3-0.3l1.2-0.3l0.2-0.4l-0.2-0.4l-0.8-1l-0.3-0.6
	l0.5-0.4l-0.4-0.9l-1.1-1.5l-0.7-0.6l-0.3-0.5l0.2-0.5l0.2-0.4l0.4-1.3v-0.2l-1-0.9l-0.5-0.6l-0.1-0.4l0.9-1l0.5-0.4l0.6-0.1
	l-0.1-0.3v-0.1l-0.1-0.1l0.2,0.1h0.1h0.1l0.2,0.1v-0.8l0.3-0.7l1.1-1.3l-0.2-0.8l0.2-0.2l0.5-0.9l0.1-0.3l-0.1-2.3l-0.1-0.6
	l-0.2-0.6l-1-1.7l-0.3-0.7l-0.1-0.8l-0.1-0.7l-0.1-0.6l-0.3-0.7l-0.8-1l-1-0.8l-1.1-0.5l-1.1-0.2l-0.5-0.5l-0.4-1l-0.2-1.1l0.1-0.8
	l0.3-0.9l-0.4-0.8l-0.7-0.6l-0.7-0.4l-0.8-0.2l-0.7,0l-2.3,0.6l-0.4-0.3l-0.6-1.5l-0.5-0.6l-0.5-0.1l-0.6,0.1l-0.7-0.2l1.4-0.7
	l0.4-0.3l0.3-0.5V132l-0.7-0.1l-0.8-0.4l-1.2-1.1l-1.9-1.3l-0.4-0.4l-0.8-1.4l-0.2-0.2l-0.2-0.1l-0.1-0.1l-0.1-0.1l-0.2-0.1
	l-0.8-0.3l-0.2-0.1l-0.2-0.4l-0.2-0.4l-0.2-0.2l-0.3,0.2l-0.6,0.7l-0.5-0.1l-0.5-0.5l-0.7-0.4l0.2-0.3l0.5-0.4l0.2-0.2l0.1-0.3v-0.3
	l0.1-0.3l0.2-0.3l-0.5-0.2l-3.5-0.3l-1.3,0.1l-0.6,0.2L706,123l-0.3,0.6l-0.2,1.4l-0.3,0.5l-0.5,0.6l-0.8,1.1l-0.5,0.4h-0.6
	l-4.4-1.7l-1.3,0.1l-0.6,0l-0.4-0.4l-0.4-0.2h-0.4l-0.8,0.2l-0.4-0.2l-0.4-0.1l-0.4,0.1l-0.4,0.2l-0.9,0.3l-1.8-0.7l-1,0.4l-0.3,0.3
	l-0.8,1.1l-1,0.9l-0.2,0.1l-0.3-0.1l-1-0.9l-0.3-0.1l-0.7-0.1l-0.3-0.1l-0.1-0.2v-0.1v-0.3v-0.1h-0.2l-0.6,0.3l-0.8,0.1l-0.3-0.1
	l-2.7-1.1l-0.3,0.6l-1.7,1.3l-0.3,0.2l-0.1,0.8l-0.3,0.7l-0.4,0.6l-0.5,0.4l-0.3,0.1l-0.9,0.1l-0.3,0.1l-0.5,0.3l-0.6,0.2l-2.4,2
	l-0.5,0.1H670l-0.6,0.1l-0.5,0.4l-1,1l-0.5,0.4l-0.6,0.3l-0.6,0.2l-0.5,0.1l-0.4,0.2l-1,0.7l-0.6,0.1l-1.1-0.4l-0.4-0.1l-0.3,0.1
	l-1.8,1.3l-1.5,2l-0.3,0.2l-0.4,0.1l-0.8,0.1l-0.3,0.1l-1,0.8l-0.8,0.5l-0.7,0.2l-0.7-0.1l-0.9-0.4l-4.1,2.7l-1.2,0.3l-0.6,0.4
	l-0.9,0.4l-0.6,0.1l-0.8,0.3l-0.4,0.1l-1-0.2l-0.7-0.5l-1.5-1.4l-0.6,0.1l-1.6,0.5l-0.4,0.3l-0.5-0.1l-0.4-0.2l-1.6-1.1l-0.2-0.1
	h-0.5h-0.3l-0.7-0.5l-0.5,0.1l-0.5,0.3l-0.5,0.2l-1-0.2l-1-0.5l-1.5-1.3l-0.6-0.9l-0.4-0.4l-1.6-0.4l-0.3,0.1l-0.2,0.1l-0.1,0.1
	l-0.2,0.1l-1.4,0.8l-0.3,0.1l-0.5,0.1l-0.7,0.4l-0.4,0.1l-0.6-0.1l-0.8-0.7l-0.5-0.2l-0.8-0.1l-0.3,0.1l-0.6,0.5l-0.2,0.1l-2,0.5
	h-2.9l-0.5,0.2l-0.4,0.4l-0.4,0.3l-1.8,0.4l-0.6,0.2l-0.1,0.1l-0.1,0.2l-0.5,0.6l-0.3,0.1l-0.3,0.2l-0.2,0.2l-0.2,0.1l-0.3,0.1h-0.5
	l-0.3,0.1l-0.2-0.2l-0.4-0.5l-0.2-0.1h-0.3l-0.8,0.3l-0.3,0.2l-0.9,0.9l-0.4,0.3l-1.9,0.1l-0.3,0.2l-0.7-0.1l-0.9-0.3l-1,0.3h-0.5
	l-1.1-1l-0.5-0.1l-1.1,0.3h-0.6l-1-0.4l-1.5-0.3l-3-1l-1.2-0.2l-1,0.4l-0.4-0.8l-0.3-0.3l-0.3-0.3l-1.3-0.6l-0.5-0.6V138l-0.7,0.1
	l-0.2-0.2l-0.4,0.4h-0.5l-0.4-0.3l-0.2-0.5l-0.5,0.3l-0.4,0.5l-0.4,0.5l-0.3,0.5l-0.4,0.8l-0.2,0.3l-0.2,0.1l-0.4,0.1l-0.1,0.2
	l-0.4-0.1l-1,0.1l-0.5-0.2l-0.6-0.6l-0.1-0.2l-1-0.3l-0.4-0.3l-0.6-0.7l-0.4-0.1l-0.6-0.1l-0.5-0.2l-0.3-0.2l-0.6-0.5l-0.9-0.3h-3.2
	l-0.5-0.2l-1-0.6l-0.5-0.1l-0.4-0.2l-0.2-0.6l0-1.5l-0.4-1.1l-0.8-0.7l-3.8-1.9l-2-0.5h-2.2l-0.6-0.1l-0.4-0.2h-0.3l-0.3,0.3l0,0
	l-0.2,0.7v0.1l-0.1,0.2l-0.4,0.6l-0.1,0.3l-0.2,0.3l-1.3,1.2l-1.1,0.6l-0.6,0.1l-0.5-0.2l-0.2-0.2l-0.5-0.1l-0.3-0.1l-0.1-0.1
	l-0.3-0.4l-0.1-0.2l-0.3-0.1l-0.3-0.1l-0.2-0.2l-0.1-0.4v-0.4l-0.1-0.3l-0.1-0.1l-0.7-0.2l-1.3-0.7l-0.4-0.3l-0.8-1.6l-0.7-0.5
	l-1.1-1.4l-0.3-0.6l-0.1-0.5v-1.1v-0.2l0.2-0.5l0.1-0.3V122l-0.3-1l-1.9-2.5h-0.2v0.5l-1.5-1.4h-0.1l-0.3,0.2l-0.4,0.4l-0.3,0.6
	l-0.2,0.7v0.8h-0.2l-0.1-0.6l0.5-1v-0.5l0.3-0.1l0.2-0.2l0.2-0.2l0.1-0.2v-0.2l-0.5,0.1l-1,0.8l-0.6,0.2l-0.6,0.1l-2.7,1.1l-1.6,0.3
	l-1,0.6l-0.5,0.2l-1.1,0.1l-1.2-0.2l-1.1-0.4l-0.9-0.5l-0.8-0.8l-0.4-0.3l-1.1-0.2l-1.5-0.6l-0.4-0.3l-0.7-0.9l-0.7-0.4l-0.3-0.5
	l-0.3-0.5l-0.2-0.5h0.3v-0.2l-1.4-1.2l-0.8-1l-0.7-1.3l-0.2-0.5v-0.6l0.2-0.8l0.2-0.8l0.2-0.5l0.5-0.4l0.6-0.1l1.4,0.2v-0.2
	l-0.5-0.5l-0.2-0.1l-0.4-0.1l-0.3,0.1l-0.4,0.4l-0.3,0.2l-0.7,0.1l-0.6-0.3l-0.9-0.8v-0.2l0.1-0.3l-0.2-0.2l-0.3-0.3l-0.2-0.4h-0.2
	h-0.2l-0.1,0l-0.1,0.2l-0.3-0.2l-0.7-0.1l-0.3-0.1l-0.2,1l-0.6,1.1l-0.8,0.9l-0.9,0.6l-1,0.8l-0.4,0.2l-1.3,0.4l-1.3,0.1l-3.4-0.2
	l-0.9-0.3l-0.7-0.4l-0.4-0.1l-0.9,0.1l-2.9,0.8l-8.3-1.2l-3.3,0.3l-0.7-0.3l-0.5,0.2l-5.4-0.5l-1.3-0.5l-0.5,0H475l-1.8-0.3l-0.9,0
	l-4,2.1l-4,1.3l-1.2,0.8l-0.9,0.4l-1.8,0.5l-0.3-0.1l-0.4,0.3l-0.7,0.2l-0.7,0.1h-0.4l-0.4,0.2l-1.5,0.6l-0.4,0l-0.6-0.3l-0.7,0.1
	l-0.6,0.4l-0.3,0.5l-0.4-0.2h-0.4l-0.3,0.2l-0.3,0.2l-1.8,0.9l-0.4,0.3l-0.6,0.6l-0.4,0.2l-0.2-0.1l-0.2-0.3l-0.1-0.1l-0.1,0.1
	l-0.1,0.1l0,0.2l-0.3,0.1l-0.2,0.1v0.2l-1.4,0.1l-0.8,0.3l-0.4,0.7l-0.1,0.2l-1.6,1.9l-0.4,0.8l-0.7,0.4l-2.4,0.8l-0.3,0.1l-0.9,0.7
	l-3.1,1.5l-5.4,3.6l-3.8,1.5l-0.3,0.1l-0.1,0.1l-0.4,0.6l-0.1,0.1l-1.2,0.1l-0.5,0.2l-0.3,0.4l0.1,0.3l0.5,0.3l0.1,0.2l0,0.4
	l-0.2,0.7l0,0.3v0.7l-0.1,0.5l-0.2,0.5l-0.4,0.5l-1.4,1.4l-0.9,0.5l-1,0.4l-0.2,0.1v0.2l-0.1,0.1l-0.2,0.1h-0.1l-0.2-0.1h-0.2
	l-1,0.2h-0.3L417,139h-0.3l-0.2,0.1l-0.6,0.4l-6.5,0.2l-2.2-0.4l-0.4-0.3l-0.8-0.7l-8.3-2l-0.9-0.6l-1-0.2l-0.3-0.3l-0.3,0.1
	l-0.3,0.5l-0.3,0.3l-0.2-0.2l-0.2,0.3l-0.2,0.4l-0.2,0.2l-0.3,0.1l-0.6,0.4l-0.4,0.2l-0.7,0.1l-6.4-0.2l-6.7-1l-5-1.2l-4.8-0.9
	l-0.4,0l-0.3,0.3h-0.1l-0.8-0.1l-1,0.7l-1,1.1l-0.6,0.9l0.5,0.4l-0.1,0.4l-0.3,0.5l-0.3,1.3l-0.4,0.7l-0.5,0.6l-0.5,0.3l0.2,0.4
	l0.1,0.5l0.1,0.4l0.3,0.1v0.1l0,0l0,0l-0.1,0.1l1.4,0.8l0.5,0.4l0.5,0.7l0.5,0.4l1.4,0.7l0.5,0.5l0.5-0.1l0.6,0.4l0.5,0.6l0.3,0.4
	h-0.1h-0.1v0.1v0.1l-0.1-0.1l-0.3-0.2v0.3l-0.1,0.2l-0.2,0.1h-0.2v0.2l0.7-0.1l0.3-0.1l0.2-0.2l0.2,0.2l0.1-0.2l0.3,0.1l0.2,0.2
	l0.2,0.2l0.1,0.3h-0.1l-0.1,0.1l-0.1,0.1l-0.1,0.1l0.3,0.1l0.1,0.3l0.1,0.3l0.2,0.3l0.5,0.2l0.4-0.2l0.4-0.3l0.5-0.2l6-0.3l0.5,0.1
	l0.9,0.3l0.4,0.1l0.2,0.1l0.5,0.5l0.3,0.1h0l0.2-0.1l0.2-0.1l0.2,0l2-0.3l1,0.2l0.3,0.8l-0.4,0.6h-0.5l-0.9-0.4l-2.9,0.1l-4.9,1.1
	h-0.3l-0.2-0.6l-0.4-0.4l-0.4-0.2l-0.3,0l-0.3,0.1l-0.3,0.1l-0.2,0.2l-0.1,0.2l-0.1,0.3l-0.3,0.2l-0.3,0.1l-0.2,0.1l-0.3,0.1
	l-0.2-0.2l-0.2-0.3l-0.2-0.2h-0.2l-0.5,0.4l-1,0.6l-1,0.4l-7.5,0.7l-0.4,0.2l-1.1,1.1l-0.8,0.5l-1.8,0.7l-0.9,0.6l-0.5,1l1.4,0.3
	l2.2,1.4l1.3,0.3l0.3-0.1l0.6-0.5l0.2-0.1h1.4l0.6,0.1l0.6,0.4l0.6,0.5l0.5,0.6l-0.4,0.2l-0.4,0.1h-0.4l-0.3-0.1l-0.2,0.4l-0.2,0.9
	l-0.2,0.4l-0.4,0.3l-0.5,0.1h-2l-0.5-0.1l-0.4-0.2l-0.6-0.4l-0.4-0.2l-0.7-0.2h-0.8l-0.9-0.3l-0.5-0.1l-0.4,0.2l-0.4,0.3l-1.4,0.2
	l-0.2,0.1l-0.3,0.3l-0.2,0.1h-0.2l-0.1-0.1l-0.1,0l-0.2,0.2l-1.1-0.6l-1.2-0.3h-1.2l-1,0.4l0.1-0.3l0.1-0.2l0.2-0.1l0.3-0.1
	l-2.2,0.1l-1.3-0.2l-6,0.3l-2.1,0.8l-2.1,0.2l-0.9-0.3l-0.1-0.9l0.7-0.6l2.2-1.1l0.5-0.8l-0.5-0.5l-1.1-0.4l-4.2-0.6l-0.2,0.1
	l-0.1,0.1l-0.1,0.1H332v-0.1l-0.5-0.6l-0.3,0.4l-0.2,0l-0.2-0.1l-0.3,0.1l-0.4,0.5l-0.2,0.2l-0.3,0.1v0.2l0.2,0.3l0.8,0.8l0.2,0.1
	h0.2h0.2l0.1,0.2v0.4l0.1,0.2l0.1,0.1l0.2,0.3l0.1,0.1h0.2l0.1,0.1l0,0.3l0.1,0.3h0.2l0.4-0.2l1.3,0.4h0.5l-0.4,0.6l-1.4,0.7
	l-0.6,0.9l-0.7,0.2l-0.8-0.1l-0.5-0.2l-0.6,0.3l-0.6-0.1l-0.6-0.3l-0.7-0.2l-0.4,0.1l-0.9,0.6l-0.3,0h-0.7l-1.8-0.4l-1.5-0.7
	l-1.4-0.9l-1.1-1.1l0.2-0.1v-0.1l0,0l0.1,0.1h0.2l0.3-0.3l-0.4-1l-0.3-0.5l-0.4-0.3H319l-0.9,0.5l-0.6,0.1h-1l-0.9-0.2l-1.2,0
	l-0.8,0.6l-0.6,0.8l-0.7,0.6l-0.5,0.1l-1.4-0.1l-0.7-0.4l-0.3-0.1l-0.9,0.2l-2.2-0.2l-1,0.1l-0.5,0.4l-2.7,3.3l-0.3,0.3l-0.3,0.2
	l-0.2,0.1l-0.2,0.1l-1.1,1.5l-0.5,0.4l-0.8,0.2l-0.7,0.3l-0.4,0.1h-0.3h-0.2l-0.1,0.2l-0.2,0.5l0.2,0.5v0.6l-0.1,0.6l-0.2,0.4
	l-0.1,0.1h-0.1h-0.3l-0.1,0v0.1v0.1v0.1l-0.1,0.2v0.4l-0.1,0.3l-0.2,0.4l-1.1,1.1l-0.3,0.2l-0.9,0.4l-0.4,0.3l-1.4-0.5l-0.2,0.2
	l-0.5,0.9l-0.1,0.3v0.3l-0.2,0.5l-0.1,0.3v0.3l0.1,0.6v0.2l-0.4,1.6l-0.1,0.4l0.4,0.1l0.1,0.3l-0.1,0.9v0.8l-0.1,0.2l-0.1,0.1
	l-0.1,0.1v0.3l0.1,0.4l0.5,0.9l0.1,0.4l-0.2,1.8l-0.2,0.8l-1,0.9l-0.4,1.6l-0.6,1.7l0.1,0.7l1,0.5h1l2-0.5l0.3,0.2l0.2,0.1l0.1-0.2
	v-0.1l0.2-0.3h0.3l0.3-0.2h0.3l1.3,0.2h0.3l0.2-0.1l1.1-0.6h0.3l0.3-0.3l0.6-0.2l8.9-1.6l0.6,0.5l0.5-0.2l0.5-0.4l0.6-0.3l0.7,0.1
	l0.4,0.2l0.2,0.5v0.7l-0.3,1.2v0.3v0.1l-0.1,0.1l-1.5,0.5l-0.4,0.3l0.3,0.5l-0.3,0.3l-0.3,0.1l-0.9,0.1l0,0.3v0.2v0.2v0.2h0.1
	l0.2,0.2l-2.7,2l-0.5,0.7l-0.3,0.2L304,198l-0.1,0.3l0.1,0.5l-0.2-0.2l-0.2-0.2l-0.2-0.1h-0.3V198l0.5-0.1v-0.2l-0.2-0.1l-0.3,0.1
	l-0.2,0.3l-0.2,0.7l-0.3,0.3l0.5,0.2l0.6,0l1.2-0.1l0.4,0.2l0.2,0.5l0.1,0.7l0.2,0.6v0.3l0.4,0.4l0.5,0.4l1,0.5l0.4,0.3l0.7,0.9
	l0.6,1l0.2,0.6l-0.3,0.3l-0.5,0.1l-0.6,0.4l-0.6,0.4l-0.3,0.4h0.4h0.1v0.2l-0.4,0.5l0,0.8l0.2,0.8l0.5,0.3l0.4,0.1l0.4,0.6l0.3,0.1
	l0.3-0.1l0.9-0.5l0.3-0.3l0.2,0.3h0.2l0.2-0.2l0.3-0.1l0.1,0.1l0.3,0.5l0.1,0.1h0.5l0.3-0.1l0.3-0.2l0.4-0.4l0.4,0.3v0.4l-0.4,0.9
	l0.5,0.2l-0.2,0.5l-0.5,0.3l-0.5-0.4l-0.2,0.3l-0.3,0.3l-0.4,0.2l-0.4,0.1l0.3,0.8l-0.3,0.4l-0.4-0.1l-0.2-0.7l-1,0.4l0.2,0.2
	l0.5,0.9l0.2-0.3l0.1,0.3v0.3v0.2l-0.1,0.3l-0.2-0.2l-0.2,0.1l-0.2,0.2l-0.3,0.2l0.2,0.4h-0.4l-0.4-0.1l-0.6-0.3h-0.3H308l0,0v-0.1
	l-0.1-0.1l-0.1,0l-0.7,0.5l-1.3,0.3l-0.5,0.3l0.2,0.6l0.2,0.4l0.5,0.8h-0.5l-0.2,0.1l-0.2,0.1l-0.2,0.2l0.5,0.3l0.2,0.1h0.3l0,0.1
	l-0.1,0.4l0,0.1h0.4h0.3l0.5,0.2l-0.1,0.1L307,221h0.5l0.3-0.2l0.2-0.1l0.4,0.4l-0.1,0.4l-0.1,0.8l-0.1,0.4l0.4,0.2l0.4,0.2l0.3,0.3
	l0.3,0.4v0.2H309l-0.7-0.4l-0.5-0.3l-0.4-0.4l0.3,0.5l0.6,0.4l0.3,0.2l0.6,0.2l0.3,0.2l0.8,1.2l0.4,0.3l-0.2,0.4h0.1l0.5-0.3
	l1.6-0.7h0.7l0.6,0.3l0.2-0.1l0.9,0.1l0.5-0.2l0.2,0.2l0.2-0.2h0.1l0.2,0.2v0.2l-0.7,0.4l-0.6,0.6l-0.6,0.4l-0.7-0.3l-0.1,0.1V227
	l-0.3,0.1H313l-0.2-0.1h-0.3l-0.1,0.1l-0.3,0.3l-0.1,0.1l-0.4,0.1l-1.2,0.6l-2,0.2l-0.4,0.1l-0.5,0.2H307l-0.2-0.4l-0.1,0.1
	l-0.3,0.1l-0.1,0.1l-0.5-1.3l-0.3-0.6l-0.3-0.3h-0.2v0.2l-0.4-0.1l-0.4,0.3l-0.3,0.6l-0.1,0.6l0.2,1.3l0.4,0.3l0.2,0.3l-0.1,0.4
	l-0.5,0.2l-0.4-0.7l-0.4-1.5l-0.3-0.5l-0.2-0.5l-0.3-0.4l-0.6-0.1l0.2-0.5l0.2-0.4v-0.3l-0.4-0.2l0.3-0.2l0.3-0.1l0.3,0.1l0.2,0.2
	h0.1h0.1l0.2-0.1l-0.1-0.3v-0.8v-0.4l-0.1-0.4l-0.1-0.2l-0.2-0.1l-0.2-0.2l-0.7-0.8l-0.6-0.9l-0.1-0.5l-0.4-0.6l-0.9-0.9l-0.5-0.4
	l-0.6-0.3l-0.6-0.2l-0.7-0.1l-0.3,0.1l-0.6,0.3l-0.4,0.1l-0.2,0.1l-0.1,0.4l0,0.5v0.4l0.3,1.2v0.2v0.2l0.3,1l0.1,0.4l-0.2-0.2
	l0.8,1.1l0.1,0.4l-0.2,0.6l-0.2,0.3v0.1h0.5l0.2-0.1l0.2-0.4l0.2-0.1h0.2l0.3,0.3l0.5,0.2l0.6,0.6l0.4,0.2l-0.4,0.8h-0.2l-0.3-0.3
	l-0.6-0.3v0.2l0.4,0.4l0.2,0.7v0.6l-0.4,0.3l-0.2,0.1l-0.6,0.5l-0.3,0.1l-0.3,0H297l-0.3-0.1v0.2l0.2,0.4l-0.2,0.2l-0.4,0.1H296
	l-0.2-0.1v-0.1l0-0.1l-0.2,0h-0.2h-0.1l-0.1-0.1l-0.1-0.1l0.2-0.3l0.1-0.3v-0.3l-0.1-0.4l-0.1,0.1l-0.1,0.1l-0.1,0.1v0.3l-0.4-0.4
	l-0.2,0.4l0.1,0.6l0.5,0.3v0.2l-0.6,0.1l-0.2,0.6l-0.3,0.4l-0.7-0.3l-0.1,0.5v0.2l1.3,0.4l0.2,0.1l0.8,0.7l0.6,0.2l0.5-0.2l0.2-0.9
	h0.2l0.1,0.3v0.3l-0.1,0.3v0.3l0.6,0.6l0.1,0.2h0l-0.1-0.1l-0.1-0.5l0.6,0.3l0.6,0.7l0.6,0.5l0.7-0.2l-0.1,0.5l0,0.3l0.2,0.3
	l0.5,0.5l0.3,0.3l0.3,0v-0.7l0.2,0.4l0.3,0.8l0.2,0.1l0.3-0.1l0.1-0.3V236l-0.1-0.5h0.2l0.1,0.1l0,0l0.1,0.1l0.3-2.1l0.3-0.1h1.6
	l0.5-0.1l0.4-0.2h0.4l0.3,0.3l0,1l0.1,0.4l0.4-0.2l0.2,0.3l0.6,0.6l0.3,0.4l0.2,0.4l0.1,0.5v0.5l-0.1,0.4l0.6,1.1l0.2,0.2l0.2-0.1
	l0.1-0.2l0.1-0.2l0.1-0.1h0.2l0.5-0.2l0.8-0.2l0.7,0.1l1.3,0.5l0.7,0.1l0.2,0.2l0.1,0.5l0.1,0.2l0.1,0.1h0.2h0.2l0.3,0.1l0.1,0.2
	l0.1,0.2l0.1,0.2l0.6,0.3l0.9,0.1h1l0.6-0.2l0.7,1.2l0.2,0.7l-0.4,0.3l0.1,0.3v0.3v0.3l-0.1,0.3l-0.1,0.2l-0.3,0.3l-0.1,0.1
	l-0.1,0.6l0.2,0.4l0.2,0.3l0.2,0.3v0.4v0.7l-0.1,0.7l-0.2,0.5l-0.6,0.7l-0.3,0.2l-2.2,0.8l-0.5,0.1l-1.7-0.1l-0.5,0.1l-0.2,0.7
	l1,0.5l2.2,0.6l1.5,1l0.4,0.1l0.1,0.4l-0.1,0.7l-0.2,0.5l-0.4-0.3l-0.1,0.4l0.1,0.2l0.1,0.1l-0.1,0.2l0.1,0.5l-0.1,0.5l-0.1,0.5
	l-0.1,0.5l0.2-0.3l0.2-0.1h0.2l0.1,0.2l0.4-0.1l-0.1,1.4l0.2,0.6v0.2h-0.1l-0.4,0.2l0.1,0.4l0,0.3l-0.2,0.3l-0.3,0.3l0.2,0.1
	l0.1,0.1h0.1l0.2-0.1l0.1,0.1v0.1v0.2l0.1-0.1h0.2l0.2,0.1l0.2,0.2l0.3-0.3l0.4-0.1l1.5-0.1l0.1-0.1l-0.4-0.3v-0.3h0.6l0.3-0.3
	l0.1-0.4l0.2-0.4l0.4-0.2h0.5l0.5,0.2l0.3,0.5l-0.6,0.3l-0.5,0.5l-0.2,0.6l0.2,0.7l0.5,0.4l0.7,0.1l0.6-0.3l0.1-0.9h0.2l0.3,0.5v0.4
	l-0.1,0.3v0.3l-0.5,0.6l-0.2,0.3l-0.1,0.3l0.1,0.2l0.3-0.1l0.2-0.3l0.1-0.1h0.6l0.3,0.3l-0.1,0.4l-0.5,0.4l0.4,0.1l0.4-0.2l0.3-0.4
	l0.1-0.5l0.1-0.3l0.3-0.1h0.6l0.1-0.1V263l0.1-0.1l0.2,0.1l0,0l0.3,0.2l0,0.2v0.4l-0.1,0.2l-0.1,0.2l-0.3,0.2l-0.1,0.1v0.6l0.1,0.2
	l0.4,0.1l-0.4,0.4l-0.2,0.1l-0.3,0.1l0.3-0.6l-0.3-0.1l-1.2,0.3v0.2l0.3,0.2l0.2,0.5l0.2,1l0.1-0.1h0.1l0.3-0.1v0.2l-0.3,0.1H326
	l-0.3,0.2l-0.2,0.2l-0.5,0.3l-0.7,0.5l-0.4,0.1l-0.4-0.2l-0.4-0.7l0.1-0.1l0,0l0,0l0-0.1l-0.3,0.1l-0.2,0l-0.1-0.1l-0.2-0.1h-0.3
	H322l-0.1-0.1v-0.5l-0.1,0.1l0,0l0,0l-0.1,0.1l-0.2-0.2l-0.2,0.1l-0.2,0.3l-0.1,0.3h-0.2v-0.4l-0.1-0.3l-0.2-0.2l-0.3-0.1l0.1,0.3
	v0.3l-0.1,0.3v0.2l-0.5,0.1l-0.8-0.3l-0.3,0.4l-0.2-0.2l0,0.2l0,0.1l0.1,0.1l0.2-0.2h0.2l0.2,0.1l0.2,0.2l-0.3,0.4l-0.5,0.3
	l-0.4,0.2h-0.2l-0.3,0.7l0.1,0.5l0.2,0.4l0.1,0.5v0.5l0.1,0.7l0.3,0.5l0.5-0.1l0.1,0.3l0.2-0.1h0.1l0.2,0.1l-0.1-0.1l-0.1-0.3
	l0.4-0.1l0.3-0.3l0.2-0.4l-0.1-0.3v-0.2l0.3-0.1l0.7-0.1l0.2-0.1l0.1,0.2v0.1l0,0l-0.1,0.1v0.1l0,0l0,0l0,0l-0.1,0.2v0v0.1l0.1,0.2
	l0.3-0.8v-0.3h0.2v0.1l0.1,0.2l0.4-0.3h0.4l0.2,0.2l0.5,0.7l0.3,0.2l0.3,0.1l0.8-0.1l0.4,0.1l0.3,0.1l0.6,0.4l0.1-0.7l0.6-0.1
	l0.7,0.3l0.5,0.3l0.5-0.5l0.8-0.3h0.8l0.5,0.4l0.3-0.1h0.3h0.3l0.2,0.1l0.1-0.3v-0.1h0.2l0.3,0.1l2.1-0.7h0.6l0.7,0.2h0.3l0.3-0.1
	l0.3-0.3l0.3-0.1l2.7,0.4l0.4,0.2v-0.2l-0.1-0.3l0.5-0.1h1.2l3.3-0.5l0.3,0.1l0.2,0.2l0.2,0.2v0.2l-0.7,0.2l-1.4,0.5l0.2,0.4
	l-0.2,0.2l-0.4-0.1l-0.4-0.3l-0.1,0.3l-0.2,0.3h0.3v0.2l-0.2,0.2l-0.5,0.9l-0.1-0.1l-0.1-0.1h-0.2h-0.2v0.2l0.2,0.1l0.1,0.1v0.1
	l0.1,0.2v0.1v0.1v0.1l-0.1,0.2l-0.2-0.4l0-0.2h-0.1l-0.2,0.1l-0.5-0.3l-0.3,0.2H340l-0.1-0.1h-0.1h-0.1l-0.1,0.1l-0.2-0.2l-0.3-0.1
	h-0.6v0.2h0.5v0.2h-0.2h-0.4h-0.2l0.1,0.1l0,0.1l0.1,0.1l0.1,0.1l-0.2,0.2l-0.3-0.2l0.1,0.3l0.2,0.3l0.5,0.5v0.2l-0.3,0.1l-0.2,0.1
	l-0.2,0.1l-0.2-0.1l-0.1,0.1l-0.1,0.1l-0.1,0h-0.1l0.3,0.3l0.1,0.3v0.2l-0.2-0.1l-0.2,0.2h0.5l0.4,0.1l0.2,0.2l0.2,0.4l-0.5,0.4
	l-0.1,0.2l-0.1,0.3l-0.4-0.4l-0.4-0.1l-0.9,0.1h-0.5l-0.5-0.1l-0.4-0.2l-0.2-0.2l-0.3,0.1l-2.2,0.1l-0.4,0.2l-0.6,0.6l-0.3-0.1
	l-0.3,0.1h-0.4l-0.4-0.2l-0.4,0.1l-1.2-0.7l-0.5,0.1l-0.1,0.4v0.4l-0.1,0.3l-0.5,0.1l-0.9-0.1l-1.9,0.3l-0.6,0l-0.2,0l-0.3,0.2
	l-0.3,0.4l-0.1,0.5l-0.2,0.3l-0.3,0.1h-0.4l-0.4-0.1l-0.3-0.1v0.3l0.2,0.1l0.1,0.2v0.2l-0.1,0.2h0.1h0.1l0,0v0.1l0.3-0.2h0.3
	l0.2,0.2l0.1,0.4l0.3-0.1h0.3l0.6,0.1l0.2,0.1l0.3,0.3l0.1,0.1l0.1-0.1l0.1-0.1l0.1-0.2l1.7-0.6l0.1,0.3h0.3l0.4-0.1l0.5-0.1
	l0.4,0.1l0.5,0.2l0.8,0.4l0-0.7l0.4-1l-0.1-0.3v-0.2l0.4-0.2l0.5-0.7l0.4-0.1l0.4,0.1l0.3,0.1h0.3l0.3-0.2v0.2l0.5-0.2l0.5,0.1
	l0.5,0.3l0.3,0.3h0.2l0.2-0.4l0.2,0.1l0.2,0.2l0.2,0.1l0.2-0.2l0.2-0.2h0.2l0.1,0.4l0.4-0.2l0.3-0.3l0.2-0.1l0.1,0.4h0.3l0.4-0.2
	l1-0.3l0.4-0.4l0.1,0.3l0.2,0l0.5-0.4l0.4-0.7l0.2-0.1h0.3l0.3,0.1l0.1,0.3v0.6l0.1,0.5l-0.3-0.3l-0.1-0.1l-0.1-0.2l-0.2,0.2
	l-0.3,0.3l-0.2,0.2l0,0.2l0.1,0.2l0.5,0l0.2,0.2v0.5l-0.4,0.3h-0.4l0.1-0.5l-0.3,0.1l-1,0.1v0l-0.1,0.1l-0.2,0.1l-0.1,0.1H338h-0.5
	l0.2,0.2l-0.9,0.2l-0.1,0.1l0.1,0.3l0.3,0.1h0.3l0.2-0.1l0.2,0.1l0.3,0.1h0.3l0.1-0.1v-0.4l0.1-0.1l0.3,0.2l0.3,0.3l0.1,0.4
	l-0.1,0.4l-0.3,0.3v0.2l0.2-0.2l0.5-0.5l0.3,0.4l-0.4,0.4l-0.3,0.4l-0.3,0.3l-0.5,0.2h-1.9l0.1,0.2l0.1,0.1l0.1,0.1l0,0.1l0,0.3l0,0
	l0.3,0.3l0.3,0.2l0.3-0.1l0.3-0.4l0.1,0.3l0.2,0.1h0.3l0.3-0.1l0-0.1l0-0.2l-0.1-0.1l0.2-0.1l0.1-0.1l0.1-0.1l0.1-0.2l0.7,0.2
	l0.6-0.5l0.5-0.8l0.3-0.7l0.5-0.7l0.5-0.4l1.3-0.5l0-0.2l0,0l-0.1,0l0.1-0.1l0.1-0.1v-0.1v-0.2l0.2,0.1l0.2,0.1l0.2-0.5l0.4-0.1
	l0.4,0.1l0.3,0.2l-0.2-0.7l-1-0.8l0.1-0.7l-0.4-0.3l-0.1-0.5l0.2-0.5l0.4-0.5l0.4-0.2l0.4,0.2l0.4,0.3l0.3,0.2v0.2l-0.7,0.1
	l-0.3,0.1l-0.1,0.3l0.1,0.3l0.3,0.1h0.7l0-0.2l-0.1-0.5h0.2l0.3,0.2l1.3,0.7h0.5l0.3-0.3l0.2-0.5l0.3-0.5l-0.3-0.2h-0.2l-0.2,0.1
	h-0.1l-0.2-0.2l-0.2-0.2v-0.2l0.3-0.1l0.7-0.1l0.5-0.1l0.2-0.3l0-0.3h0.1l0.1,0.2l0,0.3v0.1l0.1,0l0.1,0.1v0.2l0,0.1h-0.1H349
	l0.1,0.7l0.2,0.3l0.4,0.1h0.6v0.2l-0.3,0.2l0.3,0.1h0.3l0.2,0.1l0.3,0.2l-0.1-0.8l0.5-0.3l0.8,0.1l0.3,0.4l0.1,0.2l0,0l0.1,0.1v-0.2
	V278l0.1-0.3h0.2l-0.1,0.2v0.1l0.1,0.1v0.1h-0.1h-0.1l0,0v0.1l0.3,0.3l0.1,0.6l-0.1,0.6l-0.2,0.4l0.3,0.9l0.2,0.2l0.3-0.5l0.3-0.1
	l0.3,0.2l0.1,0.6h0.2l0.8-0.4l1.1,0.2l0.9,0.6l0.1,0.8l0.4-0.1l0.3,0.1l0.3,0.2l0.4,0.2v0.2l-0.4,0.1l-0.2,0.2v0.3l0.3,0.3l0.3,0.1
	h0.4l0.3-0.2l-0.1-0.3l0.4-0.3l0.4-0.5l0.2-0.5l-0.4-0.4l0.1,0.4l0,0.3l-0.1,0.2l-0.1,0.3h-0.2l-0.1-0.1l-0.3-0.3l0.2-0.2l-0.1-0.1
	l-0.1-0.1l-0.1-0.3l0.3-0.1v-0.2l-0.1-0.3l0.1-0.3l0.2-0.1l0.2-0.1h0.5v-0.2H360V281l0.3-0.3l0.5-0.6l0.4-0.3l0.2,0.5l0.3,0.3l2,0.8
	l1.6,1.1l0.2,0.2l0.2,0.3l0.1,0.3l0.1,0.3l-0.2,0.2l-0.3,0.1l-0.2-0.1l0.1-0.3v-0.2l-0.4,0.2l-0.3,0.5l-0.3,0.3l-0.4-0.3l-0.2,0.3
	l-0.2,0.6l-0.1,0.2l0.3,0.5l0.1,0.4l-0.1,0.3l-0.5,0.1l0.6,0.1l1.2-0.5l0.3,0.4h0.2l0.3-0.1l0.1,0.5l0.1,1.1v0.2l-0.2,0.1l-0.1,0.1
	l-0.3,0.3v0.2l0.4,0.2l0.3,0.4l0.1,0.5l-0.1,0.6h0.1l0,0l0,0v0.1h-0.3l-0.3,0.1l-0.2,0.2l-0.1,0.3h0.3l0.2,0l0.3,0.2l-0.2,0.2h0.7
	v0.2l-0.1,0.1v0.1l0.1,0.4l0.3-0.2l0.4,0.5l1.5,0.5l0.3,0.4l0.2,0.5l1.7,1.6l0.2-0.2l0.1,0.2l0.2,0.3l0.2,0.1l0.2-0.1l0.1-0.2
	l0.1-0.2l0.1-0.2l0.1-0.1l0.1-0.1l0.1-0.1l0.3-0.1h0.2l0.1,0.1l0.1,0l0.1-0.2l0.1,0.9l0.1,0.3l0.3-0.3l1.6,0.9l0.7,0.1h2l0.5,0.3
	h-0.3h-0.3l-0.3,0.1l-0.2,0.1v0.2l1.3-0.2l0.2,0.1v0.3l-0.1,0.2l-0.3-0.2l0.3,0.6l0.9,0.4l0.1,0.6l0.4-0.6v-0.1h0.3l0.1-0.1v-0.2
	l0.1-0.1l0.3-0.1h0.3l0.3,0.1l0.3,0.3l0.1-0.1l0.1,0h0.3l-0.1,0.1l0,0.1l-0.1,0.1l-0.1,0.1v0.2l0.5-0.1l0.4-0.2l0.4-0.3l0.3-0.3
	h-0.5v-0.2l0.6-0.2h0.2v-0.2v0h-0.1h-0.1l0.4-0.2l1-0.2l0.4-0.2l0.3-0.3l0.1-0.1h0.2l0.3,0l0.3,0.1h0.3l0.3-0.2l0.4,0l1.7-0.9v-0.2
	h-0.5l0.3-0.1l0.3,0.1l0.2,0.2l0.2,0.1l1,0.2v-0.5l0.4,0.2v-0.3l0.2-0.6l0.1,0.4v0.2h0.2v-0.6l0.1-0.5l0.2-0.3l1.9-0.3h0.5l2.7,1.2
	l0.6-0.2l0.3,0.3l0.1,0.5l0,1.3l0.7-0.6l0.3-0.4l0.3-0.7l0.3-0.3l0.3-0.3l0.3-0.3l-0.2,0v-0.1l0,0l-0.1,0.1h-0.2l0.3-0.6l0.7-0.6
	l0.4-0.5l-0.6-0.2l0.2-0.4l-0.4-0.2l-0.3-0.4l0-0.5l0.3-0.5v-0.3l0.5-0.9l0.3-1.1l0.4-0.5l0.9-0.7l-0.1-0.4l0.4-1.1l0.1-0.7
	l-0.2,0.2l-0.1-0.4l-0.2-0.3l-0.1-0.3v-0.6l0-0.5l0.1-0.3l0.2-0.3l0.2-0.3v-0.2l-0.3-0.5v-0.6l0.1-1v-1l0.1-0.3l0.3-0.6l0.4-1
	l0.7-0.7l1.5-1l1,0.8l0.5,0.3l0.7,0.2l4.1-0.2l10.1,1.5l0.9,0.5l0.1,0.8l0.7,0.1l4.8,2.1l0.4,0.4l0.4,0.4l1.9,0.9l0.5,0.1h0.3
	l0.3,0.3l0.5,0.7l1,0.4l0.2,0.2l0.5-0.1l0.7,0.1l0.6,0.2l0.3,0.3l0.2,0.3l0.5,0.1h1l0.1,0.1l0.1,0.1l0.2,0.1l0.3,0h0.3h0.2l0.2,0.1
	l1.5,1.6l0.4,0.2l0.3,0.5l0.4,1h0.1l0.3,0.1l0.1,0.1l0.3,0.5l0.3,0.4l0.1,0.2v0.3l0.3,0.9l1.5,1.3l0.6,0.9l0.1,0.3l0.1,0.9l0.1,0.2
	l0.5,0.3l0.1,0.2h0.2l1.2,1.6l0.4,0.2l0.5,0.1l0.5,0.2l0.2,0.4l0.3,0.3l1.9,1.1l0.5,0.1l0.9,0.1l1.7,1l1,0.5l2.3,0.5l1.1,0.1l1.3-1
	l0.2-0.4l0.3-0.1l1.6-0.9h0.5l1.7,0.4h0.8h0.3l0.2,0.1l0.1,0.1h0.1l0.3-0.2l0.3-0.4l0.2-0.5l0.3-0.4l0.6-0.2l0.3,0.1l0.5,0.3
	l0.3,0.1h0.3l0.8-0.2h1.1l0.6-0.1l0.5-0.6l0.5,0.1l1,0.3l0.4-0.1l0.9-0.5l0.5-0.1l0.5,0.1l1.1,0.3l0.6,0.1v0.2l-0.3,0.2l0.5,0.1
	l0.5-0.5l0.6-0.8l0.6-0.5l0.3-0.1l0.3-0.1l0.2,0.1l0.1,0.4l0.6,1l0.1,0.2l0.1-0.2l0.2-0.8l0.1-0.3l0.8-0.9l0.2-0.1l0.9-0.4h0.3
	l0.3-0.1l0.4-0.7l0.3-0.3l-0.1-0.1l-0.1,0l-0.2-0.1l0.4-0.1l0.2-0.3l0.5-0.8l0.4-0.3l0.3,0.1l0.3,0.2l0.4,0.1l0.5,0.3l0.4,0.8
	l0.1,0.9l-0.2,0.6v0.2h0.4l0.1-0.2V296l0.1-0.5l0.2-0.4l0.5-0.6l0.1-0.2l-0.1,0.1l-0.2,0l0.3-0.7l0.7-0.3l0.8-0.1l0.5-0.4v-0.8
	l-0.1-1l0.1-0.8l0.9-0.5l0.9-0.9l0.5-0.3l0.2-0.2l0.1-0.3l0.2-0.5l2.2-2.8l0.8-0.7l2.7-1.7l2.2-2l0.8-0.4l0.1-0.1l0.3-0.6l0.1-0.1
	l0.8-0.4l0.3-0.1l0.8-0.1l1.7-0.8l1.1-0.3l0.7,0.4l0.1-0.2l2.1,1.1l1,1.1l0.4,0.2l-0.1,0.5v0.1l0.3-0.1l0.4-0.1h0.4h0.4l0.5,0.2
	l0.8,0.6l0.7,0.3l6.4,3.9l0.4,0.1l0.3,0.1l0.4,0.6l0.3,0.1l0-0.1l0.7-0.5l0.5-0.2l0.2-0.1l0.1-0.2l0.1-0.1l0.6-0.3l0.2-0.1l1.1,0.1
	l1.1,0.3l-0.9-0.4l-0.2-0.1l-0.3,0l0.1-0.3l0.2-0.2l0.3-0.1l0.3,0.1l0.8,0.7l0.3,0.1l0.8-0.1l0.2-0.1l0.4-0.3l0.3-0.1l0.2-0.1v-0.4
	v-0.4l0.2-0.4l0.2-0.3l0.2-0.6l0.2-0.3l1-1l-0.4,0.1l-0.3,0.2l-1.1,1.3l-0.3,0.2v-0.3l0.4-0.7l0.7-0.5l1.5-0.7l-0.3-0.1l-0.3,0.1
	l-0.3,0.2l-0.3,0.1l-0.2-0.2l-0.1-0.3l-0.2-0.2l-0.4,0.2l0.1,0.2v0.2l-0.1,0.3l-0.1,0.2v-0.1l-0.1-0.1l-0.1-0.1h-0.1l-0.1,0.5
	l-0.6-0.2l-0.4,0.5l-0.2-0.5l0.2-0.4l0.4-0.4l0.3-0.5l0.2,0.1l0.1,0.1v0.1l-0.1,0.2l0.3-0.2l0.3-0.6l0.3-0.3l0.9-0.3l2.1-0.1l1-0.2
	l0.4-0.3l0.8-1l0.3-0.2l0.4-0.1l0.3-0.3l1.4-1.8l0.9-0.8l0.9-0.3l1,0.3l0.9,0.7l0.9,0.9l1.5,2.1l0.3,0.5l0.1,0.5v2v0.2l0.1,0.3
	l0.1,0.3l0.1,0.3v0.4l-0.1,0.5l-0.3,0.6l-0.3,0.5l-0.3,0.3l-0.4,0.1l-2.7,1.7h-0.3l-0.2,0.3l-1.2,1.5l-0.2,0.1l-1,0.4l-0.2,0.1
	l-0.1,0.2l-0.3,0.2l-0.1,0.6l-0.1,0.3l-0.2,0.2l-0.4,0.2l-0.2,0.2l-0.3,0.8l-0.1,0.1H536l-0.3,0.1l-0.3,0.2l-0.2,0.3l-0.7,1v0.5
	l0.3,0.7l0.3,0.4l0.4,0.4l0.3,0.4l0.3,1l0.3,0.5l0.3,0.5l1.8,3l0.7,2.1v0.5l-0.3,0.2l-1.1,1.9l-0.3,0.4l0.2,0.1l0.5-0.1l0.5-0.2
	l0.5-0.1l0.3,0.4v0.4l-0.1,0.4l0,0.4l0.3,0.3l0.4,0.1h0.8l0.8,0.4l1.5,1.1l0.5-0.1l0.3-0.9l0.2-2.2l0.6-0.9l0.8-0.3l0.6,0.2l0.4-0.1
	l0.2-1.1l0,0l0.5-0.2l1,0.4l0.5-0.2l-0.1-0.9l0.1-4.5v-0.5l0.1-0.2l0.2-0.2v-0.3l-0.4-0.4l0.3-0.3l0.3,0.4l0.3,0.2l0.3,0.1l0.7,0.1
	l0.2,0h0.1l0.2-0.1l0.1-0.2v-0.2l0.1-0.2l0.3-0.1l0.5-0.1l1.9,0.3h0.5l1.8-0.3l0.2-0.3v-0.7l-0.1-0.5l-0.2-0.5l-0.3-0.5l-0.3-0.3
	l-0.4-0.2l-0.8-0.1l-0.3-0.3h0.1l0.2-0.3l0.2-0.5v-0.3v-0.2l-0.1-0.2l-0.1-0.2l-0.1-0.1l-0.4-0.2l-0.2-0.2l-0.1-0.2l-0.5-1.7
	l-0.1-0.5l0.1-0.5l0.8-1.2l0.1-1.4v-1.4l0.3-1.3l0.3-0.7l0.1-0.6v-0.6l0.1-0.7l0.3-0.6l0.4-0.6l0.3-0.6l-0.1-0.8h0.2h0.2l4.7,1.6
	l1.6,0.1l0.5,0.1l0.5,0.2l0.5,0.3l0.4,0.4l0.8,0.7l0.2,0.4v0.7l-0.2,1l0.1,0.4l0.5,0.4l0.5,0.3l0.2-0.1l0.2-0.3l0.4-0.4l0.5-0.2h0.4
	l0.4,0.1l0.5,0.1l1.6-0.4l0.6,0l4.1,0.8h1l3.7-2.4l1.5-0.7l4.2-0.9l4-1.9l0.7-0.2l2.9-1.9l1.7-0.7l0.9-0.1l1.7,0.2l4.8,1.5l1.3,0.7
	l3.4,3.6l1.5,0.8l1.8,0.2l4.1-0.2l0.6-0.2l1.3-0.1l3.9,1.3l1.3-0.1l13.3-2.5l5.4-2l2.5-1.5l0.9-0.3l1-0.2l1-0.4l5.1-3.5l0.5-0.3
	l0.5-0.2l0.6-0.1h0.6l1.2-0.3l3.5-1.9l1.3-0.5l4.7-0.7l6,1.2l1.1,0.5l0.5,0.1l7-0.3l13.4-3.2l1.1-0.7l1.9-1.8l1.3-1.7l0.4-0.2
	l0.5-0.4l0.3,0.3v0.4l0,0.3v0.1l0.3,0.1l0.8,0.4l0.1-0.1l0.2-0.2l0.2-0.1l0.2,0l0.1,0.2l0.1,0.3l0.1,0.2l0.9,0.7l0.2,0.1l0.2,0.4
	l-0.5,1.8l0.3,0.4l0.2,0.2v0.4v0.9l1.1-0.1l1.5-0.5l2.2-0.4l0.4-0.2l0.1-0.2l0.3-0.9l3.2-4.6l0.1-0.3v-0.2l0-0.2l0.2-0.3l0.2-0.1
	l1.3-0.5h0.2h0.3l0.2,0.2l0.1,0.5l0.2,0.1l2.1,0.7l1,0.1l1.1-0.4l0.6-0.5l1-0.4l1-0.3l0.8-0.1l0.4,0.1l3.3,1.8l0.2,0.1h0.2l0.2,0
	l0.2-0.2l0.2-0.1l0.5-0.1l0.3,0.1l1,0.8l1,0.5l1.2,1l0.4,0.2h0.3l0.6-0.2l0.3,0l0.3,0l0.2,0.1l0.5,0.4l0.6,0.3l0.6,0.1l2.6-0.2
	l0.7,0.1l0.6,0.2l0.2,0.2l0.5,0.5l0.2,0.1l0.3-0.1l0.5-0.5l1.3-0.2l0.8-0.9l0.8-1.1l0.9-0.8l1.1-0.2l1.3,0.2l2.4,1l0.6,0.4l0.4,0.4
	l0.3,0.5l0.2,0.7l0.1,0.7v0.4v0.3l-0.2,0.4l-0.3,0.1l-0.3,0.1l-0.3,0.2l-0.4,0.5l-0.2,0.6v0.7l0.2,0.7l1,2.3l0.2,0.3l0.2,0.2l1,0.3
	h0.3l0.2-0.2l0.2-0.5l0,0l0.4-0.7l0.1-0.5l0.2-0.4l2.1-0.7l0.7-0.4l0.6-0.5l0.6-0.8l0.9-0.9l1-0.7l0.8-0.4h0.5l2.7,0.4l0.5,0.3
	l0.3,0.5l0.2-0.6l-0.2-0.5l-0.2-0.5l-0.1-0.6l0.2-0.6l0.3-0.3l0.3-0.2l0.3-0.4l0.1-1l-0.6-0.7L760.4,261z M288.4,152.2l0.1,0.7
	l-0.2,0.5l0.2,0.5l0.2,0.6l0.2,0.5l0.4,0.2l0.7,0.1h4.7l1.4-0.4l0.4,0l0.7,0.3l0.4-0.1l0.4-0.2l0.3-0.1h0.4l0.4,0.1l0.7,0.5l1.9-1.1
	l0.7-0.2h1.7l0.3-0.1l0.6-0.3l1.9-0.3l0.2,0.3l0.8,1.6l-0.3,0.7l-0.7,0.6l-0.8,0.3l-0.6-0.3l-0.4,0.4l-0.5,0.8l-0.4,0.4l-0.3,0.1
	l-1.2-0.1l-0.7,0.2l-0.8,0.4l-0.7,0.5l-1.1,1l-1.5,0.5l-1.2,1l-1.3,0.8l-0.4,0.7h-0.5l-1.3,0.5l-0.3,0.3l-0.2,0.1l-0.3,0.3l-0.2,0.3
	l0.1,0.1l0.3,0.1l0.1,0.2l-0.1,0.2l-0.3,0.2l0.8,0.6l0.5,0.7l0.1,0.9l-0.3,1.2l-1.1,1.6l-0.1,0.3l-0.2,0.7l-0.3,0.7l-0.4,0.3
	l-0.1,0.2L291,173l-0.1,0.4l0.2,0.2h0.3l1.3-0.5l0.3-0.2l0.8-0.7l1-0.6l0.4-0.3l1.2-1.1l-0.4-0.3l-0.3-0.6l-0.1-0.6l0.4-0.3l0.5-0.1
	l0.6-0.3l0.6-0.4l0.5-0.4l0.7-0.8l0.1-0.1v-0.1l0.5-0.5l0.3-0.3l0.7-0.2l0.2-0.1l1.4-1.3l0.4-0.4l0.2-0.5l0-0.6l0.2-0.3l0.8-0.5
	l0.3-0.4l0.2-1l0.3-0.2l0.4-0.1l0.8-0.7l0.5-0.3l1.6-0.2l0.5-0.3l0.4-0.4l1.5-0.9l1-0.3l1-0.1l0.3-0.2l0.7-1l0.4-0.4l0.5-0.1h1.2
	l0.7-0.5l0.6-0.1l0.3-0.1l0.1-0.1l0.3-0.4l0.1-0.2l2.3-1.7l1.1-1.9l2.4-2.3l0.5-1l0.6-2.7l0.5-1.1l0.8-0.5l5.4-0.8l1,0.1l1,0.3
	l0.4,0.2l0.4,0.3l0.4,0.3l2,0.3l0.5-0.1v-0.3l0.2-0.4l0.6-0.9l0.3-0.3l0.4-0.3l0.4-0.2l0.4-0.1l1.4-0.6h0.3l0.2-0.1l1.2-0.5l0.4,0.3
	h0.5l0.9-0.2l0.2,0.1l0.3,0.3l0.2,0.1h0.9l0.9,0.1l1.8,0.6l0.8,0.1l0.6,0.3l1.3,1.4l0.7,0.1l0.3-0.3l0.2-0.5l0.1-0.5v-0.3l-0.2-0.6
	l-0.6-0.6l-0.1-0.5l0.6,0.1l0.5,0.5l0.3,0.7l-0.2,0.8l0.2,0.1l0.2,0.1l0.3,0.3l-0.2,1l0.8,0.3l3-0.4h0.6l0.3,0.3l0.1,0.2l0.3,0.1
	h0.6l0.3-0.1l0.2-0.1l0.1-0.1l0.1-0.1l0.3-0.1l1-0.2l0.5-0.3l0.3-0.1l0.1-0.1l0.2-0.3l0.1-0.1h0.1l0.2,0.2h0.5h0.1l0.2-0.2v-0.2
	l-0.1-0.1v-0.1v-0.1V141l0.2-0.3l0.2-0.1l0.5-0.1l0.2-0.2l0.3-0.4l0.2-0.5l0.2-0.6l0.1-0.6h0.1l0.1-0.2l0-0.2l-0.1-0.1l0,0l-0.2-0.2
	l-0.1-0.3l-0.2-0.3l-0.1-0.2l0.3-0.1l0.4-0.3l0.4-0.6l0.3-0.6l0.2-0.8l-0.4-0.4l-0.6-0.2l-0.6-0.1l-0.2,0.1l-0.1,0.3l-0.2,0.1h-0.2
	l-0.1-0.1l-0.1-0.1l-0.1-0.1l-2.5-0.6l-7.8-3.7l-5.5-2.3l-3.8-2.4l-1.4-1.3l-0.5-0.9l-0.4-0.5l-0.7-0.4l-0.4-0.5l-0.3-0.6l-0.2-0.5
	v-0.2h0.1h0.1l0.1-0.1v-0.2l-0.1-0.1l-0.1-0.1l-0.1-0.4l-0.2-0.3l-0.5-0.4l-0.3-0.5l-0.5-1.5l-0.4-0.6l-0.5-0.5l-0.4-0.6l-0.1-0.9
	l0.1-0.8l0.2-0.5l0.3-0.2h0.4l0.5,0.2l0.3,0l0.2-0.1V112l-0.1-0.3l-0.2-0.2l-0.1-0.1v-0.4l-0.4-1.6l-0.9-0.2l-0.3-0.1l-1.2,0.1
	l-0.4-0.1l-0.7-0.3l-0.6-0.2h-0.2l-0.5,0.1H333h-0.2h-0.1l-0.1,0.4v0.5v0.3l0.4,0.2l-0.1,0.2l-0.3,0.1h-0.3l-0.4-0.1l-1.3-0.7h-0.9
	l-2,0.5l-0.1,0.3l-0.1,0.2h-0.1l-0.2-0.1l-0.2,0.3l-0.3,0.2l-0.5,0.2v0.1l0.1,0h0.1l0.1,0l-0.1,0.1l-0.2,0.1l-0.1,0.1l0.4,0.1
	l-0.4,0.2l-0.3-0.2l-0.6-0.9l-0.4-0.3l-1.9-1l-0.6-0.5l-0.6-0.6l-1-1.7l-0.7-0.7l-0.8-0.5l-0.9-0.2l-0.5,0.1l-0.3,0.3l-0.6,0.8
	l-0.1,0.1v0.1h-0.1l-0.6-0.2h-0.6h-0.3l-0.4-0.3l-0.4-0.3l-0.5-0.1h-0.5l-0.6,0.3l-0.6,1.1l-0.5,0.3l-0.4,0.1l-0.2,0.3l-0.2,0.4
	l-0.3,0.3l-0.2,0.1l-0.5-0.1l-0.3,0.1l-0.3,0.3h-0.2l-0.2-0.1h-0.4l-0.3,0.2l-0.6,0.5l-0.2,0.1l-0.3-0.1l-0.5-0.4l-0.2-0.1l-0.3,0.1
	l-0.5,0.6l-0.3,0.2l-0.5,0.1l-2.4-0.4l-0.5,0.1l-0.4,0.3l-0.7,0.8l-0.2,0.1l-0.2,0.2l-0.1,0.2v0.1l0.3,0.2l0.1,0.1v0.2l-0.1,0.3v0.2
	v0.5l-0.1,0.6l-0.2,0.6l-0.3,0.5l-1.2,0.4l-2.6-0.1l-1,0.9l-0.4,0.8l-0.1,0.7l0.2,0.7l0.3,0.4l0.7-0.1l0.5,0.1l0.7,0.6l1,0.3
	l0.4,0.2l0.4,0.1l-0.1,0.5l-0.2,0.4l1.4,1.1l1.1,0.6l0.3,0.3l0.5-0.7v0.3v0.3l0.1,0.2l0.1,0.2l-0.1,0.4l0.1,0.9l-0.2,0.3l0.3,0.5
	l0.1,0.6l0.1,1.3l0.4,1.6l0.1,0.7v0.7l-0.1,0.7l-0.2,0.6l-0.3,0.3h-0.5l-0.5-0.1l-0.5-0.3l-0.3-0.3l-1.3,1.4l-0.3,0l-0.1,0.1
	l-0.1,0.1l-0.1,0.2l-0.7,0.5l-0.7,0.6l-0.4,0.2l-1.6,0.2l-0.3,0.3l0.4,0.6l-0.3,0.7l-0.1,0.6l0.1,0.6l0.3,0.6l-0.5,0.8v0.3l0.4,0.1
	l0.2,0.1l-0.4,0.9l0.1,0.5l0.4,0.8l0.2,0.4l0.7,0.3v0.4l-0.2,0.4l-0.2,0.2h-0.4l-0.2,0.1l-0.1,0.2l0.1,0.3l0.3,0.3l0.3,0.1l0.1,0.1
	l-0.3,0.3l-0.4,0.3l-0.7,0.3l-0.3,0.3l0.1,0.1l0.1,0.2v0.2l-0.3,0.1h-0.2l-0.2-0.1l-0.1-0.1l-0.1-0.2h-0.1l-0.2,0.7l-0.1,0.3
	l-0.2,0.2h-0.2v-0.1l-0.1-0.3v0.4v0.2l-0.1,0.1l-0.2,0.1v0.1v0.1h0.1h0.1l-0.3,0.1l-0.1,0.1v0.2l0.2,0.4l-1.4,1.2l-0.4,0.6l-0.2,0.9
	l-0.6,0.7l-0.8,0.4l-0.9-0.1l-0.1,0.1l-0.2,0l0.4,0.5L288.4,152.2z"/>
<path class="st0" d="M881.7,452.4l-0.2-0.4l0.1-0.5l0.4-0.9l-0.1-0.4l-0.5-0.3l-0.7-0.5l-0.1-0.1l-0.1-0.3h-0.1h-0.1l-0.1,0
	l-0.8-0.7l-0.5-0.1l-0.6,0.3l-0.5,0.3l-0.4,0.1l-0.4-0.1l-0.5-0.3l-0.2-1l-0.6-0.7l-0.9-0.6l-0.9-1l-1.1-0.3l-0.7,0.4l-0.4,0.7
	l-0.1,0.7l-0.1,0.8l-0.2,0.1l-0.4-1l-0.4-0.4l0.5-0.7l-0.4-0.7l0.8-0.5l1.2-0.9l-0.1-0.7l-0.2-0.7l-0.7-0.8l-0.2-0.3l-0.1-0.6
	l-0.1-0.3l-0.2-0.2H871l-0.1-0.1v-0.2l0.1-0.2l-1.2-0.6l-0.2-0.9l-0.9,0.3l-1.1,0.7l-0.3-1.2l0.1-0.2l0.1-0.2l0.2-0.1l1.3-0.4
	l0.1-0.1l0.2-0.4l0.3-0.5v-0.2l-0.2-0.2l-0.2-0.1l-0.2,0.1l-0.2,0.2l-0.5,0.3h-0.4l-0.4-0.2l-0.4-0.4l-0.1-0.2l-0.2-0.7l-0.1-0.2
	h-0.8l-0.8,0.1l-0.8,0.1l-1.1,0.5l-0.8-0.4l-0.2,0.1l-0.4,0.1v1l-0.4,0.8l-0.9-0.2l-0.7-0.3h-0.1h-0.1h-0.1l-0.1,0.1v0.1v0.2v0.1
	h-0.4v0.2l0.1,0.5v0.3l-0.1,0.1l-0.5-0.1l-0.1,0.2l-0.2-0.4v-0.5l-0.3,0.1l-0.2,0.7l-0.5-0.1h-0.8l-0.4,0.3l0.1,0.9l-0.7-0.1
	l-0.1-0.1V438v-0.1l-0.1-0.1l-0.1-0.1h-0.1l-0.9-0.2l-0.2-0.1l-0.6-0.4l-0.7-0.2l-0.2-0.1l-0.2-0.1l0.1,0.3l0.2,0.3l0.1,0.1
	l-0.3-0.1l-0.9-0.4l-0.5-0.1h-0.5h-0.2h-0.5l-0.2-0.1l0.1-0.6l-0.1-0.2l-0.7-0.8l-0.5-0.3l-0.5-0.2h-0.4l-0.2,0.2l-0.7,1l-0.2,0.2
	l-0.2,0.1l-0.3,0.1h-0.7l-0.3,0l-0.3,0.2l-0.1,0.2l-0.2,0.4l-0.1,0.1l-0.2,0h-0.5l-0.2,0.7l0.5,0.5l0.5,0.5l-0.7,0.7l-0.5,0.6h-1
	l-0.5,0.5l-0.7,0.2l-0.7,0.3L840,441l-0.2,0.1l-0.2,0.1h-0.2H839l-0.3,0l-0.1,0.1v0.1v0.1v0.1v0.1h-0.1h-0.2h-0.1v0.2l-0.1,0.1
	l-0.7,0.2l-0.2,0.1l-0.9,0.8l-0.2,0.1l-0.2-0.1l-0.2-0.1l-0.2,0.1l-0.2,0.2l-0.2,0.1h-0.2l-0.7-0.1l-1.3,0.1l-1.2,0.7l-0.5,0.3
	l-0.7,0.6l-0.6,0.3l-0.4,0.3l-0.4,0.3l-0.1,0.5l-0.2,0.5l-0.3,0.5l-0.3,0.3l-1.2,0.8l-0.3,0.4l-0.2,0.2l-0.5,0.2l-0.2,0.1l-0.2,0.2
	l-0.3,0.4l-0.2,0.2l-0.2,0.1l-0.2,0.1h-0.2h-0.1l-0.1-0.1v-0.1v-0.1l-0.1,0.1l-0.8,0.5l-0.4,0.3l-0.3,0.4l-0.2,0.5v0.2l0.2,0.1
	l0.4,0.1l0.2,0.2v0.2l-0.1,0.4l0,0v0.4l-0.3,0.4l-0.4,0.3l-0.3,0.2l-0.3,0l-0.2,0.1l-0.3,0.4l-0.2,0.1l-0.6,0.2l-0.5,0.3h-0.1
	l-0.1-0.1l-0.2-0.3h-0.1l-0.2,0.2l-0.1,0.3l-0.1,0.3h-0.2l-0.1-0.2l-0.1-0.2h-0.1l-0.2,0.4l-0.2,0.3l-0.2-0.1l-0.2-0.3l-0.2-0.5
	l-0.1-0.2h-0.1l-0.1,0.2v0.1v0.1v0.1l-0.1,0.2h-0.1h-0.1l-1.1-0.1H816l-0.5,0.2l-0.7,0.8l-0.5,0.2h-0.3l-0.5-0.1H813l-0.2-0.1
	l-0.4-0.3l-0.5-0.1l-1.8,0.1l-0.1,0.6l-0.6,0.8l-0.1,0.5l0.3,1l0.1,0.2l0.3,0.3l0.1,0.2l0.2,0.2l0.3,0.1l0.3,0.1l0.3,0.1l0,0
	l0.2,0.3v0.2l0.1,0.1h0.4l1-0.3l0.3-0.1h0.5l0.2-0.1l0.4-0.3h0.1l0.3,0.3l1.1,2l0,0.2l-0.1,0.3l-0.4,0.3l-0.2,0.2v0.1v0.3v0.1
	l-0.1,0.1l-0.2,0.2l0,0v0l-0.1,0.2l-0.1,0.3v0.3v0.3l0.2,0.5l0.6,0.6l0.2,0.5l0,0l0.2,0.8v0.2l-0.1,0.5l-0.5,0.5l-0.8,0.1l-0.2-0.1
	L814,469l-0.2-0.1l-0.2,0v0.2v0.2l-0.3,0.1l0.2,0.2v0.2l-0.1,0.2h-0.2l-0.1-0.2v-0.2l-0.1-0.2l-0.2-0.1l-0.4,0.1l-0.8,0.5l-0.4,0.2
	l-0.6,0.1h-0.2l-0.6-0.2h-0.2l-0.5,0.2h-0.2l-0.2-0.2l-0.3-0.6l-0.1-0.2h-0.2h-0.5h-0.2l-0.2,0.2l-0.1,0.2l-0.1,0.3l-0.2,0.3
	l-0.2,0.2l-0.2,0.1l-0.2,0.1l-0.2,0.1h-0.3l-0.2-0.1l-0.4-0.2l-0.4-0.1H804l-0.5-0.1h-0.4l-0.6,0.3h-0.1h-0.8l-2.9,0.2l-1.6-0.2
	l-1.4-0.7l-1.2-0.8l-0.4-0.1l-0.3,0.1l-0.2,0.1l-0.2,0.2l-0.2,0.2l-0.2,0.1h-0.5h-0.2l-0.4,0.3l-0.3,0.8l-0.3,0.3l-0.5,0.1l-1.4,0.1
	l-0.8,0.2h-0.3h-0.1l-0.3-0.1h-0.1h0l-0.1-0.1h0l-0.1,0.1v0.1v0.1v0.1v0.1l-0.1,0.1l0,0l-0.1,0h-0.6h-0.2l-0.7-0.3h-0.3l-0.4,0.2
	h-0.2l-0.2-0.1l0.2-0.4v-0.3l-0.3-0.3l-0.5-0.2l-0.5-0.1l-0.8,0.1l-0.5-0.2l-0.5-0.3l-0.3-0.2l-0.5,0.1h-0.3l-0.1,0.1l-0.1,0.1
	l-0.1,0.1L780,470h-0.3h-0.7l-0.4-0.1l-0.2-0.2l-0.1-0.3L778,469l-0.2-0.2l-0.3-0.2l-0.3-0.1H777l-0.1,0.1h-0.1h-0.2l-0.1-0.1
	l-0.1-0.1v-0.1V468v-0.2l-0.2-0.3h-0.3l-0.2,0.2l-0.2,0.3l-0.1-0.7v-0.8l-0.1-0.4l-0.2-0.3l-0.3-0.2l-0.8-0.4l-0.1-0.1l0,0l0.1-0.4
	l0.2-0.5l0.3-0.4l0.3-0.2l0.8-0.2l0.2-0.2l0.1-0.1l0.1-0.4l-0.3-0.2l-0.2-0.1l-0.3-0.3L775,462l-0.2-0.1l-0.2-0.1l-0.3-0.3l-0.2-0.4
	l-0.1-0.4v-0.4v-0.2l-0.2-0.3v-0.2l0.1-0.2l0.2-0.4l0.2-0.5l0.3-0.5l0.6-2.7v-0.2v-0.3l-0.1-0.2l-0.3-0.3l-0.1-0.2v-0.2l0.1-0.5
	v-0.3l0,0l-0.2-0.2l-0.3-0.3l-0.6-0.4l-0.3-0.1l-0.7-0.1l-0.3-0.2l-0.3-0.3h-0.8l-0.5,0.4l-0.3,0.3l-0.2,0.3l-0.2,0.2l-0.3-0.1
	l-0.3,0.1l-0.7,0.5l0,0l-0.3,0.2l-2.3,0.3l-0.3,0.1h-0.2h-0.2h-0.3h-0.1l-0.2,0.3v0.3l0.1,0.3l0.2,0.3l0.3,0.1l0.2,0.1l0.1,0.1v0.2
	l-0.2,0.3l0.1,0.6l-0.1,0.4l-0.2,0.4l-0.3,1.2l-0.8,1.3l-0.3,0.7v0.3l0.1,0.3v0.1l0.1,0.1v0.1v0.1l-0.1,0.1l-0.1,0.1v0.1l-0.1,0.3
	v0.2v0.2l0,0.2l0.2,0.3v0.2l-0.1,0.3l-0.3,0.7l-0.2,0.4l0,1l-0.2,0.4v0.1v0.1l0.1,0.1l0.2,0.2l0.2,0.5l0.2,0.2l0.2,0.1l0.2,0.2
	l0.3,0.4l0.3,0.5l0.2,0.5l0.1,0.2l0.3,0.4l0.1,0.2l0,0.3v0.6l0.1,0.6v0.3v0.3l0,0.3l-0.2,0.6l-0.6,1.1l-0.2,0.6l-0.1,0.3v0.2v0.2
	l0,0L765,475l-0.4,0.7l-0.5,0.5l-0.4,0l-0.2-0.2l-0.4-0.3l-0.2-0.2l-0.1-0.1l-0.1-0.3l-0.1-0.1l0,0l-0.3-0.3l0,0h-0.2l-0.4,0.3h-0.2
	l-0.2-0.1l-0.2-0.1l-0.2,0.1l-0.1,0.3l-0.1,0.2l-0.2,0.1h-0.2l-0.2-0.2l-0.2-0.1l-0.3,0.1l-0.1,0.1l-0.3,0.2l-0.5,0.2l-0.5-0.1
	l-0.9-0.5l-0.4-0.1h-0.4l-0.4,0.1l-0.4,0.2l-0.1,0.2l-0.2,0.5l-0.2,0.1h-0.2l-0.5-0.2l-0.2-0.1l-0.1-0.2l-0.1-0.2l-0.1-0.1l-0.4,0.1
	l-0.7,0.1l-0.4-0.2l-0.3-0.4l-0.2-0.5l-0.1-0.4l0,0l-0.2-0.7v-0.2v-0.3h-0.2l-0.2,0.2l-0.4,0.4l-0.2,0.1l-0.5,0.2l-0.4,0.1l-0.4,0.2
	l-0.1,0.3l-0.2,0.3l-0.3,0.2l-0.3,0.1h-0.1l-0.5-0.2h-0.2l-0.1,0.1l-0.1,0.2l-0.1,0.1h-0.2l-0.9-0.5l-0.8-0.4l-0.3-0.2l0,0l-0.2-0.2
	l-0.2-0.2l-0.2-0.1l-0.3-0.1l-0.4-0.2l-0.8-0.4l-0.4-0.1h-0.1H743h-0.1l-0.1-0.1V473l-0.1-0.1h-0.2h-0.3l-0.5,0.2l-0.3,0.2h-0.1
	h-0.1l-0.1-0.1l-0.1-0.1H741l-0.2-0.1h-0.4h-0.1l-0.1-0.1l-0.9-0.5l-0.4-0.1l-0.5,0.1h-0.3l-0.2,0.1l-0.9,0.8l-0.3,0.2h-0.2
	l-0.1-0.1v-0.1v-0.1v-0.1l-0.1-0.1h-0.1l-0.1,0h-0.1l-0.7-0.5l-0.2-0.2l-0.1-0.5l0.1-1l-0.1-0.5L735,470l-1-0.5h-0.1l-1,0.4
	l-0.5,0.3l-0.5,0.3l-0.2,0.1l-0.2-0.1h-0.2l-0.2,0.2l-0.2,0.2l0,0l-0.2,0.2l-0.4,0.1H730l-1.2-0.3l-0.4-0.4v-0.5l0-0.4l-0.5-0.2
	h-0.3l-0.7,0.3h-0.3v-0.2v-0.2l-0.2-0.1h-0.2h-0.2l-0.4,0.1l-0.1-0.3l-0.1-0.3l-0.2-0.3l-0.3-0.2l-0.6-0.2l-0.3-0.2l0,0l-0.1-0.2
	h-0.2l-0.2,0.1l-0.2,0.1h-0.2l-1.5-0.4l-0.2-0.1l-0.1-0.3l0.1-0.3l0.2-0.3l0.1-0.3l0.1-0.6v-0.5l-0.1-0.5l-0.2-0.5l-0.3-0.5
	l-0.4-0.3l-3.6-0.7l-0.3-0.2l-0.2-0.3l-0.1-0.3l-0.2-0.1l-0.4,0.1H716l-0.1-0.3l-0.1-0.1l-0.3-0.1l-0.1-0.1l-0.1-0.1l-0.1-0.3h-0.2
	l-0.3,0.1l-0.6,0.8l-0.3,0.2h-0.4l-0.5-0.1l-0.2-0.1l0,0l-0.3,0.1h-0.6l-0.2,0.1l0.1,0.2l0.4,0.4v0.1l0,0.1v0.1H712l-0.1,0.1
	l-0.1,0.1l0,0l-0.1-0.1l-0.6-0.2l-1.8-1l-0.9-0.3l-1.4-0.2h-1.2l-0.3,0.1l-0.1,0.1v0.2v0.2l0.2,0.3v0.2l-0.1,0.2l-0.3,0.4l-0.2,0.2
	l-0.3,0.1h-0.3l-0.3-0.1l-0.1-0.1l-0.1-0.2l-0.1-0.3l-0.2-0.2l-0.6-0.5l-0.5-0.2h-1.5l-0.8-0.2l-0.6-0.3l-0.3-0.1l-1.6-0.1l-0.3-0.3
	l-0.1-0.5l-0.1-1.1l-0.2-0.5l-0.2-0.4h-0.1l-0.3-0.1l-1.6,0.4l-1.1,0.1l-0.5-0.2l-0.7-0.7l-1-0.5l-1.5-1.3l-0.5-0.2l-0.2-0.1
	l-0.2-0.3l-0.3-0.2l0,0l-0.3-0.1l-0.6-0.1l-0.4,0.2l-0.5,0.6l-0.3,0.2h-0.3l-0.3-0.2l-0.3-0.3l-0.6-0.4l-0.5-0.5l-0.3-0.2l-0.3-0.1
	l-0.6-0.2l-0.3-0.2l0,0l-0.2-0.3l-0.3-0.2l-1.1-0.6l-0.2-0.2v-0.1v-0.2l-0.1-0.2l-0.2-0.3l-0.2-0.3l-0.3-0.2l-0.3-0.1h-0.2l-0.1,0.1
	v0.2l-0.1,0.2l-0.2,0.1h-0.2l-0.1-0.1v-0.2h-0.2l-0.1-0.1v-0.1l0.2-0.1l-0.2-0.3l-0.7-0.8l-0.2-0.4l-0.3-0.8l-0.3-0.3l-0.3-0.1
	l-1.3-0.3l-0.6-0.1l-0.1-0.2v-0.2v-0.2l-0.2-0.1l-0.2,0.1h-0.3l-0.3,0l-0.2-0.1l-0.2-0.2l-0.1-0.2v-0.2l-0.1-0.2l-0.2-0.1h-0.5
	l-0.2,0l-0.2-0.1l-0.5-0.5l-0.2-0.1l-0.4-0.1l-0.2-0.1l-0.1-0.2l-0.3-0.5l-0.2-0.1l-0.5-0.1l-0.2-0.1l-0.2-0.1l-0.1-0.1V444v-0.1
	v-0.1h-0.6l-0.3,0.2l-0.1,0.2v0.3l0.1,0.9l-0.1,0.2l-0.3-0.1l-0.5-0.7l-0.2-0.1h-0.3l-0.2,0.1h-0.2l-0.3-0.1l-0.1-0.2l-0.3-0.7
	l-0.1-0.1l-0.2,0h-0.1l-0.1-0.1l-0.1-0.2l-0.1-0.1l-0.2-0.1l-0.4-0.1l-0.2-0.1l-0.2-0.2l-0.4-0.6l-0.4-0.2h-0.1h-0.2l-0.2-0.2
	l-0.1-0.6v-0.3v-0.3l0.1-0.2l0.2-0.2l0.2-0.2l0.2-0.1l0.2-0.1l0.1-0.3l0,0v-0.5l0.1-0.6l0.3-0.5l0.4-0.2h0.2h0.2l0.3-0.1l0.2-0.2
	V437l-0.2-0.6l0.1-0.2h0.2l0.2,0.1h0.1l0.3-1V435v-0.3l-0.1-0.1h-0.1h-0.1l-0.1-0.2l-0.1-0.6l-0.3-0.5l-0.1-0.2l0-0.3l0.1-0.1
	l0.4-0.1l0.1-0.1v-0.2l0.1-0.1l0.1-0.1l0.1-0.2l0,0l0.3-0.2l0.1-0.1l0.1-0.1v-0.1v-0.1v-0.1v-0.1h0.1l0.2-0.1l0.1,0l0.3-0.3l0.2-0.3
	v-0.3l-0.1-0.4l-0.2-0.4l-0.1-0.4v-0.4l0.2-0.4l0.3-0.3l0.8-0.2l0.3-0.2l0.7-0.8l0.3-0.5l0.2-0.5l0.1-0.3l0.2-0.1l0.5,0l0.2-0.1
	l0.2-0.1l0.3-0.3l0.5-0.3l0.1-0.1l0.4-0.6l0.2-0.2l0.8-0.6l0.3-0.4l-0.2-0.4l0.2-0.2l0.2-0.3l0.2-0.1l0.1,0.2l0.1,0.3l0.2,0.1
	l0.8-0.3h0.1l0.1-0.2l-0.1-0.2l-0.3-0.4l-0.4-0.2l-1-0.3l-1.1-0.5l-0.2-0.2l-0.2-0.2l-0.3-0.5l-0.2-0.2l-0.4-0.3l-1.2-0.7l-0.3-0.1
	h-0.2l-0.2,0.1h-0.3l-0.2,0l-0.4-0.3l-0.6-0.3l-1.3-0.7l-0.9-0.3h-0.5l-0.5,0.1l0.1-0.3l0.1-0.2l0.1-0.2v-0.3l-0.1-0.2l-0.2-0.2
	l-0.1-0.2v-0.2l0.1-0.1h0.4l0.1-0.1l0.3-0.6L666,414l-0.4-0.2l-0.3-0.5l-0.2-0.1h-0.2l-0.4,0.2l-0.2,0l-0.4-0.2l-0.2-0.3l-0.2-0.4
	l-0.3-0.2l-0.9-0.4l-0.2-0.1h-0.1l-0.1-0.1l-0.3-0.3l-0.2-0.4l-0.2-0.2l-0.2-0.1l-0.9-0.2h-0.3l-0.6,0.2h-0.5l-0.2,0L658,411h-0.2
	l-0.2-0.1l-0.3-0.1l-0.2-0.1l-0.2-0.2l-0.2-0.2l-0.1-0.2v-0.1V410v-0.1l-0.1-0.1l-0.2-0.1h-0.2H656h-0.2h-0.2l-0.1-0.2l-0.1-0.5
	l-0.1-0.1l-0.1-0.2l-0.3-0.2l-0.3-0.1l-0.3-0.2l-0.2-0.2l-0.1-0.2v-0.3v-0.4l-0.1-0.3l-0.2-0.1h-0.2l-0.2-0.2v-0.2v-0.1v-0.1V406
	l-0.1-0.1l-0.2-0.2l0-0.1v-0.2v-0.1v-0.2L653,405l-0.1-0.1h-0.2h-0.1l-0.1-0.2v-0.2l-0.1-0.2L652,404l-0.3-0.3l-0.2-0.1l-0.6,0.1
	l-0.2,0.6l-0.1,0.7l-0.2,0.3l-0.2-0.1l-0.3-0.3l-0.2-0.1l-0.2,0.5l-0.1,0.2l-0.1,0.1l0,0l-0.2,0.1h-0.3h-0.3l-0.3,0.1h-0.1l-0.4-0.2
	l-0.1-0.1l-0.1-0.1v-0.3l0.1-0.6l0.2-0.6v-0.5l-0.4-0.3l-0.5-0.3v-0.3l1.2-1l0.2-0.2l0.1-0.2l-0.3-0.4l-0.5-0.5h-0.2h-0.1l-0.1-0.1
	L647,400l-0.1-0.3l-0.2-0.2l-0.1-0.1v-0.3V399v-0.1l-0.3-0.3v-0.3l0.3-0.5l0.1-0.3l0.1-0.6l0.1-0.3l0.3-0.6v-0.3l-0.1-0.3l-0.2-0.1
	l-0.5-0.3l-0.4-0.3l-1.2-1.7l-0.2-0.5l-0.3-0.4l-0.5-0.3h-0.1l0,0l-0.1,0v-0.2l0.1-0.3v-0.3l-0.3-1.4v-0.1v-0.1v-0.2l0.1-0.1
	l0.1-0.1l0-0.1v-0.2L643,388l-0.4-0.8l0-0.3l0.3-0.2l0.5-0.1h1.8l0.5-0.1l0.2-0.1l0.2-0.2l0.4-0.5l0.2-0.1l0.3,0.1l0.2,0.3v0.3
	l-0.1,0.3l-0.1,0.3v0.2l0.2,0.8l0.2,0.5l1.1,0.8l0.3,0.4l0.4,0.3l0.4,0.1l0.4-0.2h0.2l0.3-0.2h0.2h0.2l0.3,0.1h0.1l0.2-0.3l0.2-0.9
	l0.1-0.3l0.3-0.2l0.4-0.2l0.4-0.1l0.3-0.1l0.3,0.1l0.3,0.1l0.3,0.1l0.2-0.1l0.5-0.6l1.2-1l0.5-0.7l0.2-0.5l0.1-0.5l-0.1-0.5
	l-0.3-0.3l-0.3-0.4l-0.1-0.4l-0.1-0.5l-0.2-0.5l-0.7-0.7l-0.3-0.4v-0.6l0.1-0.3l0-0.8l0.1-0.3l0.3-0.4l0.1-0.2v-0.6l-0.4-0.2h-1
	l-0.4-0.2l-1-0.5h-0.4l-0.4,0.2l-0.1-0.1v-0.3l0-0.3l-0.2-0.2l-0.2-0.1l-0.2-0.1l-0.5-0.1l-0.2-0.1l-0.7-1.2l0,0v-0.2l-0.1-0.3v-0.4
	l0-0.7l0,0l-0.1-0.4l-0.2-0.7v-0.4l0.1-0.4l0.3-0.2h0.4l0.4,0.1l0.3,0.1l0.1-0.2v-0.4l-0.2-0.7v-0.5v-0.3l-0.2-0.3l-0.4-0.5
	l-0.2-0.5l-0.2-0.6l-0.2-0.6l-0.1-0.6l0.2-0.6l0.4-0.4l1.3,0.1l0.3,0.1h0.1l0.1-0.1l0.2-0.2l0.1-0.1l0.4-0.1l3.1,0.2l0.4-0.2
	l0.5-0.7l0.3-0.3l0.2-0.3v-0.2l-0.1-0.5v-0.4l0.1-0.1l0.2,0.1h0.2l0.2-0.4v-0.6l-0.3-1.5l-0.2-0.6v-0.3l0.2-0.2h0.3l1,0.3l0.6,0.1
	l0.5-0.1l0,0l0.3-0.5V358l-0.1-0.2l-0.2-0.2l-0.1-0.2v-0.3l0.2-0.2l0.2-0.2l0.3-0.1l0.5-0.1l0.2-0.1l0.2-0.2l0.1-0.3l0.1-0.4
	l0.1-0.3l0.2-0.2l0.5-0.1l0.4,0.1l0.7,0.1l0.5-0.1l0.2-0.3l0.2-1l0.2-0.6l0.2-0.3l0.7-0.8l0.2-0.3l0.1-0.4l0-2.7l0.1-0.5l0.4-0.5
	l0.4-0.4l0.3-0.5l0.1-0.5l-0.2-0.6l-0.1-0.7l0.3-0.5l0.9-0.8l0.2-0.5l0.1-0.6v-0.1l-0.1-0.4l-0.4-0.2l-0.2,0.1l0,0l-0.2,0.1
	l-0.2,0.1h-0.2l-0.1-0.1l-0.1,0l-0.2-0.4l-0.2-0.2l-0.5-0.1l-0.2,0.3l-0.3,1l-0.2,0.4l-0.3,0.4l-0.4,0.3l-0.4,0.1l-0.4-0.2l-0.2-0.4
	l-0.1-0.5l-0.1-0.5l-0.2-0.5l-0.3-0.7l-0.4-0.5l-0.3,0.2l-0.2,0.3l-0.2,0.2l-0.3,0.1L661,341l-0.1-0.2v-0.3l-0.1-0.3l-0.3-0.1
	l-1-0.1l-0.4-0.3l-0.3-0.9l-0.3-0.5v-0.3l0.1-0.3l0.2-0.2l0.1-0.2l-0.2-0.3l-0.1-0.1l-0.4-0.1l-0.1-0.1v-0.1v-0.1l-0.1-0.1l-0.3-0.1
	l-0.3,0l-0.6,0.2l-0.5-0.1l-0.1-0.4v-0.5v-0.5l-0.3-0.4l-0.5-0.2l-0.5-0.1h-0.4l-1.3,0.6l-1.6,0.2l-1.5,0.6l-0.4,0.1l-0.4-0.1
	l-0.9-0.3l-0.5-0.1h-0.5l-0.4,0.2l-0.2,0.2l-0.3,0.7l-0.2,0.2l-1.3,0.9l-0.5,0.2l-0.9,0.1l-0.5,0.3l-0.4,0.3l-0.5,0.3l-0.5,0.1
	l-0.2,0.1l-0.2,0.2l-0.3,0.4l-0.1,0.1l-0.6,0.2l-0.3,0.2l-0.2,0.3l-0.2,0.4l-0.2,0.6l-0.2,0.1h-0.3l-1.1-0.4h-0.4l-0.2,0.2l-0.1,0.4
	l-0.2,0.4l-0.3,0.2h-0.4l-0.4-0.1l-0.4,0l-0.3-0.1h-0.2l-0.2,0.1l-0.4,0.3l-0.3,0.2l-0.4,0.1l-1.8-0.3v-0.2l-0.1-1.5l-0.5-1.1
	l-0.6,0.2l-0.9-1.2h-0.5l-1.3,0.2l-1-0.3l-0.5-0.1l-0.3-0.6l-0.8-0.6l-0.9-0.3l-1.3-0.3l-0.8-0.8v-2l-0.3-1.1l-0.5-0.8l-0.6-0.5
	h-1.3l-1.3-0.5l-0.5-0.3l-0.5-1.1l-0.9-0.3l-1,0.2l-1.1-1.6l-2.1-0.3v-0.3l0,0l-1.3-2.5l-0.3-0.4l-0.7-0.7l-0.8-0.6l-1-0.5l-1-0.2
	l-0.8,0.3l-0.1,0.1v0.2l-0.1,0.1h-0.8l-0.3-0.4l-0.1-0.6v-0.6l-0.1-0.6l-0.2-0.5l-0.3-0.3l-0.5-0.2l-1.5-0.3l-0.4-0.2l-0.4-0.3
	l-0.2-0.1h-0.2l-1.1,0.1h-0.5l-0.4,0.1l-0.2,0.1l-0.2,0.1l-0.1,0.2l-0.1,0.5l-0.1,0.1l-0.2,0.1l-0.1-0.1l-0.1-0.5l-0.1-0.2l-0.4-0.5
	l0,0l-0.4-0.3H597l-0.3-0.3l-0.2-0.3l-0.2,0l-0.5,0.2l-0.8,0.2l-0.2,0.1l0.1,0.1v0.1v0.1v0.1l-0.1,0.5l-0.2,0.1l-0.2-0.2l-0.2-0.3v0
	l0,0l-0.3-0.1h-0.3l-0.5,0.1l-0.3,0.3l-1.1,0.7l-0.6,0.5l-0.3,0.1l-0.8-0.1l-0.2,0l-0.2,0.1l-0.1,0.2l-0.1,0.5l-0.1,0.2l-0.7,0.3
	h-0.4l-0.4-0.1l-0.4-0.1l-1-0.6l-0.4-0.2l-0.8-0.1h-0.8l0,0v0.3v0.2l0,0v0.1l0.1,0.1l0,0l0,0h0.1h0.1l0.5,0.1l0.1,0.1l0.2,0.1l0,0
	l0.2,0.2l0,0l0.7,0.5l0,0l0.2,0.1l0.1,0.1l0,0v0.1v0.1l0,0v0.1l0,0.1v0.1v0.1v0.1v0.1h-0.1h-0.1l-0.3-0.1l-0.3-0.1l-0.4-0.1h-0.7
	l-0.2,0.2h-0.1h-0.1l-0.3-0.1h-0.1h-0.1h-0.1l-0.3,0.2l-0.2,0.1h-0.1l-0.2-0.1H583h-0.3h0l0,0v0l-0.1-0.1l-0.1-0.2l0,0h-0.1
	l-0.2,0.1h-0.1H582l-0.1-0.1h-0.2h-0.3h-0.1l-0.8-0.3l-0.3-0.1h-0.2l-1.3,0.5l-0.2,0.1h-0.1h-0.2H578l-0.3,0.1h-0.1h-0.1l0,0
	l-0.2-0.2l-0.1-0.1h-0.1h-0.1l-0.4,0.3l-0.1,0.1l-0.4,0.1h-0.2h-0.1v0.1v0.5l0.1,0.2l0.2,0.5v0.1v0.1l-0.1,0.2l-0.3,0.3v0.1v0.2v0.1
	l-0.1,0.1l-0.1,0.1l-0.1,0.1l-0.7,0.3h-0.1v0.1v0v0.1v0.1v0.1v0.1v0.1v0h-0.1h-0.3h-0.4h-0.2l-0.1,0.1l-0.1,0.1v0.1v0.2v0.7v0.1
	l-0.1,0.1l-0.1,0.1l-0.4,0.1l-0.1,0.1l-0.1,0.1l-0.5,0.6L572,329h-0.1l-0.2,0l-0.2,0.1l-0.2,0.2l-0.1,0.1l-0.3,0.4h-0.1h-0.1
	l-0.3-0.1h-0.3h-0.2l-0.2,0.1l-0.2,0.1l-0.1,0.1l-0.1,0.1l-0.1,0.1l0,0.1v0.1l-0.1,0.6v0.3v0v0.1l0.1,0.2v0.1v0.1l-0.3,0.4v0.1v0.1
	v0.1v0.1v0.1v0.1v0.1l0,0l0,0.1l0.4,0.4l0.1,0.1v0.1l0.1,0.3v0.1l-0.9,1.7l0,0l0.5,0.2l1.2,0.5l0,0l1.2,0.1l0.5,0.1h0.1h0.1l0,0
	l0.1-0.1l0,0l0.5-0.3h0.1h0.1l1.3-0.1h0.1h0.1l0,0l0.2,0.1l0,0l0.1,0l0,0h0.1l0,0l0.2,0.1h0.3h0.1h0.1h0v0l0.1-0.1l0.1,0l0,0l0,0v0
	l0,0l0.2,0.2l0.1,0.1l0,0l0.1,0.1l0.3,0.2l0,0v0.1v0v0v0.1l-0.2,0.2v0l0,0l-0.1,0.8v0.2v0.1v0.1l0.1,0.1l1.2,0.8l0.2,0.1l0,0
	l0.1,0.1l0.4,0.3l0.1,0.1l0,0l0.1,0.1v0.1l0.1,0.2l0,0l0,0l0,0l0,0l0.2,0l0,0h0.3h0.1h0.1l0,0h0.1l0,0l0.1,0.1l0,0l0.1,0.1v0.1v0.1
	v0.1l0.2,0.3l0,0l0.4-0.2l0.3,0.1l0,0l0.5,0.4l0,0l0.8-0.1h0.8l1.6,0.3l0,0l0.2,0.1l0,0l0.1,0.3l0,0v0.6v0.1v0.1v0.1l0,0h0l-0.1,0
	l-0.3,0.2l-0.2,0.1l0,0l0,0v0.1l-0.1,0.2l-0.3,0.5v0.1v0.1v0.2l0,0.4v0.2l0.4,0.7v0.1v0.1v0.2v0.1v0.1l0.1,0.1l0.1,0.1l0,0h0.1l0,0
	l0,0l0.3-0.3l0,0l0,0h0.3h0.1l0,0l0,0h0.1l0.2,0.1l0.3,0.3h0.1h0.1l0.2-0.1h0.1h0.2h0.1l0.1,0l0.3,0.4h0.1h0l0,0l0.1,0h0.1h0.2h0.1
	l0,0v0v0l0,0l0,0l0.2,0.2h0.1h0.1l0,0h0.2h0.3h1.4l0,0v0.2v0.1l0.2,0.1v0.1l0,0l0,0v1.2l0,0l-0.3,0.1l-0.1,0.1l-0.1,0.1l0,0
	l-0.1,0.1l-0.1,0.3v0.2l0,0l0,0l0,0l0,0l0,0l0,0l0.2,0.1l0,0l0.1,0l0.1,0.1v0.1v0.1l0,0v0l0,0h-0.1l-0.1,0.1l0,0l-0.1,0.1l-0.1,0.1
	v0.1v0.1v0.2v0.1l-0.1,0.1l0,0l0,0l-0.1,0.1l0,0l-0.1,0.1l0,0l0,0v0.1l-0.1,0.3l0,0l0,0l-0.1,0.1l0,0l0,0l0,0l0,0l-0.2,0.1l-0.2,0.1
	h-0.1h-0.1H587h-0.1l0,0l-0.1,0.1l0,0l-0.1,0.1l-0.1,0.1l0,0l-0.1,0.1l0,0l0,0v0l0,0l-0.1,0.1h-0.1l0,0l0,0l-0.2,0.2l0,0l0,0l0,0
	l-0.5,0l-0.3,0h0l0,0l-0.2,0.2l0,0l-0.1,0.1h-0.1h-0.3h-0.1l0,0l-0.1,0.1l-0.3,0.2l-0.1,0.1l-0.1,0.1l0,0l-0.1,0.2l-0.1,0.3
	l-0.1,0.1l-0.4,0.6v0.1v0.1v0.1l0.1,0.1v0.1v0.2l-0.3,0.7l-0.1,0.3v0.1l0,0h-0.1l0,0l0,0l0-0.1v-0.1l0,0l0,0l0,0l0,0h-0.1h-0.3h-0.1
	l-0.2,0.1l-0.2,0.1h-0.1l-0.3,0h-0.1l-0.4,0.1l0,0l-0.1,0.1l0,0.1v0.1v0.3v0.1l-0.1,0.1v0.1v0.7v0.4v0.1l0,0l-0.1,0.1l0,0l0,0v0.5
	v0.1l0,0l0,0l-0.1,0.3l-0.1,0.2l-0.1,0.3l0,0.1l0,0l0.1,0.3l0.5,0.8l0.1,0.2v0.1l0.2,0.2l0,0l0.2,1.1v0.3v0.5v0.3l0.2,0.9l0.1,0.9
	l0,0l0,0l0.8,1.5v0.5l-0.2,1.1l0.1,0.4l0.2,0.2l0.1,0.3v0.3v0.3l-0.1,0.2l-0.2,0.5v0.1v0.1l-0.1,0.2v0.1l0.3,0.3l0.1,0.2l0.1,0.3
	l0.1,0.3v0.2v0.2h-0.1H583v0.1v0.2l0.1,0.5v0.1v0.1v0.1l-0.1,0.1l0,0h-0.1l0,0l-0.1,0.1l-0.1,0.5l-0.1,0.2l-0.1,0.2v0.3l0.1,0.2
	l0.1,0.2l0.1,0.1v0.2v0.1v0.2v0.3v0.3v0.3h0l-0.1,0l0,0h-0.1l0,0v0.1l0,0l0,0h0.1h0.1l0,0h0.1h0.1v0.1v0.1v0.1l0.3,0.2l0.1,0.1
	l0.1,0.2v0.2l-0.1,0.2l-0.1,0.1v0.2l-0.3,0.3l0.2,0.3l0.4,0.3l0.8,0.3l0.4,0.3l0.1,0.2l0.2,0.1l0.3,0.1h0.2h0.1l0,0l0.2-0.1l0,0h0.1
	h0.2h0.4l0.2,0.1l0.2,0.1l0.1,0.1l0.1,0.1v0.1l0,0l0.2,0.4l0.1,0.1l4.2,2.2l0,0l-0.1,0.2l0.1,0.3l0.2,0.2l0.2,0.1h0.3l0.2-0.1
	l0.4-0.3h0.3l0.2,0.1l0.4,0.4l0.2,0.1h0.3l0.7-0.1l0.2-0.1l0.3-0.2l0.1-0.2l0.1-0.3l0.1-0.3l0.2-0.2l0.2,0l0.2,0.1v0.3l-0.1,0.3
	l-0.3,0.6l-0.1,0.3v0.3l0.1,0.6v0.3l-0.1,0.3l-0.1,0.3l-0.1,0.3v0.3l0.4,1l0.3,0.4l0.5,0.2h0.5l0.5-0.2h0.5l0.9,0.4l0.5,0l0.5-0.2
	h0.4l0.4,0.2l0.5,0.4l0.4,0.3l0.9,0.2l0.4,0.3l0.9,0.7l0.4,0.3l0.3,0.4l0.1,0.3l-0.1,0.3l-0.4,0.5l-0.1,0.3l-0.1,0.5v0.2h-0.4h-0.2
	l-0.3,0.1l-0.4,0.2l-0.3,0.3v0.3h-0.2l-0.3-0.1h-0.1l-0.1,0.1h-0.1h-0.1l-0.8-0.3h-0.2l0.1,0.4h-0.1h-0.3l-0.1,0.1l-0.1,0.2
	l-0.1,0.1l-0.1,0.1l-0.2,0.1h-0.3H599h-0.3l-0.2,0.3l-0.6-0.2l-0.2,0.3l-0.1,0.5l-0.2,0.4h-0.3l-0.8-0.2l-0.4,0.7l-0.2,0.1l-0.2,0.1
	l-1,0.8l-0.2,0.2l-0.1,0.2v0.3v0.2v0.1h-0.1l-0.1,0.1v0.1v0.2v0.1l0,0l-0.1,0l0,0l-0.1,0.2l0,0l0.1,0.2l0.7,1.3l0.4,1.4l0.4,0.6v0.3
	l-0.1,0.3l-0.2,0.2l-0.2,0.3l-0.5,0.7l-0.5,1.3l-0.1,0.3v0.7l-0.2,0.6v0.3v0.3l0.1,0.2l0.1,0.2l0.2,0.2l0.2,0.1l0.6-0.1h0.3l0.2,0.1
	l0.2,0.2l0.1,0.1l-0.7,0.4l-0.3,0.2l-0.2,0.3v0.3l-0.2,0.2l-0.2,0.2l-0.2,0.2l-0.3,0.1h-0.3h-0.2l-0.2,0.1l-0.2,0.2l-0.1,0.3l0,0.2
	l-0.1,0.1h-0.3l-0.3-0.1h-0.1h-0.2l-0.1,0.1l-0.1,0.1l-0.1,0.2l0.1,0.3l-0.1,0.3l-0.3,0.2l-0.3,0.1v0.1l0.1,0.3v0.1l-0.1,0.1
	l-0.2,0.2l-0.1,0.1l-0.3,0.4L590,414l-0.1,0.1l-0.1,0.3l-0.2,0.1v0.1v0.2l-0.1,0.1l-0.3,0.1l-0.3,0.1l-0.2,0.1l-0.2,0.2l-0.2,0.2
	l-0.1,0.3v0.3v0.3v0.4l-0.2,0.2l-0.5,0.1l-0.1,0.1l-0.1,0.2l-0.6,0.9l-0.1,0.1h-0.2l-0.2-0.1v0.1v0.2v0.1H586l-0.3,0.1l-0.2,0.2
	l-0.1,0.2v0.1l0.6,0.3l0.3,0.4l0.3,0.6l0.2,0.6v0.2v0.2l-2.1,1.8l-0.5,0.3l-2.3,0.5l-2.2,1l-0.2,0.2l-0.5,1.8l-0.7,1.8l-0.7,2.1
	l-0.7,1.3l-0.6,1.2l-1,1.9l-0.7,1.1l-0.3,0.5l-0.4,1l-0.2,0.2l-0.2,0.2l-1.6,0.8l-1.4,0.8l-1.7,0.9l-1.8,1l-0.3,0.2l-0.9,1.2
	l-0.3,0.6l-0.7,2.9l-0.3,0.7l-0.3,0.6l-0.5,0.5l-1.6,1.3l-1,1.3l-0.1,0.3l-0.1,0.3l-0.1,1.8l-0.1,0.2l-0.2,0.1l-2,0.6l-1.8,0.5
	l-1.1,0.1l-1-0.1l-1.1,0.1l-1.1,0.2l-1,0.3l-1.5,0.8l-1.4,0.7l-1,0.2l-0.9-0.1l-0.7-0.5l-0.5-0.7l-0.4-0.9v-0.3l0-0.5l-0.1-0.3
	l-0.2-0.2l-0.3-0.3l-0.4-0.5l-0.3-0.3l-0.4-0.2l-0.4-0.1h-0.3l-0.2,0.1l-0.5,0.2l-0.5,0.1l-0.2,0.1l-0.2,0.2l-0.7,0.8l-0.9,0.6
	l-0.1,0.1l-1.1,1.2l-0.1,0.3l-0.9,2.8l-0.3,0.4l-1.1,1l-0.8,1.2l-1.5,1.4l-0.8,0.6l-1.2,1.2l-0.5,0.9l-0.3,1.1l-0.3,1.8l-0.3,1.7
	l0.1,0.6l0.4,0.5l2,0.8l0.5,0.3l0.9,0.8l0.5,0.2l3-0.1l0.5,0.1l0.5,0.3l0.4,0.5l0.1,0.5l-0.1,1.2v0.5v0.3l-0.1,0.3l-0.1,0.3v0.3
	l0.1,0.6l-0.1,0.5l-0.2,0.5l-0.7,1.1l0,0.2v0.5l-0.1,0.7v0.2l0.2,0.7l0.4,0.7l0.5,0.6l0.5,0.5l0.2,0.3l0.3,0.8l0.2,0.3l0.2,0.1
	l0.5,0.2l0.7,0.2h1.5l0.5-0.1l0.5-0.2l0.5-0.1l0.5,0.1l0.3,0.4v0.6l-0.1,1.2l-0.1,1.6l0.1,0.5l0.2,0.3l0.5,0.5l0.1,0.3l0.1,0.3
	l0.2,0.3l0.4,0.5l0.8,0.7l0.2,0.3l0.1,0.3l0.4,1.9l0.3,0.8l0.3,0.7l0.8,1.2l0.4,1.2l0.3,0.4l0.1,0.1l-0.3,0.2l-0.8,0.4l-0.2,0.3
	l-0.1,0.4v0.4l0.3,0.2v0.1v0.1v0.1v0.1v0.3v0.1v0.2v0.1l0.3,0.2l0.5,0.1l0.4,0.1l0.1,0.3l-0.1,0.1l-0.6,0.2l-0.1,0.2l-0.1,0.2
	l-0.1,0.1h-0.3l-0.3-0.1h-0.2l-0.2,0.1l-0.8,0.5l-0.2,0.3v0.2l0.2,0.2l-0.1,0.1h-0.2l-0.3,0.1l-0.5,0.3l-0.3,0.1l-1.7-0.1l-0.5-0.2
	l-0.2-0.2l-0.1-0.2l-0.1-0.5l-0.1-0.5v-0.2l0.1-0.1l0.2-0.2l0.1-0.1l-0.2-0.3h-0.5l-1.3,0.3l-0.6,0.4l-0.2,0.1h-0.7l-0.2,0.1
	l-0.5,0.3l-0.2,0.1h-0.3l-0.7,0.2h-0.4l-0.2,0.1l-0.1,0.2l-0.3,0.9l-0.1,0.3l-0.5,0.4l-0.5,0.1h-2.6l-0.7-0.1l-0.6-0.3l-1-1
	l-0.4-0.2l-3.6-0.1l-0.9,0.3l-0.5,0.1h-0.2l-0.7-0.3l-0.3-0.1h-0.2l-0.5,0.3l-0.3,0.1h-0.2l-0.2-0.2l-0.2-0.4l-0.1-0.1l-0.1-0.1
	l-0.1,0h-0.2l-0.1,0.1v0.1v0.1l-0.4,0.7l-0.1,0.1l-0.2-0.2l-0.1-0.8l-0.2-0.3h-0.7l-0.3,0.6v4.5h-2.3h-1.5l-0.6,0.1l-0.4,0.3v-0.1
	v-0.1v-0.1l-0.1-0.1h-0.2v0.1l0,0.1v0.1l-0.1,0.2l-0.2,0.2l-0.2,0.1l-0.2-0.1l-0.1-0.1v-0.1v-0.1h-0.1l-0.1,0.1v0.1v0.1v0.1l0,0l0,0
	v0l0,0l0,0h-0.1l0,0h-0.1l-0.2,0.1l-0.1,0.1l-0.3,0.5l0,0l0,0v0.1v0.1v0.4l-0.1,0.3v0.2l0.1,0.1l0.1-0.1l0.3-0.3v0.3v0.3v0.3
	l0.1,0.3l0.2,0.2l0.2,0.1h0.2l0.3-0.2v0.3l-0.2,0.1h-0.2l-0.2,0.2l-0.2-0.2l-0.1,0l-0.2,0.1l-0.2,0.1v0.1v0.2h0H514l0,0l-0.1,0.3
	l0.2,0.2l0.3,0.1l0.6,0.1h0.8h0.2h0.1h0.1l0.2-0.1l0.1-0.1l0-0.1v-0.1l-0.1-0.1l0.9-1.1l0.2-0.2l0.3-0.1l0.3-0.2l0.5-0.1l0.2-0.1
	l0.2-0.1l0.2-0.1l0.4-0.1l0.1-0.1l0.1-0.2l0.2-0.4l0.1-0.1h0.3h0.5l0.3-0.1l0.3-0.2l0.3-0.3l0.2,0.1l0.3-0.1l0.2,0.1l-0.7,0.5
	l-0.2,0.1h-0.1l-0.3,0.2h-0.1h-0.5h-0.1l-0.2,0.2l-0.2,0.5l-0.5,0.2l-0.2,0.2l-0.4,0.4l-0.2,0.3l-0.1,0.1h-0.1h-0.3l-0.2,0.1
	l-0.3,0.1v0.1v0.2h0.1h0.1h0.1v0.3h-0.3l-0.6-0.2l-0.2,0.1v0.3l0.1,0.7l-0.1,0.6l0.1,0.2h0.3l0.2-0.1v-0.2l-0.1-0.2l-0.1-0.2
	l0.1,0.1l0.1,0.2v0.1h0.1l0.1-0.1h0.1l0.1,0.2l-0.3,0.1l-0.2,0.3l-0.2,0.3l-0.1,0.3l0.1,0.1h0.1h0.2l0.2-0.1l-0.1,0.2v0.2v0.2
	l0.2,0.1l0.2-0.1l0.1-0.1l0.1-0.1l0.2,0.1l0.1-0.1h0.1l0.1,0.1l0.1,0.1h-0.1l-0.1,0.1l-0.1,0.1v0.2v0.2l0.1,0.1l0.1,0.1l0.1,0.1l0,0
	h0.1h0.1h0.1v0.1v0.1l0,0.1h0.1l0.2,0.1l0.1,0.1v0.1h-0.1h-0.4h-0.1l-0.3,0.5l0.1,0.3l0.3,0.1l0.3-0.1l0.2-0.1v0.2v0.2l-0.1,0.3
	l-0.1-0.2l0,0l0.1,0.2l0.1,0.3l0.2,0.2l0.3,0.2v0.1v0.5v0.1h0.1l0.4,0.3l2.2,1.5l2.2,1l1.2,0.8l0.8,0.5l0.5,0.1l1.3,0.1l0.4,0.2
	l0.4,0.1l0.2,0.1l0.6,0.1h0.1h0.1l0.1,0h0.1h0.1h0.4h0.2l0.2,0.2h0.1h0.9l0.5,0.2h0.3l0.2-0.1l0.4-0.7l0.3-0.3l0.3-0.2l0.3-0.2
	l0.2-0.1l0.4-0.1l0.7-0.3l0.7-0.1l0.8-0.3l0.7-0.1l0.2-0.1v-0.2l-0.2-0.2l-0.1-0.1l0.3-0.5v0.1v0.1l0,0.1h0.2h0.1l0,0l0,0v0.1
	l0.1,0.1h0.1l0,0h0.1h0.3l0.2-0.1l0.1-0.2v-0.3l0.2,0.2l0.1,0.2l0.1,0.2l0.3,0.1l0,0l0.1,0.1v0.1h0.1l0.1,0h0.1h0.1h0.1l0.1,0
	l0.1,0.1l0.1,0.1h0.1l0.1-0.1h0.1h0.3h0.1l0.1-0.1v-0.1v-0.2v-0.2v-0.1v-0.1l0.1-0.3l-0.1-0.1v-0.2v-0.2v-0.1l0.2-0.2l0.5-0.3
	l0.1-0.1l0.1-0.2l0.2,0.1l0.2,0.2l0.2,0.2l0.1,0.3l0.1,0.3v0.3l-0.1,0.3l-0.1,0.1l-0.1,0.2l-0.1,0.1l-0.1,0.1h-0.2H543h-0.4
	l-0.2,0.2l-0.4,0.5l-0.2,0.1l-0.2,0.1l-0.4,0.8l-0.2,0.2v0.1v0.2v0.3v0.1l-0.7,1L540,528l-0.3,0.5l-0.2,0.5l-0.1,0.2l-0.4,0.2
	l-1.1-0.2l-0.5,0.1l-0.2,0.2H537h-0.3l0,0l-0.1,0.1l-0.7,0.7l-0.3,0.2l-0.3,0.1h-0.2H535h-0.1l-0.1,0.2l-0.1,0.2v0.2l-0.1,0.1h-0.2
	l-0.1-0.1l-0.6-0.7l-0.1-0.1l-0.1,0.2l-0.2,0.6l-0.1,0.2h-0.1l-0.2-0.1H533h-0.1v0.1v0.1h0l-0.1,0.1l-0.1,0.1l-0.1,0.1l-0.1-0.1
	l-0.1,0.2v0.1v0.1l-0.2-0.1l-0.4-0.1l-0.2-0.1l0.1-0.2v-0.3l-0.2-0.5h-0.1l-0.1,0.1h-0.1h-0.1v0.2v0.2l0.1,0.2v0.2l-0.1,0.2h-0.1
	h-0.4h-0.1v0.1l-0.2,0.3l-0.1,0.1l-0.1,0.1l-0.4,0.1h-1h-0.2l-0.1,0.3l-0.6,0.3l-0.9,0.2v-0.1l-0.2,0.4l-0.2-0.2v-0.3l0.2-0.3v-0.2
	l0.3-0.4l0-0.2l-0.2-0.2h-0.1l-0.1,0.1l-0.2,0.2h-0.1h-0.1H526h-0.1h-0.1l-0.2,0.1h-0.1h-0.2l-0.1-0.1l-0.2-0.3l0.1-0.1l0.2-0.1
	l0.1-0.1v-0.2v-0.1h-0.1l-0.3,0.2l-0.5,0.3l-0.2,0.2l-0.1,0.2l-0.1,0.2l-0.1,0.2v0.3l-0.1,0.2l-0.1,0.2l-0.1,0.2v0.3l0.1,0.3
	l0.3,0.5l0.2,0.4l0.2,0.3l0.5,0.4l0.5,0.8l0.1,0.3l0.2,0.2l0.4,0.3l0.6,0.8l0.2,0.2l0.4,0.3l1.2,1.1l0.3,0.1h0.2l0.3-0.3l0.1,0.2
	l0,0.4l0.1,0.2l0.4,0.5l0.2,0.2l0.4,0.2l0.3,0.4l0.3,0.2l0.4,0.5l0.2,0.2l0.8,0.5l1.6,1.7l0.2,0.2l0.2,0.1h0.3l0.1,0.4l0.4,0.6
	l0.8,1l0.6,0.6l0.1,0.1l0.1,0.1l1.1,1.4l1.2,1l1.4,1.3l0.5,0.3l0.5,0.4l0.8,0.3l0.2,0.2l0.4,0.5l0.2,0.1l0.3,0.1l0.7,0.5l2,0.8
	l0.4,0.3l0.1,0.1h0.1l0.2-0.1h0.1l0.1,0.1l0.2,0.2l0.2,0.1h0.3l1.7-0.1h0.1l0.2-0.2l0.1-0.2v-0.1h0.2l0.3,0.1h0.2l0.1-0.1l0.1-0.2
	l0.2-0.1l0.2,0.1l0.1-0.1h0.3l2.3-1.1l0.8-0.1l1.1-0.3l0.2-0.2v-0.2l0.1-0.2l0.5-0.5l0.2-0.1l0.2-0.1l-0.1,0.1l-0.1,0.1l-0.1,0.2
	l0.4-0.1l0.7-0.5l0.5-0.2l0.4-0.3h0.2h0.2l0.2-0.1l0.3-0.2l0.2-0.2l1.5-0.9h0.6l0.2-0.1l0.8-0.4l0.1-0.1v-0.1l0.1-0.1h0.1h0.1
	l0.2-0.2v-0.2l-0.1-0.3v-0.1v-0.1l0.1-0.1v-0.1l-0.1-0.2h0.1v-0.1v-0.1l-0.1-0.1l0.2-0.1l0.5-0.5l0.1-0.2l0.1-0.3l0.7-0.7l0.3-0.5
	l0.4-1.6v-0.1l0.2-0.2v-0.1v-0.1v-0.1v-0.1V542v-0.1l-0.1-0.1l-0.1-0.1l-0.1-0.3h-0.1h-0.1h-0.1l-0.1-0.1l-0.1-0.1l-0.1-0.1
	l-0.1-0.1l-0.2-0.5l0,0l-0.1-0.1l-0.2-0.1l-0.1-0.2v-0.2h-0.1l-0.5,0h-0.2l-0.2-0.1l-0.2-0.1h-0.2l-0.4,0.2v-0.4l-0.2,0.1h0v0.1
	l-0.1-0.2v-0.2v-0.4V539h0.1l0.8,0.3h0.3l0.2-0.1l-0.2-0.4l-0.1-0.1h-0.1H563h-0.1v-0.1l0.1-0.3l0.3,0.1l0.3,0.2l0.2,0.1l0.2,0.2
	l0.1,0.1l0.4,0.1h0.1l-0.1-0.2V539l0.1-0.2v-0.2l-0.2-0.1l0.1-0.1l-0.2-0.1v-0.1l0.1-0.1h-0.2l-0.5,0.1h-0.2l-0.8-0.3l0.1-0.1
	l0.2-0.1h0.2l0.2,0.1l0.1,0.1h0.1v-0.1v-0.1l-0.3-0.2l-0.1-0.1l0.5,0.1h0.1v-0.2l-0.1-0.3l-0.3-0.2l0.2,0l0.3,0.1l0.2,0.2l0.1,0.1
	l0.1,0.1h0.1l0.1-0.1h0l0.1-0.1l0-0.1h0.1l0.1,0.2h0.1v-0.2V537l0.2,0.1h0.2l0.1-0.1l0.2-0.2v-0.1l0.1-0.2l0.1-0.1l0,0v-0.2l0.1-0.2
	l0.1-1.5l-0.1-0.6h-0.5l-0.4-0.2l-0.1-0.1v-0.2l0.1-0.1v-0.1l-0.1-0.2l-0.4,0.4l-0.2,0.1l-0.3-0.1l-0.2-0.2h0.2l0.6,0.1l0.1-0.3
	l0.1-0.1h0.2h0.2l0.3,0.1v0.1v0.2l0.2,0.2h0.2l0.3,0.1h0.3l0.1-0.3v-0.3l0.1-0.3l0.1-0.3l0.1-0.2l0.3-0.2l0.1,0.2v0.3l-0.2,0.2
	l-0.1,0.1v0.2l0.1,0.3l0.1,0.2l0.3,0.1l0.2-0.1l0.2-0.2h0.2v0.1l-0.2,0.1v0.1h0.1h0.2l0.3-0.1l0.2-0.2l0.4-0.4l0.3-0.1h0.3h0.1
	l0.2,0.2h0.1h0.1h0.2l0.8,0.3l0.4,0.1l0.4-0.2l0.2-0.1l0.2-0.1l0.3,0l0.2,0.1l0.2,0.1h0.2l0.2-0.1l0.1-0.2l0.2,0.1l0.1,0.2v0.3
	l-0.1,0.2l-0.2,0.1l-0.2-0.1l-0.2-0.2l-0.2-0.1l-0.4,0.1L572,534l-0.5,0.7l-0.2-0.2l-0.1-0.1l-0.1-0.1h-0.1h-0.1h-0.1l-0.2-0.1
	l-0.2-0.2l-0.2-0.1h-0.3l-0.3,0.1l-0.2,0.1l-0.2,0.3l-0.2,0.3l-0.1,0.2v0.3l0,0.2l-0.1,0.3v0.2v0.2v0.2l-0.1,0.3l-0.2,0.5v0.3
	l0.1,0.2l0.3,0.6l0.1,0.1l0.2-0.1l0.3-0.2l0.3-0.2l0.1-0.2l0.2-0.2l0.9-0.1l0,0v-0.1v-0.1l0.1-0.1h0.1h0.2h0.1v0.1H571l-0.1,0.2
	l-0.1,0.3l-0.2,0.1h-0.5H570l-0.2,0.2l-0.3,0.6l-0.2,0.3l-0.2,0.1v0.1l-0.1,0.9l-0.1,0.3l-0.2,0.5l0,0.3l0.1,0.3l0.2,0.1l0.3-0.1
	l0.6-0.2h0.2l0.2,0.1h0.3l0.7-0.1h0.3l0.5,0.2h0.3l0.3-0.2l0.2-0.1h0.3l0.5,0.1l0.3-0.1l0.5-0.3l0.3-0.1h0.1l0.2-0.2h0.1l0.5-0.2
	l0.4-0.3h0.1l0.1,0.1l-0.1,0.2l-0.1,0.1H576l-0.3,0.1L575,541l-0.7,0.3l-0.4,0.3l-0.6,0.2l-0.2,0.1h-0.2l-0.3-0.1h-0.1l-0.2,0.1
	l-0.3,0.5l-0.2,0.2l-0.3,0.2l-0.3,0.2l-0.3,0.1l-0.2,0.1l-0.5,0.5l-0.2,0.1l-0.2,0.2l-0.4,0.7l-0.1,0.2l0.4-0.1l0.7-0.5l0.2-0.1
	l0.7-0.2h0.1l0,0.2l-0.1,0.2l-0.2-0.2l-0.7,0.5l0,0l-0.5,0.3l-0.8,0.2l-0.1,0.1v0.1l0.1,0.1l0.2,0.1l0.4-0.1h0.2l0.1,0.1l-0.1,0.1
	l-0.4,0.1h-0.2l0,0.1v0.1l0.1,0.3l0,0.4v0.2l0.2,0.2l0.1-0.1l0.3-0.2v0.3l0.2,0.1l0.2,0.1l0.1,0.1l0.1,0.1l0.5,0.2l0.1,0.1h-0.2
	l-0.1,0.1l-0.2,0.2l-0.8,0.6l-0.2,0.2v0.2l0.2,0.2h0.1l0.3-0.2h0.1h0.1v-0.2v-0.3v-0.2v-0.1l0.1-0.1h0.3l0.1-0.1l0.2,0.2l-0.1,0.3
	l-0.2,0.3l-0.1,0.4l0.4-0.2l0.1-0.1v0v-0.1l0.1-0.1v0.1l0.1,0.1v0.1l0.6-0.3h0.1l0.1,0.1l0.4,1l-0.1,0.1l-0.3,0.1l-0.5-0.1h-0.2
	l0.1,0.2l0.1,0.2h0.1h0.1h0.1l0.1,0.1l0.1,0.1v0.1l0.1,0.1h0.3l0.3-0.1h0.2v0.3l-0.4,0.2l-0.2,0.3l0.3,0.4l-0.1,0.1l-0.1,0.5
	l-0.1,0.2l0.5-0.4h0.1l0.2-0.1h0.1l-0.2,0.2l-0.1,0.3l0.1,0.3l0.2,0.1l0.2-0.3l0.1,0.2v0.1v0.1v0.1l0.1,0.1l0.1,0.1l0.1,0.1v0.1
	h-0.1l-0.5,0.4l0.1,0.2v0.3v0.6v0.2l-0.2,0.2v0.1v0.2l0.1,0.3v0.2v0.3l0,0.3l-0.1,0.3l-0.4,0.6l-0.1,0.1l-0.1,0.3l-0.1,0.3v0.4v0.1
	l0,0l-0.1,0.1l-0.2,0.1l-0.1,0.1h-0.1l0,0.3l-0.1,0.2l-0.1,0.3l-0.1,0.2l-0.1,0.4v0.3v0.1h0.1h0.1l0,0v0.2l-0.2,0.3v0.2l-0.1,0.6
	l-0.2,0.6v0.1v0.8l-0.1,0.2l-0.1,0.3l-0.1,0.2l-0.1,0.1l-0.1,0.1v0.2v0.3v0.5l-0.1,0.2l-0.1,0.2v0.1l0.3,0.4l0.1,0.2l-0.1,0.5v0.2
	h0.2l0.5-0.6l0,0.2v0.1v0.1v0.1h-0.1h-0.1v0.1v0.2l0.1,0.2v0.1l-0.2,0.1V568l-0.1-0.1l-0.1-0.1l-0.1-0.1l0.3,1l0.1,0.6l-0.1,0.3
	l0.1,0.7l0.2,0.3h0.1l0.1-0.1v-0.1l-0.1-0.1l-0.2-0.2l0.1-0.1v-0.1v-0.1v-0.2h0.1l0.2,0.1l0.1,0.1l0.1,0.1v0.2l0.1,0.1l0.1,0.1
	l0.1,0.1h0.3l0.3-0.1l0.3-0.1l0.3,0.1l-1.4,0.6l-0.2,0.1l-0.1,0.2v0.3l0.1,0.7v0.1l0.3,0.5l0.2,0.2h0.2l0.2-0.2l0.2,0.1l0.4,0.3
	l0.2,0.1l0.2,0l0.7,0l0.2,0.1l0.2,0.2l0.1,0.2l0.1,0.1l0.1,0.1v0.2v0.2l0.2,0.1l-0.3,0.2l-0.2-0.3l-0.3-0.7l-0.2-0.2h-0.2l-0.2,0.1
	h-0.2h-0.4l-0.2-0.1l-0.2-0.3h-0.3l-0.7,0.1l-0.1,0.2v0.4v0.8l0.2-0.2l0.2-0.3l0.2-0.2h0.2l-0.1,0.2l-0.2,0.4l-0.2,0.6v0.1v0.1h0.1
	l0.1-0.1l0.1-0.2l0.1,0h0.1l0.1,0.1v0.1l-0.1,0.1v0.1v0.1l0.1,0.2v0.1v0.2l-0.2,0.4h0.2v0.1v0.2l-0.1,0.1l0,0l-0.1-0.1v0.4v0.2
	l-0.1,0.2L572,578l-0.1,0.2l0.1,0.2l0.2-0.1l0.1-0.1V578h0.1l0.1,0.2v0.2v0.1v0.1l0.1,0.2l0.1-0.1l0.1-0.2l0.1-0.5l0.2-0.4l0.2-0.3
	l0.2-0.2l0.1,0.3v0.1l0.5-0.6l0.1-0.3l-0.2-0.2l0.1-0.2v-0.5l0.2-0.2l0.2-0.5h0.1l-0.1,1l0.1,0.2l0.2,0.1l0.1,0.1l-0.1,0.3l0.1,0.1
	l0,0.3l0.1,0.2l0.3-0.1l0.3-0.1h0.2l-0.1,0.3h-0.1l-0.6,0.2l-0.3,0.1h-0.2v0.1h0.4l-0.1,0.2h-0.2l-0.2-0.1l-0.2,0.1v0.3l-0.1,0.1
	l-0.2-0.2l-0.2,0.4l0.3,0.3l0.4,0.2l0.2-0.1l0,0h0h0.1h0.1v0v0.1l0,0.1v0.1l0.1,0.2l0.1,0.1l0.3,0.2l-0.2,0.2l-0.1,0.3v0.3l0.1,0.3
	l-0.2-0.1l-0.1-0.1v-0.2l0.1-0.2l-0.5-0.5l-0.2-0.1l-0.3,0.3h-0.1l-0.2-0.1h-0.1l-0.2,0.1l-0.1,0.2l-0.1,0.2v0.7v0.5l0.1,0.4
	l0.2,0.2l0.3,0.8l0,0.2l0.1,0.1l0.4-0.1l0.1,0.1l0.1,0.2l0.1,0.2v0.2l0.1,0.3l0.2,0.1l0.1,0.1l-0.1,0.3l-0.2-0.3l-0.4-0.6l-0.2-0.2
	h-0.3l-0.2,0.2l-0.2,0.3v0.3v0.5v0.2l0.1,0.2l0.1,0.1l0.1,0.1v0.2v0.1v0.1v0.1v0.1l0.1,0.1h0.1h0.1l0.2,0.3l0.1,0.1h0.2l-0.1,0.2
	l0.1,0.2l0.2,0.2l0.2,0.1h0.4h0.2l0.2,0.1l-0.1,0.2l0.1,0.4v0.3l-0.2,0.2h-0.1v-0.2l0.2-0.1l-0.2-0.2l-0.2-0.1l-0.3-0.1h-0.2h-0.2
	h-0.1l0,0l-0.1-0.1l-0.1-0.2v-0.1l0-0.1L574,587l-0.1,0.1v0.1v0.1l0.1,0.1l-0.1,0.1l-0.1,0.3l0.4,0.1l0.2,0.3l0.1,1v0.1l0.1,0.1
	l0,0.1v0.1l0,0.1l0,0l0.1,0.2l0.2,0.2l0.1,0.2l0.1-0.1l0.1-0.1l0.1-0.1h0.2v0.2l-0.1,0.1l-0.2,0.1l-0.1,0.1l0,0.2l0,0.2l0.1,0.1h0.2
	l-0.2,0.3v0.3l0.6,1l0.1,0.3l0.1,0.4l0.1,0.2l0.2,0.2l0.1,0.1v0.4l0.1,0.1l0.1,0.2v0.2l-0.1,0.2l-0.1,0.2v0.1l0.1,0.2l0.1,0.2
	l0.1,0.1l-0.1,0.2v0.2l0.1,0.2l0.1,0.1l0.2,0.1h0.4l0.2,0.1l-0.5,0.2h-0.2h-0.2h-0.1v0.1l0.1,0.2l0.4,0.5l0.2,0.3l-0.1,0.3l0.2,0.2
	l-0.1,0.2l-0.2,0.2v0.1v0.2l0.3,0.3l0.1,0.2l0.3,0.7l0.2,0.2l-0.2,0.1l-0.2-0.1l-0.2-0.2l-0.2-0.1l0.1,0.2l0.2,0.3l0,0.1v0.2
	l0.2,0.4v0.3l0.2,0.4l0.1,0.2v0.2l-0.1,0.2l0.2,0.3l0.1,0.3v0.3l-0.1,0.3l-0.1-0.2h-0.1v0.1l0.1,0.2l-0.1,0.2l0.1,0.1l0.3,0.2
	l-0.2,0.3l-0.1,0.2v0.2l0.1,0.5v0.1l-0.1,0.2l0.1,0.3l0.2,0.4l0.1,0.2l0.1-0.1v0.3l-0.1,0.3l-0.1,0.4l0.1,0.4l0.2,0.2l0.1,0.1v0.2
	v0.1l-0.1,0.2v0.1v0.1l0.1,0.3l0.2-0.2h0.2l0.2,0.1l0.1,0.2v0.1h-0.1l-0.1-0.1V609l-0.4,0.2l0,0l-0.1,0.1l0,0v0.1l0.1,0.2l0.2,0.1
	l0.2,0.1h0.2l-0.1,0.1l-0.1,0.2v0.1l0.1,0.1l0.1,0.1l0.1,0.1h0.1h-0.3h-0.2l-0.3-0.3l0,0l-0.1-0.1l-0.1-0.1v0.1v0.3v0.1l0.1,0.1
	l0.1,0.1l0.2,0.5l0.1,0.5l0.1,0.2l0.2,0.1l0.2,0.1l-0.2,0.1l-0.1,0.1l-0.1,0.1v0.2l0.2,0.1l0,0v0.3l0.3,1.1l0.1,0.3v0.1l0.1,0.1h0.1
	h0.1h0l0.1,0.2v0.7l0.1,0.6v-0.4l0.1-0.3l0.2-0.2l0.3-0.1l-0.1,0.2l-0.1,0.1l0,0.1v0.2v0.8v0.1v0.1l-0.1,0.1v0.1l0.1,0.1h0.1l0,0
	l0,0.2l0.2,0.1h0.2h0.2v0.1H581v0.3l0.2,0.3l0.2,0.2l0.7,0.6l0.2,0.3l0.4,0.8l0.1,0.3v0.6v0.2l0.1,0.1h0.2h0.2h0.1l-0.2,0.1v0.3
	l0.1,0.1l0.1,0.4l0.1,0.3l0.2,0.2l0.1,0.1l0.1-0.1l0.5-0.3l0.1-0.1l0.1-0.1h0.2h0.5v0.1l-0.6,0.2l-0.3,0.1l-0.2,0.2v0.1h-0.1
	l-0.1,0.1v0.2v0.2l0,0.2l0.2,0.3l-0.1,0.3l0.2,0.2l0.3,0.1l0.1-0.1l0.9-0.5v0.1l-0.1,0.1v0.1v0.1l0.1,0.1l-0.6,0.1l-0.1,0.1L585,624
	l-0.1,0.2l-0.1,0.2v0.2h0.1h0.5h0.1l0.1,0.1h0.1h0h0.2h0.1l0.5,0.2l0.1,0.1l0.3,0.4l0.1,0.1l0,0l0,0h-0.1l-0.1-0.3l-0.2-0.1
	l-0.4-0.2l-0.2,0.1h-0.2l-0.1-0.1h-0.2h-0.1h-0.7l0.3,0.4l0.2,0.2l0.3,0.1h0.3l0.2,0.1l0.1,0.2l0.7,2.4l0.1-0.1l0.1,0.2v0.1
	l-0.3,0.2l-0.1,0.1l-0.1,0.2l-0.1,0.4l0.7,0.2l0.1,0.1l0.3,0.6l0.1,0.1h0.2l0.1,0.1l0.1,0.2l-0.1,0.4v0.3l0.1,0.2l0.5,0.3v0.1
	l0.1,0.1l0.2,0.4l0.1,0.1h0.2l0.2-0.1l0.2-0.1l0.1-0.1l0.1-0.1l0.4-0.2l0.1-0.1v0.2l0.1,0.1h0.1h0.1v0.2h-0.1h-0.1H590h-0.2
	l-0.2,0.1l-0.1,0.2l-0.1,0.2l-0.1-0.1l-0.1,0H589l-0.1,0.1l-0.1,0.1v0.2l-0.1,0.1l-0.2-0.1l0.1,0.2l0.2,0.2l0.4,0.2l0,0l0.1,0.2h0
	h0.2h0.1l0.1,0.1l0.2,0.3l0.2-0.2l0.2-0.1l0.2,0.1l0.2,0.2l0.1,0.2l0.1,0.6l0.1,0.2l-0.1,0.1v0.2l0.1,0.1l0.2,0.1l0.2,0l0.1-0.1h0.2
	l0.2,0.1v0.1h-0.4l-0.2,0.2v0.3l0.1,0.4v0.1l0.1,0.1h0.2l0.2-0.1v-0.2V636v-0.2l0.2-0.1v0.1v0.3v0.2l0.1-0.1l0,0l0.1,0.1v0.1v0.1
	v0.1l0.2,0.1l0.5,0.6h-0.3l0,0l0.1,0.2h-0.2l-0.1-0.3l-0.1-0.4l-0.2-0.2v0.3l0.3,0.5l0.1,0.5l0.1,0.1l0.1,0.1v0.1v0.3v0.2l0.1,0.1
	l0.1,0.2v0.6l0.2,0.2l0.1,0.1l0.8,0.3l0.1,0.1h-0.2h-0.3l-0.3-0.1l-0.2-0.1l0,0.3l0.1,0.3l0.4,0.5l0.1,0.3v0.7v0.1l0.2,0.2v0.1v0.1
	v0.3v0.1l0.1,0.3l0.4,0.5l0.2,0.3l0.4,0.5l0.2,0.4l0.2,0.5l0.1,0.8l0.3,1.1l0.2,0.4l0.2-0.5l0.1-0.1l0.2,0.2h-0.2v0.1l0.2,0.2
	l0.1,0.2h0.1h0.2l-0.2,0.1l-0.2,0.1H596l-0.1-0.1h-0.1v0.1v0.1l0,0h-0.1l0,0v0.1l0,0l0,0v0.2l0.1,0.7v0.3l0.3,0.8v0.5l0.1,0.1H596
	v-0.3l-0.1-0.4v0.3v0.4l0.1,0.2l-0.1,0.2l0.1,0.2l0.1,0.2l0.1,0.2l0.2,0.9l0.1,0.5l0.1,0.7v0.1l0.1,0.1v0.2v0.3l0.1,0.3l0.1,0.1
	l0.1,0.1l-0.2,0.4l0.6,2.5l0.4,0.1l0.6-0.2l0.6-0.1l-0.1,0.2l-0.2,0.1l-0.2,0.1h-0.1l-0.1,0l-0.2,0.2l-0.1,0.1h-0.1l-0.3-0.2v0.2
	l0.1,0.1l0.1,0.1l0.1,0.1v0.1v0.3v0.1l0.2,0.2l0.1,0.2l1,2.4l0.3,0.4l0.1,0.2v0.3v0.1l0.1,0.1l0.1,0.1v0.1v0.1l0.1,0.3l0.8,1.4
	l0.2,0.5l0.1,0.3v0.2v0.2l0.1-0.1l0.1-0.1l0.7,0.1h0.2l0,0l-0.1,0.4l0.2,0.6l0.5,1.1l0.1,0.5l0.1,0.3l0.2,0.2l0,0v-0.1h0.1h0.1l0,0
	v0.1l0.1,0.1h0.1l0.1,0.1l0.4,0.5l-0.2-0.4v-0.2l0.5-0.4l0,0l0.3,0.3l0.1,0.1h-0.2h-0.4v0.1l0.1,0.3l0.2,0.2l0.2,0.1l0.2,0.1h0.2
	l0.2-0.1l0.2-0.2l0.2-0.1l-0.1,0.2v0.2v0.1l0.2,0.1v0.1l-0.9-0.2h-0.2l0.2,0.4l0.3,0.3v0.1l0,0l0.2-0.1h0.1l1.6,1.8l0.3,0.4l0.7,1.7
	v0.2l0.2,0.3l0.1,0.2v0.3l0.1,0.2l0.2,0.1h0.3l0.2,0.1l0.2,0.2l0.2,0.4l0.2,0.5l0.1,0.2h0.2l0.1,0.2v0.1l-0.1,0.1v0.2v0.1v0.1
	l0.1,0.1l1.1,2.7l0.6,2.1l0.2,1.1l0.2,0.5l0.4,0.2l-0.1,0.1l-0.2,0.1v0.1v0.1l0.1,0.1l0.1,0.1v0.1l0,0.2l0.8,1.6l0.1,0.5l0.1,0.2
	l0.3,0.3l0.1,0.2l0.1,0.6v0.3l0.1,0.2l0.5,0.6l0.2,0.5l0.2,1l0.2,0.5l0.1,0.2l0.1,0.2l0.2,0l0.2-0.1l0.1-0.2v-0.2l-0.2-0.4l0.2,0.1
	l0.1,0.1l0.1,0.3h0.1h0.1h0.3v0.1v0.1v0.1v0.1l-0.2,0.2l-0.6,0.3v0.2l0.1,0.1v0.1l0,0.2v0.2l0.4,1l0.2,0.3l0.2,0.2l-0.1-0.2l0-0.3
	v-0.5l-0.1-0.2l-0.1-0.2l-0.1-0.2l0.1-0.3l0.1,0.3l0.1,0.1l0.1,0.1h0.1l0.1,0.7l0.2,0.2l-0.1,0.3l0.1,0.5l0.2,0.3l0.2-0.2l0.1,0.2
	l0.5,0.5l0,0.2l0.3,0.5l0.1,0.2v0.3l-0.1,0.1l-0.1,0.1l0,0.2v0.1l0.1,0.2v0.1v0.2v0.2v0.1l0.1-0.1l0.1,0.1l0.1,0.2v0.6l0.1,0.3v0.3
	l-0.2,0.3l0.1,0.1l0.1,0.1l0.3-0.1l0.2,0.1l0.2,0.2l0.2,0.1l-0.3,0.4l-0.2,0.1l-0.3-0.1h-0.1l-0.6-0.1l-0.3-0.1v-0.2l0.3-1.1
	l0.1-0.2l0.1-0.2l0.1-0.2V699l-0.2-0.2l-0.1-0.3l-0.1-0.7v-0.2v-0.3v-0.2l-0.1-0.2l-0.2-0.3l-0.1-0.2l-0.2,0.1l0,0.2l0.3,0.4
	l-0.1,0.3l0.1,0.8v0.3h-0.1l-0.3-2.1l-0.1-0.2l-0.2,0.1l0.1,0.2l-0.1,0.1h-0.1h-0.1v-0.1v-0.2v-0.2l-0.1-0.2l-0.1,0.2v0.1l-0.1-0.1
	l-0.1-0.1v-0.1v0h0.1l0.3,0.1l0.1-0.1l-0.1-0.3l-0.2-0.3l-0.2-0.2l-0.2,0.1v0.2l0.1,0.6l0.1,0.1l0.3,1l0.3,1.9l-0.1,0.3l0.3,1.8
	l0.6,2.1l1,2.3h0.1v-0.2l-0.4-1v-0.1h0.2l0.2,0.4l0.2,0.8h0.1v-0.1v-0.1l0.1-0.1l0,0.5v0.2h-0.1v-0.1v-0.1l0,0v-0.1v0.3l0.4,0.8
	l0.1,0.4l0.2,0.3v0.1v0.2l0,0.2l0.1,0.2l0.1,0.1v-0.2v-0.2l0.1-0.2l0.2-0.1v0.2v0.1l-0.1,0.1l0.1,0.2l0.1-0.2l0.1-0.4l0.1-0.1
	l0.3,0.1h0.2l0.1-0.1l0.1-0.1l0.2-0.1h0.2h0.1v0.1l-0.2,0.1h-0.2l-0.1,0.1h0.1l0.1,0.1l0.1,0.1l0,0l-0.7-0.1l-0.1,0.1l-0.1,0.2
	l-0.1,0.2v0.1l0.1,0.2h0.2l0.2-0.1h0.2l-0.1,0.1l-0.2,0.1h-0.2l-0.2-0.3h-0.1v0.2l0.2,0.3l1.1,0.9l0.2,0.2l0.4,0.8l0.5,0.4l0.1,0.3
	l0.9,1.1l0.2,0.4l0.7,0.6l1,1.5l0.4,0.5l1.2,1.2l0.2,0.2l1.2,1.1l0.2,0.1l0.3,0.1l0.3,0.2l0.1,0.1l0.2,0.2h0.1l1.7,0.5l0.8,0.2
	l0.7-0.1v-0.4l0.4-0.3l0.6-0.2l1.4-0.2l0.2-0.1l0.3-0.4l0.2-0.2l2.5-1.5l0.5-0.2h0.2l0.1-0.1l0.2-0.8l0.1-0.1l0.3-0.3l0.1-0.1
	l0.1-0.1l0.2-1.3l-0.1-0.4l-0.3-0.4h0.3l-0.1-0.2v-0.1l0.2-0.2l0.1-0.3l0.1-0.1l0.2-0.2l0.2-0.1l0.1-0.2l-0.1-0.3l-0.1,0.2h-0.2H640
	l-0.2,0.1l0.1-0.2v-0.3l0-0.8l0.1-0.2l0.4-0.8l0.3-0.3l1.7-1.4l0.4-0.3l0.5-0.2l0.5-0.1l1.7-0.2l0.2-0.1l0.2-0.1l0.1-0.1l0.1-0.2
	l0.2-0.1h0.7l0.2-0.1l0.1-0.1l0.1-0.1l0.2-0.1l0.5-0.1l0.4-0.2l0.2-0.1l0.4-0.1h0.1h0.1h0.1h0.1l0.3-0.2l0.1,0h0.4l0.5,0.1l0.4,0.1
	l0.3,0.1h0.1h0.4l0.5-0.2h0.2l0.2,0.1h0.2l0.2,0.1l0.8,0.1l0.9,0.5l0.8,0.7l0.2,0.1l0.2-0.1l-0.2-0.2L655,705l-0.2-0.2l-0.1-0.1
	v-0.1l0-0.1l-0.1-0.1v-0.1v-0.2l0.1-0.1v-0.1l-0.1-0.1l-0.3-0.1l-0.3,0.1l-0.3,0.2l-0.3,0.1h-1.7l-0.5-0.1l-0.4-0.2l-1-0.9l-0.3-0.4
	l-0.2-0.5v-0.3l0.2-0.5l0.1-0.6l0.1-0.3l0.1-0.3l0.1-0.2l0.1-0.1l0.1-0.1l0.1-0.1v-0.1v-0.2l0.7-1l0.5-0.4l0.2-0.3l0.1-0.3v0
	l0.2-0.3l0.3-0.5l0.7-1l0.5-0.5l0.5-0.3l-0.3-0.2l-0.1-0.4l-0.1-0.9V693v-0.2l0.1-0.1l0.2,0l0.1-0.1v-0.2v-0.3V692l0.2-0.2l0.2-0.2
	l0.7-0.4l0.3-0.2l0.2-0.1h0.2l0.3,0.1h0.3l0.7-0.1l0.3-0.1v-0.1l0-0.1h0.5l0.3-0.1l0.3,0.1v0.1l-0.4,0.2h-0.2h-0.1v0.3l0,0h0.1h0.2
	l2.3,0.5h0.2v-0.2l-0.2-0.1l-0.4-0.1h-0.3H659l-0.1-0.1h-0.1l-0.2-0.1h-0.2H658l0.1-0.2l0.2,0l1.6,0.3l0.3,0.2v0.3l0.2,0.1h0.3
	l0.3-0.1h0.2l0.1-0.1l0.1-1.1v-2.2l-0.1-0.5v-2.1v-0.7l0,0l-0.1-1.8l0.1-0.4l0.1-0.3v-2l-0.3-1.3v-1l0,0h-0.1l-0.3-0.2h-0.3
	l-0.2,0.1l-0.1,0.2l-0.1,0.1l-0.6,0.4l-0.2,0.1h-0.1l0.1-0.2l0.7-0.7l0.1-0.1l0.1-0.1h0.1h0.1h0.1h0.3h0.1v-0.1l-0.1-0.7l-0.1-0.1
	h-0.2l0.1,0.1v0.1v0.1v0.1h-0.1l-0.1-0.5l-0.3-0.9l-0.1-0.5v-0.3l0.1-0.5v-0.5l0.2-1.2l0.1-0.3l0.1-0.1l0.1-0.5l0.1-0.6l0.3-0.7
	l0.1-0.3l0,0v-0.1l0.1-0.2v-0.1v-0.4v-0.1l0.1-0.2l0.3-0.4l0.4-0.8l0.1-0.1l0.2-0.2l0.7-1.1l-0.4,0.3l-0.3,0.1h-0.1l0.1-0.2l0.7-0.3
	l0.3-0.3l0.4-0.7l0,0l0,0l0.3-0.2l0.1-0.2l0.3-0.5v-0.2l0.4-0.7l0.3-0.8v-0.2v-0.3l0.1-0.6l0.1-0.2l0.2-0.4l0.1-0.2l0.1-0.5l0.2-0.7
	l0.1-0.9l0.1-1.6l0.2-0.9v-0.5v-0.1l0.2-0.3l0.1-0.1l-0.1-0.4v-0.1l0.1-0.2l0.1-0.2l0.1-0.2v-0.3h-0.2h-0.1l0.1-0.2v-0.2h0l0.1,0
	v-0.4l0.1-0.7v-0.4v-0.3l-0.1-0.5l-0.1-0.2h-0.2v0l-0.1,0.1l-0.2-0.2l-0.2-0.1l-0.2-0.1l0-0.2h-0.2h-0.1l-0.1-0.1l-0.1-0.1h-0.1
	h-0.6l-0.3-0.1h-0.3l-0.2-0.1l-0.1-0.1l-0.1-0.3l-0.4-0.5l-0.2-0.3v-0.3l0.3-0.4l0.2-0.1v-0.2v-0.3l0.1,0.1l0.1,0.1l0.1,0.1v0.1v0.3
	v0.2l0.2,0.1l0.1-0.4v-1l0.1,0.1l0.4,0.5l0.2,0.5l0.6,0.7l0.4,1l0,0l0.4,0.9h0.1l0-0.5l-0.3-0.6l-0.4-0.8l-0.3-0.9l-0.1-0.2
	l-0.1-0.3l0.1-0.3l0.2-0.5v-0.6l-0.2-0.5l-0.9-1.9l-0.2-0.5l-0.3-1.6v-0.6l0.2-0.5l-0.2-0.2l-0.2,0.1l-0.2,0.2l-0.2,0.2l-0.3,0.1
	v-0.1l0.1-0.2l0.2-0.1l0,0l0.2-0.2l0.1-0.1h0.4l0.1-0.2l0.3-0.7l0.2-0.3v-0.6v-1l0.2-0.7v-0.3v-0.1l0.7-0.6v-0.1l-0.1-0.1h-0.1
	l-0.3,0.1H665L665,636l0.2-0.1l0.1-0.1l0.1-0.1v-0.2l-0.1-0.1l-0.1-0.2l-0.1-0.4l-0.1-0.1l-0.3-0.2l-0.1-0.1l-0.1-0.1v-0.1v-0.6
	l-0.4-2v-0.3l-0.2-0.4l-0.1-0.5v-1l0.4-1.5l0.1-1.2v-0.1l0.4-0.9l0.1-0.2l0.2-0.2l0.4-0.4l0.1-0.2l0.2-0.4l0.1-0.2l-0.2-0.1v-0.2
	l0.2-0.4V623l0.5-1.4l0.2-0.4l1-1l0.4-0.3l0.5-0.2l0.1-0.1l0.2-0.2l0.1-0.1h0.2h0.1l0.4-0.2l0.2-0.2l0.2-0.2h0.1l0.1,0.2l0.2-0.1
	l0.2-0.1l0.2-0.1h0.6v-0.1v-0.1l0.1-0.1h0.1l0.1,0.1h0.1h0.6l0.3,0.1l0.2,0.1l0.3,0.6l0.1,0.5v1.1l0.2-0.1l0.1-0.3l0.3-1l0.4-1
	l0.1-0.5l-0.1-0.6l-0.2-0.5l0.1,0.1l0,0v0.1l0.1-0.1v-0.1v-0.1l0.1,0.4v0.2v0.2l-0.1,1v0.3l0.1,0.3l0.2,0.2l0.2,0.1l0.1,0.1l0.4,0.3
	l0.1,0.2l0.1,0.1l0.1,0.1h0.1l0.1-0.1v-0.1l-0.1-0.3v-0.1l-0.1-0.1v-0.1v-0.2l0.3-0.4l0.2-0.2l0.6-0.3l0.6-0.6h0.2l0.1-0.2v-0.7
	l0.1-0.3l0.2-0.4l0.1-0.7l0.3-0.8l0.2-0.6l0.3-0.4l0.1-0.2v-0.2l-0.1-0.1V613l0.1-0.2l0.7-0.5h0.2l0.2-0.1h0.2l0.2,0.1l0.1-0.1
	l0.2-0.1h0.2l0.2,0.1v0.1v0.1l-0.1,0.1v0.1l0.7-0.2h0.3l0.5,0.1h0.2l-0.1-0.3h0.2l0.2,0.1l0.1,0.1l-0.1,0.2l0.2,0.1h0.5l0.2,0.1
	l0.3-0.1l0.3,0.1l0.2,0.2h0.2h0.1l0.6-0.1l0.3-0.2l1-0.5l0.2-0.1l0.3,0h0.5h0.1l0.1-0.2h0.2h0.3l0.2-0.1l0.2-0.2l0.2-0.2h0.4
	l0.3-0.1l0.4-0.3l0.6-0.3h0.2l0.2-0.1l0.7-0.7l0.6-0.2l-0.1-0.2l-0.1-0.2l0-0.2l0.1-0.1h0.1l0.1,0.2h0.1h0.1v-0.1v-0.1v-0.1l0.3-0.7
	l0.1-0.4l0.1-0.7l0.2-0.7v-0.6v-0.6l-0.1-0.4l-0.2-0.3l0.1,0.4v0.4v0.4l-0.1,0.2l-0.2-0.1l0,0h-0.1h-0.1h-0.1h-0.1l-0.1-0.1
	l-0.1-0.1l-0.4-0.1l-0.2-0.2l0-0.3v-0.3l0.5-0.9l0.1-0.4l0.2-0.2l0.4-0.3l0.4-0.5l0.2-0.2l0.4-0.2l0.2-0.2l0.2-0.4l0.3-0.3l3.1-1.9
	l0.5-0.1l0.5-0.3l0.5-0.1l0.2-0.1l0.2-0.2l0.2-0.1l0.1,0.2h0.1l0.6-0.4h0.1l0.3,0h0.1l0.3-0.3l0.3-0.2l0.4-0.2l0.4-0.3l1-0.4
	l0.3-0.2l0.2-0.1h0.2l0.2-0.1l-0.1-0.2l-0.3-0.4h0.4h0.1l0.2-0.1l0.3-0.1l0.1-0.1v-0.3l-0.1-0.1l-0.3-0.1l-0.3-0.1l-0.1-0.2l0.1-0.1
	h0.3l0.1,0.1v0.1v0.1l0,0l0,0l0,0l0,0h0.1h0.1l0.1-0.1h0.1l0.3-0.2l0.8-0.9l0.2-0.3l0.1-0.4l0.1-0.2l0.3-0.2v-0.2l0-0.3v-0.2
	l0.1,0.2v0.1h0.1l0.2-0.2l0.5-0.3l0.1-0.1h0.1l0.2-0.2v-0.1l0.1-0.1l0.2-0.3l0.1-0.1l0.4-0.3l2-1.3l3.8-1.8l0.5-0.4l0.1-0.5l0.1-0.1
	v-0.1V586l0.1-0.1l0.1-0.1l0.3-0.2l0.2-0.2l0.5-0.4l0.1-0.2l0.6-0.6l0.5-0.4l0.2-0.2l-0.3,0.2l-0.4,0.3l-0.3,0.2h-0.3l-0.2-0.1
	l0.1-0.2l0,0h0.3h0.1l0.1-0.1l0.2-0.2h0.1l0.3-0.1l0.2-0.2l0.3-0.4l0.7-0.5l0.1-0.1l0.1-0.2l0.1-0.2l1.2-1.3l0.1-0.3l1.6-1.6
	l0.4-0.2l0.2-0.2l0.3-0.4l0.5-0.7l0.1-0.3l0.3-0.5v-0.1l-0.1,0h-0.1h-0.1l0,0l-0.2,0.3l-0.1-0.1l-0.2-0.2v-0.1V576l0.1-0.2v-0.1
	l0.1-0.1l0.2,0.1l0.2,0.2l0.1,0.1l0,0l0.2-0.1l1-1.3l1.6-1.4l0.9-0.7l1.4-1.4l0.8-0.6l0.6-0.3l0.7-0.5l0.5-0.3l1-0.5l1-0.5l0.5-0.3
	l-3.1,1.5h-0.3v-0.1l0-0.1l-0.2-0.2h0.1h0.1h0.1v-0.2l0.1-0.1h0.1v0.2l0.1,0.1h0.2l0.2-0.1l0.1-0.1v-0.1V569v-0.1l0,0l0.2-0.1l0,0
	v-0.2v-0.1l-0.1-0.1l-0.1-0.2l-0.1,0.2h-0.1l-0.1-0.1h0l-0.5,0.5l-0.6-0.2h-0.2l0,0l-0.1,0.2l0,0v0.2v0.1h0.1h0.1v0.1l-0.2,0.1
	l-0.1,0.2l-0.1,0.1h-0.3v0.1h0.1l0.4,0.2L729,570h-0.1h-0.1l-0.1-0.1v0.2l0.1,0.2v0.1l-0.2,0.2h-0.1h-0.2l-0.1,0.1l-0.1,0.1l0,0.1
	l-0.1,0.1l-0.2,0.1l0.1-0.1v-0.2v-0.1l-0.1-0.1l-0.1,0.2h0l-0.1-0.1v-0.2l0.1-0.1l0.2-0.1l0.2-0.1h0.2v-0.1l-0.2-0.2v-0.2l0.1-0.2
	l0.2-0.2l0.1-0.2l0.2-0.5l0.2-0.2v-0.3l0.2-0.4l0.3-0.3l0.3-0.2l0.1-0.1l0.2-0.1h0.2h0.2l0.7-0.6l0.5-0.6l0.3-0.2l0.3-0.1h0.2
	l0.5,0.2l0.5,0.1l0.2,0.1v1.1v0.3l-0.1,0.1v0.1v0.1l0.1,0.1l-0.2,0.1l-0.5,0.4v-0.1l0-0.1v-0.1v-0.1l-0.6,0.2l-0.3,0.1l-0.2,0.1l0,0
	h-0.1v0.2v0.1h0.2l0,0v0.2v0.1h0.1h0.3l0.9-0.3l0.8-0.5h0.3v0.1l-0.1,0.1v0.1l0.8-0.4l0.4-0.1l0.3-0.1h0.1h0.6l0.3-0.1l0.5-0.3
	l0.5-0.1l1.6-0.5h0.2l0.1-0.1l0.1-0.1l0.1-0.1l0.1,0.1l0.2,0.1h0.1l0.3-0.2l2-0.7l1.3-0.7l-0.2-0.1l-0.2-0.1l-0.2-0.1h-0.1l-0.1-0.1
	l-0.1-0.1l-0.1-0.1l0,0V564v-0.1h-0.1h-0.1h-0.1l-0.5-0.1l-0.2-0.1l-0.3-0.3l-0.3-0.1l-0.1-0.1l0-0.1l-0.1-0.4l0.1-0.3h0.1l0.1,0.1
	l0.1,0.3v0.2l0.3,0.3l0,0l0.1,0.2h0.3h0.6l0.9,0.8l0.6,0.3l0.4-0.2h-0.2l-0.1-0.1l-0.1-0.1l-0.1-0.1l0.3-0.2l0.7-0.8v-0.2l0.1-0.3
	l0.1-0.6l0.1-0.1l0.2-0.2l0.3-0.1l0.6-0.2l0.6-0.2l1.1-0.7l0.5-0.4l-0.4,0.3l-0.2,0.1l0-0.2l0.1-0.1l0.2-0.2l0.2-0.1h0.2l0.2-0.2
	l0.3-0.5l0.2-0.5l-0.2-0.3l-0.1,0.3v0.2v0.2l-0.2-0.1l-0.2,0.1l-0.2,0.2l-0.3,0.2v-0.8l0.1-0.4l0.2-0.4l0.3-0.3l1.9-1.5l0.7-0.2
	l0.3-0.3l0.3-0.3l0.2-0.3l-0.1,0.1l-0.2,0.1l-0.3,0.1l-0.1-0.1l0,0h-0.1h-0.1l-0.1-0.1H751h-0.1h-0.2l0.1-0.2h0.2h0.2l0.2,0.1
	l0.1-0.1v-0.1v-0.1l-0.1-0.1l-0.1-0.2l-0.1-0.1h-0.3l-0.6,0l-0.3-0.1l-0.1-0.2l0.5-0.1h0.3l0.2,0.1l0.2-0.3l-0.2-0.6l-1.4-3.2
	l-0.1-1.3l0.4-1.1l0.6-1l1.8-2l0.6-0.5l1.1-0.6h0.1h0.3h0.1l0.1-0.1l0.5,0.1l0.6-0.1l0.8-0.3l0.8-0.3h0.1l1.8-0.5h0.3h0.5l0.3-0.1
	l0.7-0.5l1-0.5l0.4-0.3l0.3-0.3v-0.1v-0.1l0-0.1l0,0h0.1l0.5-0.4h0.1l0.2-0.1l0.2-0.2l0.6-1.4l0.2-0.3v-0.1v-0.2l0-0.2v-0.1l0.1,0
	h0.5l0.3-0.2l0.4-0.3l0.3-0.4l0.1-0.4l-0.2-0.5l-0.4-0.3l-0.5-0.2l-0.5-0.1h-0.4l-0.2-0.1l-0.2-0.2l-0.3-0.4l-0.2-0.2l-0.1-0.2
	l-0.2-1.1l-0.2-0.6l-0.2-0.3v-0.1h0.3l0.2,0.2l0.1,0.3v0.3v0.2l0.2,0.5v0.3l0.1,0.2l0.2,0.2l0.3,0.3l0.2,0.2h0.2l0.2-0.1l0.2-0.2
	v0.3l0.5,0.2l0.6,0.2l0.4,0.2l0.1,0.2l0.1,0.7l0.1,0.3l-0.2,0.3l-0.5,0.7l-0.1,0.2l-0.1,0.2v0.2l0.2,0.7v0.1v0.1l0.6,1.1l0.1,0.2
	l0,0l0.1,0.4l-0.1,0.3l-0.2,0.3l-0.1,0.3v0.3l0.1,0.3l0.2,0.5l0.2-0.1l0.2,0.2l0.1,0.3v0.3h0.1h0.2h0.2h0.1l0.1-0.1h0.1l0,0v-0.1
	v-0.1l-0.2-0.2l0-0.1v-0.2l0.1-0.3v-0.2v-0.3l-0.4-1.3v-0.3h0.2l0.2,0.2l0.1,0.2v0.3v1.5l0.1,0.3l0.2,0.1l0.2-0.1l0.1-0.3v-0.2v-0.2
	v-0.1l-0.2-0.3v-0.1v-0.1l0.1-0.1l0.1,0.1v0.2l0.1,0.1l0.1,0h0.1l0.2-0.1h0.2l-0.1,0.4v0.5l0.1,0.4h0.2l0.2-0.2l0.2-0.1l0.2-0.1
	l0.2-0.3l0-0.3v-0.2l-0.2-0.4V541v-0.3l0.1-0.2l0.1-0.3l0.1-0.3l0.1-0.1h0.1h0.1v-0.2v-0.3l-0.2-0.5v-0.3l0.1-0.3l0.1-0.2l0.1-0.2
	v-0.3l0.2,0.2v0.3l-0.2,0.5l0.3,0.3l0.2,0.4v0.4l-0.3,0.4l-0.1,0.3l0.1,0.4l0.3,0.7l-0.1,0.1l0,0.2v0.2v0.2v0.2l-0.1,0.1l-0.1,0.1
	l-0.1,0.1l-0.1,0.3l0.1,0.3l0.2,0.1l0.4-0.1l-0.1-0.1l-0.1-0.2v-0.2l0.1-0.1l0.1,0.2l0.2,0.1h0.2l0.1-0.2v-0.7l0.2,0.2l0.1-0.3
	l-0.1-0.9h0l0.2,0.1l0.1-0.2l0.1-0.3v-0.3l-0.1-0.4h-0.3l-0.3,0.1h-0.2v-0.9v-0.3l0.4-1.1v-0.2v-0.6l0-0.2l0.2-0.3l0.1-0.2v-0.2
	l-0.1-0.3v-0.3v-0.1v-0.1l0.1-0.1l0.1-0.3l0.1-0.2v-0.1l0,0l0.1-0.2l0.1-0.2v-0.1h0.3v0.3l-0.1,0.3l-0.2,0.2l-0.2,0.6v0.2l0.1,0.3
	v0.4l0,0.2v0.2l-0.1,0.2l-0.2,0.3l0,0.1v0.2l0.1,0.1l0.2,0.1h0.2l0.1,0l0.2,0.1l0.1-0.1l0.1-0.2v-0.2l0.3-0.5l0.1-0.3l-0.2-0.2
	l-0.2-0.1l-0.1-0.2v-0.2l0.1-0.2l0.1-0.2l0.2-0.2l0.2-0.1h0.2l-0.4,0.4l-0.2,0.2l-0.1,0.2l0.1,0.2l0.5,0.3l0.1,0.3l-0.1,0.2
	l-0.1,0.2l-0.2,0.1l-0.1,0.2l-0.1,0.2v0.7l-0.3,0.8v0.2l0.1,0.2l-0.2,1.5v0.3l0.4,0.9l-0.2,0.4l0.3,0.3l0.4,0.1l0.3-0.2l0.1-0.2
	l-0.1-0.2l-0.1-0.2l-0.1-0.3v-0.1V542l0.1-0.1h0.1l0.1-0.1v-0.1l0.1-0.3l0.1,0.2v0.1v0.1l0,0l-0.2,0.2l0.1,0.2l0.2,0.1l0.3-0.1
	l0.2-0.2v-0.2l-0.2-0.4l-0.1-0.2v-0.2l0.2-0.4v-0.3h0.1l0.1,0.3l0.1,1l0.1,0.1l0.1,0.1l0.1,0l0.5,0.1l0.5,0.4l0.3,0.2h0.2v-0.1
	l0.1-0.2l0.1-0.1v0.1v0.1l0.1,0.1h0.1h0.1l0.2-0.1l0.1-0.2v-0.5v-0.1l-0.2-0.4l-0.3-0.3l0-0.1l-0.2-0.5l-0.2-1.1l-0.3-0.4l-0.3-0.3
	l-0.2-0.1l-0.2-0.1l-0.2-0.1l-0.2-0.3l-0.1-0.3l0.1-0.2h0.2l0.1,0.2v0.3l0.1,0.1l0.2,0.1l0.4,0.3l0.2,0.1v-0.3l0.1-0.1h0.1l0.2,0.1
	l0.3-0.2l0.1-0.4l-0.1-0.9v-0.2l-0.2-0.3v-0.2v-0.2l0.1-0.2v-0.2l-0.1-0.2l0.2,0.1l0,0l0.2-0.3v-0.3l-0.1-0.3l-0.1-0.2l-0.5-0.7
	l-0.1-0.3l0.2-0.1l-0.2-0.4l-0.1-0.2l-0.2-0.7v-0.1v-0.1l0.1-0.2v-0.1l-0.1-0.3l-0.2-0.5l-0.1-0.5l-0.2-0.1l-0.4-0.2l0.3-0.2
	l0.1-0.3v-0.4l-0.1-0.3l-0.2-0.3l0-0.3v-0.2l-0.2-0.4V527l0.1-0.2l0.1-0.2l0.1-0.2l0-0.2V526v-0.3v-0.2l-0.1-0.1l-0.3-0.1l-0.2-0.2
	l-0.3-0.7l-0.1-0.2l-0.2-0.3v-0.2v-0.3l0.1-0.4v-0.7l0.2-0.3l0.7-0.7l0.3-0.3l0.1-0.1l0.1-0.1v-0.1l-0.1-0.1h-0.3h-0.1h-0.1
	l-0.9-0.3H774h-0.2l-0.1,0.1l-0.1,0.1l-0.1,0.1h-0.1l-0.8-0.3l-0.2-0.2l-0.1-0.3v-0.3l0.1-0.3l0.3-0.5l0.6-1.6v-0.3l-0.2-0.1
	l-0.2,0.1l-0.2,0.2l-0.2,0.1l-0.2-0.4l-0.1-0.1l-0.4-0.3l-0.2-0.2l-0.3-0.5l-0.2-0.2h-0.1h-0.3h-0.1l-0.1-0.1v-0.1l0-0.1v-0.2h-0.1
	h-0.1l-0.1-0.1v-0.2l0.3-1.3v-0.3l-0.1-0.2v-0.1l0.1-0.2l0.2-0.3l0.1-0.2v-0.1V512v-0.1v-0.1l0.2-0.2h0.3h0.3l0.3,0l0.2-0.1l0.5-0.5
	l0.1-0.2v-0.2v-0.3l-0.1-0.3l-0.1-0.2l0.2-0.3l0.2-0.2v-0.1l-0.3-0.1v-0.2l-0.2-0.2l-0.1-0.2v-0.1l0.1-0.3V508l-0.1-0.3v-0.1
	l0.1-0.2l0.1-0.1l0.3-0.1l0.2-0.1l0,0V507l0.1-0.2l0-0.1l0,0v-0.2l0,0l-0.1-0.5l-0.3-0.4l-0.4-0.3l-0.3-0.1l-0.1,0.3l-0.2,0.3h-0.3
	l-0.6-0.2H770l-0.3-0.1l-0.9-0.8l-3.3-1.8l-0.4-0.1v-0.1l-0.1-0.2l-0.1-0.1l0,0v-0.1v-0.7v-0.1l-0.2-0.2l-0.1-0.3l-0.2-0.1l-0.3-0.1
	l0.1-0.4l0.1-0.3l0.2-0.3l0.1-0.6l0.1-0.1h0.2l0.1-0.1V499v-0.2l0.1-0.1h0.2l0.1-0.3l0.2-0.2l0.1-0.2v-0.3l-0.2-0.5l-0.1-0.1
	l-0.1-0.1v-0.1l0.6-0.3l0.2-0.1h0.3l0.2,0.1l0.2,0.2l0.1,0.3v0.3h0.2l0.5,0.1h0.2l0.1-0.1l0.2-0.4l0.4-0.6l0.2-0.3V496l0.3-0.4
	l0.2-0.4l0.1-0.9v-0.8l0.1-0.2l0.4-0.1l0.2,0l0.4,0.2l0.3,0.1h0.1h0.1h0.1l0.1-0.1l0.2-0.2l0.1,0h0.5l0.4,0.1l0.8,0.3l0.8,0.1
	l0.1-0.1l0.1-0.3l0.1-0.1h0.1h0.1l0.1,0l0.9,0.3h0.3l0.2-0.4h0.2V493v-0.2v-0.2l0.1-0.2l0.5-0.3l0.1-0.1v-0.1v-0.1l-0.1-0.1h-0.6
	l-0.3,0l-0.2-0.2l-0.1-0.1H775h-0.1l-0.1-0.1l-0.3-0.4v-0.2v-0.1v-0.1l-0.1-0.1v-0.2l0.2-0.5v-0.3l-0.1-0.2l-0.2-0.1l-0.2-0.2
	l-0.1-0.1l-0.4-0.2v0.2l-0.1,0.1h-0.1h-0.1h-0.1L773,489l-0.1,0.1l-0.1,0.1h-0.2l-0.3-0.1l-0.4-0.3l-0.3-0.1h-0.5l-0.3-0.1l-0.1-0.1
	l-0.1-0.2l-0.3-0.3l-0.1-0.3l-0.5-0.2l-0.2-0.2l0-0.9l-0.3-0.4l-0.9-0.6l-0.8-0.9l-0.4-0.2l-0.6,0.2l-0.2,0.1l-0.3,0.1h-0.2
	l-0.2-0.2l-0.1-0.3l-0.1-0.1l-0.2-0.2v-0.3l-0.1-0.2l-0.1-0.6V483h0.1l0.1-0.1l0.2-0.8l0.3-0.5l0.3-0.3l0.1-0.3v-0.2l-0.1-0.1
	l-0.1,0v-0.1v-0.2v-0.1l0.1-0.5l0.1-0.2l0.4-0.3l0.1-0.1l0.1-0.1l0.1-0.1l0.1-0.1h0.3l0.7-0.3l0.2-0.1l0.1-0.2v-0.5l0-0.2l0.2-0.3
	l0.2-0.2l0.6-0.4l0.1-0.1l0.1-0.1l0.1-0.1l0.1,0.1h0.1h0.3h0.1h0.3v-0.4l-0.3-0.8l-0.2-0.3l-0.3-0.2l-0.7-0.1l-0.3-0.1h-0.1v0.1v0.3
	l-0.1,0.1l-0.2,0l-0.1-0.2V475l0.1-0.2l0,0l0.2-0.3l0.3-0.9l0.1-0.2l0.2-0.3l0.2-0.2l0.1,0.1v0.3v0.3v0.3l0.2,0.2l0.5,0.1l0.2,0.1
	l0.2,0.2l0.2,0.1l0.1,0.2l0.1,0.1l0.3,0.2l0.3,0.1h0.4l0.2,0.1l0.1,0.1l0.1,0.2l0.1,0.1l0.1,0.1l0.1,0.1l0.3,0.1l-0.1,0.1v0.1v0.1
	h0.1h0.1v0.3l0.1,0.1l0.3,0.2l0.2,0.1v0.2l-0.1,0.3l-0.2,0.1l-0.5,0.2l-0.1,0.1l0.2,0.2l1.1-0.4l0.5,0.2l0.1,0.2l0.1,0.2l0.1,0.2
	l0.2,0.1l0.2-0.1l0.2-0.5l0.3-0.2l0.3,0.1l0.5,0.6l0.4,0.1l0.6-0.1l0.3-0.2l-0.1-0.3h-0.1h-0.2l-0.1-0.1l0-0.3l-0.1,0.1h-0.1h-0.1
	l-0.1-0.1l-0.1-0.4l-0.3-0.2l-0.4-0.1l-0.3-0.3v-0.2l0.1-0.3l0.2-0.2l0.2-0.2l0.2-0.1h0.1l0.1,0.1l0.2,0.2l0.1,0.1l0.2,0.2l0.1,0.1
	l0.1,0l0.3,0.1l0.1,0.1l0.1,0.2v0.1v0.1l0.2,0.1l0.3,0.1l0.1,0.1v0.2l-0.1,0.1l-0.2-0.1h-0.2v0.4l0.1,0.2l0.3,0.4l0.1,0.2l0.1,0.9
	l0.1,0.3l0.2,0.2l0.8,0.4l0.2,0.1l0.1,0.2l0.1,0.3l0.1,0.1l0.5,0.2l0.3,0.3l0.2,0.2l0.3,0.1h0.2l0.2-0.1l0.2-0.1h0.2l0.2,0.3h0.1
	h0.1h0.1l0,0l0.7-0.1h0.1h0.1h0.1l0.2,0.3l0.1,0.2l0.1,0.1h0.2l0.1-0.1v-0.2v-0.2l0.1-0.4l0.6-0.5l0.1-0.2l-0.1-0.2h-0.2h-0.2
	l-0.1-0.1v-0.2l0.1-0.1l0.2-0.1l0.1-0.1h-0.2l-0.2-0.1l-0.1-0.2l0.1-0.3l0.1-0.1h0.1h0.1l0.3,0.1v-0.1l-0.1-0.2v-0.4l0.1-0.1
	l0.3-0.1h0.2l0.1,0.2v0.6v0.1l0,0l0.2,0.1h0.1h0.3h-0.1l0.2,0.1l0.1,0.2l0.1,0.2l0.1,0.2l0.2,0.2v0.2v0.2v0.2l0.1,0.1l0.3,0.3
	l0.1,0.2l0.1,0.1h0.1h0.1l0.1-0.1l0,0l0,0l0,0l0,0l0.2,0.2v0.2l-0.2,0.2l-0.3,0.1l0.2,0.2h0.2l0.1,0.1l-0.1,0.3l-0.5,1v0.3l0.2,1.3
	l0.3,0.7l0.1,0.5l-0.1,1v1.1l-0.2,0.7l-0.1,0.4v0.1l0,0.4l0,0.5l0.1,0.5l0.1,0.3h0.2l0.5-0.2h0.5l2.8,1.2l2,0.4l1,0.4h0.5l1.3-0.3
	l1,0.1l0.5-0.1h0.2h0.1l0.3,0.1l0.5,0.1h0.1h0.1l0.1-0.1h0.1h0.2l0.2,0.1l0.2,0.1l0.2,0.1h0.4l1.4-0.2h0.1l0.4-0.1l2-0.3h0.7h0.2
	l0.3-0.1h0.1l0.6,0.3l1.9,0.6l0.5,0.1h0.1l0.3-0.1h0.1h0.2l0.2-0.2h0.1h0.2l0.1,0.1l0.1,0.2l0.2,0.2h0.2h0.3h0.3l0.1-0.1l0.1-0.2
	h0.1l0.2,0.1h0.1l0.1-0.1l0.1-0.2l0.1-0.1h0.2l0.6,0.1l1.3-0.2l0.7,0.1l0.2-0.1l0.3-0.1h0.4l0.4,0.1l0.3,0.1l0.1,0.1l0.1,0.2
	l0.1,0.1h0.1h0.2l0.1,0.1h0.1l0.2-0.1h0.1l0.1,0.1l0.2,0.2l0.2,0.2l0.2,0.1l0.2,0.1l0.2,0.1l0.7,0.1l0.1,0.1l0.2,0.3l0.4,0.2
	l0.3,0.2l0,0.3v0.1l0,0h0.1l0.2,0.1l0,0l0,0l0,0l0.4,0.3l0,0l0.1,0.1l0,0v0.1l0,0l-0.1,0.1l0,0l0.3,0.1l0,0l0.1,0.1l0.1,0.2l0,0v0.2
	v0.2l-0.2,0.3l-0.5,0.1l-0.8,0.3h-0.1h-0.1l0,0l0-0.1l0,0v-0.1l0,0l-0.8-0.5l0,0l-0.5-0.2l-0.4,0.2l-0.1,0.2v0.3l0,0l0.2,0.4l0,0
	v0.2v0.2v0.2l-0.6,1.8l-0.1,0.5l-0.1,0.5l-0.1,0.2l-0.1,0.2l0,0l-0.1,0.1l-0.2,0.1l-0.2,0.2l-0.1,0.3l0.1,0.8v0.4l-0.3,0.3l-0.3,0.2
	h-0.4l-1-0.1v0.2l0.3,0.5v0.2l-0.2-0.1l-0.3-0.2l-0.1-0.1l-0.3,0.1v0.3l0.1,0.5v0.3l-0.3,1.2l-0.1,0.2l-0.2,0.1l-0.3-0.1l-0.4-0.4
	v-0.1v-0.3v-0.1h-0.1l-0.8-0.2l-0.1,0.2v0.3l0.1,0.3v0.2l-0.1,0.2l-0.2,0.1h-0.3l-0.2-0.2l-0.1-0.2l-0.2-0.6l-0.1,0l-0.1,0.2
	l-0.1,0.9l-0.1,0.3l-0.1,0.2l-0.2,0.1l-0.3,0.1l-0.5,0.1h-0.5l-1-0.2h-0.5l-0.2,0.3v0.5l-0.1,0.6l-0.2,0.1h-0.1h-0.1l0,0h-0.2
	l-0.2,0.1l-0.2,0.2l-0.1,0.2l-0.4,0.8l-0.3,0.4v0.2l0.1,0.3l0,0.2v0.3l-0.3,0.8l-0.1,0.2l-0.2,0.1H804l-0.2,0.1l-0.1,0.3l0,0.3
	l0.2,0.1l0.2,0.1l0.1,0.2l-0.1,0.2h-0.2h-0.2v0.3l0.1,0.2l0.4,0.7l0.1,0.3l0.1,0.5l0.1,0.2l0.1,0.1l0.2,0.1l0.1,0.1v0.1l0.1,0.3
	l0.2,0.6l0.1,0.3l0.2,0.1h0.2v0.1l0,0.1l-0.1,0.1l-0.1,0.1v0.1l0.1,0.1l0,0.1l0.3,2.2l0.2,0.6l0.3,0.4l0.4,0.1v-0.5l-0.2-1.2v-0.6
	l0.1-0.3l0.1-0.2h0.3l0.3,0.2l0.2,0.3l0.1,0.2l0,0v-0.1l0,0l0.1,0.1v0.2l0.2,0.2l0,0l0.1,0.4l0.1,0.1l0.3,1l0.1,0.3l0,0h0.1v0.1v0.4
	l0.1,0.1l0.2,0.2l0.2,0.1h0.2l0.2,0.1l0.1,0.2v0.3l0,0l0.2-0.1l0.1-0.1l0-0.1l0.1-0.1l0.1-0.1h0.1h0.1h0.1h0.1l0.2-0.1l0.3-0.1
	l0.2-0.1l0.1-0.1l0.2-0.2l0.1-0.1l0.2-0.3v-0.2h0.1h0.2l0.2-0.2l0.1-0.1V522l-0.2-0.4l-0.2-1l-0.2-0.4l-0.1-0.6l0.2-0.7l0.4-0.6
	l0.3-0.5l0.2-0.2l0.7-0.3l0.2-0.2l0.4-0.1l0.3-0.5v-0.5l-0.3-1.6V514v-0.3l0.1-0.2h0.2l0.2,0.2l0.2,0.3l0.5,0.6l0.2,0.1l0.3-0.1
	l0.2-0.2l0.4-0.6l0.2-0.2l0.5-0.2l0.3,0.4l0.1,0.5l0.2,0.2l0.2-0.2l0.2-0.6l0.2-0.1l0.3,0.1v0v0.3l-0.1,0.6v0.5l0.5,1.6l0.1,0.7
	l0.1,0.2l0.1,0.1l0.2,0.2l0.1,0.1v0.1v0.2v0.1l0.1,0.1l0.2,0.1v0.1v0.1v0.3v0.1l0.1,0.2l0,0.1v0.1l-0.1,0.2l-0.2,0.5v0.2v0.5l0.3,2
	v1l0.1,0.5l0.2,0.4l0.4,0.2l0.2,0.2l0.1,1.1l0.1,0.4l0.2,0.2l0.3,0.3l0.1,0.2l0.1,0.2l0.1,1v0.8l0,0.2l0.2,0.4v0.2l0.7,4.4v0.3
	l-0.2,0.1h-0.2l-0.2,0.1l0.3,0.9l0.2,0.9v0.1v0.1h0.1l0.1-0.1l0.1-0.1l0.1-0.1l0.2-0.2h0.2h0.2l0.1-0.1l0.1-0.2v-0.2v-0.2v-0.2
	l0.1-0.3l0,0h0.1h0.1v-0.2v-0.4v-0.2l0.1-0.1l0.3,0.1l0.8,0.6l0.8,0.8l0.2,0.3l0.1,0.4l0.1,0.4l0.1,0.1l0.2-0.1l0.1-0.4l0.1-0.3
	l0.2-0.1l0.2,0.1l0.2,0.2l0.1,0.1h0.1h0.1l0.1,0l0,0l0,0v-0.2V537v-0.1l-0.1-0.2v-0.2v-0.2l0.2-0.5l0.1-0.1h0.2l0.2-0.1v-0.1v-0.9
	v-0.1v-0.1l0.2-0.1h0.1l0.3,0.1l0.2,0.1l0.2,0.1l0.2,0.1l0.3-0.1l-0.2-0.4v-0.2l0,0h0.1l0.3-0.1h0.1l0.1-0.1l0.1-0.2v-0.1l-0.1-1.6
	l-0.2-0.6l-0.5-0.5l-0.1-0.2l-0.1-0.4V530l0.1-0.5v-0.3l-0.1-0.3l-0.3-0.5l-0.1-0.3v-0.3l0.1-1.1l0.4-0.6h0l0.1-0.3l0.5-0.5l0.2-0.3
	v-0.3l-0.1-0.3l-0.3-0.5l-0.1-0.3l-0.1-0.4v-0.4l0.2-0.3l0.3-0.1l0.2,0.1l0.2,0.2l0.2,0.3l0.3,0.2h0.3l0.3-0.2l0.2-0.2l0.2-0.3
	l0.5-1.1v-0.2v-0.2v-0.2l0.1-0.9v-0.6v-0.2l0.1-0.2l0.3-0.3v-0.1v-0.1v-0.2l-0.1-0.8v-0.4l0.4-2.7V514l-0.1-0.1l-0.2-0.3l-0.1-0.1
	l-0.4-0.3l-0.2-1.6v-0.5v-0.2l0-0.1l-0.1-0.1l-0.1-0.1l-0.3-0.5l-0.1-0.2l-0.1-0.2v-0.3v-0.3l0.1-0.3l0.2-0.2l0.3-0.1l0.3,0.2
	l0.4,0.6l0.1,0.2l0.4,0.4l0.1,0.2v0.2l0.1,0.1h0.2h0.3l0.4-0.2l0.2-0.1h0.1l0.1,0.1l0.1,0.1h0.1l0.1-0.1l0.1-0.1v-0.1v-0.1l0.3-0.2
	h0.6l0.6,0.1l0.4,0.2l0.5,0.7l0.3,0.1l1-0.1l0.4,0.1l0.4,0.1l0.4,0.1l0.3,0.1l0.7,0.4l0.2,0.2l0.2,0.3l0.2,0.2h0.2l0.2-0.2l0,0v-0.3
	v-0.6l0.1-0.3l0.6-0.8v-0.2l0.1-0.5l0.1-0.1l0.1-0.2l0.1-0.2V508l0.2-0.5l0.6-1.5l0-0.2v-0.5l0.1-0.2l0.1-0.1l0.3-0.2l0.1-0.1v-0.1
	v-0.2v-0.1l0.1-0.2l0.2-0.1l0.1-0.2v-0.6l0.1-0.2l0.1-0.1l0.2-0.1l0.2-0.7l0.1-0.2l0.2-0.2l0.6-0.4l0.2-0.3l0.3-1l0.1-0.2h0.2h0.2
	h0.2l0.2-0.1l0.2-0.2l0.1-0.2l0-0.3v-0.2l0.1-0.4l0.5-0.7l0.2-0.4l0.2-1.2l0.2-0.3l0.2-0.4l0.1-0.6l-0.1-0.6l-0.2-0.4l-0.5-0.2
	l-0.5-0.1l-0.5-0.2l-0.3-0.4v-0.6l0.7-2.1l0.3-0.5l0.3-0.3l0.1-0.1l0.7-0.3l0.2-0.1l0.4-0.1l0.2-0.1l0.2-0.2l0.3-0.5l0.2-0.2l0.1,0
	h0.3l0.1-0.1v-0.1l-0.1-0.1v-0.1l0,0l0.1-0.1v0l1.1-1.7l0.1-0.1h0.1h0.3l0.1-0.1l0.1-0.3v-0.3l-0.3-1.5v-0.5l0.1-0.3l0.2-0.1
	l0.5-0.2l0.2-0.1l0.5-0.6l0.4-0.5l0.1-0.3v-0.3l-0.2-0.2l-0.5-0.1l-0.2-0.2l-0.1-1v-0.1l0.1-0.1l0.1-0.1v-0.1l-0.1-0.1h-0.1h-0.1
	l-0.1-0.1l-0.2-0.4l-0.1-0.6v-0.6l0.1-0.4l0.2-0.5v-0.2l-0.1-0.3l-0.2-0.5v-0.2l0.2-0.3l0,0l0.2-0.2l0.4-0.4l0.1-0.2l0.1-0.2v-0.1
	v-0.1v-0.4v-0.1l0.1-0.1h0.1l0.3-0.1l0.1-0.1l0.1-0.1l0.2-0.3l0.1-0.1h0.2l0.2,0.3h0.1h0.2l0.2-0.1l0.5-0.2l1-0.3l0.2-0.1l0.4-0.5
	l0.3-0.6l0.3-0.5l0.5-0.1h0.3h0.3l0.2-0.1l0.2-0.3l0.1-0.3l0.1-0.2l0.2-0.1l0.6-0.1l0.2-0.1l0.1-0.2l0.3-0.6l0.5-0.7l0.3-0.1
	l0.7-0.1l0.3-0.2l0.3-0.3l0.3-0.4l0.5-0.9l0.5-0.7l0.8-0.6l0.9-0.4l3.3-0.6h0.8l0.2,0.1h0.3l0.3-0.1l0.2-0.1l0.3-0.3l0.1-0.2
	l0.1-0.1l0.3,0.1l0.1,0.1l0.1,0.1h0.1h0.2l0.1-0.1l0.2-0.2l0.2-0.1h0.2l0.2,0.1l0.4,0.2l0.2,0.2l0.2,0.2l0.3,0.5l0.2,0.2l0.4,0.3
	l0.1,0.1l-0.1,0.3l-0.1,0.2v0.2l0.3,0.2l1.7,0.8l0.1,0.1l0.1,0.1l0.1,0.1l0.1,0.1h0.1l0.1-0.1l0.1,0h0.1l0.2,0.1l0.1,0.1l0.1,0
	l0.2-0.1v-0.1l0.1-0.4v-0.1l-0.1-0.2l-0.1-0.1l-0.1-0.1l-0.1-0.1v-0.1v-0.3l-0.1-0.1l-0.3-0.4l-2-2.7l-0.3-0.5l-0.1-0.3l0.2-0.4
	v-0.2l0-0.1v-0.3V460v-0.1l-0.1-0.2v-0.2v-0.3l0.1-0.3l0.2-0.2l0.2-0.2l0.5-0.3l0.2-0.2l0.4-0.5l0.2-0.1l0.4-0.1l0.2-0.1h0.1l0,0
	v-0.2v-0.2l0.1-0.1l0.3-0.1l0.1-0.1l0.1-0.2l0.1-0.1h0.1l0.1-0.1l0.6-0.6l0.2-0.2l0.2-0.2l0.2-0.2l0.2-0.1l0.2-0.1h0.2l0.2,0.2v0.2
	v0.1l0.3-0.1l0.2-0.1l0.1-0.1v-0.2v-0.3l0.1-0.2l0.2-0.4l0.1-0.2l-0.1-0.4L881.7,452.4z M651.4,705.3L651.4,705.3h-0.2v0.1
	L651.4,705.3L651.4,705.3l0.1,0.1h0.1L651.4,705.3L651.4,705.3z M657.5,706.6v0.1l0,0V706.6L657.5,706.6z M765.7,539l-0.4,0.7
	l-0.5,1.4l-0.1,0.3v0.2v0.1l0.1,0.2l0.2,0.1h0.4l0.3,0.1h0.1l0.1-0.1l0.1-0.2v-0.2l-0.2-0.4l0.4-0.3l0-0.8l-0.3-1.4L765.7,539z
	 M675.4,619.9l-0.4-0.3l-0.6-0.4l-0.1,0.1l-0.1,0.4l0.6,0.8l0.3,0.2l0,0l0.4-0.1l0.2-0.2l0-0.1l-0.1-0.1L675.4,619.9z M658.7,706.9
	l-0.2,0.1L658.7,706.9L658.7,706.9l0.3,0.1l0,0L658.7,706.9z M765.5,539l0.3-0.4l0.1-0.4l-0.2-0.3h-0.2l-0.1,0.1l-0.1,0.2l-0.1,0.2
	l0,0.2v0.3v0.2l0.1,0.1L765.5,539z M772.4,538.1l-0.2,0.1l-0.3,0.3l-0.2,0.4l-0.2,0.4v0.1v0.1l0.1,0.2v0.1h0.1l0.5,0.2l0.1,0.1v-0.7
	l0.1-0.3l0.2-0.3l0-0.2l-0.1-0.2L772.4,538.1z M775.5,542.8l-0.2-0.1l-0.2-0.1l-0.4-0.3l-0.1,0.5l0.1,0.6l0.3,0.1l0.2-0.1h0.2h0.2
	l0.1-0.2V543L775.5,542.8z"/>
<path class="st0" d="M313.2,441.1c35.1,0,63.5,28.4,63.5,63.5s-28.4,63.5-63.5,63.5s-63.5-28.4-63.5-63.5l0,0
	C249.7,469.6,278.1,441.2,313.2,441.1 M313.2,429.1c-41.7,0-75.5,33.8-75.5,75.5s33.8,75.5,75.5,75.5s75.5-33.8,75.5-75.5l0,0
	C388.7,463,354.9,429.1,313.2,429.1z"/>
<g>
	<line class="st2" x1="310.7" y1="434.5" x2="341.2" y2="352.2"/>
	<polygon class="st0" points="356.2,363.3 350.2,327.9 322.6,350.9 	"/>
</g>
<g>
	<line class="st2" x1="359" y1="561" x2="441.6" y2="590.7"/>
	<polygon class="st0" points="430.6,605.8 465.9,599.5 442.8,572.1 	"/>
</g>
<g>
	<line class="st3" x1="469.7" y1="547.2" x2="420.8" y2="531.2"/>
	<polygon class="st0" points="431.4,515.8 396.3,523.2 420.2,549.9 	"/>
</g>
<g>
	<line class="st3" x1="396.8" y1="364.9" x2="373.1" y2="410.6"/>
	<polygon class="st0" points="359.6,397.6 361.2,433.5 391.4,414.2 	"/>
</g>
<polygon class="st0" points="324.4,467.1 301.9,467.1 301.9,493.4 275.7,493.4 275.7,515.9 301.9,515.9 301.9,542.2 324.4,542.2 
	324.4,515.9 350.7,515.9 350.7,493.4 324.4,493.4 "/>
</svg>
