<svg id="Layer_1" data-name="Layer 1" xmlns="http://www.w3.org/2000/svg" viewBox="0 0 1077.32 894.3">
  <defs>
    <style>
      .cls-1 {
        fill: #fff;
      }

      .cls-2, .cls-3, .cls-4 {
        fill: none;
        stroke: #fff;
        stroke-miterlimit: 10;
      }

      .cls-2 {
        stroke-width: 8px;
      }

      .cls-3 {
        stroke-linecap: round;
      }

      .cls-3, .cls-4 {
        stroke-width: 12px;
      }
    </style>
  </defs>
  <title>Summit Logo - White</title>
  <g id="g1987">
    <path id="path1989" class="cls-1" d="M963.89,874.79c-32.84,8.8-67.89,11.63-99.78,22.5,54-46.31,50.94-118,87-172.53,11.48-15.45,21-31.64,34.35-46.29-21.92,44-12.42,101-37.6,143.7-9.7,17-23.56,33.4-38.89,46.71,5-.18,9.39-4.52,13.8-7.42,40.9-40.82,94.34-52.23,138.59-85.4,17.73-14.12,34-32.63,41.76-52.65-8.38,67.73-75.75,131.21-139.21,151.38Z" transform="translate(-61.34 -150.85)"/>
    <path id="path1991" class="cls-1" d="M1111.26,600.58c-20,28.48-44.23,55-62.72,83.94,2.06-22.92,4.78-51.1-4.15-72.8C1028.92,565,1015.33,517.51,1011,466.2l.6-19.62c11.64,52.4,63.11,88.41,59.86,147.18,1.18,14.24-3.22,26.35-5.89,38.88l.88.92,2.32-2.59c7.63-28.83,11.49-59.15,23.35-86,16.87-38.71,37.93-77.77,29.35-124.5,25.65,55.1,17.88,128.71-10.16,180.15Z" transform="translate(-61.34 -150.85)"/>
    <path id="path1993" class="cls-1" d="M1079.67,303.75c33.75,45.73,41.14,118.62,16.56,171.08A298.49,298.49,0,0,0,1077,545.36c-1.72-4.24-2.11-10-3.64-14.68-13.43-51.35-62-87.95-82-136.36-6.33-15.84-11.73-32.2-14.72-49.38,21.34,39.47,73.93,59.86,88.27,103.36,5.87,11,5.54,24.74,9.18,36.57a1.47,1.47,0,0,0,1.53-1.34c-6.31-44.81-4.38-91.71,1.7-136-.35-24-2.69-47.22-16-65.78,8.54,5,12.39,14.53,18.33,22Z" transform="translate(-61.34 -150.85)"/>
    <path id="path1995" class="cls-1" d="M1055.87,295c8.87,40.07-4.08,79.11,4.06,119.57l-.3.35c-21.8-42.88-68.09-63.11-99.94-97.43-18.46-20.36-26.48-45.18-31.1-71.45,18.25,44,67.49,53.69,95.76,90.76,9.46,8.55,12.55,20.39,18.65,30.08l1-1c-16.26-34.71-21.71-73.76-33-110.78-5.68-16-17-31.8-32.08-41.91,37.11,7.58,69.28,46.33,77,81.77Z" transform="translate(-61.34 -150.85)"/>
    <path id="path1997" class="cls-1" d="M956.65,203.05c28,25,40.59,57.41,48.75,91l4.62,10.65C969.45,275.5,932.6,236.28,906.7,194.85l-31.64-32c27.81,11.79,57.8,18.83,81.59,40.2Z" transform="translate(-61.34 -150.85)"/>
    <path id="path1999" class="cls-1" d="M315.94,168.16c-28,24.58-47.49,55.67-68.29,84.66C229,275.91,205.15,291.14,184,311c11.41-23.65,11.83-51.91,28-73.65,23-40.18,65.75-54.32,103.92-69.18Z" transform="translate(-61.34 -150.85)"/>
    <path id="path2001" class="cls-1" d="M162.59,253.77c13.64-17,30.93-28.74,50.38-33.72-37.78,26-35.32,72.47-47.3,111.13-3.82,14.3-10.45,27.47-13.75,42.13l1,.77c6.29-16.57,17.34-32.23,31.13-45.75,26.83-24.77,66.53-40.21,79.68-76.85-.61,50.92-43.08,91-83.73,119.57-16.76,14.7-32.92,31.46-42.15,50.37-.91-12.85,1.9-25.75,1-39.51-4.42-44.45-7.63-95.19,23.8-128.14Z" transform="translate(-61.34 -150.85)"/>
    <path id="path2003" class="cls-1" d="M86.14,405.76C85,360.72,103.7,324,130.05,290.39c.76-.39,1.31-1.15,2.29-1-29,44.07-5,99.58-6.33,149.69l-3.82,51.31c.56.37.56,1.91,1.91,1.32,1.71-5.72,2.09-11.83,3.23-17.71,6.83-41.39,42.77-70.75,74.16-99.35,6.71-7.48,12.63-15.07,16.08-23.85-2.57,20.6-9,41.39-17.57,60.44-24.44,47.65-69.57,86.74-77.81,141.29-4-52.27-39.6-91.36-36-146.8Z" transform="translate(-61.34 -150.85)"/>
    <path id="path2005" class="cls-1" d="M64.2,469.82c3.25-14.09,5.73-28.67,11.86-41.6C64.45,487.77,104.5,530.68,117.64,582.3c5.5,19.3,6.84,40,14.7,58.15.73.4,1.37-.37,1.82-1-19.56-54.83,8.68-105.78,37.06-148.71,6.9-11.63,10.87-24.59,14.3-38,3,24.82-3.26,53.39-6.86,79.16-6.9,32.78-17.2,63.87-26.16,95.68-5.9,19.88-4.35,42.31-1.32,63.13l-2.84-2.27c-20.81-38.36-62-68.28-74.23-110.19C64,544.93,57.35,506.22,64.2,469.82Z" transform="translate(-61.34 -150.85)"/>
    <path id="path2007" class="cls-1" d="M62.32,586.12c4.59,63.12,72.46,96.47,103.92,148.73,7.45,10.69,13.91,22.52,23.85,31.47-1.55-6.72-7.83-12.38-10.13-19.27-11-21.92-15-48-12.37-74.52,3-32.24,16.57-62.16,11.41-96.07,27.64,59.61,19.25,134,34.7,198.6,4.05,14.13,12.23,26.75,17.59,40.25C174.48,776.62,97,739.81,71.83,668.91,61.21,644.46,60,614.2,62.32,586.12Z" transform="translate(-61.34 -150.85)"/>
    <path id="path2009" class="cls-1" d="M96.25,731.07c31.67,71.64,111,77.58,164.18,121.21,9.78,8.67,20,16.05,31.09,21.19l.57-.57c-12.21-11-26.34-23.62-34.89-37.93-31.12-43.28-20.18-103.9-43.5-150.45,21.19,25.35,40.46,51.7,53.26,80.45,19,46.95,26.3,100,70.33,135.45-47.65-15.7-103.48-11.31-145.54-40.65-45.92-28.23-86.9-76.1-95.5-128.7Z" transform="translate(-61.34 -150.85)"/>
    <path id="path2011" class="cls-1" d="M177.65,864.73c50.78,57.75,133.76,38.48,201.4,53.6,9.55,1.3,18.3,5.13,28.42,3.57-8.06-5.1-19.25-4.55-28.05-9.18-53-18.63-60.8-76-89.58-114.74,36.77,24.42,67.69,57.36,101.61,89.27,24.38,21.36,53.74,31.22,84.66,37.5-7.43,2.72-17.17,2-25.15,4.06-55.56,13.67-117.29,36-176.21,16-38.31-12.06-77.83-42.35-97.1-80.09Z" transform="translate(-61.34 -150.85)"/>
    <path id="path2013" class="cls-1" d="M866.87,999.35c-57.22,21.35-116.94-1-161.63-34.87-18.1-11.5-34-28.06-57.45-26.6-8.49-.16-16.68.26-23.89,2.34,43.42,20.21,83.75,48.06,120.63,83.68-6.22,7.1-14.27,13.74-21.85,19.86-35.54-38.29-74.89-75.15-119-96.68-8.63,1.12-16.84,6.32-24.62,10.49-35.87,22.69-71.34,51.86-98,87.58l-22.92-18.92q54.87-55.5,121.29-86.38C536,926.08,507.59,962.51,474.57,981c-38.47,26.86-93.79,39.48-140.28,20.94-25-9.48-49.23-23.44-67.33-46.14C303.55,981,358,983.68,399.65,967.31c55.83-24.21,113.85-54.91,181.16-40.23,10.5.18,20.71,10.64,30.63,1.73,50-13,106.67-4.06,149.74,18.81l44.39,17.79c41.26,15.26,94.61,11,130-14.1-18.19,22.64-43,38.85-68.68,48Z" transform="translate(-61.34 -150.85)"/>
    <path id="path2015" class="cls-1" d="M928.19,940.22C864,964.48,799.31,934.7,737.75,924.75l-11.85-1.5v-.38c29.44-6.68,58-15.44,81.44-36.59,34.51-33.17,65.21-67.31,103.53-93.45-28.42,36.44-31.43,88.3-78.37,111.73-11.62,7.6-26.28,8.94-38.27,14.7,17.1.37,32.75-5.76,49.68-7.47,63-9.88,135,.25,179.12-53.37-16.39,37.37-57.45,68.66-94.84,81.8Z" transform="translate(-61.34 -150.85)"/>
    <path id="path2017" class="cls-1" d="M1044.92,759.46c-25.37,16.6-51.09,32-75.47,50.88V808c37.35-62.06,19.09-147.32,42.1-215.62l8.58-22.89c-4.8,42.55,13.68,78.6,12.39,121.29-1.3,25.8-9.72,48.66-23.26,69.26h2.29c18.3-24,32.59-49.59,54-72.48,33.19-32,66.94-64.82,71.29-109.24,11.28,74.15-30.33,139.14-91.89,181.12Z" transform="translate(-61.34 -150.85)"/>
  </g>
  <path class="cls-2" d="M969.18,524c0,203.89-165.29,369.18-369.18,369.18-174.7,0-321-121.34-359.38-284.34Q239.23,603,238,597a372.72,372.72,0,0,1-1.71-136.75q1.43-8.28,3.25-16.43c36.63-165.31,184.09-289,360.43-289,145.11,0,270.66,83.72,331,205.49q3.54,7.14,6.77,14.46A365,365,0,0,1,958.61,436c.17.68.34,1.37.5,2.06h0q.58,2.44,1.13,4.9a369.41,369.41,0,0,1,8.93,80,.24.24,0,0,1,0,.12C969.18,523.4,969.18,523.72,969.18,524Z" transform="translate(-61.34 -150.85)"/>
  <path class="cls-1" d="M356.57,377.43l.1,0,.13,0,.15-.08.13.07.12,0,.05-.34.12-.24-.13-.28-.28.11-.19.15-.29.12,0,.24Zm21.35,27.14-.22-.36-.14-.15.12-.17-.11-.15-.25.07.14.3.36.72.05-.07-.07-.11.09.06.1.17.21.14Zm6.62,18.58.19.2.08.3.2.06.16.07.17,0,.19.18.08,0,.09-.11.24-.13v-.22l-.25-.19-.21-.1-.27,0-.24-.12-.31-.16-.23-.13-.19.15.09.08Zm37.56,9.66-.11-.13-.11.07-.07.42.17.37.12-.13.16-.22.06-.09.18-.06.06-.14-.34-.12Zm13.24,14.59.11-.1.11-.14-.22.08Zm-2.47,0,.08.18.21-.17,0-.14-.16.07Zm13.36.86-.33.16-.17.09-.21.18-.16.07.08.1.19-.09.25,0,.26-.08.2,0,.16.05.17-.29,0-.06h.14l.08-.15.21-.13.07-.19-.48.27Zm-9.61.8-.22.17.15.12.19.06,0-.09h.11l.1-.08-.14-.13Zm6.49.69-.21.22-.1.3h0l.19-.11.26-.19.17-.13-.09-.06Zm-2.38.24.1-.05-.12-.11ZM427.24,297.88l.05-.08.07-.05.05-.44-.39.08-.08.09,0,.15-.08.13,0,.09v.49l.33.23.08-.51Zm12,151.5-.14-.09,0-.2,0-.25-.17,0-.23.16-.25.34-.06.21-.09.38-.09.17,0,.17h0l.37-.09.08,0,.11-.1,0,0,0-.14.45-.23,0-.2ZM412,309.28l.32-.15.25-1.23.17-.14,0-.16-.13-.12-.15,0-.43.12.09.55-.17.9Zm-46.17,65.24,0,1,.14.19.59.25.06.18.19.17.31-.17.09-.39,0-.24-.36-.37,0-.84-.19-.38-.32-.26-.19-.07-.06,0v.29l-.08.4Zm36.14,60.8.1.06.06-.07-.09-.05Zm143,13.3.24-.24-.17.08ZM350.33,332.69l0-1.14-.14-.32-.43.23-.12-.17-.11,0h-.12l-.16,0h-.91l-.46.1-.2.27.14.39.34.26.74.35.83.57.4,0ZM389.78,310l0-.23-.84-.38-.2.3-.21.42-.28.24.05.37.36.24.47.05.43.09.35.2.28,0V311l-.1-.1-.2,0-.25-.22,0-.39Zm.88-4.07,1-.15.47-.35-.13-.58-.64-.34-.73-.12-.4.11-.67-.34h-.66l-.65.23-.63.32-.08-.36-.14-.09-.18.12-.2.23-.11.36.14.28.17.24-.07.71.4.36.5.22h.28l.56.25.5-.21.84-.74Zm-42.09,15.35v-.68h-.16l-.37.3-.46.14-.25-.13.22-.51-.11-.26v-.41l.05-.43.07-.27v-.23l-.35-.06-.2-.22-.13-.24-.17-.16-.31,0-.32.06-2.18.81-1.72.33-1,.64-.83.87-.58.94v.2l1,.36.13.18.3.17.61.21.53,0,2.28-.36,1.11-.49,1.71-.26.57-.2Zm473.18,90.53-.21-.43-.15-.45-.23-.29-.92.14-.24-.26-.36-.91-.39-.3-.93-.08-.35-.2-.15-.52.33-.94-.1-.54h0l-.13-.65.05-.79.16-.78.23-.64-.1-.55-.56-.43-.52-.57.11-1,.21-.28.88-.7.25-.42,0-.29-.93-1.14-.63-.54-.71-.33-.69.08-.32.18-.41.15-.34,0-.19-.36v-.19l.11-.51,0-.16-.2-.15-.16,0-.18.06-.19-.06-.28-.37-.15-.39-.09-.37-.15-.29-.27-.2-.91-.43-.3-.1-1.64.2-.88-.15-.44-.7.1-.35.27-.33.21-.34v-.4l-.13-.45,0-.41.16-.39.22-.41h0l.23-.46.61-.69.22-.49.21-.67.24-.41.33-.26.48-.23.15-.21-.21-.6,0-.28.21-.18.45-.19.19-.25.17-.47.16-.63.08-.62-.11-1.54.72-.8.91-.72.57-.82,0-.51-.19-.5-.31-.44-.36-.3-.39-.15-.32.06-.83.49-1.27-.23-.37-.18-.23-.16-.08-.28.09-.53v-.29l-.08-.82v-.38l.33-1.29,0-.56-.23-1.63.12-1.28V371l-.17-.53-.19-.21-.2-.13L810,370l-.32-.17.08-.19.22-.23.11-.23-.12-.59-.13-.38,0-.41.1-.64.68-2.34-.12-.95-1.34-.64-.41-.4-.35-.49-.24-.72-.11-.25-.09-.24,0-.28,0-.29-.19-.2-.23-.18-.15-.23-.11-.5-.08-.22L807,359h0l.35-.6.41-.34.24-.39-.23-1.28.12-.51.51-1-.2-.79-1-.7-1.13-.59-.65-.5,0-.28.17-.59v-.29l-.31-.64-.09-.28v-.29l.06-.22v-.24l-.3-.64-.15-.69-.11-.32L804,347l-.16-.39.28-.4.51-.32.38-.14h.4l.57.07.58-.06,1.37-.37.61.07,1.74.87.65.05.55-.13,1.31-.59.49-.36.43-.65v-.59l-.09-.61.13-.73h0l.26-.38v-.39l-.08-.42-.06-.46.06-.54.11-.44.83-1.68.16-.42.06-.52-.13-1.07.12-.37,2.68-2.21.63-.18.39.27.68,1,.34.39,1.52.71.48.41,2.06,1.49-.28-.41-.29-1.24-.24-.41-.4-.66-1.55-2-.14-.26-.12-.1-.13,0-.28,0h-.13l-.47-.29-.91-1.06-.34.21-.09-.19v-.37l-.07-.32-.39-.28-.21-.22-.1-.29-.12-.49-.28-.48-.65-.73L815.25,327l-3.51-2-.93-.29H810l-1.52.41-.72.09-.52.16-.27,0-.22-.07-.31-.31-.25-.06-.54.14-.88.61-.41.14-3-.51-2.76-1.53-2.32-.66-1.16-.64-.33-.95.35-.32,1.15-.25.24-.43-.16-.37-.78-1-.27-.58.45-.36-.38-.91-1.13-1.46-.68-.64-.26-.52.17-.54.22-.37.4-1.34v-.22l-1-.88-.53-.6-.11-.43.87-1,.55-.37.6-.07-.08-.25,0-.09-.09-.14.16.06.11,0,.11,0,.15.12,0-.8.34-.68,1.07-1.26-.2-.75.16-.21.53-.93.07-.27-.14-2.3-.08-.56-.24-.62-1.05-1.68-.26-.66-.13-.76-.06-.67-.11-.63-.29-.66-.79-1-1-.83-1.08-.54-1.09-.16-.48-.46-.4-1-.22-1.07.11-.78.29-.87-.36-.78-.69-.64-.69-.4-.79-.22-.73.05-2.34.65-.36-.26-.61-1.49-.51-.58-.49-.06-.56.06-.69-.22,1.37-.7.37-.32.34-.49,0-.17-.74-.1-.79-.37-1.21-1.07-1.87-1.27-.36-.4-.76-1.42-.19-.23-.23-.09-.12-.13-.11-.15-.15-.15-.75-.25-.19-.11-.2-.38-.15-.42-.18-.22-.34.22-.62.71-.47-.15-.48-.53-.66-.39.22-.33.5-.43.2-.24.11-.3,0-.33.09-.34.19-.32-.47-.23-3.55-.31-1.27.11-.63.22-.52.39-.25.56-.24,1.38-.25.54-.55.58-.76,1.14-.53.35-.64,0-4.43-1.74-1.25.07-.6-.05-.42-.39-.37-.22h-.38l-.79.23-.36-.17-.36-.06-.36.06-.36.17-.9.28-1.8-.69-1,.41-.35.27-.79,1.13-1,.87-.24.14-.31-.13-1-.94-.33-.11-.74-.09-.29-.12-.11-.21V277l0-.25,0-.13h-.2l-.63.29-.76.06-.32-.07-2.68-1.12-.35.63L739,277.71l-.27.16-.09.75-.26.71-.39.6-.47.36-.32.11-.89.12-.27.1-.54.29-.64.24-2.38,2-.47.15-.65,0-.64.15-.52.38-1,1.05-.47.35-.57.29-.58.2-.54.08-.4.16-1,.67-.62.1-1.08-.39-.4-.07-.28.11-1.77,1.33-1.51,2-.3.21-.39.13-.79.1-.34.1-.95.83-.79.49-.71.21-.74-.08-.88-.39L710,294l-1.17.33-.59.4-.91.35-.58.13-.75.32-.43.07-1-.19-.73-.5-1.46-1.36-.62.06-1.59.55-.41.3-.49-.1-.44-.21L697.27,293l-.23-.07-.55,0-.28,0-.69-.5-.5.07-.52.25-.5.17-1-.2-1-.55-1.5-1.33-.64-.85-.37-.36-1.58-.38-.3.08-.15.11-.09.14-.15.14-1.36.81-.3.1-.51.1-.69.44-.42.15-.57-.09-.78-.66-.48-.16-.82-.07-.3.07-.64.54-.23.14-2,.46-2.89,0-.48.16-.41.36-.42.27-1.76.37-.56.2-.12.09-.09.19-.52.61-.3.09-.25.21-.22.23-.17.15-.27.06h-.49l-.25.14-.18-.2-.39-.55-.15-.14-.31,0-.82.25-.33.21-.93.91-.39.27-1.92.11-.28.23-.65-.06-.94-.28-1,.3h-.52l-1.09-1-.49-.1-1.12.31h-.57l-1-.36-1.49-.25-3-1-1.2-.17-1,.44-.44-.78-.27-.34-.34-.27-1.3-.64-.45-.57,0-2.1-.66.12-.17-.23-.42.38h-.49l-.42-.31-.22-.55-.45.31-.43.45-.38.54-.3.55L642,291l-.18.27-.19.14-.36.13-.14.19-.41-.13-1,.11-.51-.19-.59-.64-.1-.19-1-.33-.43-.33-.61-.7-.44-.13-.59-.06-.53-.17-.28-.16-.59-.55-.91-.25-3.22,0-.51-.21-1-.6-.54-.12-.42-.24-.15-.57-.05-1.48-.42-1.06-.77-.67-3.75-1.89-2-.52h-2.17l-.56-.1-.42-.16-.34,0-.33.29,0,0-.17.71,0,.07-.09.21-.36.61-.08.33-.21.32-1.34,1.18-1.06.59-.63.15-.47-.19-.22-.19-.47-.06-.26-.1-.12-.13-.26-.39-.14-.16-.28-.14-.28-.09-.21-.17-.09-.39v-.35l-.07-.26-.14-.15-.72-.18-1.27-.69-.41-.33-.81-1.6-.66-.45-1.12-1.41-.27-.58-.09-.51v-1.11l0-.16.21-.55.09-.33V272.9l-.35-1-1.91-2.49h-.17v.46l-1.53-1.41-.12,0-.27.23-.37.4-.34.6-.24.74,0,.81H599l-.09-.56.47-1.05,0-.5.26-.11.19-.18.15-.2.11-.2v-.23l-.55.12-1,.84-.6.21-.6.09-2.68,1.14-1.56.27-1,.6-.53.22-1.1.1-1.17-.16-1.12-.36-.94-.52-.79-.77-.41-.28-1.11-.17-1.49-.62-.4-.31-.74-.89-.73-.38-.32-.46-.25-.54-.16-.45h.35v-.23l-1.36-1.16-.76-1-.69-1.26-.16-.52,0-.63.15-.78.22-.75.23-.51.53-.43.63-.08,1.36.17v-.23l-.52-.49-.24-.15-.38-.06-.27.09-.42.44-.26.17-.73.06-.59-.25-.94-.76v-.21l.12-.25-.18-.24-.27-.28-.19-.41h-.19l-.16,0-.1.05-.06.21-.32-.2-.73-.14-.35-.12-.16,1-.58,1.14-.76.94-.91.56-1,.76-.42.23-1.32.4-1.31.15-3.36-.2-.87-.29-.72-.39-.41-.11-.94.08-2.89.84-8.28-1.17-3.29.28-.72-.28-.46.17-5.4-.54-1.26-.48L539,259h-2.68l-1.85-.34-.93.05-4,2.11-4,1.34-1.16.79-.91.41-1.79.46-.27-.15-.44.27-.73.17-.71.06-.38,0-.38.2-1.54.57-.41.05-.59-.3-.69.14-.58.43-.3.52-.38-.18-.36,0-.35.17-.29.2-1.75.93-.37.33-.57.63-.44.22L510,268l-.23-.32-.12-.08-.13.08-.08.15-.05.24-.26.15-.21.07,0,.22-1.39.06-.84.25-.39.74-.12.18-1.64,1.88-.42.84-.7.43-2.4.8-.25.15-.91.73-3.09,1.51-5.37,3.59-3.81,1.48-.25.06-.15.14-.4.63-.14.14-1.16.08-.55.2-.27.43.08.28.48.32.11.18-.05.41-.24.67-.05.3,0,.71-.1.54-.2.45-.36.47-1.39,1.36-.85.53-1,.41-.16.11,0,.16-.06.13-.19.06-.13,0-.24-.15-.16,0-1,.21-.28,0-.54-.15-.31,0-.24.07-.63.37-6.5.17-2.16-.4-.4-.25-.83-.74-8.33-2-.85-.65-1-.22-.33-.27-.29.14-.31.52-.27.27-.2-.16-.17.27-.18.38-.24.2-.34.09-.59.43-.38.16-.71.1-6.39-.18-6.72-1-5-1.18-4.75-.89-.39.05-.26.34h-.15l-.77-.13-1,.7-.95,1.06-.6.92.55.4-.06.4-.31.49-.34,1.27-.42.7-.5.57-.47.26.18.44.09.45.13.35.29.13,0,.13v0l0,0-.1.06,1.39.75.51.43.53.66.52.43,1.43.67.49.48.51-.1.58.42.51.61.28.43h-.1l-.06,0,0,.07,0,.15-.1-.09-.25-.16v.33l-.09.23-.16.13-.24,0v.21l.68-.15.3-.12.21-.18.24.2.1-.2.25.14.21.17.16.24.1.34-.13,0-.07.06-.07.07-.1.07.27.09.12.25.1.31.22.28.52.19.42-.18.4-.3.47-.16,6-.25.51.06.89.32.4.07.16.1.51.47.29.13H444l.22-.07.19-.1.17-.05,2-.27,1,.18.25.77-.38.62H447l-.92-.42-2.88.15-4.89,1.11H438l-.16-.62-.38-.39-.41-.2-.26-.05-.26.06-.29.1-.23.18-.1.24-.12.25-.28.16-.32.13-.23.14-.3.14-.24-.21-.2-.31-.19-.17-.18,0-.53.41-1,.58-1.05.36-7.47.7-.4.18-1.08,1.09-.76.49-1.79.7-.87.57-.46,1,1.37.32,2.23,1.4,1.34.31.27-.1.56-.48.22-.1h1.38l.56.15.6.37.56.51.45.56-.39.2-.43.14-.41,0-.32-.14-.19.38-.23.9-.2.43-.35.27-.45.1-2,0-.45-.06-.44-.16-.59-.38-.35-.16-.72-.17-.77,0-.86-.26-.48-.07-.38.21-.39.32-1.43.23-.2.11-.26.27-.23.1-.17,0-.1-.12-.09-.05-.16.21-1.13-.56-1.19-.31h-1.17l-1,.39.08-.29.14-.2.22-.12.27-.07L409,313l-1.32-.22-6,.26-2.14.8-2.09.19-.92-.26-.11-.86.66-.56,2.19-1.13.45-.77-.51-.55-1.12-.4-4.18-.65-.24.06-.08.13-.07.09-.22,0,0-.1-.48-.62-.25.41-.21-.05-.22-.14-.27.14-.42.48-.24.18-.31.13v.21l.23.33.83.82.19.08h.23l.19,0,.07.22,0,.41.06.19.12.14.17.27.15.12.17,0,.14.09.05.33.1.34h.22l.37-.24,1.27.44.46,0-.41.57-1.37.72-.59.88-.69.17-.76-.06-.51-.23-.61.34-.58-.12-.62-.29-.7-.16-.4.09-.89.59-.27.05h-.71l-1.8-.44-1.49-.67-1.41-.93L381,312.73l.19-.09,0-.07h0l.12.15h.17l.34-.25-.37-1-.26-.47-.42-.33h-.39l-.86.54-.56.13-1,0-.86-.16-1.18.05-.77.62-.62.79-.71.57-.55.13-1.44-.13-.67-.37-.28-.08-.86.2-2.18-.18-1,.06-.54.43-2.7,3.31-.32.26L363,317l-.23.08-.22.14-1.12,1.49-.47.4-.84.23-.66.31-.35.07h-.32l-.18,0-.13.2-.16.49.17.49v.62l-.1.6-.16.41-.11.1-.13,0h-.28l-.09.05v.12l0,.15,0,.13-.08.2,0,.43-.07.27-.23.37-1.06,1.07-.27.17L355,326l-.39.27-1.35-.47-.24.24-.53.92-.1.3,0,.27-.22.45-.08.29,0,.3.14.64,0,.2-.38,1.64-.14.38.39.08.08.29-.13.86v.79l-.07.19-.12.07-.11.11,0,.3.11.42.48.91.1.35-.17,1.8-.22.76-.95.92-.4,1.61-.63,1.71.11.71,1,.5h1l2-.5.27.23.17.06.08-.17,0-.06.23-.28.26,0,.33-.17.28,0,1.33.24h.3l.2-.15,1.11-.63H359l.25-.29.58-.24,8.88-1.61.63.45.48-.21.47-.44.58-.25.73.08.39.24.16.45,0,.69-.34,1.24,0,.34v.12l-.1.06-1.46.47-.41.32.28.47-.31.25-.33.13-.93.07.05.27v.19l0,.23v.2l.12,0,.23.19-2.68,2-.45.67-.25.18-.27.15-.14.26.15.5-.17-.2-.2-.18-.24-.1-.27,0v-.2l.45-.11,0-.22-.24-.14-.33.13-.18.33-.16.66-.25.25.5.23.62.05L366,350l.44.2.2.49.11.66.2.65,0,.33.35.41.5.37,1,.51.36.28.71.9.59,1,.2.63-.26.28-.48.15-.63.36-.57.43-.33.39.41,0,.13,0v.22l-.39.55-.05.81.23.75.48.32.37.14.39.59.27.14.33-.09.87-.51.28-.27.24.3.19,0,.21-.17.31-.1.13.11.26.45.13.11h.46l.3-.07.28-.2.44-.39.41.34v.36l-.42.87.54.16-.2.51-.53.34-.52-.35-.24.27-.32.26-.4.21-.42.13.32.82-.26.42-.43-.08-.16-.7-1,.44.19.22.51.91.17-.25.06.34,0,.27v.24l-.08.26-.21-.23-.19.07-.21.2-.26.18.16.44-.38,0-.35-.12-.58-.26h-.25l-.28,0,0,0,0-.07-.09-.11-.14-.05-.74.51-1.31.28-.46.32.17.59.19.42.5.75H367l-.22.09-.19.15-.18.2.45.33.24.12h.33l-.05.15-.06.36-.05.15.35,0,.31,0,.55.2-.07.12-.12.34h.52l.28-.23.24-.11.36.35-.11.38-.13.79-.1.38.4.2.35.24.33.29.3.37v.22l-.4,0-.68-.43-.45-.34-.37-.37.31.54.56.44.26.16.62.2.34.22.77,1.24.43.3-.24.38.09,0,.52-.25,1.59-.66.68,0,.65.31.21-.11.85.1.49-.23.17.24.19-.17.1,0,.24.2v.22l-.72.42-.6.63-.58.38-.7-.33-.14.12,0-.12-.3.15-.24,0-.24-.1h-.26l-.15.08-.32.29-.12.06-.41.09-1.24.59-2,.2-.44.14-.46.23-.37,0-.19-.41-.11.07-.29.11-.12.06-.47-1.3-.3-.59-.28-.32h-.16v.22l-.42-.13-.38.33-.29.56-.13.56.17,1.33.4.3.16.27-.13.41-.54.19-.41-.7-.44-1.47-.28-.49L364,378l-.26-.36-.6-.08.21-.46.22-.37v-.29l-.43-.23.28-.18.29-.06.27.06.2.18.1,0,.09,0,.16-.14-.13-.32V375l0-.36-.14-.36-.14-.17-.18-.13-.22-.22L363,373l-.58-.93-.13-.5-.41-.59-.86-.94-.45-.37-.56-.27-.63-.16-.67-.06-.28.07-.56.29-.38.06-.24.15-.14.37-.05.48V371l.29,1.22,0,.21,0,.2.31,1,.07.39-.16-.22.77,1.15.1.39-.17.61-.23.33v.13l.49,0,.18-.09.19-.43.24-.14.24,0,.33.31.52.18.62.57.36.22-.38.82-.23,0-.3-.34-.64-.3v.23l.41.36.23.67,0,.64-.35.29-.19.1-.64.45-.3.13-.3.05h-.17L358,380v.22l.22.38-.18.21-.36.07-.37,0-.16-.11,0-.14-.05-.14-.19-.05h-.21l-.15,0-.13-.06-.12-.1.21-.28.08-.31,0-.33-.1-.4-.14.14-.1.07-.06.14,0,.29-.35-.39-.2.36.07.58.48.33v.24l-.56.14-.24.59-.27.44-.68-.3-.14.5,0,.21,1.31.41.24.14.82.69.65.22.53-.21.21-.86h.17l.12.32v.28l-.07.29,0,.32.56.56.13.2H359l-.06-.14-.11-.52.63.28.61.69.64.53.7-.18-.1.45.05.32.16.26.5.54.34.26.26-.05v-.67l.23.39.3.79.16.13.31-.14.13-.3v-.41l-.08-.46h.16l.06.08v0l.12.09.33-2.08.25-.1h1.58l.48-.1.44-.18.39,0,.34.31-.05.95.11.39.44-.22.24.31.56.56.26.43.16.43.12.47,0,.47-.13.41.58,1.14.2.17.22-.11.1-.23.08-.23.12-.11.16,0,.45-.18.8-.16.67.07,1.3.51.73.11.22.17.08.49.06.17.15.09.2,0h.2l.25.08.14.19.1.23.13.18.62.26.92.15H379l.64-.22.68,1.17.21.71-.36.32.11.3,0,.26,0,.26-.08.3-.12.22-.33.29-.08.12-.06.6.16.37.24.27.19.3,0,.4,0,.68-.09.72-.18.49-.58.74-.34.24-2.18.79-.55.07-1.69-.12-.45.12-.24.66,1,.49,2.21.61,1.46.95.37.14.09.36-.07.71-.23.49-.4-.26-.1.36.1.18.1.14-.1.2.15.49-.06.46-.15.47-.11.54.19-.25.18-.14h.18l.14.19.44-.13-.13,1.44.23.62v.22l-.15,0-.39.18.11.36-.05.33-.17.32-.25.29.2.1.07.06.06,0,.2-.14.1.1,0,.1,0,.23.15-.14h.17l.18.14.19.24.29-.26.35-.14,1.49-.09.15-.13-.37-.25V411h.62l.26-.27.12-.42.23-.4.41-.23h.53l.48.21.3.48-.58.29-.47.51-.2.64.2.7.54.43.71.12.56-.31.11-.89h.19l.28.52,0,.43-.12.34,0,.25-.46.57-.16.31-.07.3.12.18.25-.13.24-.25.08-.12h.58l.28.28-.06.41-.45.39.37.14.4-.22.32-.43.13-.47.13-.25.29-.09.62,0,.06-.07v-.12l.06-.1.22.06,0,0,.31.21-.05.24,0,.4-.08.23-.14.16-.32.23-.06.14,0,.62.14.21.4.15-.39.44-.2.13-.28.1.31-.64-.33-.08-1.19.26v.24l.3.22.2.53.18,1,.11-.13.09,0,.33-.06v.23l-.26.15-.6,0-.27.17-.22.18-.52.25-.67.47-.39.09-.36-.23-.36-.66.06-.06,0,0,0,0,.05-.09-.33.14-.18-.05-.14-.15-.21-.14h-.27l-.18,0-.09-.15v-.54l-.06.08v0l0,0-.07.08-.19-.2-.19.06-.18.25-.13.33h-.18l0-.36-.09-.27-.18-.19-.27-.08.08.34,0,.29-.06.25v.22l-.47.14-.79-.29-.29.35-.19-.2.05.24.05.09.09.11.24-.19.24,0,.21.07.17.16-.31.37-.46.3-.41.18h-.21l-.27.66.09.46.23.41.12.53,0,.55.13.69.27.46.45-.11.15.25.18-.07h.13l.23.07-.07-.13-.12-.31.35-.12.3-.28.16-.35-.11-.34v-.2l.32-.14.67-.14.23-.15.08.22,0,.06,0,0-.11.12,0,.12,0,0h0l0,0-.07.17,0,.05v.06l.1.17.29-.79,0-.29h.19l0,.12.15.22.39-.33h.37l.17.16.45.68.25.24.28.08.77-.08.36.07.26.14.59.43.13-.74.59-.06.7.29.46.28.49-.51.81-.28h.81l.5.37.29-.11h.3l.26,0,.19.07.14-.32,0-.13h.16l.27.1,2.06-.69.64,0,.74.17.28,0,.29-.06.31-.28.28-.08,2.69.42.43.24V422l-.07-.33.48-.12,1.22,0,3.3-.5.25.06.2.16.17.22v.21l-.74.16-1.35.55.16.44-.22.18-.4-.08-.41-.31-.14.33-.2.3h.34v.23l-.19.22-.5.86-.12-.14-.15-.09-.2,0-.24,0v.22l.18.08.1.09v.1L403,425l0,.15,0,.07v.06l-.07.17-.16-.41-.05-.24h-.14l-.24.11-.55-.28-.26.17h-.17l-.13-.13-.12,0-.13,0-.15.14-.18-.16-.25-.06h-.6v.21h.51v.2l-.22,0-.43,0-.22,0,.09.14.05.12.08.09.14.1-.18.23-.33-.23.15.29.21.29.5.52v.19l-.27.11-.21.14-.2.07-.18-.09-.1.07-.08.06-.07.05-.11,0,.29.26.15.3,0,.19-.24-.09-.17.21.47,0,.35.06.24.2.16.37-.47.35-.15.18-.09.33-.43-.41-.41-.13-.88.11-.49,0-.51-.13-.41-.19-.17-.21-.26.11-2.21.07-.35.18-.64.62-.3-.1-.33.07-.35,0-.4-.22-.36.14-1.16-.7-.55.14-.15.38,0,.43-.14.34-.48.14-.9-.06-1.86.28-.62-.05-.23.05-.29.21-.28.36-.1.5-.23.33-.32.15h-.42l-.42-.1-.31-.13V432l.2.12.12.16v.19l-.15.19.09,0h.07l0,0v.14l.32-.19.28,0,.2.21.06.39.29-.12h.25l.58.11.18.07.31.31.12.07.12-.09.12-.15.1-.21,1.73-.63.13.33.27,0,.37-.1.46-.06.43.07.45.16.84.43.05-.68.35-1-.07-.27v-.22l.36-.23.53-.69.42-.15.4.06.32.08.29,0,.3-.16v.22l.47-.22.5.11.45.27.31.27h.17l.19-.39.16.06.16.22.18.11.19-.16.19-.24.18,0,.13.44.37-.2.32-.3.24-.11.13.39H398l.37-.2,1-.3.37-.38.12.33.2.05.55-.38.44-.68.22-.14.29,0,.3.08.14.27,0,.64.14.55-.33-.31-.1-.14-.09-.22-.17.24-.3.26-.18.18-.05.2.13.2.5.05.24.18v.46l-.4.29-.37,0,.09-.51-.25.15-1,.07,0,.05-.1.13-.16.15-.12.1-.15,0-.54,0,.18.21-.91.22-.13.11.11.29.25.12h.28l.22-.09.18.12.29.11.27,0,.13-.14,0-.4.07-.09.25.17.25.27.09.37-.09.38-.25.27v.19l.22-.16.49-.46.34.43-.36.4-.25.37-.29.31-.49.22h-1.9l.13.22.08.1.13.09-.05.1L398,436,398,436l.29.32.34.18.32-.06.26-.44.11.28.19.1.26,0,.3-.13-.05-.11-.05-.22-.06-.1.22-.06.12-.06.07-.11.1-.2.67.23.59-.48.48-.77.34-.69L403,433l.5-.38,1.3-.46-.05-.16h0l-.12-.05.1-.1.07-.08,0-.09v-.16l.17.14.17.1.16-.49.36-.1.4.14.3.21-.16-.71-1-.76.1-.69-.35-.32-.07-.46.17-.51.35-.52.4-.18.39.19.37.32.3.2v.22l-.66.13-.27.13-.1.28.1.28.27.08.66,0-.05-.17-.11-.5h.16l.25.19,1.32.68.49,0,.26-.33.19-.47.27-.46-.26-.24-.23,0-.22.07-.15,0-.17-.17-.17-.22v-.19l.26-.08.73-.09.51-.15.23-.29.05-.29.12,0,.12.19.05.34,0,.1.07.05.06.09,0,.18-.05.11-.12,0h-.17l.08.67.2.3.36.08h.56v.24l-.34.21.28.11.26,0,.24.06.25.22-.08-.78.55-.32.75.13.32.36.06.24v0l.14.13,0-.24,0-.14.11-.29h.17l-.1.19v.1l.06.07,0,.09-.07,0h-.07l0,0v.15l.27.3.07.58-.11.62-.23.43.32.87.18.2.32-.48.34-.11.27.23.13.58h.17l.75-.39,1.13.23.92.64.13.83.44-.14.26.11.25.22.43.21v.23l-.38.1-.22.21v.28l.26.29.32.08.44,0,.27-.16-.15-.32.37-.29.43-.49.16-.53-.44-.41.15.44-.05.28-.15.24-.14.32h-.16l-.09-.13-.25-.29.17-.21-.14-.1-.08-.08-.13-.27.32-.09v-.22l-.07-.29.09-.26.18-.11.21-.07.47,0V432h-.17v-.19l.34-.34.47-.57.41-.31.18.45.25.29,2,.83,1.57,1.13.16.17.17.25.14.27.06.28-.16.24-.31.09-.2-.11.14-.34v-.19l-.38.17-.32.46-.32.31-.36-.31-.16.29-.23.58-.14.21.27.47.14.41-.1.3-.47.12.56.09,1.21-.47.3.38h.19l.28-.14.14.53.1,1.1v.23l-.22.06-.15.09-.34.28v.19l.38.21.33.41.15.54-.15.57.09,0h0v0l0,.14-.29,0-.25.12-.2.19-.13.29h.25l.17.05.29.19-.18.19h.7v.23l-.08.15,0,.08.1.41.34-.23.42.53,1.51.49.33.39.23.46,1.66,1.57.18-.23.13.2.16.32.22.15.19-.09.11-.18.09-.22.13-.19.13-.14.06-.08.1-.08.26-.11.16,0,.09.14.1.05.15-.23.09.86.13.29.3-.29,1.58.91.68.15,2,0,.55.25-.28,0-.26,0-.26.09-.22.13v.19l1.29-.19.19.15,0,.28-.15.17-.34-.17.25.65.87.41.1.64.42-.56,0-.11.26,0,.08-.11,0-.16.08-.1.31-.15.31,0,.3.11.29.32.11-.14.08-.05.33,0-.08.12-.05.1-.08.09-.13.1v.24l.45-.07.39-.18.37-.28.34-.34h-.52v-.21l.62-.2h.24l0-.16,0-.05h-.06l-.09,0,.35-.18.95-.22.43-.24.33-.34.13-.07h.23l.32.05.3.11.28,0,.31-.18.37.05,1.72-.9v-.24h-.54l.34-.14.25.11.19.17.19.1,1,.21v-.45l.36.24v-.26l.17-.6.15.43,0,.19h.16l0-.65.1-.46.23-.27,1.9-.32.53,0,2.68,1.23.6-.17.3.28.11.54-.05,1.31.73-.64.34-.4.27-.7.32-.29.34-.27.26-.26-.18-.05,0-.07h0l-.11.13h-.17l.3-.65.68-.59.36-.45-.65-.23.19-.44-.37-.21-.27-.44-.05-.54.34-.52,0-.28.55-.85.31-1.11.38-.48.85-.73-.06-.36.35-1.11.06-.66-.17.21-.15-.36-.18-.26-.15-.33,0-.57.05-.45.11-.32.16-.26.2-.25v-.2l-.28-.47,0-.56.13-1v-1l.12-.25.33-.56.36-1,.68-.67,1.47-1,1,.79.53.32.7.19,4.15-.23,10.14,1.53.9.52.06.76.73.14,4.77,2.12.37.43.42.35,1.93.85.52.09.31,0,.33.31.49.7,1,.42.24.22.45-.08.71.11.64.24.29.27.22.31.5.07,1,0,.14.08.15.14.2.15.27.05h.29l.22,0,.18.09,1.55,1.58.37.23.32.51.44,1h.07l.34.14.09.11.29.49.29.38.1.22,0,.26.31.9,1.54,1.34.59.86.07.28.1.89.11.18.47.32.11.16.22,0,1.18,1.59.4.24.52.14.45.19.18.37.27.28,1.92,1.11.46.13.91.09L516,452.1l1,.47,2.27.54,1.09.07,1.35-1,.2-.35.3-.1,1.62-.88.5,0,1.67.41.8,0,.33,0,.23.11.08.09h.1l.28-.2.35-.44.23-.49.31-.39.59-.17.26.07.54.29.31.07.29,0,.75-.21,1.12,0,.56-.08.47-.56.52.07,1,.34.37-.09.9-.46.55-.1.51.06,1.07.29.59.06v.24l-.34.19.55.11.55-.54.56-.75.6-.52.35-.15.34-.07.24.12.08.43.64,1,.08.19.13-.22.17-.84.12-.33.77-.85.18-.13L545,447l.25,0,.31-.13.36-.66.29-.25-.08-.13-.08-.05-.19-.06.43-.13.24-.27.46-.77.38-.31.31.07.31.22.38.13.52.34.39.79.12.86-.24.57v.2l.44,0,.14-.21,0-.37.09-.45L550,446l.47-.64.06-.2-.08.09-.15.05.27-.67.69-.25.78-.15.51-.4,0-.84-.13-1,.07-.83.87-.48.89-.93.53-.25.24-.2.1-.31.22-.47,2.17-2.78.8-.68,2.72-1.7,2.22-2,.78-.42.13-.13.25-.59.14-.14.78-.43.29-.12.76-.11,1.67-.79,1.09-.25.74.41.14-.24,2.07,1.1,1,1.11.36.18-.14.49,0,.15.34-.15.4-.08.42,0,.41,0,.5.19.81.56.7.25,6.39,3.85.36.11.29.13.39.6.26.13.05-.09.65-.54.55-.19.23-.14.1-.23.12-.13.6-.34.21-.06,1.11.13,1.06.3-.87-.37-.21-.08-.25-.05.07-.28.23-.21.34-.08.25.12.79.73.31.06.81-.06.24-.06.38-.28.25-.07.2-.14,0-.35v-.4L592,434l.15-.25.22-.56.15-.26,1-1-.39.1-.34.22-1.13,1.31-.34.23,0-.34.4-.72.7-.54,1.49-.69-.34-.13-.26.1-.25.17-.28.1-.19-.17-.08-.3-.15-.19-.36.2.14.21,0,.21L592,432l-.12.21,0-.15-.07-.12-.09-.09-.14,0-.08.5-.57-.17-.37.52-.17-.48.23-.38.37-.38.26-.49.2.14.09.13,0,.15-.1.22.27-.19.3-.59.29-.29.92-.34,2.1-.09,1-.24.38-.31.84-1,.26-.2.41-.12.34-.27,1.44-1.77.87-.78.9-.33,1,.25.94.67.87.87,1.49,2.12.25.55.1.48,0,2,0,.21.1.34.12.27.1.3,0,.4-.13.48-.25.65-.31.55-.26.25-.4.09-2.72,1.73-.26,0-.19.33-1.2,1.49-.2.12-1,.35-.18.15-.12.16-.3.2-.14.65-.13.29-.22.19-.44.23-.21.22-.31.76-.12.11-.3,0-.27.08-.25.17-.21.25-.69,1,0,.5.29.71.31.37.41.38.35.41.28,1,.31.53.35.45,1.77,2.95.69,2.15,0,.55-.27.23-1.09,1.93-.29.43.23.08.49-.11.51-.18.5-.08.32.36v.4l-.08.41.05.37.3.25.39.1.79,0,.75.35,1.47,1.07.49-.09.28-.92.15-2.19.56-.9.81-.3.61.17.41-.09.2-1.1h0l.5-.2,1,.39.54-.18-.07-.88.08-4.51,0-.46.14-.23.21-.21,0-.27-.36-.43.29-.29.32.37.32.23.34.12.7.1.15.05h.14l.22-.1.11-.19,0-.22.09-.2.28-.09.47-.08,1.92.3h.48l1.79-.34.15-.27,0-.69-.09-.45-.18-.52-.25-.48-.29-.34-.41-.16-.83-.09-.26-.25h.11l.15-.29.16-.47v-.28l0-.23-.07-.22-.13-.21-.12-.08-.4-.18-.18-.16-.14-.24-.47-1.69-.07-.53.11-.46.76-1.21.12-1.35,0-1.4.34-1.32.31-.73.08-.63,0-.6.11-.7.31-.61.42-.56.28-.61-.09-.76.24,0,.23,0,4.69,1.62,1.59.1.49.12.5.2.48.27.38.37.78.71.2.4,0,.67-.23,1,.09.36.49.43.49.27.24-.07.2-.3.39-.39.47-.21.42,0,.42.12.47.07,1.61-.41.56-.05,4.11.75,1,0,3.73-2.4,1.54-.68,4.19-.9,4-1.85.7-.2,2.91-1.85,1.7-.66.87-.08,1.66.2,4.8,1.45,1.25.7,3.41,3.58,1.54.81,1.78.22,4.11-.19.56-.16,1.32-.09,3.89,1.3,1.35-.06,13.3-2.53,5.42-2.05,2.52-1.5.91-.31,1-.18.95-.44,5.14-3.46.51-.31.54-.2.56-.12.57,0,1.16-.34L719,420l1.26-.47,4.74-.71,6,1.22,1.13.46.55.15,7-.33,13.39-3.17,1.11-.66,1.9-1.79,1.27-1.68.37-.22.47-.37.28.34,0,.37-.05.31,0,.14.34.06.77.37.14-.07.16-.17.17-.14.15.05.11.17.14.31.11.17.86.69.17.09.16.41-.45,1.76.29.4.2.2,0,.44,0,.9,1.13-.13,1.46-.48,2.17-.37.4-.18.1-.18.31-.85,3.16-4.62.1-.25,0-.22.05-.22.16-.26.17-.12,1.25-.5.22,0,.3,0,.22.17.11.55.22.15,2.09.7,1,.15,1.08-.37.64-.48,1-.43,1-.27.78-.07.44.13,3.33,1.79.17.06.21,0,.22-.05.24-.24.22-.09.47-.07.31.06,1,.78,1,.51,1.17,1,.41.16.33,0,.63-.24.31-.05.32.05.21.1.46.35.64.27.61.08,2.59-.18.67.06.6.16.24.17.55.52.18.13.32-.09.46-.46,1.35-.24.78-.9.75-1.09.92-.79,1.14-.18,1.33.23,2.43,1,.58.38.41.43.3.53.21.74.13.69,0,.39,0,.31-.21.37-.25.11-.3.06-.31.19-.43.55-.22.64v.67l.18.66,1,2.29.16.33.23.19,1.05.27.31,0,.24-.24.23-.53h0l.39-.67.09-.5.21-.36,2.14-.7.66-.37.63-.48.61-.78.92-.86,1-.72.81-.37.47,0,2.66.37.5.26.31.55.16-.62-.16-.53-.24-.53-.08-.64.18-.57.31-.27.35-.2.3-.39.08-1-.58-.67Zm-472-108.79.07.73-.18.5.22.51.16.6.21.51.36.22.66.11,4.69,0,1.35-.39.43-.05.67.34.4-.14.4-.23.34-.12.42,0,.4.15.72.48,1.93-1.14.69-.21h1.73l.33-.11.6-.29,1.92-.31.21.31.77,1.64-.31.7-.72.59-.81.27-.59-.29-.37.4-.53.84-.35.36-.34.15-1.19-.15-.69.17-.79.36-.72.46-1.12,1-1.49.55-1.19,1-1.26.82-.37.67h-.5l-1.3.5-.29.26-.17.06-.33.28-.22.31.11.15.33.07.11.17-.09.22-.26.22.75.59.48.7.13.91-.3,1.18-1.15,1.6-.13.31-.2.7-.28.69-.42.32-.15.18-.2.4-.06.39.24.18.27,0,1.34-.47.31-.19.76-.72,1-.58.38-.28,1.21-1.15-.37-.3-.31-.62-.09-.6.35-.28.52-.1.6-.27.58-.36.46-.38.66-.8.13-.12v-.12l.54-.55.33-.27.74-.18.18-.13,1.39-1.28.38-.44.16-.53.05-.56.16-.25.82-.45.27-.4.23-1,.28-.2.35-.14L367,310l.47-.29,1.56-.23.45-.3.37-.37,1.47-.91,1-.29,1-.14.29-.22.74-1,.43-.35.53-.07,1.18,0,.7-.46.61-.08.27-.09.12-.12.26-.4.14-.16,2.27-1.68,1.08-1.91,2.38-2.33.55-1,.63-2.68.55-1.11.78-.47,5.4-.78,1,.06,1,.28.42.24.35.31.39.25,2,.25.46-.14,0-.27.16-.44.57-.91.27-.28.4-.29.43-.23.37-.09,1.4-.58h.25l.18-.12,1.22-.46.41.25.45,0,.94-.22.21.07.28.33.2.07h.87l.87.15,1.76.64.84.15.64.33,1.31,1.35.73.1.31-.3.17-.46.06-.48v-.33l-.2-.57-.56-.57-.13-.48.61.15.52.47.26.68-.18.75.24.06.18.1.29.32-.21,1.05.76.32,3-.4.64,0,.27.25.12.21.3.11.62,0,.29-.08.16-.13.11-.14.14-.11.25-.09,1-.21.46-.31.28-.08.08-.06.22-.3.15-.09.14,0,.22.18.54,0,.11,0,.16-.19v-.18l-.07-.12,0-.15,0-.14,0-.17.2-.3.21-.15.45-.15.2-.17.27-.41.24-.52.18-.6.09-.65h.06l.11-.17.05-.19-.13-.09-.05-.05-.16-.24-.15-.28-.21-.26-.06-.22.29-.09.43-.26.44-.57.33-.62.24-.84-.39-.37-.63-.24-.6-.1-.18.07-.15.32-.2.07-.16,0-.07-.07-.06-.07-.13-.06-2.51-.56-7.77-3.73L408.57,278l-3.83-2.4-1.4-1.32-.53-.88-.37-.49-.73-.43-.41-.51-.34-.61-.19-.53,0-.21.12,0h.14l.06-.13,0-.2-.06-.1-.07-.06-.12-.35-.21-.25-.46-.43-.29-.45-.48-1.52-.42-.61-.45-.52-.38-.62-.15-.9.08-.84.21-.46.33-.19.42,0,.47.21.25.05.23-.15,0-.23-.1-.27-.16-.21-.13-.09v-.36l-.35-1.63-.92-.21L398,260l-1.23.14-.35-.11-.67-.32-.62-.16h-.24l-.48.07-.1,0h-.2l-.1,0-.08.35v.45l0,.34.39.24-.08.21-.31.12h-.33l-.35-.11-1.32-.73-.93,0-2,.51-.06.34-.09.16h-.13l-.19-.14-.21.27-.26.17-.54.19,0,.08.07.05.07,0,.07.05-.08.08-.16.07-.06.08.36.15-.42.18-.33-.23-.6-.85-.39-.33-1.85-1-.61-.53-.56-.65L382,257.39l-.69-.68-.8-.48-.89-.21-.55.08-.32.25-.57.76-.06.13,0,.12-.11,0-.61-.16-.57,0-.28,0-.39-.31-.43-.25-.46-.15h-.48l-.61.3-.56,1.06-.49.34-.35.15-.22.34-.21.41-.28.34-.22.06-.48-.08-.26.11-.27.28h-.23l-.24-.09H370l-.27.17-.57.48-.2.1-.28-.07-.47-.41-.24-.11-.3.08-.55.56-.26.18-.48.06-2.38-.4-.45.06-.41.29-.73.78-.18.14-.16.16L362,262l0,.13.3.2.08.11,0,.19-.11.3,0,.18,0,.45-.1.61-.21.62-.34.46-1.21.37-2.6-.11-1.05.92-.36.81-.09.73.18.68.25.36.67-.06.45.14.68.63,1,.25.44.2.4.1-.07.49-.22.43,1.43,1.08,1.15.59.25.26.48-.72v.25l0,.25.06.23.09.19-.11.4.1.87-.16.34.27.48.12.59.13,1.25.41,1.64.11.67v.71l-.12.71-.23.57-.33.32-.47,0-.54-.14-.48-.28-.27-.33-1.28,1.37-.27.05-.11.1-.06.15-.14.16-.71.46-.67.6-.43.22-1.6.16-.28.27.39.58-.27.73-.11.65.08.6.3.57-.47.75v.27l.38.11.18.15-.44.87.07.48.36.75.21.36.67.32,0,.39-.18.4-.21.18-.38,0-.22.13-.07.22.07.29.26.34.25.12.07.11-.25.34-.36.28-.72.34-.3.31.07.14.15.23,0,.22-.34.1-.21,0-.18-.1-.13-.15-.09-.19h-.15l-.21.66-.15.31-.18.19h-.17l0-.14-.13-.32v.35l0,.18-.11.07-.23.07,0,.15,0,.06h.06l.09,0-.25.12-.07.12,0,.22.17.36-1.36,1.18-.38.61-.22.89-.56.66-.78.38-.93-.09-.08.07-.2.05.38.51Z" transform="translate(-61.34 -150.85)"/>
  <path class="cls-1" d="M943,603.3l-.17-.36.08-.49.37-.87-.06-.4-.49-.26-.7-.55-.11-.13-.13-.35-.1,0h-.12l-.13-.05-.85-.74-.47-.13-.57.26-.45.29-.4.1-.4-.09-.46-.26-.16-1.05-.57-.73-.89-.58-.89-1-1.08-.29-.7.36-.38.73-.13.65-.06.85-.22.11-.42-1-.44-.44.51-.65-.41-.68.85-.48,1.21-.94-.07-.69-.2-.73-.67-.8-.16-.31-.13-.63-.11-.27-.22-.2-.18,0-.1-.1,0-.16.09-.19-1.15-.61-.2-.88-.88.29-1.09.73-.26-1.18.12-.22.12-.19.21-.12,1.34-.38.14-.13.19-.43.31-.49v-.19l-.2-.24-.17-.08-.17.07-.24.2-.46.28h-.41l-.38-.23-.37-.43-.13-.24-.19-.74-.11-.21h-.85l-.76.07-.77.08-1.14.51-.85-.42-.24.11-.4.07,0,1-.38.8-.89-.15-.69-.31-.13,0h-.11l-.11,0-.13.1,0,.12v.15l0,.11-.44,0,0,.17.13.52v.34l-.13.09-.46-.07-.11.2-.23-.37,0-.55-.26.13-.18.68-.49-.13-.81,0-.41.34.09.87-.72-.1-.1-.08,0-.11,0-.13-.06-.11-.11-.07-.1,0-.94-.16-.23-.08-.64-.39-.74-.19-.22-.09-.22-.13.13.27.21.25.09.13-.29-.09-.94-.44-.47-.13h-.49l-.21,0H911l-.19-.11.08-.57-.14-.24-.66-.78-.45-.32-.48-.19-.39,0-.21.2-.69,1-.17.15-.21.08-.29.07h-.67l-.33.05-.29.16-.13.15-.21.38-.13.14-.15.05-.46,0-.21.73.48.55.48.51-.7.68-.52.64-1,0-.48.47-.71.21-.66.27-.2.16-.24.12-.22.14-.19,0h-.27l-.25.05-.14.11v.11l0,.09,0,.08,0,.11-.12,0h-.15l-.13,0,0,.16-.1.09-.74.23-.19.12-.87.78-.22.07-.2-.1-.19-.06-.19.14-.2.19-.23.11h-.23l-.7-.1-1.33.1-1.15.69-.48.29-.67.6-.56.29-.41.34-.4.34-.08.48-.16.53-.25.48-.3.35-1.17.83-.32.38-.19.17-.48.17-.23.12-.18.2-.31.44-.19.19-.19.12-.19.06-.18,0H886l-.07-.07,0-.1,0-.08-.12.06-.78.52-.37.32-.3.39-.23.49,0,.21.19.07.44.06.15.15v.18l-.13.43h0l0,.39-.32.41-.43.33-.35.16-.3.05-.16.09-.33.37-.18.13-.61.19-.46.33-.14,0-.13-.11-.17-.35-.14,0-.15.2-.07.3-.1.25-.22,0-.13-.19-.07-.22-.07,0-.15.42-.16.25-.2-.1-.17-.26-.21-.52-.11-.21-.13,0-.13.23v.14l0,.13,0,.13-.07.15-.1,0-.14,0-1.06-.1-.25,0-.46.24-.73.75-.47.21-.28,0-.55-.1-.56,0-.19-.07-.44-.28-.52-.13-1.78.06-.07.62-.6.83-.08.55.28,1,.12.2.35.29.12.24.19.23.29.09.31.06.28.12h0l.21.3,0,.22.06.1.38,0,1-.35.34-.06.46,0,.16-.06.38-.28.14,0,.29.34,1.1,2.05.05.17-.09.25-.39.33-.18.22,0,.13,0,.26,0,.13-.07.11-.16.18,0,0,0,.05-.09.21-.07.25,0,.26v.26l.16.46.63.63.21.45h0l.22.82,0,.22-.09.48-.47.47-.77.11-.22-.11-.4-.34-.22-.09-.19.05,0,.19v.21l-.27.13.15.19v.23l-.1.16-.2,0-.13-.19,0-.23-.07-.21-.24-.12-.38.07-.8.52-.37.18-.61.08h-.2l-.56-.17h-.23l-.46.16-.23,0-.17-.15-.29-.63-.12-.19-.18,0-.51,0-.18,0-.22.16-.13.22-.1.25-.15.27-.16.16-.2.13-.21.09-.21.06h-.26l-.18-.07-.37-.23-.43-.1-.9,0-.45-.06h-.37l-.62.28-.07,0-.8,0-2.87.17-1.63-.19-1.42-.74-1.17-.84-.43-.07-.25.09-.18.14-.17.18-.21.15-.23.08-.47,0-.23,0-.42.28-.32.85-.31.29-.48.14-1.44.14-.8.21-.27,0-.13,0-.26-.08h-.11l-.05,0-.1-.1h-.05l-.07.06,0,.07v.13l0,.08,0,.09-.06.07h0l-.12-.05h-.63l-.2,0-.68-.3h-.27l-.44.18h-.24l-.15-.12.2-.39,0-.25-.32-.25-.5-.19-.51-.09-.79.09-.45-.23-.49-.34-.34-.24-.53.14h-.33l-.14.11-.13.13-.14.1-.36.1-.35,0-.72,0-.4-.11-.17-.21-.11-.29-.17-.35-.2-.22-.29-.22-.32-.14h-.27l-.12.09-.14,0-.15,0-.13-.08-.09-.14v-.14l0-.14,0-.18-.22-.27-.26,0-.24.21-.2.26-.07-.7v-.77l-.07-.37-.16-.32-.28-.21-.8-.42-.12-.09,0,0,.1-.41.2-.46.27-.41.32-.22.77-.19.18-.15.11-.08.1-.42-.35-.24-.16-.14-.27-.35-.14-.09-.15-.07-.16-.11-.27-.32-.18-.38-.07-.41,0-.44v-.23l-.2-.29v-.2l.09-.21.24-.37.2-.51.28-.47.61-2.69v-.22l0-.26-.11-.21-.3-.33-.11-.18v-.24l.13-.47,0-.25h0l-.18-.23-.29-.25-.56-.38-.33-.1-.73-.1-.26-.2-.26-.33H833l-.52.41-.28.27-.17.28-.19.15-.34-.1-.25.07-.7.52h0l-.27.18-2.28.34-.29.13-.15,0h-.15l-.31,0-.14,0-.2.27,0,.35.09.35.17.27.32.07.16.06.11.09,0,.17-.15.26.07.58-.14.37-.18.36-.3,1.19-.78,1.34-.33.72v.29l.06.28,0,.06.11.12,0,.06,0,.12-.06.08-.07.08,0,.09-.11.33,0,.15v.2l.05.16.16.27,0,.16-.07.35-.31.7-.19.43-.05,1-.19.41,0,.12,0,.11.06.11.2.2.23.5.23.15.19.09.17.16.26.37.25.46.19.49.11.22.28.43.11.22.05.25,0,.61.11.56v.26l0,.27-.05.28-.21.62-.57,1.12-.18.61-.09.3v.15l0,.17h0l-.1.58-.38.68-.48.5-.39.05-.18-.17-.41-.25-.18-.17-.08-.13-.08-.25-.06-.11h0l-.3-.25v0l-.23,0-.38.33H823l-.23-.12-.22-.08-.16.07-.08.3-.09.21-.19.1-.21,0-.17-.15-.21-.11-.27.09-.13.11-.32.24-.46.21-.45-.12-.9-.52-.39-.07-.42,0-.4.12-.36.21-.14.2-.24.51-.15.13-.17,0-.53-.24-.17-.1-.11-.18-.09-.22-.13-.13-.39.12-.67.07-.36-.15-.29-.38-.21-.48-.13-.41h0l-.15-.69v-.24l0-.27h-.15l-.18.16-.38.4-.16.12-.47.16-.36.13-.39.23-.13.32-.24.28-.31.2-.32.1-.12,0-.45-.17-.17,0-.09.14-.09.17-.13.1-.23,0-.89-.53-.85-.39-.25-.16h0l-.17-.2-.17-.15-.2-.11-.25-.06-.38-.16-.78-.42-.37-.14h-.12l-.27,0h-.09l-.09-.1v-.2l-.1-.1-.21,0-.27,0-.48.17-.28.18-.09,0-.13,0-.08-.06-.06-.07-.08,0-.19-.06h-.39l-.08,0-.06-.06-.87-.54-.39-.13-.45.14-.29,0-.22.13-.87.75-.27.16-.2,0-.09-.08,0-.11v-.13l0-.12-.1-.08-.12,0-.13.05-.11,0-.69-.54-.17-.22-.14-.5.09-1.05-.09-.48-.18-.22-1-.55-.14,0-1,.4-.55.3-.45.25-.23.07-.23-.07h-.22l-.21.19-.18.21,0,0-.2.15-.44.14h-.19l-1.16-.31-.37-.38v-.49l-.05-.43-.49-.21-.29,0-.71.28-.32,0,0-.19v-.21l-.21-.11-.16,0-.16,0L787,620l-.11-.26-.07-.29-.18-.27-.29-.16-.63-.22-.29-.18h0l-.14-.22-.2,0-.2.07-.17.13h-.15l-1.52-.41-.16-.12-.07-.3.11-.32.18-.33.12-.31.07-.56,0-.54-.12-.53-.2-.52-.32-.47-.37-.27-3.64-.67-.27-.17-.24-.34-.12-.27-.17-.13-.38.06-.12,0-.14-.34-.12-.13-.3-.13-.14-.08-.11-.12-.06-.26-.22,0-.25.1-.64.8-.27.18-.4,0-.51-.09-.16-.06h0l-.28.08-.59,0-.24.1.1.23.36.4,0,.14.05.14v.12l-.12,0-.08.06-.09.13h0l-.07-.07-.58-.21-1.75-1-.92-.34-1.38-.19h-1.19l-.33.12-.06.14,0,.17,0,.17.19.26,0,.17-.08.18-.28.41-.21.21-.25.14h-.28l-.29-.1-.13-.14-.08-.2-.14-.27-.16-.18-.62-.53-.47-.19-1.54,0-.8-.2-.58-.33-.32-.1-1.56-.11-.29-.33-.13-.54-.13-1.06-.15-.55-.22-.36-.07,0-.28-.11-1.59.41-1.08.13-.49-.15-.68-.7-1-.49-1.5-1.25-.55-.22-.22-.13-.23-.25-.26-.22h0l-.29-.1-.64-.07-.38.17-.5.6-.29.2-.35,0-.35-.21-.35-.27-.63-.36-.51-.54-.27-.23-.29-.1-.64-.15-.25-.2h0l-.16-.26-.26-.18-1.12-.58-.19-.16,0-.13,0-.15-.06-.21-.16-.26-.23-.25-.26-.19-.29-.1-.2,0-.08.13,0,.18-.12.17-.18.09-.21,0-.13-.07,0-.2-.21,0-.08-.11,0-.12.19-.08-.17-.34-.73-.85-.17-.4-.26-.85-.26-.34L739,599l-1.25-.25-.59-.11-.09-.15,0-.18,0-.16-.15-.08-.19.06h-.25l-.25-.05-.2-.07-.23-.17-.07-.2v-.22l-.11-.21-.18-.08h-.51l-.24-.05-.21-.13-.48-.51-.21-.14-.39-.11-.22-.1-.13-.17-.25-.48-.16-.12-.47-.08-.22-.08-.22-.11-.09-.12v-.13l0-.13,0-.08H731l-.26.15-.12.19,0,.25.11.91-.06.19-.25-.13-.53-.65-.23-.13-.26,0-.24.07-.24,0-.26-.1-.14-.18-.34-.72-.1-.08-.23-.05-.1,0-.1-.11-.13-.23-.07-.1-.22-.13-.44-.08-.24-.08-.19-.15-.42-.56-.41-.24-.11,0-.23,0-.23-.19-.08-.58v-.29l0-.27.08-.24.16-.23.19-.16.22-.11.18-.14.1-.25h0l0-.48.11-.64.25-.55.39-.19.21,0H727l.25-.07.15-.19,0-.22-.21-.61.06-.21.22,0,.16.13.12,0,.26-1,0-.34,0-.27-.1-.08h-.11l-.11,0-.07-.15-.09-.58-.27-.48-.09-.24.05-.26.13-.1.37-.12.08-.13,0-.19.09-.09.11-.09.12-.15h0l.25-.19.11-.11.09-.13v-.08l0-.08v-.09l0-.1.07,0,.16-.09.07-.05.28-.33.15-.29,0-.32-.11-.38-.17-.39-.12-.37v-.37l.19-.4.33-.27.75-.2.27-.23.65-.82.28-.45.17-.53.1-.25.19-.11.46-.05.24-.08.16-.11.33-.31.45-.31.12-.14.38-.61.18-.18.76-.58.25-.39-.17-.39.18-.17.22-.27.2-.14.12.18.13.25.22.06.85-.29h.1l.09-.23-.09-.21-.26-.41-.4-.22-1-.27-1.08-.47-.18-.15-.16-.21-.25-.48-.15-.2-.36-.29-1.24-.7-.27-.1-.19,0-.19.06-.25,0-.21-.05-.42-.27-.63-.25-1.25-.71-.93-.27-.46,0-.46.11.11-.26.12-.21.07-.22,0-.29-.11-.17-.17-.18-.13-.18v-.18l.08-.07H727l.09-.08.31-.57-.08-.14-.36-.2-.34-.55-.16-.11h-.2l-.4.22-.22.05-.37-.15-.23-.32-.2-.36-.29-.24-.89-.37-.2-.13-.06,0-.14-.09-.29-.33-.22-.43-.16-.19-.21-.1-.92-.23-.27,0-.64.17-.51,0-.23.05-.51.32-.15,0-.15-.06-.27-.07-.19-.09-.21-.19-.19-.22-.12-.2,0-.08,0-.08,0-.06-.06-.06-.19-.11-.19,0h-.2l-.2,0-.16,0-.09-.2-.08-.48-.07-.13-.13-.23-.31-.17-.34-.1-.32-.18-.17-.2-.09-.24,0-.26V558l-.07-.32-.18-.11-.22,0-.19-.15,0-.15,0-.13,0-.12v-.13l-.07-.11-.19-.16-.05-.11v-.16l0-.14V556l-.06-.15-.09-.07-.24,0-.09,0-.14-.22,0-.23-.08-.2-.42-.26-.35-.31-.18-.1-.62.12-.24.57-.09.65-.15.34-.21-.07-.32-.33-.21-.11-.21.46-.14.21-.14.14,0,0-.2.1H710l-.34,0-.33.08h-.14l-.4-.2-.1-.09-.06-.14,0-.26.09-.57.19-.57,0-.49-.37-.33-.48-.3,0-.33,1.23-1,.22-.24.06-.18-.3-.39-.47-.49h-.23l-.11,0-.09-.08-.07-.11-.1-.26-.16-.19-.06-.11V550l0-.14v-.13l-.31-.35,0-.25.33-.51.08-.29.1-.62.07-.3.28-.63,0-.28-.13-.31-.15-.14-.55-.33-.37-.3-1.23-1.69-.21-.47-.28-.39-.46-.25-.1,0h0l-.14-.05,0-.18.07-.27v-.33l-.3-1.36,0-.07,0-.09,0-.18.06-.14.09-.08.05-.09,0-.15-.5-.75-.36-.77.05-.29.29-.16.5-.12,1.8,0,.51-.13.22-.12.22-.19.37-.46.24-.12.29.12.18.25,0,.26-.11.25-.07.27,0,.23.23.78.21.48L710,540l.33.36.38.32.4.13.42-.23.17,0,.31-.15.17,0,.15,0,.33.09h.12l.2-.3.15-.89.12-.33.25-.2.36-.16.38-.12.3-.06.26.06.26.12.25.09.23-.07.54-.61,1.23-1,.53-.65.24-.49.12-.54-.06-.49-.3-.34-.35-.39-.12-.44-.09-.46-.24-.47-.74-.66-.25-.39v-.57l.08-.28.05-.8.09-.28.28-.41.11-.23,0-.56-.43-.23-1,0-.44-.15-1-.52-.4,0-.44.2-.11-.09,0-.35-.05-.29-.16-.2-.22-.13-.21-.11-.47-.14-.2-.11-.7-1.16,0,0,0-.22-.06-.32,0-.37.05-.7h0l-.08-.42-.21-.68,0-.38.13-.43.27-.2h.36l.39.13.33.09.13-.22,0-.37-.19-.72V520l0-.34-.19-.27-.39-.46-.21-.52-.16-.56-.24-.56-.12-.59.19-.56.41-.36,1.31.08.29.1h.11l.13-.07.16-.22.1-.09.39-.1,3.07.23.38-.16.54-.69.35-.33.24-.26,0-.22-.13-.55v-.39l.12-.07.2.06.24,0,.24-.39,0-.63-.3-1.54-.19-.62v-.31l.16-.21.26,0,1,.26.59.07.52-.12h0l.32-.45v-.29l-.14-.19-.18-.16-.12-.21v-.31l.15-.22.22-.16.25-.11.55-.1.23-.1.22-.24.11-.29.07-.36.09-.32.19-.21.51-.06.38.07.74.15.5-.15.18-.25.21-1,.24-.6.16-.27.72-.84.19-.34.1-.44-.05-2.66.11-.48.37-.52.4-.44.28-.45.09-.52-.15-.65-.07-.66.28-.5.87-.78.2-.46.06-.63,0-.14-.09-.42-.36-.24-.21.07h0l-.18.11-.19.1-.21,0-.09-.1-.06-.05-.23-.42-.17-.16-.46-.11-.24.26-.29,1-.22.38-.34.4-.39.3-.37.09-.36-.21-.23-.42-.13-.51-.08-.47-.15-.51-.31-.71-.38-.47-.35.24-.15.26-.21.22-.25.09-.24-.12-.12-.24,0-.29-.09-.25-.25-.12-1-.15-.37-.29-.31-.86-.32-.49,0-.26.12-.26.17-.2.08-.21-.17-.29-.11-.06-.4-.07-.12-.08,0-.13v-.15l-.07-.11-.27-.09-.3.05-.58.23-.54-.14-.11-.35,0-.47,0-.49-.3-.35-.46-.2-.51-.08-.42,0-1.35.56-1.58.16-1.48.56-.4.06-.39-.06-.86-.32-.48-.08-.47,0-.4.18-.16.19-.33.67-.15.18-1.35.93-.46.21-.93.1-.45.25-.42.31-.46.25-.47.12-.22.1-.18.19-.26.4-.14.15-.56.18-.3.19-.24.28-.17.35-.18.6-.17.09-.35,0-1.12-.35-.38,0-.17.23-.12.38-.21.44-.32.19-.37,0-.39-.12-.37-.05-.34-.06-.16,0-.17.06-.38.29-.35.2-.36.07-1.78-.3V493l-.13-1.48-.5-1.11-.6.18-.92-1.24h-.5l-1.27.16-1-.32-.5-.15-.27-.62-.76-.62-.87-.32-1.27-.3-.75-.79v-2l-.26-1.1-.5-.78-.63-.48h-1.27l-1.25-.46-.52-.3-.5-1.1-.89-.32-1,.16-1.13-1.64-2.13-.33,0-.26h0l-1.29-2.47-.32-.39-.74-.68-.78-.56-1-.48-1-.2-.79.3-.08.15,0,.16-.08.11-.77,0-.27-.39-.09-.59,0-.65-.08-.6-.21-.48-.34-.34-.48-.2-1.49-.32-.43-.24-.36-.32-.18-.11-.23,0-1.08.15h-.48l-.43.12-.22.09-.18.14-.13.2-.11.45-.08.15-.16.07-.08-.15-.07-.48-.1-.19-.36-.55h0l-.4-.34-.93,0-.34-.3-.18-.25-.19-.05-.46.19-.82.2-.24.13.06.1,0,.1,0,.12,0,.12-.08.5-.21.06-.24-.22-.23-.34,0-.05,0,0-.25-.08-.27,0-.52.15-.33.27-1.06.67-.61.51-.31.11-.83-.1-.2.05-.18.14-.08.22-.07.54-.12.16-.74.25h-.37l-.37-.14-.38-.1-1-.65-.39-.17-.78-.14-.77,0h0l0,.31,0,.19h0l0,.07.07.08,0,0,0,0,.07,0,.09,0,.47.08.13.06.16.09h0l.17.18h0l.7.48h0l.15.13.08.09h0l0,.09,0,.13h0v.15l-.05.14v.12l0,.07v.09l0,.09-.08,0h-.07l-.25-.06-.26-.1-.4-.11H646l-.24.17-.08,0h-.07l-.25-.13-.1,0h-.09l-.07,0-.25.23-.15.09h-.13l-.15-.08-.09,0H644l-.05,0h0l0-.05-.07-.09-.11-.18,0,0h-.06l-.17.1-.07,0h-.08l-.09-.06h-.21l-.27,0h-.07l-.76-.25-.31-.06h-.17l-1.29.48-.22.06h-.11l-.21,0-.35,0-.32.06h-.06l-.06,0h0l-.19-.2-.13-.09h-.07l-.07,0-.37.3-.14.07-.43.1-.24,0-.06,0,0,.06v.49l.06.2.19.52,0,.13v.1l-.11.21L637,476l0,.08,0,.2,0,.11-.1.15-.08.07-.08.06L636,477l-.08,0,0,.06v.05l0,.07,0,.07,0,.1,0,.09,0,.12,0,.05-.06,0-.31,0h-.38l-.24,0-.14.07-.07.07,0,.07,0,.21v.66l0,.08-.09.12-.09.07-.39.09-.11.06-.1.09-.47.56-.14.09-.08,0-.19.05-.18.09-.24.17-.06.06-.28.39-.07,0h-.07l-.33-.14h-.27l-.15,0-.18.07-.17.13-.1.1-.1.12-.08.12-.05.09,0,.1-.14.64,0,.25v.05l0,.06.09.17,0,.09,0,.09-.33.43,0,.07,0,.06,0,.09v.08l0,.1,0,.12v.06l0,0,.05.06.39.35.08.11,0,.13.1.25v.09l-.92,1.7h0l.52.22,1.23.54h0l1.19.15.54.11h.07l.1,0,0,0,.08-.1,0,0,.48-.3.11,0,.09,0,1.26-.06h.08l.06,0h0l.18.1h0l.09.05,0,0,.09,0h0l.2.07h.26l.09,0,.06,0,.05,0,0-.05.1-.14.06-.05h0l0,0,0,.05,0,0,.17.19.14.12h0l.12.08.25.16h0l0,.06,0,.05v.05l0,.06-.24.24,0,.05,0,0-.07.81v.22l0,.09,0,.07.08.08,1.16.8.16.14,0,0,.1.1.39.27.1.07h0l.08.09,0,.06.06.17,0,0h0l0,0h0l.18.05h0l.25,0h.08l.13,0h0l.1,0h0l.1.06h0l.07.06,0,.06,0,.09,0,.07.15.33h0l.41-.22.27.06h0l.47.36h0l.77-.12.8,0,1.62.25h0l.17.07h0l.08.25v0l0,.64v.07l0,.06v.09l0,0-.05,0-.12.05-.32.18-.19.15,0,0,0,0,0,.07-.07.16-.29.49,0,.08,0,.06v.19l-.05.42v.17l.38.66,0,.08v.07l0,.23,0,.09v.13l.08.15.08.06,0,0h.09l0,0,0,0,.27-.27,0,0,0,0h.35l.09,0h0l0,0,.1,0,.23.13.25.27.06,0h.08l.23-.08h.13l.15,0,.06,0,.12.05.31.4.06,0,.05,0h0l.09-.05.11,0,.19,0h.09l0,0v.05l0,.05h0l0,0,.21.21.08,0,.06,0h0l.18,0,.35,0H650l0,0v.18l0,.08.18.15,0,.06v0h0V499h0l-.32.1-.14.12-.09.1h0l-.06.1-.12.25v.21l0,0h0l0,0,0,0,0,0h0l.15.07h0l.06.05.07.08,0,.11v.06h0l0,.05h0l-.07,0-.08.06h0l-.12.13-.11.15,0,.11,0,.14v.23l0,.14-.06.13,0,0,0,0-.14.11h0l-.07.08,0,0h0l0,.15-.07.26h0l0,0-.06.08h0l0,0,0,0h0l-.15.06-.15.06h-.06l-.07,0-.2,0-.1,0h0l-.09.07h0l-.06.06-.07.07h0l-.09.15h0l0,0,0,.05,0,0-.1.08-.06,0,0,0h0l-.23.18h0l0,0h0l-.54-.05-.28.05-.05,0h0l-.23.17h0l-.09.06-.07,0h-.32l-.1,0h0l-.13.08-.27.21-.13.12-.09.12h0l-.09.17-.11.33-.06.12-.38.59,0,.07v.14l0,.06.08.15,0,.08v.16l-.26.74-.12.25,0,.06,0,0h-.07l0,0,0,0-.05-.1,0-.08h0l0,0v0h0l-.06,0h-.33l-.11,0-.16.08-.24.12h-.12l-.26-.05h-.12l-.38.07h0l-.12.06-.05.06,0,.07v.32l0,.06-.06.11,0,.06V508l0,.41v.1l0,0-.08.13v0h0v.52l0,.09h0v0l-.07.28-.06.19-.14.25-.05.09h0l.09.31.5.75.11.21,0,.15.18.2h0l.21,1.08v.26l0,.49v.32l.23.91.12.9v0h0l.78,1.48,0,.51-.19,1.12.11.4.16.22.09.25,0,.28,0,.29-.06.2-.23.48,0,.14,0,.1-.07.21,0,.11.35.31.14.2.13.27.1.28,0,.24,0,.15-.08,0-.08,0,0,.1v.15l.1.49,0,.12,0,.12v.14l-.07.06h0l-.09,0h0l-.1.07-.13.45-.14.18-.12.19,0,.27.14.21.14.2.06.14,0,.17,0,.11,0,.16,0,.28,0,.29,0,.3-.05,0-.08.05h0l-.06,0h0v.14l0,0,0,0h.09l.06,0h0l.1,0h.07v.14l0,.1,0,.07.26.17.1.09.07.15v.18l-.06.17-.07.11v.17l-.28.28.22.32.41.28.75.33.4.26.12.23.16.09.25.14.21,0,.08,0h0l.23-.12h0l.13,0,.18,0h.42l.24.06.21.11.1.1.07.08,0,.07v0l.21.37.08.1,4.21,2.2v0l-.12.18.13.28.16.22.21.14.27,0,.24-.06.41-.25.25,0,.21.12.37.37.21.11.25,0,.67-.11.24-.08.26-.19.1-.23.06-.26.12-.29.22-.23.23-.05.17.14,0,.34-.08.32-.32.63-.1.34v.33l.09.61,0,.29-.1.26-.14.26-.09.27,0,.3.38,1,.33.4.45.16.49,0,.45-.15.49,0,.87.44.53-.05.53-.22.42,0,.39.16.47.39.43.26.88.22.43.25.86.72.36.3.33.42.08.34-.13.29-.41.47-.1.25-.13.51,0,.16-.4,0-.17,0-.29.1-.39.2-.29.28,0,.34h-.17l-.29-.09-.1,0-.14.14-.11,0h-.1l-.78-.29-.23,0,.1.42h-.13l-.31,0-.12.06-.09.15-.06.13-.08.1-.15.09-.31,0-.28,0-.25,0-.2.25-.57-.2-.22.32-.11.52-.23.39-.27,0-.81-.16-.36.68-.16.13-.2.07-1,.75-.19.2-.12.24,0,.33v.19l0,.07-.06,0-.1.14,0,.07,0,.17,0,.07,0,0-.1.05,0,0-.14.24,0,0,.13.17.71,1.3.36,1.4.38.59,0,.28-.06.27-.15.24-.21.26L656,555l-.5,1.27-.09.34v.66l-.2.59,0,.3,0,.28.06.21.11.19.17.21.2.09.56-.1h.25l.19.12.23.21.11.14-.73.4-.27.2-.19.26v.31l-.19.18-.18.23-.19.21-.25.08h-.28l-.24,0-.21.11-.22.2L654,562l-.05.21-.1.12-.27,0-.33-.1h-.14l-.17,0-.13.09-.11.13-.08.16.09.26-.14.26-.25.2-.25.08,0,.06.12.29v.11l-.1.1-.19.15-.1.1-.26.39-.21.19-.09.11-.09.3-.18.14,0,.12,0,.21-.1.08-.29.06-.27.13-.2.14-.17.16-.19.23-.13.28,0,.25,0,.27,0,.36-.17.19-.5.14-.11.11-.08.2-.64.9-.12.1-.16,0-.21-.07,0,.09,0,.21,0,.1-.24,0-.25.14-.2.21-.08.23,0,.06.62.34.26.38.29.63.18.63,0,.2,0,.23-2.1,1.76-.48.28-2.3.52-2.18,1-.19.22-.54,1.77L639.7,580l-.65,2.14-.7,1.35-.62,1.2-1,1.91L636,587.7l-.32.54-.41,1-.16.22-.21.15-1.62.85-1.44.76-1.68.88-1.81.95-.35.24-.94,1.15-.3.6-.74,2.88-.26.69-.34.62-.5.52L623.33,601l-1,1.33-.14.28-.07.27-.14,1.75-.07.21-.17.14-2,.62-1.77.55-1.06.08-1-.08-1.09.09-1.08.24-1,.32-1.55.78-1.44.72-1,.23-.88-.12-.65-.45-.49-.71-.39-.91,0-.27.05-.53-.1-.3-.16-.17-.35-.29-.42-.49-.31-.25-.36-.19-.37-.12-.27,0-.24.06-.49.2-.49.07-.22.07-.23.16-.71.79-.87.63-.12.13-1.1,1.15-.14.26-.93,2.75-.3.42-1.08,1.05-.76,1.24-1.48,1.42-.81.57-1.15,1.16-.52.89-.33,1.07-.28,1.75-.26,1.68.1.58.39.45,2,.81.52.35.91.82.54.21,3-.13.48.13.45.25.36.46.06.51-.08,1.17,0,.55,0,.25-.12.29-.07.28,0,.27.1.57-.06.51-.19.52-.68,1.14-.05.23,0,.5-.11.73v.21l.23.71.4.68.5.59.52.46.23.29.26.77.19.33.19.14.5.18.71.16,1.48,0,.5-.11.47-.21.48-.14.51.11.27.37,0,.58-.06,1.22-.07,1.61.1.48.2.3.5.55.1.35.06.33.15.28.42.48.8.69.22.28.14.33.42,1.92.28.77.35.73.76,1.2.42,1.21.25.39.09.14-.26.19-.83.41-.18.33-.1.43,0,.4.25.22,0,.07v.09l0,.09,0,.1,0,.28,0,.1V654l0,.1.29.17.5.09.44.14.1.34-.12.13-.61.22-.13.16-.09.15-.13.11h-.25l-.28-.12-.24,0-.23.07-.77.53-.2.25,0,.24.17.23-.08.1-.22,0-.26.09-.47.25-.26.07-1.69-.14-.47-.23-.21-.2-.09-.2-.07-.55-.12-.49v-.15l.07-.09.22-.15.07-.14-.15-.33h-.53l-1.32.32-.58.41-.22.08-.69,0-.24.12-.47.34L601,656l-.25,0-.73.24-.44,0-.15.09-.14.22-.3.86-.14.26-.46.38-.55.13-2.56,0-.69-.08-.56-.28-1-1-.37-.17-3.57-.1-.94.35-.5.08-.23,0-.71-.35-.31-.09-.24,0-.51.29-.35.13-.22,0-.18-.18-.24-.44-.1-.12-.11-.09-.11-.05-.18,0-.06.08,0,.12,0,.11-.39.73-.13.11-.24-.19-.07-.81-.19-.28-.65,0-.27.58V661H579.9l-1.47,0-.58.1-.4.29v-.11l0-.13,0-.11-.08-.06-.16,0v.12l.05.14v.1l-.11.18-.15.16-.17.08-.18-.08-.08-.13,0-.11,0-.06-.13,0-.11.09,0,.12v.13l0,.09,0,0,0,0,0,.05,0,0h0l-.13,0h0l-.09,0-.22.1-.1.07-.3.46v0h0v.09l0,.11,0,.41-.12.34,0,.22.06.14.12-.1.25-.28v.29l0,.28,0,.26.14.25.2.2.2.11h.23l.27-.16,0,.28-.18.06-.21,0-.16.2-.16-.2-.13-.05-.15.06-.17.09,0,.06,0,.19-.05,0-.25,0,0,0-.09.25.18.17.3.09.63.08.8,0,.17,0,.12,0h.13l.18-.13.09-.1.05-.1,0-.1-.12-.08.87-1.06.21-.19.28-.12.29-.2.47-.09.19-.11.17-.12.21-.1.41-.1.14-.09.14-.18.17-.4.13-.12.26,0h.48l.32-.06.29-.18.34-.34.16.06.32-.14.21.08-.67.51-.16.07-.14,0-.25.19-.12,0-.45,0-.12,0-.2.23-.21.52-.46.18-.23.18-.36.4-.2.31-.07.07-.12,0-.25,0-.19.13-.25.07,0,.06,0,.2.1,0,.12,0,.08,0v.26h-.25l-.56-.17-.24.14,0,.32.07.67-.06.56.07.19h.25l.2-.12v-.19l-.07-.21-.06-.24.09.11.13.21,0,.06.12,0,.1-.06h.07l.06.15-.26.12-.23.25-.18.3-.12.27.09.13.12,0,.15,0,.17-.11-.06.18,0,.18,0,.15.16.06.2-.07.07-.11.06-.08.15.07.11-.09h.11l.07.06.06.13h-.14l-.11.06-.07.11,0,.16,0,.15.07.11.11.08.14.08,0,0,.07,0,.08,0h.08l0,.05,0,.1.05.09.09,0,.18.05.14.1,0,.1-.1,0-.39,0-.09,0-.26.52.14.25.33.06.34-.06.23-.11v.16l0,.15-.13.26-.14-.15,0,0,.06.21.11.25.17.21.34.15,0,.12V672l0,.06.08,0,.39.33,2.21,1.51,2.19,1,1.21.85.84.49.46.14,1.26.13.43.19.42.07.24.13.6.13.06,0,.07,0,.09.05.13,0,.14,0,.42,0,.16,0,.24.2.12,0h.86l.51.15.27,0,.17-.11.39-.74.26-.26.33-.24.34-.18.24-.07.4-.06.71-.25.71-.11.82-.33.74-.09.19-.07,0-.15-.15-.16-.13-.09.26-.48,0,.13,0,.12.05.09.15,0h.08l0,0,0,0,0,.07.11.1h.06l0,0,.09,0h.32l.23-.09.12-.22,0-.34.2.17.11.21.14.19.29.07,0,0,.08.1,0,.09.07,0,.07-.05.06,0h.08l.06,0,.06.05.06.06.09.06.07,0,.07-.06.07,0h.27l.1,0,.08-.07,0-.11,0-.19v-.19l0-.12v-.12l.11-.33-.08-.14,0-.17,0-.18v-.14l.15-.23.51-.27.11-.12.09-.21.22.1.23.24.15.21.11.26.06.32v.32l-.12.27-.07.12-.1.22-.09.13-.14.09h-.15l-.15,0H604l-.21.17-.41.48-.21.1-.16.13-.41.82-.22.23,0,.05v.15l0,.33,0,.13-.65,1-.41.78-.35.46-.22.51-.14.22-.43.19-1.08-.15-.48.05-.23.16-.08,0-.29,0v0l-.14.08-.71.67-.26.17-.27.11h-.16l-.11,0-.11,0-.14.16-.07.15,0,.16-.07.11-.16,0-.07-.06-.59-.68-.11-.1-.1.22-.21.62-.12.2h-.06l-.18-.07-.08,0-.06,0,0,.06,0,.07-.05,0-.07.1-.06.13-.09.06-.13-.11-.13.17,0,.09v.12l-.19-.11-.41-.09-.18-.1.09-.19,0-.27-.16-.55h-.08l-.13.08-.11,0h-.08l0,.23,0,.21.08.17,0,.16-.07.19-.06,0H592l-.08,0,0,.07-.18.26-.08.08-.13.06-.43.1-1,0-.17,0-.13.26-.63.29-.93.15v-.1L588,684l-.21-.22,0-.27.2-.29,0-.23.3-.44-.05-.22-.18-.16-.12,0-.12.1-.18.17-.1,0-.09,0-.1,0h-.11l-.12,0-.2.12-.11,0-.22,0-.12-.12-.17-.32.09-.14.24-.11.1-.14,0-.18,0-.1-.1,0-.33.24-.51.29-.18.16-.12.16-.12.2-.08.24,0,.28-.06.24-.12.2-.09.22v.32l.11.26.34.55.17.43.24.25.45.38.55.8.14.31.2.2.4.28.6.84.18.17.4.29,1.16,1.13.25.13.15,0,.29-.28.06.21-.05.4.08.23.37.46.24.2.41.19.26.44.26.21.42.54.19.2.78.46,1.6,1.71.19.16.22.13.25,0,.07.44.39.6.84,1,.59.56.1.14.06.12,1.09,1.42,1.19,1,1.41,1.33.46.29.46.43.79.32.23.17.43.47.15.09.26.07.73.49,2,.83.41.31.12.06h.14l.15-.07.14,0,.14.07.2.17.23.08.26,0,1.68-.11h.12l.23-.16.06-.2,0-.07.21,0,.26.06.22,0,.13-.09.14-.15.15-.1.19.06.08-.1.3,0,2.25-1.13.75-.14,1.06-.35.24-.2,0-.23.12-.16.54-.48.19-.12.23-.08-.09.09-.07.09-.09.2.42-.09.72-.53.54-.19.44-.28.16,0,.17,0,.24-.07.32-.2.22-.2,1.52-.92.58,0,.24-.05.81-.44.1-.08,0-.09.11-.06.12,0,.08,0,.17-.18v-.23l-.14-.29,0-.13,0-.07.08-.09,0-.13-.07-.18.13,0,0-.09,0-.11-.07-.14.15-.11.45-.5.09-.18.1-.26.67-.71.28-.49.42-1.56,0-.07.16-.15,0-.06,0-.14v-.1l0-.11,0-.16,0-.08-.08-.07-.09-.1-.09-.25-.11,0-.14,0h-.14l-.13-.06-.08-.07-.06-.07-.06-.09-.15-.48,0,0-.06-.1-.23-.12-.06-.15,0-.18-.06,0L625,691l-.17,0-.2-.13-.17-.05-.24,0-.42.15v-.36l-.16.07-.05,0,0,.07-.07-.16,0-.17v-.37l0-.21.08,0,.75.32.3,0,.22-.07-.23-.41-.07-.06h-.11l-.13,0-.11,0,0-.05.11-.25.25.06.27.19.16.14.15.22.09.1.4.1.09,0-.09-.16,0-.17.09-.18,0-.16-.22-.1.08-.09-.17-.08v-.1l.14-.11h-.18l-.48.1-.21,0-.75-.26.13-.12.21-.08.23,0,.18.08.11.08.07,0,0-.09v-.1l-.28-.2-.07-.08.48.14.13,0,0-.15L625,688l-.28-.18.21-.05.26.08.22.15.09.14.06.14.12,0,.12-.09.05,0,.06-.1.05-.14.06,0,.08.17h.1l0-.18,0-.05.21.06.15,0,.11-.05.22-.21v-.06l.09-.16.11-.14,0,0,0-.15.13-.23.12-1.45-.14-.61-.48,0-.37-.16-.06-.07,0-.17.07-.13,0-.13-.07-.18-.4.4-.23.11-.31-.13-.22-.24.16,0,.57.1L626,684l.09-.12.19,0,.22,0,.3.09,0,.11,0,.15.16.21h.16l.26.06.25,0,.1-.33,0-.25.12-.29.14-.26.13-.17.33-.15.13.18,0,.28-.21.15-.1.13V684l.07.32.07.18.28.1.23-.13.21-.15.19,0,0,.12-.16.14,0,.12.12,0h.16l.29-.09.24-.18.4-.4.27-.08.28,0,.13,0,.23.17h.13l.14,0h.17l.84.34.38.07.37-.18.17-.12.24-.1.26-.05.2.08.19.12h.21l.17-.1.08-.16.15.13.06.23v.25l-.07.18-.24.14-.2-.1-.21-.18-.22-.09-.44.08-.28.23-.53.73-.24-.19-.13-.06-.14-.05h-.1l-.11,0h-.12l-.15-.1-.22-.18-.23-.11-.25,0-.3.09-.19.14-.23.25-.19.27-.08.22,0,.3-.05.15-.13.26v.15l0,.15v.16l-.06.3-.17.52,0,.25.06.19.34.57.11.13.2-.06.3-.18.26-.21.11-.16.15-.15.89-.08,0,0,0-.08,0-.1.09-.07.07,0h.16l.11,0v.11l-.26,0-.09.23-.06.26-.16.12-.48,0-.22,0-.2.17-.25.6-.17.3-.23.13,0,.14-.08.88-.08.31-.23.51-.05.26.08.3.2.09.25-.06.58-.2h.24l.23.06.29,0,.72-.13.28,0,.54.15.26,0,.27-.18.23-.09.31,0,.55.11.3-.06.52-.26.26-.06.13,0,.23-.2.08,0,.47-.18.44-.25.09,0,.07.13-.06.15-.13.13-.11,0-.29.05-.79.42-.72.27-.38.28-.58.24-.22.06-.17,0-.31-.09h-.14l-.16.13-.27.53-.2.21-.27.2-.31.17-.29.06-.18.11-.49.45-.2.11-.2.16-.37.74-.08.21.36-.06.67-.48.23-.12.69-.23.13,0,.05.22-.07.15-.23-.18-.66.47,0,0-.48.28-.77.24-.12.06,0,.13.14.12.19.06.37-.1h.2l.08.11-.09.08-.44.06-.16,0-.05.1,0,.13.12.33.05.4,0,.15.16.19.08-.09.26-.19,0,.27.16.12.17.08.09.13.09.12.46.15.14.14h-.17l-.12.07-.23.21-.8.57-.19.22v.19l.18.24.11,0,.26-.17h.09l.07,0,0-.17,0-.3v-.15l0-.11.13-.06h.25l.1-.09.18.22-.1.25-.19.31-.07.43.38-.18.06-.06V700l0-.09.06-.08,0,.07.09.06,0,.06.56-.26.12,0,.08.12.43,1-.06.13-.28.06-.49-.09-.22,0,.07.2.12.18.08,0h.14l.12,0,.1.07.06.1,0,.12.12.14.27,0,.28-.09h.16l0,.27-.38.19-.24.25.35.44-.13.14-.11.47-.11.22.48-.36.08,0,.16-.06.08,0-.15.22-.11.3.07.31.19.11.24-.31.07.15,0,.11,0,.09v.11l.09.09.12.06.11.09,0,.14h-.09l-.52.37.12.19v.26l0,.61,0,.16-.18.18,0,.12v.15l.06.29v.16l0,.3-.05.29-.09.25-.4.6-.09.13-.14.28-.08.28,0,.42,0,.1v0l-.09.1-.15.13-.14.09h-.07l-.05.3-.12.24L633,711l-.1.21-.07.44v.3l0,.08.06,0H633l0,0,0,.15-.19.26,0,.15-.08.59-.23.63,0,.13v.81l-.06.2-.11.25-.13.2-.1.09-.14.06,0,.15,0,.34,0,.47-.07.2-.12.2v.13l.29.39.09.17-.06.49,0,.23.15,0,.49-.6.05.19,0,.1v.13l0,.1-.08,0-.09,0,0,.07,0,.24.1.17v.13l-.23.11,0-.12-.06-.1-.07-.08-.1-.07.29,1,.11.58-.09.25.14.69.24.27.1,0,.08-.09v-.1l-.07-.1-.18-.17.06-.08v-.11l0-.12,0-.15h.09l.23.11.13.09.06.12,0,.16.06.12.08.08.1.05.25,0,.26-.11.26-.07.28.12-1.39.56-.18.12-.1.19,0,.31.14.74,0,.12.31.47.18.18.21,0,.23-.24.23.12.36.3.19.13.23.05.68-.05.21.09.18.18.13.19.09.09.12.09v.2l0,.22.24.13-.29.17-.2-.25-.28-.74-.2-.19-.16,0-.17.07-.2,0-.38,0-.19-.07-.23-.28-.35,0-.68.07-.13.2,0,.45,0,.81.18-.17.16-.27.16-.22.19,0-.13.16-.22.39-.24.57,0,.12,0,.12h.09l.1-.08.07-.2.07-.05h.09l.06.08v.08l-.13.13,0,.1,0,.12.12.24,0,.14v.16l-.16.4.15,0,0,.13,0,.15-.06.13,0,0-.13-.06,0,.39,0,.15-.08.19-.25.34-.07.16.06.15.16-.13.06-.07,0-.08h.09l.06.2,0,.16,0,.14v.14l.12.16.11-.08.08-.2.11-.54.19-.37.23-.33.2-.19.08.33v.12l.54-.56.11-.28-.21-.16.09-.18,0-.46.19-.18.21-.46h.1l-.1,1,.09.16.15.06.07.1-.13.27.08.13-.05.35.06.16.3-.14.35-.11.21,0-.12.27h-.06l-.63.18-.3.13-.19,0v.09H636l-.14.21h-.18l-.17-.05-.16.06,0,.35-.08.13-.2-.17-.2.39.25.32.38.16.19-.09,0,0,.05,0,.07,0h.07l0,.05,0,.11-.05.12v.08l.08.21.09.1.35.15-.17.16-.14.3,0,.34.09.3-.19-.07-.14-.14,0-.19.11-.24-.45-.5-.16-.13L635,731h-.13l-.19-.1h-.1l-.17.11-.11.18-.06.21v.67l0,.52.12.43.22.18.3.77.05.24.14.06.37-.07.13.07.12.18.1.23,0,.2.1.25.19.14.14.13-.08.26-.24-.26-.36-.64-.18-.19-.28,0-.22.16-.15.27,0,.29,0,.53,0,.16.07.16.09.12.07.12,0,.18v.11l0,.07v.06l0,.09.06.06h.14l.07,0,.22.29.1.07h.2l-.09.23.12.21.22.15.22.06.39,0h.18l.18.11-.08.21.11.44,0,.27-.18.24-.12,0V739l.2-.12-.16-.23-.23-.13-.26-.07-.21,0h-.17l-.07,0,0,0-.1-.14-.07-.15,0-.11-.05-.09-.17-.06-.06.13,0,.13,0,.11.07.09-.06.08-.11.28.36.09.15.28.11,1,0,.09.08.1.05.11,0,.11-.05.08,0,0,.08.18.17.2.1.17.08-.14.09-.11.12-.08.15,0,0,.24-.12.1-.17.07-.13.13-.05.18.05.16.13.11h.2l-.23.27,0,.27.59,1,.11.28.07.43.08.15.2.23.06.14,0,.36.07.14.1.16v.17l-.07.16-.12.15,0,.14.06.18.11.16.09.11-.07.17v.21l.09.2.13.14.19.07.4,0,.19.08-.47.22-.18,0h-.16l-.11,0,0,.11.07.22.43.48.19.34-.09.27.15.2-.11.21-.15.18,0,.14,0,.16.32.27.14.21.35.68.18.23-.22.07-.18-.1-.17-.15-.21-.1.08.16.22.25.05.08,0,.21.23.43v.28l.24.45.07.2v.2l-.08.19.15.26.11.3,0,.31-.1.31-.13-.17-.1,0v.14l.14.18-.1.16.1.12.34.18-.18.33-.06.18v.21l.12.49v.06l-.13.16.06.35.16.37.13.2.08-.1v.26l-.12.33-.07.37.14.36.2.17.07.1,0,.18,0,.11-.12.16,0,.09,0,.09.14.32.2-.15.19,0,.15.09.06.24,0,.14-.07,0-.06-.09v-.22l-.39.18h0l-.09.09h0v.11l.07.18.17.14.23.08h.21l-.07.06-.14.15,0,.06.06.1.08.07.09.05.12,0-.29,0-.15,0-.26-.29,0,0-.09-.12-.09-.08,0,.1v.3l0,.14.1.06.07.11.18.55.1.47.13.18.2.13.22.09-.15.08-.11.08-.07.12v.17l.22.1,0,0v.32l.34,1.08.06.26,0,.09.08.09.07,0,.07,0h.05l.06.2V766l.09.64v-.39l.06-.31.16-.2.29-.1-.11.16-.12.11L642,766l0,.19V767l0,.09,0,.07-.08.07,0,.13.09.06.1,0,0,0,.05.16.15.11.19,0h.21v.09l-.36,0,0,.28.24.34.24.24.74.61.21.29.43.83.1.33,0,.56,0,.16.12.09.21,0,.22,0H645l-.18.14V772l.06.14.09.41.11.25.15.21.12.1.06-.07.45-.29.1-.05.09-.11.22,0h.47v.09l-.64.16-.34.13-.15.2,0,.11-.06,0-.06.08,0,.16,0,.19.05.15.19.3-.06.32.19.21.26.06.12-.1.88-.49v.08l-.07.07v.06l0,.07.12.07-.56.12-.13.06-.11.12-.11.17-.06.18v.16l.12,0,.45,0,.07,0,.09.12.06,0H647l.18,0h.08l.53.23.12.08.29.4.1.09-.05.05,0,0h-.1l-.11-.25-.15-.13-.43-.16-.18.13-.17,0-.14-.08-.15,0h-.12l-.71,0,.35.39.21.17.27.06h.26l.17.06.11.15.71,2.39.08-.1.1.22,0,.11-.26.17-.1.13-.09.16-.12.38.65.19.11.1.29.6.14.08.17,0,.14.08.06.21-.07.39V782l.08.18.52.3,0,.06.12.08.15.4.11.14h.17l.2-.09.17-.13.07-.1.08-.08.4-.19.13-.13,0,.17.12.07.12,0,.06,0,0,.15-.07,0-.11,0h-.13l-.22,0-.15.09-.12.16-.12.24-.1-.12-.14-.05-.15,0-.13.07-.06.14v.17l-.06.07-.23-.11.07.23.19.17.43.22v0l.09.16h.05l.15,0h.06l.08.1.18.35.18-.21.15-.09.17.06.24.19.12.23.08.56.09.24-.12.12,0,.15.09.12.15.06.17-.05.14-.08.15,0,.19.08v.09l-.4,0-.15.19v.29l.09.36,0,.13.11.11.19,0,.18-.09,0-.17,0-.19,0-.16.2-.1,0,.12V787l0,.16.07-.06h0l.14.07,0,.05,0,.09,0,.05.17.08.53.62-.33,0,0,0,.12.18h-.23l-.14-.29-.13-.36-.2-.23,0,.32.26.5.09.47.06.09.07.07,0,.1v.34l0,.16.09.13.11.23,0,.57.15.23.11.05.8.29.12.09-.18,0h-.3l-.3-.07-.18-.13-.05.3.12.27.36.5.08.26,0,.73,0,.13.16.19,0,.12v.13l0,.27v.14l.11.26.4.53.19.31.41.54.16.43.23.46.11.8.3,1.07.17.41.2-.53.14-.14.18.22-.16,0v.07l.17.16.14.22.1,0,.19,0-.15.11-.17.07h-.17l-.12-.09h-.08l0,.14,0,.08,0,0-.08,0v0l0,.05,0,0,0,0,0,.19.08.71v.29l.31.85v.54l.08.09-.18,0,0-.31-.12-.38,0,.33,0,.43.09.22-.06.15.08.2.14.23.1.23.23.88.06.54.14.65,0,.14.08.07,0,.15v.32l.08.25.06.08.12.11-.16.42.59,2.47.42.06.56-.18.58-.1-.1.16-.19.1-.21.07-.14,0-.11.05-.18.23-.1.07h-.1l-.33-.17,0,.18.09.11.12.1.1.14,0,.14v.28l0,.07.18.22.12.22.95,2.44.27.39.11.2,0,.26,0,.12.09.09.09.07,0,.08,0,.1.09.27.81,1.41.2.47.08.3,0,.16v.16l.11-.11.07-.12L663,817l.16,0V817l-.11.44.16.6.47,1.08.07.46.09.25.19.18,0,0,0-.06.07,0,.07,0,0,0,0,.05.06.06.08,0,.08.07.39.46-.2-.39,0-.2.51-.39v0l.25.25.06.13-.19,0-.42,0,0,.1.14.28.15.2.18.13.19.08.22,0,.16-.05.24-.23.16-.08-.09.22,0,.16,0,.14.17.11v.08l-.93-.2-.24,0,.21.43.32.35,0,.14,0,0,.21-.1h.09l1.6,1.78.31.43.69,1.68,0,.17.24.35.07.23,0,.26.1.15.17.06h.25l.19.07.15.16.23.39.21.49.13.18.17,0,.09.17,0,.1-.13.09,0,.15,0,.09,0,.07.07.12,1.13,2.73.6,2.13.18,1.06.21.53.38.16-.06.07-.16.13,0,.07v.13l.06.1.06.08,0,.09.05.23.77,1.55.1.5.14.17.32.31.1.2.14.56,0,.26.07.22.45.62.18.53.23,1,.19.53.09.18.13.16.17.05.22-.13.1-.21,0-.24-.17-.43.15.07.09.12.11.25h.07l.08,0H677l0,.1,0,.09,0,.09v.09l-.16.17-.59.33v.2l.08.13v.12l-.05.19v.2l.41,1,.17.31.19.16-.1-.22-.05-.27,0-.51-.07-.21-.12-.21-.08-.24.1-.27.1.26.06.11.11.08h.11l.12.7.24.15-.06.25.11.5.21.34.21-.2.12.17.49.49.05.2.28.49.11.24,0,.26-.07.13-.09.12-.05.23,0,.13.11.23,0,.12v.16l0,.23,0,.14.1-.06.1.13.06.23v.59l.06.28v.26l-.16.32.13.1.14.08.25-.1.23.09.23.16.24.11-.34.4-.22.08-.31-.13-.11,0-.62-.12-.25-.08,0-.18.25-1.14.08-.18.09-.15.08-.17,0-.2-.22-.22-.11-.25-.11-.68v-.17l0-.28,0-.16-.08-.18-.2-.33-.06-.19-.16.12.05.19.28.39-.11.34.13.8,0,.35h-.09l-.32-2.07-.06-.23-.15.11.1.18-.06.11-.13,0-.11,0,0-.07,0-.17v-.2l-.06-.18-.07.18,0,.08-.13-.07-.08-.11,0-.14V847l.07,0,.3.09.07-.06-.08-.25-.2-.29-.22-.15-.19.13,0,.17.09.58.08.13.3,1,.25,1.93-.07.32.26,1.8.64,2.14,1,2.31h.08l0-.19-.39-1v-.13l.17,0,.19.42.24.78h.08l0-.11,0-.06.12-.09L680,857v.18h-.1v-.1l0-.06,0,0,0-.08,0,.3.37.76.14.43.17.26,0,.14V859l.05.21.08.18.12.1,0-.24,0-.19.14-.15.2-.12,0,.19,0,.08-.09.08.09.19.1-.15.13-.39.08-.08.3.14.18,0,.07-.13.07-.07.15-.07.18,0,.13,0v.1l-.15.06-.18,0-.1.06.08,0,.14.09.11.1,0,0-.68-.08-.13.06-.14.15-.1.18,0,.14.11.15.16,0,.17-.06h.17l-.14.09-.24.13-.22,0-.18-.26h-.14l0,.15.18.28,1.09.92.2.24.44.77.45.4.14.3.9,1.07.17.4.67.63,1,1.48.42.46L688,867.8l.23.17,1.22,1.12.17.12.31.08.3.19.1.08.17.21.09,0,1.69.51.78.15.68-.08,0-.41.43-.31.61-.22,1.38-.23.2-.1.31-.43.16-.17,2.45-1.48.49-.2.22,0,.08-.12.22-.75.09-.11.35-.33.11-.14.06-.14.18-1.34-.09-.42-.26-.41H701l-.07-.15,0-.14.19-.23.12-.35.06-.09.22-.15.22-.1.14-.16-.06-.29-.13.24-.15,0-.16,0-.17.13.1-.23,0-.29.05-.85.06-.21.44-.79.28-.34,1.74-1.43.43-.28.48-.22.46-.1,1.67-.2.21-.06.17-.08.08-.13.08-.2.19-.09.65,0,.16-.07.14-.1.13-.12.19-.12.48-.12.36-.2.22-.06.44-.06h.11l.09,0h.09l.13,0,.25-.22.1-.05.41,0,.46.06.44.12.34.14.14,0,.39,0,.45-.23.24,0,.21.07.21,0,.19.13.76.09.86.47.8.7.2.1.17-.1-.19-.22-.89-.66-.18-.17-.08-.12,0-.07-.05-.06-.07-.09,0-.14,0-.15.07-.11,0-.1-.06-.12-.26-.09-.29.14-.3.2-.28.1-1.71,0-.52-.11-.44-.19-1-.9-.33-.4-.23-.47,0-.27.15-.51.08-.61.09-.28.11-.25.12-.19.07-.06.13-.11.06-.09,0-.14v-.23l.74-1,.49-.45.2-.25.09-.31,0-.05.23-.26.26-.52.74-1,.51-.51.48-.33-.32-.23-.12-.4-.09-.86v-.18l0-.17.1-.12.17-.05.09-.06,0-.15V843l0-.14.18-.24.24-.2.74-.43.27-.23.16-.06.18,0,.32.14.28,0,.65-.11.27-.08v-.09l-.05-.11.49,0,.25-.1.25.1,0,.09-.38.16h-.21l-.07,0V842l0,0,.09,0,.21,0,2.27.48.16,0v-.16l-.18-.11-.36-.08h-.34l-.11,0-.13-.09-.11,0-.18-.06-.19,0h-.41l.09-.19.15-.05,1.56.25.29.16v.27l.2.08.25,0,.25-.08.21,0,.07-.14.09-1.1,0-2.21-.12-.53v-2.09l0-.7h0l-.08-1.81.08-.38.07-.35,0-2-.25-1.34,0-1,0,0h-.07l-.34-.16-.26,0-.22.06-.09.23-.13.06-.57.42-.17.09h-.09l.11-.2.7-.7.12-.1.12-.06.13,0h.08l.09,0h.35l.11,0,0-.12-.06-.67-.1-.11-.2,0,.06.06,0,.08,0,.1,0,.11h-.09l-.07-.5-.29-.92-.07-.53,0-.25.11-.48,0-.51.24-1.23.08-.25.14-.1.09-.48.12-.59.31-.7.06-.28h0v-.05l.12-.18,0-.07,0-.43,0-.14.1-.19.34-.41.39-.79.07-.11.18-.19.73-1.14-.4.25-.26.11-.12,0,.11-.16.67-.34.26-.26.4-.71,0,0,0,0,.29-.17.11-.15.27-.5,0-.21.44-.74.3-.75,0-.19,0-.26.14-.6.09-.24.24-.36.08-.19.06-.47.23-.67.14-.94.08-1.58.17-.93,0-.5,0-.12.23-.25.07-.12-.08-.39v-.14l.08-.23.13-.21.11-.23,0-.3-.2,0-.06,0,.06-.21,0-.23.05,0,.13.05,0-.37.11-.65,0-.36,0-.34-.12-.49-.09-.22-.17,0,0,.05-.06.13-.18-.21-.23-.14-.16-.14.05-.23h-.16l-.13,0-.1-.07-.09-.1-.1,0-.56,0-.29-.06-.26,0-.16-.06-.09-.14-.14-.33-.4-.48-.17-.27,0-.31.28-.38.2-.14,0-.16v-.31l.08.11.12.07.1.09,0,.14,0,.32,0,.15.18.11.08-.39v-1l.14.13.39.51.17.47.61.67.41,1h0l.37.93h.08l-.05-.5-.27-.62-.37-.84-.26-.89-.13-.22-.09-.26.08-.3.23-.46,0-.58-.16-.51-.92-1.93-.18-.52-.3-1.57,0-.59.15-.46-.18-.17-.18.11-.2.22-.22.2-.29.07,0-.14.11-.19.19-.1,0,0,.19-.24.14-.05.38,0,.11-.17.28-.72.2-.25,0-.59,0-1,.16-.74,0-.29,0-.07L727,787v-.08l-.09-.08h-.09l-.3.07h-.13l-.09-.08.24-.11.11-.08.08-.09,0-.17-.06-.14-.09-.15-.08-.45-.1-.13-.3-.21-.14-.12-.08-.09,0-.13,0-.64-.41-2V782l-.15-.43-.09-.51,0-1,.37-1.46.13-1.21,0-.1.39-.86.07-.23.17-.24.41-.42.14-.18.21-.4.14-.19-.17-.08,0-.2.21-.39,0-.25.55-1.41L728,772l1-1,.43-.27.54-.15.12-.08.2-.2.09-.07h.17l.12,0,.43-.23.2-.15.15-.16h.09l.13.16.17-.06.2-.12.23-.07.56,0,0-.06,0-.08.09-.1H733l.08.05.1,0,.58,0,.3.06.2.11.34.55.07.51,0,1.14.16-.13.13-.28.32-1,.44-.95.07-.54-.06-.55-.2-.52.1.08,0,0,0,.06.1-.09,0-.13,0-.14.12.41,0,.22v.23l-.09,1,0,.25.07.25.15.18.24.07.11.07.37.32.12.16.09.09.12.08h.09l.09-.09v-.1l-.09-.26,0-.08-.08-.09,0-.13v-.16l.35-.44.21-.18.57-.35.59-.6.19,0,.07-.21v-.69l.07-.25.23-.39.13-.68.35-.8.15-.58.3-.36.07-.23,0-.18-.08-.12,0-.12.14-.16.73-.46.18,0,.17-.05h.19l.2.09.14-.12.15-.08h.16l.16.12,0,.1,0,.1-.07.1,0,.14.74-.24.26,0,.5.14.17,0-.11-.28h.21l.15.07.06.12-.07.16.21.05.46,0,.19.09.25-.06.26.13.24.16.2,0h.08l.57-.14.25-.21,1-.48.24-.09.25-.05.51,0,.1,0,.1-.2.15,0h.31l.19-.14.19-.22.18-.15.4,0,.28-.14.4-.3.64-.31.19,0,.19-.11.7-.7.61-.18-.14-.15-.14-.21-.05-.19.07-.09.09,0,.07.21.06,0,.11,0V760l0-.09,0-.11.3-.66.1-.37.08-.73.17-.66,0-.64v-.64l-.07-.36-.15-.27.1.42,0,.44,0,.42-.13.18-.22-.11,0,0-.08,0-.09,0h-.07l-.08,0-.06-.06-.06-.06-.39-.12-.16-.23-.05-.3,0-.28.49-.92.1-.42.16-.21.38-.35.36-.49.22-.22.44-.17.15-.19.22-.38.29-.31,3.07-1.88.5-.14.49-.32.52-.13.21-.13.18-.15.18-.1.07.15h.1l.62-.44.09,0L762,749l.08,0,.26-.26.3-.24.42-.2.44-.32,1-.39.31-.22.17-.09.17,0,.2-.09-.06-.19-.27-.36h.43l.11,0,.16-.14.27-.12.12-.09V746l-.08-.07-.26-.14-.29-.09-.09-.15.06-.13.27,0,.1.06,0,.1,0,.08,0,0,0,0,0,0,0,0,.08,0,.07,0,.11-.12.07,0,.28-.19.78-.88.19-.29.09-.43.08-.21.27-.19v-.23l-.05-.28,0-.21.14.19,0,.08h.1l.17-.19.5-.34.1-.14.06,0,.22-.23,0-.06.06-.07.17-.35.08-.13.4-.34,2-1.26,3.82-1.75.45-.36.14-.47.11-.13,0-.13,0-.14.07-.14.11-.12.27-.22.18-.24.53-.37.12-.2.61-.6.54-.43.24-.19-.3.2-.36.28-.34.22-.27,0-.15-.13.12-.19,0,0h.28l.12,0,.08-.06.23-.18.07,0,.26-.1.21-.21.27-.42.67-.47.11-.12.06-.23.14-.24,1.18-1.26.08-.28L783,729.5l.43-.19.18-.21.25-.43.53-.67.12-.35.35-.49,0-.08-.06-.05-.1,0h-.08l-.05.05-.21.32-.07-.13-.15-.17,0-.07v-.17l.13-.2,0-.14.07-.11.15.13.17.19.14.11h0l.17-.06,1-1.32,1.56-1.39.93-.65,1.4-1.38.76-.57.57-.25.65-.52.55-.25,1.05-.5,1-.52.45-.28-3.1,1.53-.35,0,0-.09-.05-.08-.17-.2.06,0,.13,0,.07,0,0-.2.09-.12h.11l0,.18.09.12.19,0,.21-.12.12-.09,0-.07,0-.15,0-.06,0,0,.17-.07,0,0v-.21l0-.13-.06-.1-.09-.16-.11.2-.11,0-.13-.05H792l-.52.47-.61-.18h-.17v0l-.14.23,0,0V720l0,.07.06,0,.07,0v.08l-.19.1-.11.15-.14.12H790v.1l.14,0,.37.22-.12.06-.12,0h-.1l-.09-.08,0,.21.07.15,0,.14-.22.15-.09,0h-.2l-.14.06-.07.07-.05.09-.08.07-.15.05.06-.13,0-.15,0-.14-.06-.13-.11.16H789l-.06-.11,0-.2.08-.12.18-.14.2-.11.16,0v-.1l-.16-.16v-.23l.13-.22.2-.17.12-.15.18-.45.21-.18,0-.31.22-.39.33-.35.27-.24.13-.07.15-.06.18,0h.19l.69-.59.53-.57.3-.22.3-.09.16,0,.49.16.53.1.17.08,0,1.13,0,.25-.08.11v.1l0,.09.11.06-.22.11-.55.36,0-.14.05-.1,0-.07,0-.07-.57.21-.33.1-.15.11,0,0H793V719l0,.08h.16l0,0v.22l0,.1.09,0,.3,0,.87-.33.82-.5.3,0,0,.07-.12.05,0,.06.76-.39.38-.09.25-.13.12,0h.56l.25-.11.48-.3.54-.09,1.57-.49.24,0,.07-.05.11-.1.13-.06.12.07.15.11h.13l.29-.15,2-.74,1.31-.73-.2-.07-.19-.13-.19-.07-.14,0-.09-.07-.07-.1-.08-.1,0,0v-.15l0-.06-.06,0-.14,0h-.06l-.48-.12-.21-.1-.33-.29-.25-.12-.12-.11-.05-.12-.12-.43.1-.28h.07l.06.11.07.29,0,.15.29.29,0,0,.12.15.28,0,.56,0,.92.79.62.35.36-.22h-.15l-.13-.06-.09-.09-.07-.14.3-.22.66-.78,0-.2.13-.27.14-.6.06-.13.21-.18.28-.12.63-.16.56-.23,1.13-.7.47-.37-.44.31-.23.09L809,711l.1-.13.23-.16.24-.12.16,0,.21-.21.33-.47.19-.49-.17-.3-.08.3,0,.16v.17l-.24-.14-.17.09-.18.19-.27.15,0-.85.12-.41.22-.36.28-.31,1.89-1.48.66-.22.35-.26.3-.3.2-.25-.12.11-.18.13-.31.13-.06-.13-.05-.05-.06,0-.09,0-.07-.1-.1,0-.11,0h-.15l.1-.15.16,0,.19,0,.16.09.13-.1,0-.1,0-.13-.07-.14-.1-.18-.09-.05-.29,0-.58-.05-.27-.11-.14-.21.48-.1h.25l.22.1.15-.35-.17-.58-1.36-3.15-.09-1.25.38-1.1.64-1,1.84-2,.62-.45,1.11-.6.13,0h.3l.14,0,.13-.07.47.11.61-.12.8-.33.8-.33.11,0,1.82-.51.26,0,.53,0,.25-.07.66-.49,1-.52.42-.29.33-.32,0-.06v-.14l.05-.08,0,0,.09,0,.49-.36.13,0,.16-.1.16-.24.62-1.4.18-.26,0-.12,0-.15-.05-.15,0-.14.07-.05h.46l.33-.19.38-.35.29-.4.12-.37-.16-.54-.36-.31-.46-.16-.49-.11-.4,0-.21-.05-.21-.15-.34-.39-.16-.24-.06-.21-.15-1.06-.16-.58-.21-.29v-.08h.27l.16.15.07.25,0,.29,0,.24.17.5,0,.28.06.21.16.24.3.35.23.17.21,0,.2-.06.23-.15,0,.31.46.23.6.21.41.24.07.21.12.71.12.3-.2.34-.54.68-.1.17-.08.19,0,.24.16.72,0,.11,0,.14.63,1.12.08.23L828,691l.12.37-.09.31-.17.28-.12.26,0,.27.09.31.24.53.2-.14.17.16.1.29,0,.3.06,0h.15l.16,0,.1,0,.14-.11.07,0,0,0,0-.14,0-.1-.17-.15-.05-.12v-.17l.13-.29,0-.15,0-.31-.4-1.34,0-.32h.15l.21.24.1.22,0,.26,0,1.52.07.31.15.06.17-.13.13-.28,0-.19v-.15l0-.13-.23-.28,0-.14,0-.13.06-.11.07.14,0,.16.07.12.12.05.11,0,.21-.13.15,0-.13.37v.54l.12.43h.21l.21-.16.2-.07.18-.1.15-.28.05-.26,0-.19-.18-.38,0-.24v-.25l.06-.24.13-.25.08-.32.09-.06.08,0,.07,0,0-.18,0-.25-.19-.47,0-.25.09-.27.14-.17.09-.15,0-.25.24.2v.28l-.24.54.25.35.19.37,0,.39-.26.43-.1.3.06.4.26.74-.09.1-.05.15,0,.17v.19l0,.16-.07.09-.08.07-.08.1-.1.34.08.3.24.13.39-.12-.12-.12-.06-.15v-.15l.08-.14.11.18.18.08.16,0,.08-.18v-.71l.21.16.06-.34-.1-.93H833l.17.11.14-.18.09-.29,0-.25-.11-.38h-.25l-.29.13-.21,0v-.89l0-.25.39-1.07,0-.24,0-.59.05-.22.22-.32.07-.24v-.15l-.07-.26,0-.34v-.09l0-.09.11-.13.06-.26.11-.24,0-.07,0,0,.08-.19.07-.22,0-.08h.25l0,.26-.11.31-.22.15-.22.57v.17l.07.3,0,.4.05.19v.19l-.09.24-.19.28-.05.13,0,.2.06.13.15.07h.17l.14-.05.15.11.14-.12.11-.23,0-.18.27-.51.1-.32-.16-.15-.24-.07-.08-.17,0-.22.09-.19.13-.18.18-.17.22-.11.24,0-.41.37-.2.23-.08.2.11.19.48.28.1.28-.06.24-.14.17-.17.13-.14.15-.07.2,0,.73-.25.79,0,.2.07.2-.23,1.54,0,.26.43.94-.19.42.26.25.44.05.35-.17.08-.22-.07-.19-.12-.21-.06-.26v-.14l0-.1.06-.07.13,0,.08-.06,0-.13.08-.27.07.22,0,.13v.11l0,0-.22.19.1.23.23.08.26-.07.18-.19,0-.22-.22-.43-.06-.24,0-.2.18-.44,0-.25h.09l.08.25.12,1,.06.14.07.11.06.05.47.08.53.39.31.16.24,0,0-.08.07-.17.08-.12,0,.09,0,.1.08.08.11,0h.14l.23-.11.07-.23,0-.55,0-.05-.19-.42-.25-.26-.05-.07-.16-.5-.19-1.13-.26-.42-.35-.28-.2-.13-.18-.05-.17-.11-.17-.28-.07-.31.11-.23h.18l.08.23,0,.28.09.14.2.06.41.29.2.11V689l.06-.12.13,0,.17.08.3-.18.06-.39-.1-.87,0-.17-.18-.35,0-.22,0-.21.07-.15,0-.15-.06-.2.21.09h0l.22-.27,0-.33-.07-.27-.11-.23-.55-.73-.12-.28.18-.13-.21-.36-.07-.17-.15-.72v-.14l0-.14.1-.18,0-.1-.06-.32-.23-.54-.11-.51-.15-.12-.39-.16.28-.19.07-.31,0-.37-.12-.35-.16-.29-.05-.3,0-.18-.15-.39,0-.25.09-.19.14-.17.14-.21.05-.18,0-.27,0-.26,0-.19-.14-.14-.35-.11-.15-.18-.27-.65-.13-.21-.24-.31,0-.15v-.27l.11-.39,0-.7.17-.35.68-.73.34-.29.11-.13.07-.14v-.11l-.07-.07h-.35l-.11,0-.11,0-.88-.31-.21,0-.17,0-.11.07-.08.08-.1.05h-.14l-.83-.26-.17-.16-.12-.26v-.3l.11-.27.31-.49.61-1.63,0-.3-.17-.14-.16.13-.15.23-.16.07-.18-.38-.14-.06-.37-.26-.21-.23-.3-.53-.19-.21-.1,0-.25,0-.13,0-.12-.14v-.09l.05-.1,0-.18-.06,0-.13,0-.12-.06,0-.16.26-1.25V664l-.09-.21v-.13l.06-.15.19-.29.06-.16v-.13l0-.12v-.13l0-.13.2-.16h.25l.26,0,.25-.05.16-.14.48-.47.13-.16,0-.24,0-.3-.08-.26-.08-.16.15-.27.15-.2V660l-.3-.07,0-.18-.24-.2-.06-.16,0-.13.08-.29v-.16l-.06-.28v-.13l.07-.17.13-.12.28-.11.19-.09h0l0-.11.14-.22.05-.13,0,0,0-.23,0,0-.07-.55-.29-.39-.41-.26-.28-.06-.13.32-.19.29-.28,0-.62-.21-.82,0-.29-.06-.93-.75-3.32-1.75-.36-.08,0-.09-.11-.21-.11-.14,0,0,0-.07v-.73l0-.08-.18-.19-.13-.28-.2-.09-.25-.07.07-.42.11-.25.16-.25.06-.6.14-.06.16,0,.09-.13,0-.19,0-.17.09-.09.16,0,.12-.25.18-.17.12-.18,0-.26-.16-.49-.06-.12-.07-.07v-.06l.63-.34.23-.09.25,0,.2.14.18.23.11.28v.25h.16l.53.14.21,0,.11-.09.23-.41.44-.58.16-.32,0-.37.29-.36.15-.42.1-.91,0-.79.12-.23.43-.07.21.05.39.16.34.09.06,0h.06l.14,0,.09-.06.16-.17.11-.05.45,0,.38.07.76.29.75.07.1-.08.13-.3.08-.1.11,0,.08,0,.08.05.86.31.33,0L837,644l.23,0,0-.14,0-.18v-.19l.11-.15.47-.35.09-.14,0-.14,0-.13-.1-.12-.61,0-.3-.05-.21-.21-.08-.07h-.26l-.13,0-.09-.08-.3-.37,0-.15v-.14l0-.11-.14-.1V641l.22-.5,0-.29-.12-.19-.16-.14-.15-.19-.11-.09-.38-.15v.24l-.12.06h-.12l-.11,0h-.1l-.14.12-.11.13-.11.11-.15,0-.26-.07-.41-.26-.25-.12-.53,0-.27-.06-.12-.12-.1-.21-.34-.26-.13-.28-.47-.24-.18-.17-.05-.87-.34-.37-.92-.63-.76-.89-.41-.21-.56.16-.21.12-.25.12h-.24l-.16-.18-.09-.26-.06-.12-.19-.23v-.25l-.08-.21-.1-.62,0-.07.06,0,.07-.1.23-.8.25-.47.32-.25.08-.27,0-.15-.06-.08-.08-.05,0-.07v-.21l0-.08.14-.46.11-.17.42-.27.11-.09.08-.1.08-.09.14-.06.26,0,.74-.26.22-.14.1-.21,0-.51.05-.2.19-.27.19-.18.59-.38.1-.12.06-.13.07-.06.13.09.08,0h.25l.09,0,.28,0,0-.36-.25-.76-.18-.31-.33-.16-.73-.14-.3-.13h-.09l0,.09,0,.33-.06.08-.17-.05-.09-.19,0-.23.07-.19h0l.17-.28.25-.9.1-.2.15-.27.16-.16.12.07,0,.26v.3l0,.28.17.19.45.14.2.09.16.2.16.13.14.15.1.1.25.18.29.12h.37l.15.07.09.13.07.16.1.14.14.08.13.07.3.07-.06.11,0,.12,0,.1.12,0,.09,0v.25l.07.1.29.15.17.14,0,.17-.12.26-.16.14-.46.24-.1.1.23.16,1.06-.4.46.18.1.22.08.24.12.2.21.09.2-.07.19-.47.26-.17.34.06.55.56.36.12.56-.14.26-.18-.07-.26-.14,0h-.15l-.09-.09.05-.3-.12.08-.12,0-.1,0-.08-.11-.11-.4-.32-.17-.36-.12-.26-.28v-.24l.11-.26.15-.24.16-.15.21-.11.12,0,.11.12.2.15.14.07.2.22.11.1.14.05.28.08.11.09.06.17,0,.12v.1l.21.09.3.08.09.1v.2l-.11.06-.18-.09-.15,0v.38l.08.23.26.42.09.22.1.86.1.25.16.18.83.36.19.13.13.17.08.27.1.13.45.21.3.35.23.16.26.12.2,0,.21-.12.15-.14h.15l.19.29.06,0h.12l.07,0h0l.68-.06h.07l.06,0,.06,0,.18.31.11.15.13.07.16,0,.1-.12,0-.18v-.19l.1-.38.56-.47.1-.24-.09-.17h-.17l-.17,0-.13-.07v-.16l.14-.12.19-.09.14-.1-.23,0-.21-.1-.08-.18.13-.25.09-.08.08,0h.09l.26.08v-.07l-.08-.16,0-.43.09-.12.27-.09.23,0,.07.21v.59l0,.06,0,0,.16.07.09,0,.25,0H847l.16.12.07.21.06.23.1.19.16.24,0,.17,0,.18,0,.24.07.13.26.34.09.19.07.1.08,0,.08,0,.09-.09h0l0,0h0l0,0,.17.22,0,.19-.18.15-.25.08.24.15.2,0,.1.08-.06.33-.54,1,0,.34.23,1.26.29.71.13.55-.12,1,0,1.06-.19.69-.1.37,0,.14-.05.41.05.47.11.5.14.27.2,0,.45-.19.48,0,2.8,1.2,2,.44,1,.42h.45l1.28-.28,1,.1.51-.13h.18l.14,0,.28.12.46.08h.11l.08,0,.13-.14.07,0,.2,0,.16.1.16.12.18.09.36,0,1.42-.19.11,0,.4-.14,2-.33.7,0,.16,0,.27-.14h.14l.61.32,1.87.57.49.06.12,0,.26-.08.13,0,.15,0,.21-.17.11,0,.22,0,.09.1.09.16.2.17.22,0,.32,0,.29,0,.13-.13.07-.22h.14l.16.08.12,0,.09-.07.07-.17.08-.08.19,0,.61.06,1.35-.17.71.11.23-.08.34-.1h.41l.4.1.34.14.1.08.12.2.08.07.1,0h.18l.09.07.07,0,.17-.06.1,0,.08.07.19.24.18.16.15.11.17.07.22.06.66.09.11.08.2.29.36.15.31.19.05.26,0,.13h0l.1,0,.22.08h0v0h0l.4.3h0l.12.06h0l0,.06h0l-.1.09h0l.31.14h0l.12.12.09.22h0l0,.24,0,.15-.17.28-.45.12-.77.26-.13,0-.09,0h0l-.05-.07h0l0-.1h0l-.85-.52h0l-.48-.16-.37.16-.06.23,0,.25h0l.17.44h0l0,.22v.22l0,.21-.64,1.81-.12.54-.06.48-.07.21-.13.2,0,0-.14.12-.2.11-.15.16-.06.26.06.85,0,.39-.25.34-.32.15-.37,0-1-.1,0,.17.29.47v.19l-.24-.1-.28-.19-.12-.11-.28.09,0,.25.13.55v.27l-.27,1.18-.09.24-.16.11-.26-.07-.38-.38,0-.13,0-.31,0-.09h-.13l-.8-.18-.13.18,0,.27.08.28v.24l-.14.21-.22.08-.25,0-.23-.15-.11-.21-.22-.56-.13-.05-.06.17-.14.87-.09.3-.12.19-.19.12-.29.09-.52.06-.47,0-1-.21-.52,0-.16.35,0,.53-.13.57-.15.1-.13,0-.1,0h0l-.16,0-.22.09-.17.15-.13.19-.44.77L866,662v.19l.14.32.05.17,0,.26-.25.75-.13.23-.24.12-.24,0-.2.07-.11.27.05.3.2.11.21.07.08.21-.11.22h-.18l-.16,0,0,.33.06.24.37.69.1.25.1.45.12.22.1.1.22.14.08.13,0,.1.06.34.17.59.13.28.16.12.17,0,0,.08-.05.11-.13.13-.09.12,0,.11.07.11.05.14.3,2.21.16.57.3.41.43.12,0-.46-.23-1.15v-.61l.07-.32.14-.2h.28l.25.19.18.27.11.2h0l0-.1h0l.08.11v.24l.19.19h0l.08.42.06.14.29,1,.07.35,0,0,.12,0,0,.06v.4l.06.14.16.19.17.06.16,0,.18.08.08.16V675l0,0,.21-.12.07-.1.05-.13.06-.11.11-.05.09,0,.09,0,.09,0,.09,0,.17-.06.34-.08.16-.1.09-.11.22-.19.09-.1.21-.32v-.19l.06,0h.19l.19-.21.06-.12,0-.16-.16-.42-.19-1-.19-.43-.07-.55.24-.68.37-.64.33-.45.2-.18.7-.3.2-.15L875,668l.28-.49,0-.54-.33-1.59,0-.53,0-.29.08-.19h.18l.16.19.16.25.52.61.2.1.29-.08.22-.19.41-.58.21-.23.53-.19.25.39.13.53.17.24.19-.19.16-.64.21-.12.26.14v.05l0,.25-.14.58,0,.46.48,1.57.08.67.06.21.06.1.17.17.07.11,0,.11,0,.19v.09l.07.09.16.14,0,.06v.13l0,.27v.14l.07.22.05.14v.14l-.08.24-.23.48,0,.21v.54l.32,2v.95l.09.46.24.36.42.17.18.23.11,1.07.09.42.15.2.34.3.13.21.06.21.09,1,0,.79.05.23.16.43,0,.24.73,4.45V686l-.15.07h-.19l-.15.13.29.92.16.89,0,.13v.12l.1,0,.09-.05.09-.07.07-.09.15-.18.15,0h.16l.14-.08.09-.18v-.19l0-.19v-.2l.08-.27h0l.06,0,.06,0v-.15l0-.38,0-.18.12-.1.31.09.8.59.82.79.22.3.1.39.07.4.13.13.15-.13.11-.4.1-.29.19-.06.2.12.17.24.06.07.08,0h.08l.09-.05,0,0,0,0v-.19l0-.1,0-.1-.08-.17,0-.18,0-.18.23-.45.12-.1.16,0,.23-.1,0-.11,0-.92,0-.1,0-.08.15-.06h.12l.34.06.23.08.17.13.19.09.28-.09-.23-.42v-.17l0,0h.06l.28-.13.12,0,.1-.06.06-.17v-.14l-.1-1.6-.16-.56-.45-.48-.1-.22-.13-.45,0-.32.14-.54,0-.29-.08-.27-.28-.51-.1-.26,0-.29.11-1.09L890,677l.05,0,.12-.32.45-.54.18-.28,0-.25-.08-.28-.25-.49-.1-.29-.06-.39,0-.36.16-.25.31-.11.24.06.2.19.17.27.27.22.33,0,.33-.17.24-.21.19-.26.53-1.06v-.17l0-.17v-.21l.1-.93,0-.58v-.24l.08-.22.25-.35,0-.12v-.13l0-.15-.08-.81V668l.4-2.66,0-.46-.06-.14-.17-.25-.08-.14-.39-.28-.21-1.6V662l0-.22-.05-.1-.08-.07-.1-.13-.28-.45-.1-.23-.06-.24,0-.3v-.34l.08-.31.16-.23.33-.12.25.15.36.56.13.16.41.43.08.18,0,.18.1.12.23,0,.26,0,.4-.22.21-.08.08,0,.06.1.08.07.12,0,.08-.07.06-.09,0-.1,0-.11.31-.19.6,0,.64.07.4.15.51.68.26.13,1-.12.37.08.36.14.43.11.29.06.72.4.21.16.18.26.18.2.21,0,.16-.17,0,0,0-.28v-.58l.13-.28.57-.77,0-.2.06-.53.06-.14.13-.16.06-.24,0-.5.15-.52.62-1.47.05-.23,0-.46.07-.22.09-.12.27-.19.08-.11,0-.12,0-.24V655l.14-.16.16-.11.11-.16,0-.56.09-.16.14-.12.19-.12.18-.71.09-.2.15-.15.57-.36.15-.33.26-.95.11-.22.18,0h.16l.15,0,.18-.11.15-.19.1-.24.05-.26v-.24l.07-.42.51-.68.2-.37.23-1.19.21-.29.23-.42.07-.6-.09-.58-.22-.39-.45-.22-.51-.1-.46-.17-.3-.43,0-.57.73-2.09.29-.46.25-.27.11-.12L910,640l.24-.09.43-.06.24-.07.23-.18.32-.53.18-.23.11-.05H912l.12-.06v-.06l-.1-.13v-.08l0,0,.14-.08,0-.05,1.14-1.67.09-.11.12,0,.27,0,.11-.07.09-.26,0-.31-.25-1.45V634l.08-.31.15-.13.47-.17.21-.14.53-.58.4-.49.14-.28v-.3l-.16-.17-.45-.14-.17-.15-.13-.95,0-.12.1-.11.06-.1,0-.11-.1-.06-.11,0-.1,0-.09-.09-.16-.43-.06-.56,0-.56.09-.44.17-.48,0-.2-.06-.27-.24-.47,0-.23.17-.27h0l.2-.16.37-.42.13-.21.06-.16,0-.1v-.09l0-.4,0-.11.13-.13.11,0,.28-.07.12-.06.11-.11.17-.27.12-.1.23,0,.2.3h.1l.17,0,.24-.08.46-.23,1-.32.23-.14.37-.47.29-.59.34-.48.52-.13.29,0h.26l.21-.1.15-.29.13-.34.14-.18.19-.08.59-.07.16-.07.13-.16.32-.56.55-.68.34-.14.71-.13.35-.18.34-.35.28-.4.46-.9.49-.67.76-.56.87-.39,3.35-.58.84,0,.2.07.26,0,.26-.08.2-.12.25-.31.11-.24.14-.12.34.08.12.06.07.07.09,0h.16l.13-.07.21-.23.15-.06h.22l.24.06.44.21.22.16.16.18.26.46.15.18.41.34.07.12-.1.27-.12.24v.23l.28.24,1.74.81.11.1.09.12.1.1.14.07h.13l.14-.06.1-.05.13,0,.16.06.1.09.1.05.17-.07,0-.09.13-.36,0-.11-.06-.15-.11-.09-.12-.07-.09-.1,0-.13v-.26l-.07-.11-.35-.37-2.05-2.72-.3-.5-.06-.27.17-.42,0-.21-.05-.13,0-.26v-.13l0-.14-.14-.21,0-.15V610l.1-.29.17-.24.21-.19.5-.35.22-.2.43-.55.16-.11.41-.12.18-.06h.08l0,0,0-.18,0-.15.09-.08.25-.09.07-.08.1-.2.08-.06.14,0,.11-.07.63-.57.2-.23.17-.23.15-.15.23-.12.24-.06.2,0,.15.18V606l0,.1.28-.1.23-.14.06-.11,0-.16v-.32l.06-.23.21-.41.07-.21-.09-.4ZM712.76,856.11l-.1-.06-.06.06,0,.06.07,0,.1,0,.1.05.07,0-.13-.06Zm6.06,1.37,0,.11h0v-.07ZM827,689.84l-.37.7-.5,1.4-.09.33,0,.18v.14l.11.22.15.06h.36l.34.12.14,0,.12-.06.08-.18,0-.19-.15-.37.39-.28.05-.82-.26-1.42Zm-90.28,80.94-.4-.31-.61-.37-.12.09-.13.37.62.75.31.18h0l.37-.12.16-.15.05-.12-.07-.13ZM720,857.72l-.16.1H720l0,0h.26l0,0Zm106.83-167.9.25-.37.09-.44-.17-.33-.17,0-.14.13-.12.22-.09.23-.05.17,0,.25v.23l.11.1Zm6.88-.9-.18.08-.25.32-.22.38-.16.37,0,.1v.12l.07.19,0,.11h.1l.46.15.13.07,0-.74.07-.33.15-.32.05-.24-.1-.19Zm3.18,4.72-.17-.13-.2-.08-.4-.25-.13.5.1.62.3.11.22-.09.2,0,.15,0,.08-.24,0-.25Z" transform="translate(-61.34 -150.85)"/>
  <path class="cls-1" d="M374.5,592A63.5,63.5,0,1,1,311,655.5,63.58,63.58,0,0,1,374.5,592m0-12A75.5,75.5,0,1,0,450,655.5,75.5,75.5,0,0,0,374.5,580Z" transform="translate(-61.34 -150.85)"/>
  <g>
    <line class="cls-3" x1="310.73" y1="434.51" x2="341.23" y2="352.17"/>
    <polygon class="cls-1" points="356.24 363.33 350.2 327.94 322.57 350.86 356.24 363.33"/>
  </g>
  <g>
    <line class="cls-3" x1="359.01" y1="560.96" x2="441.62" y2="590.74"/>
    <polygon class="cls-1" points="430.59 605.84 465.92 599.5 442.76 572.07 430.59 605.84"/>
  </g>
  <g>
    <line class="cls-4" x1="469.71" y1="547.21" x2="420.83" y2="531.23"/>
    <polygon class="cls-1" points="431.4 515.8 396.27 523.2 420.24 549.92 431.4 515.8"/>
  </g>
  <g>
    <line class="cls-4" x1="396.8" y1="364.92" x2="373.09" y2="410.57"/>
    <polygon class="cls-1" points="359.58 397.64 361.19 433.5 391.44 414.18 359.58 397.64"/>
  </g>
  <polygon class="cls-1" points="324.41 467.15 301.91 467.15 301.91 493.4 275.66 493.4 275.66 515.9 301.91 515.9 301.91 542.15 324.41 542.15 324.41 515.9 350.66 515.9 350.66 493.4 324.41 493.4 324.41 467.15"/>
</svg>
