<svg id="Layer_1" data-name="Layer 1" xmlns="http://www.w3.org/2000/svg" viewBox="0 0 1077.32 895.3">
  <defs>
    <style>
      .cls-1 {
        fill: #fff;
      }

      .cls-2 {
        fill: none;
        stroke: #fff;
        stroke-miterlimit: 10;
        stroke-width: 10px;
      }

      .cls-3 {
        fill: #5b92e5;
      }
    </style>
  </defs>
  <title>UNAMIR Logo - White</title>
  <g id="g1987">
    <path id="path1989" class="cls-1" d="M963.89,874.8c-32.84,8.79-67.89,11.62-99.78,22.49,54-46.31,50.94-118,87-172.53,11.48-15.45,21-31.64,34.35-46.29-21.92,44-12.42,101-37.6,143.7-9.7,17-23.56,33.4-38.89,46.71,5-.18,9.39-4.52,13.8-7.42,40.9-40.82,94.34-52.23,138.59-85.4,17.73-14.12,34-32.63,41.76-52.65-8.38,67.73-75.75,131.21-139.21,151.39Z" transform="translate(-61.34 -149.85)"/>
    <path id="path1991" class="cls-1" d="M1111.26,600.59c-20,28.47-44.23,55-62.72,83.93,2.06-22.92,4.78-51.09-4.15-72.8C1028.92,565,1015.33,517.51,1011,466.2l.6-19.62c11.64,52.4,63.11,88.41,59.86,147.18,1.18,14.25-3.22,26.35-5.89,38.88l.88.93,2.32-2.6c7.63-28.83,11.49-59.14,23.35-86,16.87-38.71,37.93-77.77,29.35-124.5,25.65,55.1,17.88,128.71-10.16,180.16Z" transform="translate(-61.34 -149.85)"/>
    <path id="path1993" class="cls-1" d="M1079.67,303.75c33.75,45.73,41.14,118.62,16.56,171.08A298.49,298.49,0,0,0,1077,545.36c-1.72-4.24-2.11-10-3.64-14.68-13.43-51.35-62-87.95-82-136.36-6.33-15.84-11.73-32.2-14.72-49.38,21.34,39.47,73.93,59.86,88.27,103.36,5.87,11,5.54,24.75,9.18,36.57a1.46,1.46,0,0,0,1.53-1.34c-6.31-44.81-4.38-91.71,1.7-136-.35-24-2.69-47.22-16-65.78,8.54,5,12.39,14.53,18.33,22Z" transform="translate(-61.34 -149.85)"/>
    <path id="path1995" class="cls-1" d="M1055.87,295c8.87,40.08-4.08,79.11,4.06,119.57l-.3.35c-21.8-42.88-68.09-63.11-99.94-97.43-18.46-20.36-26.48-45.18-31.1-71.45,18.25,44,67.49,53.69,95.76,90.76,9.46,8.55,12.55,20.39,18.65,30.08l1-1c-16.26-34.71-21.71-73.76-33-110.78-5.68-16-17-31.8-32.08-41.91,37.11,7.58,69.28,46.33,77,81.77Z" transform="translate(-61.34 -149.85)"/>
    <path id="path1997" class="cls-1" d="M956.65,203.05c28,25,40.59,57.41,48.75,91l4.62,10.65C969.45,275.5,932.6,236.28,906.7,194.86l-31.64-32c27.81,11.79,57.8,18.83,81.59,40.2Z" transform="translate(-61.34 -149.85)"/>
    <path id="path1999" class="cls-1" d="M315.94,168.16c-28,24.58-47.49,55.67-68.29,84.67C229,275.91,205.15,291.14,184,311c11.41-23.65,11.83-51.91,28-73.64,23-40.19,65.75-54.33,103.92-69.19Z" transform="translate(-61.34 -149.85)"/>
    <path id="path2001" class="cls-1" d="M162.59,253.77c13.64-17,30.93-28.74,50.38-33.72-37.78,26-35.32,72.47-47.3,111.13-3.82,14.3-10.45,27.48-13.75,42.13l1,.77c6.29-16.57,17.34-32.23,31.13-45.75,26.83-24.77,66.53-40.21,79.68-76.85-.61,50.92-43.08,91-83.73,119.57-16.76,14.71-32.92,31.46-42.15,50.37-.91-12.85,1.9-25.75,1-39.51-4.42-44.45-7.63-95.19,23.8-128.14Z" transform="translate(-61.34 -149.85)"/>
    <path id="path2003" class="cls-1" d="M86.14,405.76C85,360.72,103.7,324,130.05,290.39c.76-.39,1.31-1.15,2.29-1-29,44.07-5,99.58-6.33,149.69l-3.82,51.31c.56.37.56,1.91,1.91,1.32,1.71-5.72,2.09-11.83,3.23-17.71,6.83-41.39,42.77-70.75,74.16-99.35,6.71-7.48,12.63-15.07,16.08-23.85-2.57,20.6-9,41.39-17.57,60.44-24.44,47.65-69.57,86.74-77.81,141.29-4-52.27-39.6-91.36-36-146.8Z" transform="translate(-61.34 -149.85)"/>
    <path id="path2005" class="cls-1" d="M64.2,469.82c3.25-14.09,5.73-28.67,11.86-41.6C64.45,487.77,104.5,530.68,117.64,582.3c5.5,19.3,6.84,40,14.7,58.15.73.4,1.37-.37,1.82-1-19.56-54.83,8.68-105.78,37.06-148.71,6.9-11.63,10.87-24.59,14.3-38,3,24.82-3.26,53.39-6.86,79.16-6.9,32.78-17.2,63.87-26.16,95.68-5.9,19.88-4.35,42.31-1.32,63.13l-2.84-2.27c-20.81-38.36-62-68.28-74.23-110.19C64,544.93,57.35,506.22,64.2,469.82Z" transform="translate(-61.34 -149.85)"/>
    <path id="path2007" class="cls-1" d="M62.32,586.12c4.59,63.12,72.46,96.48,103.92,148.73,7.45,10.69,13.91,22.52,23.85,31.47-1.55-6.72-7.83-12.38-10.13-19.27-11-21.92-15-48-12.37-74.52,3-32.24,16.57-62.16,11.41-96.07,27.64,59.61,19.25,134,34.7,198.61,4.05,14.12,12.23,26.74,17.59,40.24C174.48,776.62,97,739.81,71.83,668.91,61.21,644.47,60,614.2,62.32,586.12Z" transform="translate(-61.34 -149.85)"/>
    <path id="path2009" class="cls-1" d="M96.25,731.07c31.67,71.64,111,77.58,164.18,121.21,9.78,8.67,20,16.05,31.09,21.19l.57-.57c-12.21-11-26.34-23.62-34.89-37.93C226.08,791.7,237,731.07,213.7,684.52c21.19,25.35,40.46,51.7,53.26,80.45,19,46.95,26.3,100,70.33,135.46-47.65-15.71-103.48-11.32-145.54-40.66-45.92-28.23-86.9-76.1-95.5-128.7Z" transform="translate(-61.34 -149.85)"/>
    <path id="path2011" class="cls-1" d="M177.65,864.73c50.78,57.75,133.76,38.48,201.4,53.6,9.55,1.3,18.3,5.13,28.42,3.57-8.06-5.1-19.25-4.54-28.05-9.18-53-18.63-60.8-76-89.58-114.74,36.77,24.42,67.69,57.36,101.61,89.27,24.38,21.36,53.74,31.22,84.66,37.51-7.43,2.71-17.17,2-25.15,4.06-55.56,13.66-117.29,36-176.21,16-38.31-12.06-77.83-42.35-97.1-80.09Z" transform="translate(-61.34 -149.85)"/>
    <path id="path2013" class="cls-1" d="M866.87,999.35c-57.22,21.35-116.94-1-161.63-34.87-18.1-11.5-34-28.06-57.45-26.6-8.49-.16-16.68.26-23.89,2.34,43.42,20.21,83.75,48.06,120.63,83.69-6.22,7.09-14.27,13.73-21.85,19.85-35.54-38.29-74.89-75.15-119-96.67-8.63,1.11-16.84,6.31-24.62,10.49-35.87,22.68-71.34,51.85-98,87.57l-22.92-18.92q54.87-55.5,121.29-86.38C536,926.08,507.59,962.51,474.57,981c-38.47,26.86-93.79,39.48-140.28,21-25-9.49-49.23-23.45-67.33-46.15C303.55,981,358,983.69,399.65,967.31c55.83-24.21,113.85-54.91,181.16-40.23,10.5.18,20.71,10.64,30.63,1.74,50-13,106.67-4.06,149.74,18.8l44.39,17.8c41.26,15.25,94.61,11,130-14.11-18.19,22.64-43,38.85-68.68,48Z" transform="translate(-61.34 -149.85)"/>
    <path id="path2015" class="cls-1" d="M928.19,940.22C864,964.48,799.31,934.7,737.75,924.76l-11.85-1.51v-.38c29.44-6.68,58-15.44,81.44-36.59,34.51-33.17,65.21-67.31,103.53-93.45-28.42,36.44-31.43,88.3-78.37,111.73-11.62,7.6-26.28,8.94-38.27,14.7,17.1.37,32.75-5.76,49.68-7.47,63-9.88,135,.26,179.12-53.37-16.39,37.37-57.45,68.66-94.84,81.8Z" transform="translate(-61.34 -149.85)"/>
    <path id="path2017" class="cls-1" d="M1044.92,759.46c-25.37,16.6-51.09,32-75.47,50.88V808c37.35-62.07,19.09-147.33,42.1-215.63l8.58-22.88c-4.8,42.55,13.68,78.59,12.39,121.28-1.3,25.8-9.72,48.67-23.26,69.26h2.29c18.3-24,32.59-49.59,54-72.48,33.19-32,66.94-64.82,71.29-109.24,11.28,74.15-30.33,139.14-91.89,181.12Z" transform="translate(-61.34 -149.85)"/>
  </g>
  <circle class="cls-2" cx="538.66" cy="374.18" r="369.18"/>
  <path class="cls-3" d="M447.69,532.12l-3,1.62L443,532.13l-.17-.4C444.41,531.9,446,532,447.69,532.12Z" transform="translate(-61.34 -149.85)"/>
  <polygon class="cls-1" points="363.86 323.45 364.67 319.62 364.25 315.82 363.26 312.74 361.91 311.73 358.03 310.64 357.28 309.96 357.81 308.11 359.06 306.41 359.76 304.7 359.23 302.89 356.79 301.3 349.38 298.51 352.54 292.62 366 292.62 366 336.22 365.81 332.54 361.21 326.76 363.86 323.45"/>
  <path class="cls-1" d="M564.62,415.26A110.09,110.09,0,0,1,439.87,524.34l-1.23-3.1L437.22,519l-.74,2-7.07-7.13-2.65-6,3.57-5.64-2.44-5.52-.13-2.43h54V442.47H533.6V388H481.77v-2l9.68-9.95,11.56-8.3,11.39-4,11.66.62,6.08-.44,5.37-1.45,6-3.36,4-2.84A109.38,109.38,0,0,1,564.62,415.26Z" transform="translate(-61.34 -149.85)"/>
  <path class="cls-1" d="M593.3,415.26A138.75,138.75,0,0,1,454.55,554l-2.73,0,.5-3.23-1.13-4.2-2.27-4.46-1.52-4.81.74-5.13q3.18.18,6.41.18A117,117,0,0,0,553.8,353.24l6.09-1.06,3.51.76,6.18,3.72,2,.74L574,356l1.77-5.73.88-1A138.06,138.06,0,0,1,593.3,415.26Z" transform="translate(-61.34 -149.85)"/>
  <path class="cls-3" d="M448.18,551.72l.21,1.48.51.69c-1.26,0-2.51-.12-3.75-.2l.28-.26Z" transform="translate(-61.34 -149.85)"/>
  <path class="cls-1" d="M885.06,596.52l-2.54,12.72L883.76,629l-1.24,5.86-3,5.38L875.76,643l-4.94,2.13-4.42,2.57-4.07,1-2.08,1.18-2.62.73-2.37-.56-15.2-7.47-3.18-1-3.71.51-3.4,2.6-4.1,7.76-3.29,2.7-6,.35L810,653.69l-6.15-.76-5.66,3.3-9.51-.37L779,651.34l-15.84-12.89-1.66-2.28-1.52-4-1.35-1.56-1,.36-9.12-2.17-1.45-.73-4.7,1.38-2.79,2.65L737,635.34l-3.78,3.45-4.13,2.14-5.49,1.76-5.54,1.12-4.64.22-3.57-.8-9.12-4.37-3.43-.34-1,2-.11,2.71-.67,2-13.12,16.37L677.55,665l-6.58.23-6.72-2.58-6-4-4.7-4.17-9-10.58-3.57-2.7L637.6,640l-2.79-.07-2.45.22-2.26-.32-7.6-6.52L620.17,632l-3,.06-.77,1.59v2.68l-1.88,14.77,2.09,22.22-6.26,21.84-1.45,32.87-1.52,6.38-2.79,6.3-3.47,6L597.23,752l-6,6-5.45,3.18-5.8,1.11-7.28-.21-6.51-1.94-3.39,0-2.16,2.67-.92,6-1.2,2.7-2.9,1.69-6.47.79-5.47-.83-15.25-5-2.05-.11-8.62,3.12-2.16,1.3-2.33.91-3-.11-6.36.83-5.41,3.45L493,779.42l-6.79-3.77-16.08-3-5.27.58-12.51,5.39-7.18.69-2.58-5.49-.29-3.63-2.79-6-.6-3.37,1-3,4-4.91.64-3.25-1.73-3.6-6.4-5.9-1-4.15.32-3.41-.22-1.35L432,728.59l-5.3-3-6.15-1.48-12.2-1.52-6.61-2L384.12,713l-4.69-.69-17,1.1-6.57,6.43-5,28.89-4.42-4.91-5.93-2.94-8.63-.9L328,738.41l-10.89-7.07-2.26-2.28,1.94-22-1.94-6.73-3-3-3.29-1.56L306,694l-1-3.69,1-3.8,5-4.49-1-3.55-.09-.16,3.84-4.47,1.91-7.65,3.18-7.67,5.59-4.93,12.65-4.8,5.51-4,1.24-1.16.82-.36.77-.64,1.24-1.82,3.89-13.64,1.66-2.64,2.4-1.45,5.45,1.88,1.34,6.51.32,7.36,2.75,4.15L362,649l-3.35,5.65,4.7-3,2.16-4.31,1.45-4.81,2.65-4.57.63-1.68-.21-3.9.53-1.45,1.24-.32,1.84.22,1.23.83-.35,1.41,3.64-4.12,1.45-2.44.89-3.5h2.19l-.32,3.54L381,631.29l-.53,3.4,12.09-23.5,3.74,2.39,4.1.9,3.19-1.26,1-4.2-2,1.41-2.13.76L399,605.26l.7-5.44,3-3.18,5.87.76L406.39,589l5.31-5.32,8.13-.48,6.47,6.12-.82-4.81-2.65-2.83-3-1.66-1.34-1.59.21-9.21,1.67-3.57,4.1-2.07-1.45,7.85-.11,3.23,1.56,2.71h1.83l.71-8.47,1.24-4.52,1.94-2.76,2.58-.17,2.19,2,3.19,6.26,1.62-2.9.43-3.11-.64-3.15-.16-.33a145.85,145.85,0,0,0,143-215.1l1.19-.36,2.58.39,3.18,1.59,8.21,11.81,1.23,6,.71,11.88,2.9,6.11,4.94,4.64,5.7,1.59,6-.65,6.4-2.36L645.27,375l3-.62,2.61-6.29,3.82-3.89,10-5.33,11.88-4.62,3.11-2.92,1.52-4.38L683,335.71l2-3.94,2.37-1.34,2.26-.41,2.37-.18,2.16-.65,4.41-2.64,13-12.21,3.74-4.81,3.08-5.21.57-1.91.7-4.17.81-1.73,2.09-1.66,4.81-2.18,1.84-1.49,1.45-4.38,1.87-11.95,2.44-4.12,4.49-1.55,4.74.72,5,1.45,4.84.64,4.6-1.11,3.79-1.7,4-.55,7.28,2.28.32.21-2.22,2.32-2.17,3.14-.91,3.27.91,3.12,4.17,2.89,1,3.91-.63,1.7-1.13,1.62-.82,1.7.57,1.75,2.51,1.7,2.3-.37,1.93-1,1.25-.32,3.5,2.56,1.24,1.83,1.19,7.44,1.77,4.2,5.23,8.74,1.78,5.84,2.62,3.52.66,2.35-.32.9L798,335.2l-.74,1.7-.29,2.17,1.52,4.59,3.79,2.83,8.48,3.52,3.11,2.16,4.38,4.1,2.65,1.62L840,365l5.66.79,5.77,3.41,1.62,7.53-.63,7.52-.82,3.41-1.52,1.66,1.63,3.77,4.84,6.36,3.61,3.84,1.31,2.21,2.75,10.39,2.9,6.53,4.49,3.53,6.89-2.6,2.16,6.12-.21,7.43-3.82,22.76-.07,3.11.74,1.49,2.51,3.94.78,2.69-3.39,7.91,1,3.05,2.36,11.59-1.66,4.88-3,4.35-1.62,4.45,2.26,5.18L871.84,516l-1.73,1.88-1.45,2.31,8.73,1.38.78,7.64L874.42,546l5.38-1.17,5.26,2.6,4.43,4.42,3.07,4.2,2.44,8.37Z" transform="translate(-61.34 -149.85)"/>
  <g id="Plus">
    <polygon class="cls-1" points="415.8 243.19 413.46 246.86 412.82 247.49 412.22 247.94 411.45 248.12 389.24 249.01 384.72 250.94 381.29 255.26 373.41 271.53 370.44 275.34 356.37 286.9 355.87 287.62 319.17 287.62 319.17 243.19 371 243.19 371 191.36 415.43 191.36 415.43 243.19 415.8 243.19"/>
    <path class="cls-1" d="M454.55,276.51a138.75,138.75,0,0,0-9.41,277.18c1.25.08,2.5.15,3.76.2,1,0,1.94.06,2.92.08l.5-3.23-1.14-4.2-2.26-4.46-1.52-4.81.74-5.13-.45,0c-1.65-.09-3.28-.22-4.91-.39a117.06,117.06,0,1,1,111-178.5l6.09-1.05,3.51.76,6.18,3.72,2,.74L574,356l1.77-5.72.88-1A138.71,138.71,0,0,0,454.55,276.51Z" transform="translate(-61.34 -149.85)"/>
    <polygon class="cls-1" points="467.26 243.19 467.26 287.62 415.43 287.62 415.43 339.44 371 339.44 371 287.62 355.87 287.62 356.37 286.9 370.44 275.34 373.41 271.53 381.29 255.26 384.72 250.94 389.24 249.01 411.45 248.12 412.22 247.94 412.82 247.49 413.46 246.86 415.8 243.19 467.26 243.19"/>
  </g>
</svg>
